<svg xmlns="http://www.w3.org/2000/svg" viewBox="0 0 181.56 252.12"><defs><style>.cls-1{fill:#231f20;stroke:#231f20;stroke-miterlimit:10;stroke-width:3px;}.cls-2{fill:#f58c52;}.cls-3{fill:#b95327;}.cls-4,.cls-5{font-size:17px;fill:#fff;}.cls-4{font-family:ShowcardGothic-Reg, Showcard Gothic;}.cls-5{font-family:BerlinSansFBDemi-Bold, Berlin Sans FB Demi;font-weight:700;}.cls-6{fill:#785d42;}.cls-7{fill:#422610;}.cls-8{fill:#353535;}.cls-9{fill:#808184;}.cls-10{fill:#f1eb5a;opacity:0.65;}</style></defs><g id="Layer_2" data-name="Layer 2"><g id="Layer_1-2" data-name="Layer 1"><rect class="cls-1" x="1.5" y="1.5" width="178.56" height="249.12" rx="9.67"/><rect class="cls-2" x="16.54" y="17.41" width="149.84" height="214.63"/><path class="cls-3" d="M169.21,234.87l-9.44.18-9.51.13-19,.23-19.14.1-19.18,0c-12.78,0-25.58-.22-38.3-.38l-19.07-.38-9.5-.2-4.74-.11a5,5,0,0,1-4.74-2.16l-.22-.22L14.87,17.41V15.75h1.68l149.84-.61h2.26l0,2.29q.43,54.06.62,108.52T169.21,234.87Zm-5.66-5.66q-.2-52.85-.07-105.68t.62-106.12l2.28,2.28L16.54,19.08l1.67-1.67L16.76,232l-.22-.22a4.84,4.84,0,0,1,4.63-2.16l4.63-.11,9.23-.2L53.42,229c12.25-.15,24.42-.36,36.61-.38l18.28,0,18.32.1,18.41.23,9.22.13Z"/><text class="cls-4" transform="translate(34.73 166.81)">Bombs away</text><text class="cls-5" transform="translate(21.83 190.24)">Remove a random <tspan x="25.45" y="20.4">card from a </tspan><tspan x="18.03" y="40.8">player’s hand</tspan></text><path class="cls-6" d="M77.86,66.57s-23.32-14-10.22-29.29,23.61-.16,23.61-.16,14.38,26.32,20.31,14.72l6.36,2s-11.53,24-30.24-12.57c0,0-8.62-9.53-15.76.85,0,0-9.85,6.47,7.8,20.91Z"/><path class="cls-7" d="M78,67.06a.85.85,0,0,1-.38,0l-.13-.07-.11-.06-.22-.13-.44-.25L75.84,66c-.58-.36-1.14-.74-1.7-1.12-1.11-.78-2.18-1.62-3.22-2.5a31.47,31.47,0,0,1-5.57-6.1,22.89,22.89,0,0,1-2-3.75,17.27,17.27,0,0,1-1.09-4.24,14.49,14.49,0,0,1,.22-4.45A16.28,16.28,0,0,1,64,39.66c.32-.67.75-1.25,1.12-1.88s.86-1.17,1.3-1.73a28.43,28.43,0,0,1,3-3.06,17.15,17.15,0,0,1,7.8-4.2,13.42,13.42,0,0,1,9,1.39,20,20,0,0,1,3.66,2.53c.55.48,1.07,1,1.58,1.53A19.3,19.3,0,0,1,92.88,36l0,.07.07.11c1.16,2.09,2.44,4.22,3.78,6.25a70,70,0,0,0,4.2,5.92A31.86,31.86,0,0,0,103.32,51a12.46,12.46,0,0,0,2.62,2.1,3.57,3.57,0,0,0,2.74.57,5.14,5.14,0,0,0,2.44-2.05h0l.22-.37.38.12,6.34,2h0l.56.17-.26.52a19.06,19.06,0,0,1-3.17,4.57,12.18,12.18,0,0,1-4.68,3.18,9.33,9.33,0,0,1-5.77.17,15.44,15.44,0,0,1-5.07-2.6,38,38,0,0,1-7.49-8.14,94.12,94.12,0,0,1-5.72-9.34h0l.2.29a13.77,13.77,0,0,0-3.32-2.55,8.05,8.05,0,0,0-3.84-1.06,6.1,6.1,0,0,0-3.67,1.2l-.43.27-.38.36-.77.71c-.48.53-.91,1.12-1.38,1.67h0l-.19.23-.13.09a5.31,5.31,0,0,0-.92.84,6,6,0,0,0-.75,1.11,2.8,2.8,0,0,0-.28.61c-.07.22-.17.42-.22.65a6.18,6.18,0,0,0-.18,1.36,11.52,11.52,0,0,0,1.57,5.6,29.6,29.6,0,0,0,3.73,5c.73.75,1.39,1.57,2.2,2.26L80,62.68h0l.31.27-.19.35C79.49,64.58,78.73,65.86,78,67.06Zm-.27-1c.51-1.14,1-2.2,1.56-3.26l.13.62h0l-2.48-2.06c-.85-.66-1.58-1.47-2.38-2.2a31,31,0,0,1-4.19-5,13.42,13.42,0,0,1-2.14-6.48,8.42,8.42,0,0,1,.15-1.8c.06-.3.17-.59.25-.89a3.68,3.68,0,0,1,.34-.85,7.49,7.49,0,0,1,1-1.58,7.1,7.1,0,0,1,1.37-1.37l-.32.31h0c.51-.66,1-1.34,1.55-2l.92-.89.47-.45.54-.37a8.62,8.62,0,0,1,5-1.74,10.73,10.73,0,0,1,5.09,1.27,16.15,16.15,0,0,1,4.12,3l.1.1.11.2h0A92.13,92.13,0,0,0,94.08,50a36.62,36.62,0,0,0,6.75,8,13.86,13.86,0,0,0,4.38,2.48,7.81,7.81,0,0,0,4.85,0c3.19-1,5.73-3.83,7.4-6.82l.3.69h0l-6.35-2,.6-.25h0a6,6,0,0,1-2.62,3.28,4.59,4.59,0,0,1-2.3.46,4.24,4.24,0,0,1-1.14-.16,6.08,6.08,0,0,1-1-.32,19.54,19.54,0,0,1-6.43-4.8,52.93,52.93,0,0,1-4.86-6c-1.46-2.11-2.81-4.23-4.09-6.49l.11.17a17.79,17.79,0,0,0-2.38-2.58,15.3,15.3,0,0,0-2.89-2,9.77,9.77,0,0,0-6.47-1.11,13.41,13.41,0,0,0-6.18,3.19A27.45,27.45,0,0,0,69,38.32c-.41.46-.79.94-1.18,1.41s-.71,1-1,1.52a13.28,13.28,0,0,0-1.37,3.26A12.54,12.54,0,0,0,65.15,48a14.24,14.24,0,0,0,.7,3.54A20.68,20.68,0,0,0,67.41,55,31.17,31.17,0,0,0,72.15,61C73.06,62,74,62.85,75,63.71c.5.43,1,.85,1.52,1.26l.78.6.4.29.2.15.1.07h0l0,0A.34.34,0,0,0,77.72,66.09Z"/><path class="cls-8" d="M74.56,76.68,67.52,66l18.82-9.08,1.47,15.47S116.12,66.41,126.48,91c13.28,31.56-13.34,43.78-13.34,43.78s-45.33,16-54.88-18C58.26,116.8,52.12,92.23,74.56,76.68Z"/><path d="M74.07,76.58c-1.61-1.81-3.25-3.45-4.81-4.91l-4.35-4-2.14-2,3.39-2.59h0q9.78-3.77,19.51-7.64l2.14-.84,0,2.07.16,7.8.08,3.89a26.55,26.55,0,0,0,.22,3.89l-.6-.44h0a41.62,41.62,0,0,1,12.4-1.29,36.93,36.93,0,0,1,12.45,2.68,31.08,31.08,0,0,1,10.73,7.52,30.71,30.71,0,0,1,2.14,2.55c.61.91,1.29,1.8,1.82,2.77l.83,1.43.74,1.47c.52,1,.88,2,1.31,3a43.82,43.82,0,0,1,3.31,12.62,38.74,38.74,0,0,1,.06,6.73,34.32,34.32,0,0,1-1.29,6.7,33.08,33.08,0,0,1-6.7,11.85,37.23,37.23,0,0,1-4.92,4.64c-.88.7-1.79,1.36-2.75,2-.47.31-1,.61-1.46.9s-.95.54-1.65.88l-.16.07-.16.06c-1.29.43-2.4.75-3.6,1.07s-2.35.6-3.53.86c-2.37.52-4.75.95-7.16,1.27a70.71,70.71,0,0,1-7.29.61,50.94,50.94,0,0,1-7.4-.24A43.28,43.28,0,0,1,78,140.58a34.74,34.74,0,0,1-7.15-2.79l-1.7-.94-1.63-1.08A16,16,0,0,1,66,134.59c-.5-.42-1-.81-1.49-1.27a27.74,27.74,0,0,1-2.65-2.88c-.39-.51-.84-1-1.18-1.54l-1.06-1.62a16.27,16.27,0,0,1-1-1.67l-.88-1.71c-.46-1.18-1-2.33-1.37-3.53l-.54-1.82-.27-.9a3.71,3.71,0,0,1-.13-.57l-.08-.48a35.09,35.09,0,0,1-.39-3.75,43.43,43.43,0,0,1,1.75-14.54,38.58,38.58,0,0,1,6.74-12.83,41.16,41.16,0,0,1,5.05-5.09l1.35-1.15a13.65,13.65,0,0,1,1.34-.9Zm1,.19c-.84.8-1.71,1.65-2.64,2.5-.44.43-1,.86-1.37,1.29l-1.13,1.27a39.59,39.59,0,0,0-4.14,5.3,36.66,36.66,0,0,0-4.94,12.23,39.17,39.17,0,0,0-.54,13c.14,1.07.32,2.14.54,3.14l.09.37a2.22,2.22,0,0,0,.08.28l.27.74.54,1.48c.37,1,.88,1.92,1.3,2.88l.8,1.34a10.43,10.43,0,0,0,.84,1.31l.91,1.24c.29.42.67.77,1,1.16a23,23,0,0,0,2.18,2.12,24.24,24.24,0,0,0,5.09,3.29,27.78,27.78,0,0,0,5.85,2.05,35.35,35.35,0,0,0,6.29.94,59.5,59.5,0,0,0,13-.53c2.18-.32,4.36-.73,6.51-1.23,1.08-.25,2.15-.52,3.21-.82s2.16-.63,3.06-.94l-.32.13c.22-.1.68-.35,1-.55s.76-.45,1.14-.7c.76-.48,1.49-1,2.21-1.56a32.09,32.09,0,0,0,4-3.68,25.69,25.69,0,0,0,6.63-14.29,29.89,29.89,0,0,0,.16-5.44c0-.92-.18-1.84-.28-2.76s-.3-1.84-.51-2.76a45.85,45.85,0,0,0-1.51-5.5c-.33-.89-.61-1.84-1-2.68l-.54-1.29-.62-1.24c-.39-.85-.92-1.61-1.37-2.42s-1-1.56-1.61-2.26a24.61,24.61,0,0,0-3.84-4,26.65,26.65,0,0,0-4.66-3.15c-6.68-3.64-14.88-4.81-22.83-4.23h0l-.59,0V72.4a26.38,26.38,0,0,0-.52-3.85l-.65-3.85L84.82,57,87,58.25q-9.07,5.24-18.12,10.53h0l1.26-4.54c1,2.33,1.89,4.62,2.68,6.73S74.32,75,75.05,76.77Z"/><path class="cls-9" d="M67.7,100S58.81,138.91,100,130.35s15.11-42.77,13.23-44.55c0,0,18.22,33.55-14.67,39S67.7,100,67.7,100Z"/><polygon class="cls-9" points="72.63 67.84 76.63 65.61 77.37 75.09 75.74 75.76 72.63 67.84"/><line class="cls-6" x1="66.88" y1="54.42" x2="71.31" y2="55.57"/><path class="cls-7" d="M67,54.06a6.64,6.64,0,0,1,2.32.2,5.45,5.45,0,0,1,2.12,1l-.19.72a5.61,5.61,0,0,1-2.32-.2,6.66,6.66,0,0,1-2.12-.94Z"/><line class="cls-6" x1="65.33" y1="50.59" x2="69.77" y2="51.73"/><path class="cls-7" d="M65.43,50.22a6.81,6.81,0,0,1,2.31.2,5.8,5.8,0,0,1,2.13.95l-.19.73a5.78,5.78,0,0,1-2.32-.2A6.69,6.69,0,0,1,65.24,51Z"/><line class="cls-6" x1="64.2" y1="47.02" x2="68.64" y2="48.17"/><path class="cls-7" d="M64.29,46.66a6.64,6.64,0,0,1,2.32.2,5.45,5.45,0,0,1,2.12,1l-.19.72a5.55,5.55,0,0,1-2.31-.2,6.43,6.43,0,0,1-2.13-.95Z"/><line class="cls-6" x1="79.81" y1="35.71" x2="84.43" y2="33.14"/><path class="cls-7" d="M79.63,35.38a8.85,8.85,0,0,1,2.12-1.62,7.33,7.33,0,0,1,2.5-.95l.36.66a7.35,7.35,0,0,1-2.12,1.62A8.67,8.67,0,0,1,80,36Z"/><line class="cls-6" x1="82.12" y1="36.99" x2="86.74" y2="34.42"/><path class="cls-7" d="M81.94,36.66A8.85,8.85,0,0,1,84.06,35a7.54,7.54,0,0,1,2.5-.95l.36.66a7.3,7.3,0,0,1-2.12,1.62,8.51,8.51,0,0,1-2.49,1Z"/><line class="cls-6" x1="84.43" y1="38.54" x2="89.05" y2="35.98"/><path class="cls-7" d="M84.25,38.22a8.89,8.89,0,0,1,2.12-1.63,7.32,7.32,0,0,1,2.5-.94l.36.65a7.52,7.52,0,0,1-2.12,1.63,8.73,8.73,0,0,1-2.5.94Z"/><line class="cls-6" x1="100.91" y1="52.91" x2="100.41" y2="57.08"/><path class="cls-7" d="M101.28,53a5.73,5.73,0,0,1,.14,2.13,4.68,4.68,0,0,1-.64,2L100,57a4.67,4.67,0,0,1-.14-2.12,5.51,5.51,0,0,1,.64-2Z"/><line class="cls-6" x1="103.16" y1="54.79" x2="102.66" y2="58.96"/><path class="cls-7" d="M103.53,54.84a5.53,5.53,0,0,1,.14,2.13,4.68,4.68,0,0,1-.64,2l-.74-.09a4.66,4.66,0,0,1-.13-2.12,5.68,5.68,0,0,1,.63-2Z"/><line class="cls-6" x1="112.18" y1="52.36" x2="111.27" y2="48.5"/><path class="cls-7" d="M111.81,52.45a5.24,5.24,0,0,1-.83-1.84,4.41,4.41,0,0,1-.08-2l.73-.17a4.26,4.26,0,0,1,.84,1.84,5.06,5.06,0,0,1,.07,2Z"/><line class="cls-6" x1="113.66" y1="51.42" x2="114.33" y2="47.63"/><path class="cls-7" d="M113.29,51.35a4.81,4.81,0,0,1-.05-2,4.05,4.05,0,0,1,.72-1.82l.74.13a4.07,4.07,0,0,1,0,2,4.61,4.61,0,0,1-.71,1.82Z"/><line class="cls-6" x1="116.16" y1="51.86" x2="116.83" y2="48.07"/><path class="cls-7" d="M115.79,51.79a4.81,4.81,0,0,1,0-2,3.92,3.92,0,0,1,.71-1.82l.74.13a4.08,4.08,0,0,1,0,2,4.79,4.79,0,0,1-.72,1.82Z"/><line class="cls-6" x1="117.23" y1="54.27" x2="119.67" y2="52.7"/><path class="cls-7" d="M117,54a2.87,2.87,0,0,1,1-1.11,2.49,2.49,0,0,1,1.43-.46l.41.64a2.51,2.51,0,0,1-1,1.11,2.85,2.85,0,0,1-1.43.45Z"/><line class="cls-6" x1="110.41" y1="54.57" x2="116.29" y2="55.92"/><path class="cls-7" d="M110.49,54.21a11.68,11.68,0,0,1,3,.29,9.59,9.59,0,0,1,2.86,1l-.17.73a9.56,9.56,0,0,1-3-.29,11.34,11.34,0,0,1-2.86-1.05Z"/><line class="cls-6" x1="109.19" y1="55.81" x2="113.35" y2="58.46"/><path class="cls-7" d="M109.39,55.49a7.74,7.74,0,0,1,2.29,1,6.51,6.51,0,0,1,1.87,1.65l-.4.64a6.57,6.57,0,0,1-2.29-1A7.9,7.9,0,0,1,109,56.13Z"/><line class="cls-6" x1="98.92" y1="51.4" x2="98.42" y2="55.57"/><path class="cls-7" d="M99.29,51.44a5.53,5.53,0,0,1,.13,2.13,4.8,4.8,0,0,1-.63,2L98,55.52a4.84,4.84,0,0,1-.13-2.13,5.69,5.69,0,0,1,.63-2Z"/><path class="cls-10" d="M33,64.86S44.67,85.28,56.4,87.51c0,0-16.21,6.57-8.27,27.27,0,0-15.77-3.22-23,7.41,0,0,2.47-15.1,10.69-20.28A39.89,39.89,0,0,0,10.8,90.45S27,83.88,37.07,87.23C37.07,87.23,32.09,78.57,33,64.86Z"/><path class="cls-10" d="M147.2,164.08s-9-21.68-20.42-25.33c0,0,16.89-4.55,11.53-26,0,0,15.27,5.11,23.69-4.56,0,0-4.29,14.69-13.08,18.82A39.84,39.84,0,0,0,172.4,141.4s-16.93,4.54-26.47,0C145.93,141.38,149.82,150.59,147.2,164.08Z"/></g></g></svg>