<svg xmlns="http://www.w3.org/2000/svg" viewBox="0 0 376.89 357.11"><defs><style>.cls-1{fill:#bcb954;}.cls-2{fill:#231f20;}.cls-3,.cls-4{fill:#e8e97e;}.cls-4{stroke:#231f20;stroke-miterlimit:10;stroke-width:2.29px;}.cls-5{fill:#603813;}.cls-6{fill:#482a13;}.cls-7{fill:#a2964d;}.cls-8{fill:#7b6f30;}.cls-9{fill:#fff;opacity:0.61;}</style></defs><g id="Layer_2" data-name="Layer 2"><g id="Layer_1-2" data-name="Layer 1"><ellipse class="cls-1" cx="325.55" cy="230.07" rx="17.75" ry="7.71"/><path class="cls-2" d="M344.52,230.07a5.56,5.56,0,0,1-1.06,3.18,9.61,9.61,0,0,1-2.17,2.11,19.33,19.33,0,0,1-5,2.49,36.75,36.75,0,0,1-10.71,1.87,47.36,47.36,0,0,1-5.45-.2,33.35,33.35,0,0,1-5.44-1.08,19.66,19.66,0,0,1-5.31-2.41,9.52,9.52,0,0,1-1.25-1,8.86,8.86,0,0,1-1.17-1.26,6.5,6.5,0,0,1-1.3-3.71,6.41,6.41,0,0,1,1.34-3.68,9.24,9.24,0,0,1,1.18-1.23,10,10,0,0,1,1.26-1,18.74,18.74,0,0,1,5.31-2.28,34.29,34.29,0,0,1,5.41-1,44.68,44.68,0,0,1,5.42-.17,39,39,0,0,1,10.63,1.81,18.68,18.68,0,0,1,5,2.43,10.72,10.72,0,0,1,1.13.91,7.26,7.26,0,0,1,1,1.1A5.34,5.34,0,0,1,344.52,230.07Zm-2.44,0a3.13,3.13,0,0,0-.58-1.71,6.36,6.36,0,0,0-1.64-1.48,16.1,16.1,0,0,0-4.44-1.86,30.84,30.84,0,0,0-4.88-.9,41.59,41.59,0,0,0-5-.14,35.19,35.19,0,0,0-9.67,1.67,16,16,0,0,0-4.11,2,5.93,5.93,0,0,0-1.37,1.3,2.24,2.24,0,0,0-.43,1.11,2.21,2.21,0,0,0,.47,1.08,5.91,5.91,0,0,0,1.39,1.24,15.36,15.36,0,0,0,4.11,1.89,36.86,36.86,0,0,0,9.61,1.57,48.05,48.05,0,0,0,4.95-.14,31.19,31.19,0,0,0,4.84-.84,15.84,15.84,0,0,0,4.39-1.8,6.81,6.81,0,0,0,1.64-1.39A3,3,0,0,0,342.08,230.07Z"/><ellipse class="cls-3" cx="325.55" cy="223.43" rx="17.75" ry="7.71"/><path class="cls-2" d="M344.51,223.43a5.52,5.52,0,0,1-1.15,3.1,10,10,0,0,1-2.2,2,20,20,0,0,1-5,2.31,37.59,37.59,0,0,1-10.6,1.62,36.73,36.73,0,0,1-10.69-1.31,18.81,18.81,0,0,1-5.16-2.27,9.54,9.54,0,0,1-2.31-2.08,5.88,5.88,0,0,1-1.22-3.36,6,6,0,0,1,1.19-3.39,9.73,9.73,0,0,1,2.29-2.13,18.29,18.29,0,0,1,5.15-2.38,35.88,35.88,0,0,1,10.75-1.41,37.07,37.07,0,0,1,10.67,1.67,18.93,18.93,0,0,1,5,2.42,9.44,9.44,0,0,1,2.18,2.07A5.5,5.5,0,0,1,344.51,223.43Zm-2.42,0a3.19,3.19,0,0,0-.68-1.64,7.15,7.15,0,0,0-1.64-1.42,15.93,15.93,0,0,0-4.38-1.88,34.51,34.51,0,0,0-9.84-1.18c-1.66.05-3.32.17-5,.38a31.79,31.79,0,0,0-4.8,1.06,16.85,16.85,0,0,0-4.26,1.91A6.77,6.77,0,0,0,310,222a2.08,2.08,0,0,0,0,2.83,6.62,6.62,0,0,0,1.5,1.42,16.1,16.1,0,0,0,4.26,2,34.56,34.56,0,0,0,9.81,1.54,34,34,0,0,0,9.91-1.23,15.55,15.55,0,0,0,4.4-2,6.46,6.46,0,0,0,1.61-1.5A3.11,3.11,0,0,0,342.09,223.43Z"/><line class="cls-3" x1="307.8" y1="223.43" x2="307.8" y2="230.07"/><polygon class="cls-2" points="309.6 223.43 310.07 230.07 305.53 230.07 306.01 223.43 309.6 223.43"/><line class="cls-4" x1="343.3" y1="230.07" x2="343.3" y2="223.43"/><ellipse class="cls-1" cx="327.56" cy="219.04" rx="17.75" ry="7.71"/><path class="cls-2" d="M346.53,219a5.53,5.53,0,0,1-1.06,3.17,9.41,9.41,0,0,1-2.17,2.11,19,19,0,0,1-5,2.49,36.3,36.3,0,0,1-10.71,1.87,43.25,43.25,0,0,1-5.45-.2,32.3,32.3,0,0,1-5.44-1.07,19.66,19.66,0,0,1-5.31-2.41,9.61,9.61,0,0,1-1.25-1,7.82,7.82,0,0,1-1.16-1.26,6.41,6.41,0,0,1-1.31-3.7,6.32,6.32,0,0,1,1.35-3.68,8.09,8.09,0,0,1,1.17-1.23,10,10,0,0,1,1.26-1,18.77,18.77,0,0,1,5.31-2.29,35.37,35.37,0,0,1,5.42-1,44.5,44.5,0,0,1,5.41-.16,38.65,38.65,0,0,1,10.64,1.8,19,19,0,0,1,5,2.44,8,8,0,0,1,1.13.91,8.36,8.36,0,0,1,1.05,1.09A5.46,5.46,0,0,1,346.53,219Zm-2.44,0a3,3,0,0,0-.58-1.71,6,6,0,0,0-1.64-1.48,16.43,16.43,0,0,0-4.44-1.87,31.56,31.56,0,0,0-4.88-.89,39.5,39.5,0,0,0-5-.15,35.26,35.26,0,0,0-9.67,1.68,15.82,15.82,0,0,0-4.1,2,6,6,0,0,0-1.38,1.29,1.59,1.59,0,0,0,0,2.2,6,6,0,0,0,1.4,1.24,15.14,15.14,0,0,0,4.1,1.88,36.46,36.46,0,0,0,9.61,1.58,45.39,45.39,0,0,0,4.95-.15,31.51,31.51,0,0,0,4.85-.83,16.23,16.23,0,0,0,4.38-1.81,7,7,0,0,0,1.64-1.38A3.08,3.08,0,0,0,344.09,219Z"/><ellipse class="cls-3" cx="327.56" cy="212.39" rx="17.75" ry="7.71"/><path class="cls-2" d="M346.52,212.39a5.4,5.4,0,0,1-1.15,3.1,9.76,9.76,0,0,1-2.2,2,19.73,19.73,0,0,1-5,2.32,37.17,37.17,0,0,1-10.6,1.61,36.72,36.72,0,0,1-10.69-1.3,18.66,18.66,0,0,1-5.15-2.28,9.55,9.55,0,0,1-2.32-2.07,5.31,5.31,0,0,1,0-6.75,9.69,9.69,0,0,1,2.28-2.13,18.42,18.42,0,0,1,5.15-2.38,35.92,35.92,0,0,1,10.75-1.41,37,37,0,0,1,10.67,1.67,18.89,18.89,0,0,1,5,2.41,9.46,9.46,0,0,1,2.18,2.07A5.55,5.55,0,0,1,346.52,212.39Zm-2.42,0a3.11,3.11,0,0,0-.68-1.63,6.72,6.72,0,0,0-1.64-1.42,16.12,16.12,0,0,0-4.38-1.89,34.87,34.87,0,0,0-9.84-1.17,45.61,45.61,0,0,0-5,.38,31.64,31.64,0,0,0-4.79,1.05,16.78,16.78,0,0,0-4.27,1.92A6.77,6.77,0,0,0,312,211a2.61,2.61,0,0,0-.57,1.4,2.71,2.71,0,0,0,.54,1.43,6.37,6.37,0,0,0,1.5,1.41,16.12,16.12,0,0,0,4.26,2,35.78,35.78,0,0,0,19.72.31,15.42,15.42,0,0,0,4.4-2,6.72,6.72,0,0,0,1.62-1.51A3.15,3.15,0,0,0,344.1,212.39Z"/><line class="cls-3" x1="309.81" y1="212.39" x2="309.81" y2="219.04"/><polygon class="cls-2" points="311.61 212.39 312.09 219.04 307.54 219.04 308.02 212.39 311.61 212.39"/><line class="cls-4" x1="345.31" y1="219.04" x2="345.31" y2="212.39"/><ellipse class="cls-1" cx="323.33" cy="208" rx="17.75" ry="7.71"/><path class="cls-2" d="M342.3,208a5.57,5.57,0,0,1-1.07,3.18,9.58,9.58,0,0,1-2.16,2.11,19.17,19.17,0,0,1-5,2.49,36.42,36.42,0,0,1-10.71,1.87,47.45,47.45,0,0,1-5.46-.2,33.56,33.56,0,0,1-5.44-1.08,19.07,19.07,0,0,1-5.31-2.41,10.23,10.23,0,0,1-1.25-1,8.85,8.85,0,0,1-1.16-1.26A6.51,6.51,0,0,1,303.4,208a6.29,6.29,0,0,1,1.35-3.67,8.62,8.62,0,0,1,1.17-1.23,10.9,10.9,0,0,1,1.26-1,18.67,18.67,0,0,1,5.32-2.28,33.87,33.87,0,0,1,5.41-1,46.81,46.81,0,0,1,5.42-.17A39,39,0,0,1,334,200.48a18.36,18.36,0,0,1,5,2.44,9.58,9.58,0,0,1,1.14.9,8.42,8.42,0,0,1,1,1.1A5.54,5.54,0,0,1,342.3,208Zm-2.45,0a3,3,0,0,0-.58-1.7,6.17,6.17,0,0,0-1.63-1.49A16.54,16.54,0,0,0,333.2,203a32,32,0,0,0-4.88-.9,41.59,41.59,0,0,0-5-.14,35.26,35.26,0,0,0-9.68,1.67,16,16,0,0,0-4.1,2,6.22,6.22,0,0,0-1.38,1.3,2.31,2.31,0,0,0-.42,1.11,2.21,2.21,0,0,0,.46,1.09,6.45,6.45,0,0,0,1.4,1.24,15.52,15.52,0,0,0,4.11,1.88,36.32,36.32,0,0,0,9.61,1.57,47.86,47.86,0,0,0,4.94-.14,31.51,31.51,0,0,0,4.85-.83A16.1,16.1,0,0,0,337.5,211a6.87,6.87,0,0,0,1.65-1.38A3.06,3.06,0,0,0,339.85,208Z"/><ellipse class="cls-3" cx="323.33" cy="201.36" rx="17.75" ry="7.71"/><path class="cls-2" d="M342.29,201.36a5.41,5.41,0,0,1-1.16,3.1,9.57,9.57,0,0,1-2.2,2,19.54,19.54,0,0,1-5,2.31,39.53,39.53,0,0,1-21.29.32,18.92,18.92,0,0,1-5.15-2.28,9.54,9.54,0,0,1-2.31-2.08,5.28,5.28,0,0,1,0-6.74,9.73,9.73,0,0,1,2.29-2.13,18,18,0,0,1,5.15-2.38,35.21,35.21,0,0,1,10.75-1.41A36.61,36.61,0,0,1,334,193.73a18.45,18.45,0,0,1,5,2.41,9.25,9.25,0,0,1,2.18,2.07A5.54,5.54,0,0,1,342.29,201.36Zm-2.43,0a3.11,3.11,0,0,0-.68-1.64,7.18,7.18,0,0,0-1.64-1.42,16.42,16.42,0,0,0-4.38-1.88,34.8,34.8,0,0,0-9.83-1.18c-1.67,0-3.33.17-5,.38a31.66,31.66,0,0,0-4.79,1.06,16.71,16.71,0,0,0-4.26,1.92,6.19,6.19,0,0,0-1.53,1.36,2.78,2.78,0,0,0-.57,1.4,2.74,2.74,0,0,0,.54,1.43,6.44,6.44,0,0,0,1.51,1.41,15.59,15.59,0,0,0,4.25,2,35.91,35.91,0,0,0,19.72.32,15.5,15.5,0,0,0,4.41-2,6.64,6.64,0,0,0,1.61-1.5A3.15,3.15,0,0,0,339.86,201.36Z"/><line class="cls-3" x1="305.58" y1="201.36" x2="305.58" y2="208"/><polygon class="cls-2" points="307.37 201.36 307.85 208 303.3 208 303.78 201.36 307.37 201.36"/><line class="cls-4" x1="341.07" y1="208" x2="341.07" y2="201.36"/><path class="cls-5" d="M304.28,105.44c17.11-66-31.76-72.07-31.76-72.07L143.59,48.91c-90.4,0-56.19,61.08-70.85,95.28s-40.31,44-40.31,44L62.6,285.9l140.85,26.87,100.83-47.31,30.54-106.27S287.18,171.4,304.28,105.44Z"/><path class="cls-2" d="M17.2,180.74a17.87,17.87,0,0,1,5-6,18.35,18.35,0,0,1,3.34-2c1.31-.57.38-.16.68-.29l.15,0c.08,0,.19-.06.35-.13s.55-.21.89-.37l1-.45,1-.52c1.36-.7,2.76-1.51,4.13-2.4a64.09,64.09,0,0,0,8-6.1,73.55,73.55,0,0,0,13.28-16l1.41-2.28c.48-.75.84-1.58,1.28-2.37.79-1.54,1.83-3.37,2.23-4.43a40.56,40.56,0,0,0,2.57-9c.61-3.46,1-7.28,1.29-11.26s.52-8.19.82-12.55c.61-8.67,1.48-18.2,4.81-28.07A52.8,52.8,0,0,1,77,62.08,46.55,46.55,0,0,1,82.5,55.9c1-.9,2.08-1.79,3.14-2.66s2.2-1.55,3.3-2.32l1.68-1.1,1.73-.93c1.15-.6,2.3-1.25,3.46-1.79l3.5-1.45c.59-.23,1.17-.5,1.76-.7l1.75-.55,3.51-1.09c1.17-.32,2.33-.55,3.49-.82s2.33-.54,3.48-.76l3.45-.52A152.44,152.44,0,0,1,143.67,40a112,112,0,0,1,27,4.24,64.84,64.84,0,0,1,24.83,13.52,53.59,53.59,0,0,1,9.19,11l1,1.5c.32.5.56,1,.84,1.57L208.09,75c.47,1.08.9,2.17,1.34,3.25.22.55.45,1.08.65,1.63l.53,1.66a78.71,78.71,0,0,1,3.49,26.74,119.06,119.06,0,0,1-3.78,25.88c-.53,2.11-1.13,4.2-1.82,6.3l-.26.8L208,142c-.15.43-.3.88-.44,1.35-.29.92-.53,1.87-.76,2.83A51.75,51.75,0,0,0,205.4,158a51,51,0,0,0,.38,5.92,42.53,42.53,0,0,0,1.22,5.81,36.44,36.44,0,0,0,5,10.76,41,41,0,0,0,8.23,8.84,55.78,55.78,0,0,0,10.43,6.57h0l.63.23-.11.81L215,315.44h0l-3.67,11.71-10.11-2.74L62.43,286.78H62l-.3-.61c-7.6-15.58-15.51-32.13-23.12-49.81S23.77,199.94,17.2,180.74ZM47.66,195.6C51.15,209,54,222.8,56.41,237.72s4.6,30.92,7.05,47.91l-.69-.62h0l142.9,16.11-13.78,9h0l37.55-113.57.52,1h0a59.71,59.71,0,0,1-11.38-6,43,43,0,0,1-19-33.34,58.75,58.75,0,0,1,.49-13.31c.17-1.11.36-2.21.61-3.32.12-.55.25-1.11.4-1.69l.21-.75.17-.71c.47-1.94.88-3.94,1.22-5.94a110.33,110.33,0,0,0,1.59-24.14,67.79,67.79,0,0,0-4.77-22.74L199,84.33c-.2-.43-.42-.84-.63-1.26l-1.26-2.49-1.46-2.34c-.25-.38-.46-.8-.74-1.15L194,76a40.41,40.41,0,0,0-7.52-7.71,50.28,50.28,0,0,0-19.92-8.74,95.69,95.69,0,0,0-22.94-1.71,133.87,133.87,0,0,0-23.27,2.89l-2.75.64c-.89.24-1.74.54-2.62.8s-1.75.52-2.59.83L110,64l-1.22.48c-.4.17-.75.39-1.13.58l-2.24,1.13c-.71.41-1.35.88-2,1.3l-1,.63-.89.73a23,23,0,0,0-5.85,6.44,29.42,29.42,0,0,0-3.44,8.24c-1.55,6.26-1.84,13.68-1.73,21.77s.53,16.8-.31,26.53A70,70,0,0,1,87,147.31c-1,2.92-1.88,4.82-2.82,7.1-.49,1.1-.91,2.23-1.47,3.31L81.07,161a104.49,104.49,0,0,1-16.93,24.1,96,96,0,0,1-11.25,10.18,77.77,77.77,0,0,1-6.42,4.48l-1.71,1.06-1.81,1c-.58.34-1.28.68-1.93,1l-1.08.53-.58.27.5-.22A16.68,16.68,0,0,0,43,201.46,16.25,16.25,0,0,0,47.66,195.6Z"/><path class="cls-2" d="M143.48,48c10.57-2.8,21.17-5.24,31.8-7.51s21.27-4.4,31.93-6.35,21.35-3.82,32-5.59l16-2.53c5.35-.84,10.71-1.59,16.06-2.38l1.15-.17,1.24.17,1.13.16.89.15c.56.11,1.13.22,1.66.34,1.08.24,2.13.5,3.16.82a53.24,53.24,0,0,1,6.05,2.2,52.69,52.69,0,0,1,11.18,6.53,49.87,49.87,0,0,1,15.77,20.71,55,55,0,0,1,3.47,12.21c.41,2.06.54,4.08.76,6.12.12,1,.1,2,.14,3s.08,2,.06,3c-.09,2-.09,4-.27,5.92l-.28,2.92c-.09,1-.18,1.95-.36,2.89-.33,1.9-.57,3.82-1,5.68s-.79,3.73-1.25,5.56-1,3.62-1.53,5.43l-1.4,4.79c-.86,3.16-1.73,6.32-2.35,9.46-.39,1.59-.53,3.13-.84,4.7-.16.79-.22,1.55-.31,2.33l-.26,2.32a48.91,48.91,0,0,0,.1,8.91,22.8,22.8,0,0,0,2.33,7.79,16,16,0,0,0,5.41,6c4.78,3.3,11.73,4.68,18.59,4.64h0l1.34-.55-.25,1.68L319.08,269.71h0l-1.36,6-6.9,3.68A270.23,270.23,0,0,1,285.48,291c-8.62,3.47-17.37,6.67-26.22,9.67s-17.74,5.9-27,8.09c-4.61,1.09-9.3,2-14.09,2.76a105.47,105.47,0,0,1-14.76,1.3,104.85,104.85,0,0,1,10.44-10.52c3.62-3.22,7.33-6.22,11.12-9.08,7.58-5.69,15.51-10.64,23.46-15.55s16-9.58,24.2-14a268.94,268.94,0,0,1,25.08-12.1l-8.26,9.68h0L334,158.94l1.1,1.12h0a34.33,34.33,0,0,1-10.85,2.71,29,29,0,0,1-11.81-1.34,24.58,24.58,0,0,1-5.77-2.8c-.89-.62-1.78-1.28-2.62-2l-1.21-1.13a11.83,11.83,0,0,1-1.15-1.2,32.94,32.94,0,0,1-6.3-11.24,53.57,53.57,0,0,1-2.33-12l-.14-2.94c0-1-.11-2-.07-2.93,0-1.92,0-3.9.22-5.77a106,106,0,0,1,1.38-11.25l1.91-10.27c.28-1.6.47-3.19.71-4.78s.32-3.17.49-4.74.18-3.12.28-4.68,0-3.06,0-4.59-.2-3-.32-4.47-.31-2.92-.64-4.3a39.72,39.72,0,0,0-2.29-8,30.24,30.24,0,0,0-9.24-12.55,32.13,32.13,0,0,0-6.82-4.27,35.47,35.47,0,0,0-3.8-1.53c-.64-.21-1.28-.42-1.9-.59l-.91-.24-.41-.09-.16,0h2.38c-5.39.5-10.77,1-16.17,1.51l-16.18,1.35c-10.8.83-21.61,1.59-32.44,2.19s-21.67,1.08-32.53,1.42-21.75.47-32.67.27Z"/><polygon class="cls-6" points="316.17 175.37 284.84 250.35 226.98 281.69 244.46 203.95 316.17 175.37"/><polygon class="cls-6" points="66.68 200.94 107.06 200.94 154.06 281.69 69.69 275.06 66.68 200.94"/><path class="cls-6" d="M222.76,102.71l62.08-9.64s-33.15,69.9,5.42,71.11l-59.94,16.66S204.08,175.63,222.76,102.71Z"/><path class="cls-2" d="M39,184.74l167.67-9.37s9.48,14.12,23.62,21.35Z"/><path class="cls-2" d="M305.32,149.86,206.7,175.37l9.35,14.18,14.27,7.17,104.5-37.53S313.34,162.71,305.32,149.86Z"/><path class="cls-7" d="M245.77,126.72s-19.23,10.86-2.35,30.68l5.73,23.44,37.72-23.29-14.38-12.92S268.82,118.94,245.77,126.72Z"/><path class="cls-2" d="M246.31,127.93l.07,0,0,0-.1.07-.22.13-.43.29c-.29.2-.57.41-.85.62a19.07,19.07,0,0,0-1.6,1.38,17.83,17.83,0,0,0-2.69,3.21,13.66,13.66,0,0,0-2.34,7.7,14.89,14.89,0,0,0,.62,4,20.07,20.07,0,0,0,1.65,3.74,25.69,25.69,0,0,0,5.35,6.4h0l.4.46.23.78,6.81,23.18h0L247,177.32,285.29,155l-.43,4.81h0l-13.25-14.18-.42-.44v-.35h0a69,69,0,0,0-4.31-7.71,22.52,22.52,0,0,0-5.29-5.83,24.14,24.14,0,0,0-6.72-3.43,14.87,14.87,0,0,0-4.26-.61,18.49,18.49,0,0,0-2.22.2C247.67,127.56,247,127.75,246.31,127.93Zm-1.08-2.42c.81-.26,1.64-.56,2.44-.84s1.57-.54,2.38-.76,1.63-.5,2.48-.68a20.35,20.35,0,0,1,2.63-.48,15.5,15.5,0,0,1,5.57.34,14.06,14.06,0,0,1,5.1,2.58,20.12,20.12,0,0,1,6.39,8.7,24.53,24.53,0,0,1,1.36,5,20.69,20.69,0,0,1,.22,5.11h0l-.43-.79,15.52,11.65h0l3,2.56-3.43,2.24-37.14,24.25-4.67,3-1.52-5.59h0l-4.63-23.71.63,1.24h0a45.24,45.24,0,0,1-4.56-8.52,25.27,25.27,0,0,1-1.38-4.69,21.44,21.44,0,0,1-.29-4.93,18.19,18.19,0,0,1,3.3-9.1,23.92,23.92,0,0,1,3.13-3.6c.57-.54,1.17-1.06,1.79-1.55.31-.25.63-.48,1-.71l.5-.34.26-.17.13-.08.07,0Z"/><path class="cls-8" d="M241.74,129.93l14.65,15.14,2.54,4,13.56-4.45,12.57,13-34.79,22.55-8-25.11S231.1,144.94,241.74,129.93Z"/><path class="cls-2" d="M246.31,127.93l.07,0,0,0-.1.07-.22.13-.43.29c-.29.2-.57.41-.85.62a19.07,19.07,0,0,0-1.6,1.38,17.83,17.83,0,0,0-2.69,3.21,13.66,13.66,0,0,0-2.34,7.7,14.89,14.89,0,0,0,.62,4,20.07,20.07,0,0,0,1.65,3.74,25.69,25.69,0,0,0,5.35,6.4h0l.4.46.23.78,6.81,23.18h0L247,177.32,285.29,155l-.43,4.81h0l-13.25-14.18-.42-.44v-.35h0a69,69,0,0,0-4.31-7.71,22.52,22.52,0,0,0-5.29-5.83,24.14,24.14,0,0,0-6.72-3.43,14.87,14.87,0,0,0-4.26-.61,18.49,18.49,0,0,0-2.22.2C247.67,127.56,247,127.75,246.31,127.93Zm-1.08-2.42c.81-.26,1.64-.56,2.44-.84s1.57-.54,2.38-.76,1.63-.5,2.48-.68a20.35,20.35,0,0,1,2.63-.48,15.5,15.5,0,0,1,5.57.34,14.06,14.06,0,0,1,5.1,2.58,20.12,20.12,0,0,1,6.39,8.7,24.53,24.53,0,0,1,1.36,5,20.69,20.69,0,0,1,.22,5.11h0l-.43-.79,15.52,11.65h0l3,2.56-3.43,2.24-37.14,24.25-4.67,3-1.52-5.59h0l-4.63-23.71.63,1.24h0a45.24,45.24,0,0,1-4.56-8.52,25.27,25.27,0,0,1-1.38-4.69,21.44,21.44,0,0,1-.29-4.93,18.19,18.19,0,0,1,3.3-9.1,23.92,23.92,0,0,1,3.13-3.6c.57-.54,1.17-1.06,1.79-1.55.31-.25.63-.48,1-.71l.5-.34.26-.17.13-.08.07,0Z"/><path class="cls-2" d="M266.37,156l-5.81-7a5.75,5.75,0,0,0,2.54-4.62c0-3.35-3.19-6.07-7.12-6.07s-7.12,2.72-7.12,6.07a6.21,6.21,0,0,0,4.73,5.7l1.8,13.22Z"/><ellipse class="cls-1" cx="54.14" cy="299.35" rx="17.75" ry="7.71"/><path class="cls-2" d="M73.11,299.35a5.53,5.53,0,0,1-1.06,3.17,9.61,9.61,0,0,1-2.17,2.11,19,19,0,0,1-5,2.49A36.36,36.36,0,0,1,54.14,309a45.21,45.21,0,0,1-5.45-.2,33.32,33.32,0,0,1-5.44-1.07,19.4,19.4,0,0,1-5.31-2.42,8.75,8.75,0,0,1-1.25-1,8.35,8.35,0,0,1-1.17-1.26,6.5,6.5,0,0,1-1.3-3.7,6.32,6.32,0,0,1,1.35-3.68,8.09,8.09,0,0,1,1.17-1.23,10,10,0,0,1,1.26-1,18.77,18.77,0,0,1,5.31-2.29,34.2,34.2,0,0,1,5.42-1,44.5,44.5,0,0,1,5.41-.16,38.65,38.65,0,0,1,10.64,1.8,19.12,19.12,0,0,1,5,2.44,8.66,8.66,0,0,1,1.13.91,8.36,8.36,0,0,1,1.05,1.09A5.46,5.46,0,0,1,73.11,299.35Zm-2.44,0a3,3,0,0,0-.58-1.71,6,6,0,0,0-1.64-1.48A16.43,16.43,0,0,0,64,294.29a31.78,31.78,0,0,0-4.88-.89,39.56,39.56,0,0,0-5-.15,35.2,35.2,0,0,0-9.67,1.68,15.73,15.73,0,0,0-4.11,2A6.12,6.12,0,0,0,39,298.23a2.27,2.27,0,0,0-.43,1.12,2.21,2.21,0,0,0,.47,1.08,6,6,0,0,0,1.4,1.24,15.45,15.45,0,0,0,4.1,1.88,36.46,36.46,0,0,0,9.61,1.58c1.65,0,3.31,0,5-.15a31.18,31.18,0,0,0,4.84-.83,16.17,16.17,0,0,0,4.39-1.81A7,7,0,0,0,70,301,3.08,3.08,0,0,0,70.67,299.35Z"/><ellipse class="cls-3" cx="54.14" cy="292.7" rx="17.75" ry="7.71"/><path class="cls-2" d="M73.1,292.7A5.47,5.47,0,0,1,72,295.8a9.76,9.76,0,0,1-2.2,2,19.73,19.73,0,0,1-5,2.32,37.17,37.17,0,0,1-10.6,1.61,36.72,36.72,0,0,1-10.69-1.3,18.85,18.85,0,0,1-5.16-2.28A9.7,9.7,0,0,1,36,296.07a5.31,5.31,0,0,1,0-6.75,9.69,9.69,0,0,1,2.28-2.13,18.42,18.42,0,0,1,5.15-2.38,35.92,35.92,0,0,1,10.75-1.41,36.73,36.73,0,0,1,10.67,1.67,18.89,18.89,0,0,1,5,2.41A9.66,9.66,0,0,1,72,289.55,5.55,5.55,0,0,1,73.1,292.7Zm-2.42,0a3.11,3.11,0,0,0-.68-1.63,6.91,6.91,0,0,0-1.64-1.42A16.12,16.12,0,0,0,64,287.76a34.87,34.87,0,0,0-9.84-1.18,48.27,48.27,0,0,0-5,.39,30.23,30.23,0,0,0-4.79,1,16.78,16.78,0,0,0-4.27,1.92,6.77,6.77,0,0,0-1.52,1.36,2.61,2.61,0,0,0-.57,1.4,2.71,2.71,0,0,0,.54,1.43,6.37,6.37,0,0,0,1.5,1.41,15.8,15.8,0,0,0,4.26,2,35.66,35.66,0,0,0,19.72.32,15.3,15.3,0,0,0,4.4-2,6.69,6.69,0,0,0,1.62-1.5A3.15,3.15,0,0,0,70.68,292.7Z"/><line class="cls-3" x1="36.39" y1="292.7" x2="36.39" y2="299.35"/><polygon class="cls-2" points="38.19 292.7 38.66 299.35 34.12 299.35 34.6 292.7 38.19 292.7"/><line class="cls-4" x1="71.89" y1="299.35" x2="71.89" y2="292.7"/><ellipse class="cls-1" cx="54.14" cy="288.31" rx="17.75" ry="7.71"/><path class="cls-2" d="M73.11,288.31a5.56,5.56,0,0,1-1.06,3.18,9.61,9.61,0,0,1-2.17,2.11,19.33,19.33,0,0,1-5,2.49A36.36,36.36,0,0,1,54.14,298a47.36,47.36,0,0,1-5.45-.2,33.35,33.35,0,0,1-5.44-1.08,19.36,19.36,0,0,1-5.31-2.41,9.52,9.52,0,0,1-1.25-1A8.35,8.35,0,0,1,35.52,292a6.5,6.5,0,0,1-1.3-3.71,6.29,6.29,0,0,1,1.35-3.67,8.68,8.68,0,0,1,1.17-1.24,11.05,11.05,0,0,1,1.26-1,18.74,18.74,0,0,1,5.31-2.28,34.2,34.2,0,0,1,5.42-1,46.63,46.63,0,0,1,5.41-.17,39,39,0,0,1,10.64,1.81,18.77,18.77,0,0,1,5,2.43,10.72,10.72,0,0,1,1.13.91,7.86,7.86,0,0,1,1.05,1.1A5.46,5.46,0,0,1,73.11,288.31Zm-2.44,0a3,3,0,0,0-.58-1.7,6.07,6.07,0,0,0-1.64-1.49A16.41,16.41,0,0,0,64,283.26a31.79,31.79,0,0,0-4.88-.9,41.53,41.53,0,0,0-5-.14,35.19,35.19,0,0,0-9.67,1.67,16,16,0,0,0-4.11,2A6.15,6.15,0,0,0,39,287.2a1.57,1.57,0,0,0,0,2.2,6,6,0,0,0,1.4,1.23,15.15,15.15,0,0,0,4.1,1.89,36.86,36.86,0,0,0,9.61,1.57,48.05,48.05,0,0,0,5-.14,30,30,0,0,0,4.84-.84,15.84,15.84,0,0,0,4.39-1.8A7,7,0,0,0,70,289.93,3.07,3.07,0,0,0,70.67,288.31Z"/><ellipse class="cls-3" cx="54.14" cy="281.67" rx="17.75" ry="7.71"/><path class="cls-2" d="M73.1,281.67a5.52,5.52,0,0,1-1.15,3.1,10,10,0,0,1-2.2,2,19.7,19.7,0,0,1-5,2.31,37.18,37.18,0,0,1-10.6,1.62,37.07,37.07,0,0,1-10.69-1.3,18.85,18.85,0,0,1-5.16-2.28A9.54,9.54,0,0,1,36,285a5.3,5.3,0,0,1,0-6.74,10,10,0,0,1,2.28-2.14,18.42,18.42,0,0,1,5.15-2.38,35.92,35.92,0,0,1,10.75-1.41A36.74,36.74,0,0,1,64.81,274a18.59,18.59,0,0,1,5,2.41A9.44,9.44,0,0,1,72,278.52,5.5,5.5,0,0,1,73.1,281.67Zm-2.42,0A3.11,3.11,0,0,0,70,280a7.39,7.39,0,0,0-1.64-1.42A15.8,15.8,0,0,0,64,276.73a34.87,34.87,0,0,0-9.84-1.18c-1.66.05-3.32.17-5,.38A31.39,31.39,0,0,0,44.39,277a16.78,16.78,0,0,0-4.27,1.92,6.51,6.51,0,0,0-1.52,1.35,2.61,2.61,0,0,0-.57,1.41,2.74,2.74,0,0,0,.54,1.43,6.81,6.81,0,0,0,1.5,1.41,16.1,16.1,0,0,0,4.26,2,34.56,34.56,0,0,0,9.81,1.54,34,34,0,0,0,9.91-1.23,15.55,15.55,0,0,0,4.4-2,6.69,6.69,0,0,0,1.62-1.5A3.15,3.15,0,0,0,70.68,281.67Z"/><line class="cls-3" x1="36.39" y1="281.67" x2="36.39" y2="288.31"/><polygon class="cls-2" points="38.19 281.67 38.66 288.31 34.12 288.31 34.6 281.67 38.19 281.67"/><line class="cls-4" x1="71.89" y1="288.31" x2="71.89" y2="281.67"/><ellipse class="cls-1" cx="54.14" cy="279.55" rx="17.75" ry="7.71"/><path class="cls-2" d="M73.11,279.55a5.56,5.56,0,0,1-1.06,3.18,9.36,9.36,0,0,1-2.17,2.1,19.06,19.06,0,0,1-5,2.5,36.35,36.35,0,0,1-10.71,1.86,45.2,45.2,0,0,1-5.45-.19,33.35,33.35,0,0,1-5.44-1.08,19.66,19.66,0,0,1-5.31-2.41,9.52,9.52,0,0,1-1.25-1,8.86,8.86,0,0,1-1.17-1.26,6.5,6.5,0,0,1-1.3-3.71,6.35,6.35,0,0,1,1.35-3.68,8.59,8.59,0,0,1,1.17-1.23,10,10,0,0,1,1.26-1,18.77,18.77,0,0,1,5.31-2.29,35.33,35.33,0,0,1,5.42-1,44.52,44.52,0,0,1,5.41-.17A39,39,0,0,1,64.78,272a18.77,18.77,0,0,1,5,2.43,10.72,10.72,0,0,1,1.13.91,7.86,7.86,0,0,1,1.05,1.1A5.4,5.4,0,0,1,73.11,279.55Zm-2.44,0a3.05,3.05,0,0,0-.58-1.71,6,6,0,0,0-1.64-1.48A16.1,16.1,0,0,0,64,274.5a30.63,30.63,0,0,0-4.88-.9,39.56,39.56,0,0,0-5-.14,35.19,35.19,0,0,0-9.67,1.67,16,16,0,0,0-4.11,2,5.93,5.93,0,0,0-1.37,1.3,2.24,2.24,0,0,0-.43,1.11,2.21,2.21,0,0,0,.47,1.08,5.77,5.77,0,0,0,1.4,1.24,15.15,15.15,0,0,0,4.1,1.89,36.86,36.86,0,0,0,9.61,1.57,48.05,48.05,0,0,0,5-.14,31.19,31.19,0,0,0,4.84-.84,15.84,15.84,0,0,0,4.39-1.8A7.3,7.3,0,0,0,70,281.16,3.08,3.08,0,0,0,70.67,279.55Z"/><ellipse class="cls-3" cx="54.14" cy="272.91" rx="17.75" ry="7.71"/><path class="cls-2" d="M73.1,272.91A5.52,5.52,0,0,1,72,276a10,10,0,0,1-2.2,2,20,20,0,0,1-5,2.31,37.53,37.53,0,0,1-10.6,1.62,36.73,36.73,0,0,1-10.69-1.31,18.81,18.81,0,0,1-5.16-2.27A9.75,9.75,0,0,1,36,276.27a5.31,5.31,0,0,1,0-6.75,9.69,9.69,0,0,1,2.28-2.13A18.42,18.42,0,0,1,43.39,265a35.92,35.92,0,0,1,10.75-1.41,37.07,37.07,0,0,1,10.67,1.67,18.63,18.63,0,0,1,5,2.42A9.44,9.44,0,0,1,72,269.76,5.5,5.5,0,0,1,73.1,272.91Zm-2.42,0a3.11,3.11,0,0,0-.68-1.64,7.15,7.15,0,0,0-1.64-1.42A16.12,16.12,0,0,0,64,268a34.87,34.87,0,0,0-9.84-1.17c-1.66,0-3.32.17-5,.38a30.24,30.24,0,0,0-4.79,1.06,16.77,16.77,0,0,0-4.27,1.91,6.77,6.77,0,0,0-1.52,1.36,2.61,2.61,0,0,0-.57,1.41,2.71,2.71,0,0,0,.54,1.42,6.62,6.62,0,0,0,1.5,1.42,16.1,16.1,0,0,0,4.26,2,35.78,35.78,0,0,0,19.72.31,15.55,15.55,0,0,0,4.4-2,6.69,6.69,0,0,0,1.62-1.5A3.18,3.18,0,0,0,70.68,272.91Z"/><line class="cls-3" x1="36.39" y1="272.91" x2="36.39" y2="279.55"/><polygon class="cls-2" points="38.19 272.91 38.66 279.55 34.12 279.55 34.6 272.91 38.19 272.91"/><line class="cls-4" x1="71.89" y1="279.55" x2="71.89" y2="272.91"/><ellipse class="cls-1" cx="60.4" cy="270.16" rx="17.75" ry="7.71"/><path class="cls-2" d="M79.37,270.16a5.46,5.46,0,0,1-1.06,3.17,9.58,9.58,0,0,1-2.16,2.11,19.17,19.17,0,0,1-5,2.49A36.43,36.43,0,0,1,60.4,279.8a45.21,45.21,0,0,1-5.45-.2,32.33,32.33,0,0,1-5.44-1.08,19.07,19.07,0,0,1-5.31-2.41,9.35,9.35,0,0,1-1.25-1,8.85,8.85,0,0,1-1.16-1.26,6.5,6.5,0,0,1-1.31-3.7,6.32,6.32,0,0,1,1.35-3.68A8.62,8.62,0,0,1,43,265.25a9.78,9.78,0,0,1,1.26-1A18.71,18.71,0,0,1,49.58,262,33.87,33.87,0,0,1,55,261a44.56,44.56,0,0,1,5.41-.16A38.65,38.65,0,0,1,71,262.63a18.66,18.66,0,0,1,5,2.44,8.74,8.74,0,0,1,1.14.91,9,9,0,0,1,1,1.09A5.46,5.46,0,0,1,79.37,270.16Zm-2.44,0a3,3,0,0,0-.58-1.71A6.17,6.17,0,0,0,74.72,267a16.87,16.87,0,0,0-4.44-1.86,33.29,33.29,0,0,0-4.88-.9,41.69,41.69,0,0,0-5-.14,35.64,35.64,0,0,0-9.67,1.67,15.68,15.68,0,0,0-4.1,2A6,6,0,0,0,45.25,269a2.33,2.33,0,0,0-.42,1.12,2.22,2.22,0,0,0,.46,1.08,6.2,6.2,0,0,0,1.4,1.24,15.52,15.52,0,0,0,4.11,1.88,36.31,36.31,0,0,0,9.6,1.58c1.66,0,3.31,0,4.95-.15A31.51,31.51,0,0,0,70.2,275a16.1,16.1,0,0,0,4.38-1.81,6.87,6.87,0,0,0,1.65-1.38A3.14,3.14,0,0,0,76.93,270.16Z"/><ellipse class="cls-3" cx="60.4" cy="263.51" rx="17.75" ry="7.71"/><path class="cls-2" d="M79.37,263.51a5.41,5.41,0,0,1-1.16,3.1,9.35,9.35,0,0,1-2.2,2,19.21,19.21,0,0,1-5,2.31,36.83,36.83,0,0,1-10.6,1.62,36.72,36.72,0,0,1-10.69-1.3A18.79,18.79,0,0,1,44.56,269a9.7,9.7,0,0,1-2.31-2.07,5.3,5.3,0,0,1,0-6.75A9.73,9.73,0,0,1,44.51,258a18.29,18.29,0,0,1,5.15-2.38,35.81,35.81,0,0,1,10.74-1.41,36.63,36.63,0,0,1,10.67,1.67,18.75,18.75,0,0,1,5,2.41,9.25,9.25,0,0,1,2.18,2.07A5.54,5.54,0,0,1,79.37,263.51Zm-2.43,0a3.18,3.18,0,0,0-.68-1.64,6.91,6.91,0,0,0-1.64-1.41,16.12,16.12,0,0,0-4.38-1.89,34.83,34.83,0,0,0-9.84-1.18,48.27,48.27,0,0,0-5,.39,30.47,30.47,0,0,0-4.79,1.05,16.71,16.71,0,0,0-4.26,1.92,6.19,6.19,0,0,0-1.53,1.36,2.69,2.69,0,0,0-.57,1.4,2.74,2.74,0,0,0,.54,1.43,6.37,6.37,0,0,0,1.5,1.41,15.8,15.8,0,0,0,4.26,2,35.66,35.66,0,0,0,19.72.32,15.23,15.23,0,0,0,4.41-2,6.64,6.64,0,0,0,1.61-1.5A3.15,3.15,0,0,0,76.94,263.51Z"/><line class="cls-3" x1="42.66" y1="263.51" x2="42.66" y2="270.16"/><polygon class="cls-2" points="44.45 263.51 44.93 270.16 40.38 270.16 40.86 263.51 44.45 263.51"/><line class="cls-4" x1="78.15" y1="270.16" x2="78.15" y2="263.51"/><ellipse class="cls-1" cx="50.18" cy="261.81" rx="17.75" ry="7.71"/><path class="cls-2" d="M69.15,261.81A5.63,5.63,0,0,1,68.09,265a9.61,9.61,0,0,1-2.17,2.11,19.49,19.49,0,0,1-5,2.49,36.42,36.42,0,0,1-10.71,1.87,47.62,47.62,0,0,1-5.46-.2,33.56,33.56,0,0,1-5.44-1.08,19.17,19.17,0,0,1-5.3-2.41,10.31,10.31,0,0,1-1.26-1,8.85,8.85,0,0,1-1.16-1.26,6.43,6.43,0,0,1-1.3-3.71,6.28,6.28,0,0,1,1.34-3.67,8.73,8.73,0,0,1,1.18-1.24,10.24,10.24,0,0,1,1.26-1,18.62,18.62,0,0,1,5.31-2.28,34.08,34.08,0,0,1,5.41-1,46.81,46.81,0,0,1,5.42-.17,39,39,0,0,1,10.63,1.81,18.62,18.62,0,0,1,5,2.43,10.82,10.82,0,0,1,1.14.91,8.42,8.42,0,0,1,1,1.1A5.54,5.54,0,0,1,69.15,261.81Zm-2.45,0a3,3,0,0,0-.58-1.7,6.17,6.17,0,0,0-1.63-1.49,16.54,16.54,0,0,0-4.44-1.86,32,32,0,0,0-4.88-.9,41.59,41.59,0,0,0-5-.14,35.33,35.33,0,0,0-9.68,1.67,16,16,0,0,0-4.1,2A6,6,0,0,0,35,260.7a1.6,1.6,0,0,0,0,2.2,6.18,6.18,0,0,0,1.4,1.23A15.22,15.22,0,0,0,40.57,266a36.73,36.73,0,0,0,9.61,1.57,48.13,48.13,0,0,0,5-.14,30.24,30.24,0,0,0,4.84-.84,15.65,15.65,0,0,0,4.38-1.8A6.87,6.87,0,0,0,66,263.43,3.06,3.06,0,0,0,66.7,261.81Z"/><ellipse class="cls-3" cx="50.18" cy="255.17" rx="17.75" ry="7.71"/><path class="cls-2" d="M69.14,255.17a5.46,5.46,0,0,1-1.16,3.1,9.57,9.57,0,0,1-2.2,2,19.54,19.54,0,0,1-5,2.31,37.11,37.11,0,0,1-10.59,1.62,37.18,37.18,0,0,1-10.7-1.3,18.92,18.92,0,0,1-5.15-2.28A9.54,9.54,0,0,1,32,258.53a5.28,5.28,0,0,1,0-6.74,10,10,0,0,1,2.29-2.14,18.29,18.29,0,0,1,5.15-2.38,35.83,35.83,0,0,1,10.75-1.41,36.74,36.74,0,0,1,10.67,1.68,18.73,18.73,0,0,1,5,2.41A9.41,9.41,0,0,1,68.05,252,5.44,5.44,0,0,1,69.14,255.17Zm-2.43,0a3,3,0,0,0-.68-1.64,7.12,7.12,0,0,0-1.63-1.42A16,16,0,0,0,60,250.23a34.8,34.8,0,0,0-9.83-1.18c-1.67,0-3.33.17-5,.38a31.93,31.93,0,0,0-4.79,1.06,16.71,16.71,0,0,0-4.26,1.92,6.37,6.37,0,0,0-1.53,1.35,2.77,2.77,0,0,0-.57,1.41,2.74,2.74,0,0,0,.54,1.43A6.87,6.87,0,0,0,36.11,258a15.81,15.81,0,0,0,4.26,2,34.5,34.5,0,0,0,9.81,1.54,34,34,0,0,0,9.91-1.23,15.55,15.55,0,0,0,4.4-2,6.46,6.46,0,0,0,1.61-1.5A3,3,0,0,0,66.71,255.17Z"/><line class="cls-3" x1="32.43" y1="255.17" x2="32.43" y2="261.81"/><polygon class="cls-2" points="34.22 255.17 34.7 261.81 30.16 261.81 30.63 255.17 34.22 255.17"/><line class="cls-4" x1="67.93" y1="261.81" x2="67.93" y2="255.17"/><ellipse class="cls-1" cx="54.14" cy="250.78" rx="17.75" ry="7.71"/><path class="cls-2" d="M73.11,250.78A5.56,5.56,0,0,1,72.05,254a9.36,9.36,0,0,1-2.17,2.1,19,19,0,0,1-5,2.49,36.36,36.36,0,0,1-10.71,1.87,43.25,43.25,0,0,1-5.45-.2,32.3,32.3,0,0,1-5.44-1.07,19.66,19.66,0,0,1-5.31-2.41,10.87,10.87,0,0,1-2.42-2.25,6.53,6.53,0,0,1-1.3-3.71,6.35,6.35,0,0,1,1.35-3.68,8.09,8.09,0,0,1,1.17-1.23,10,10,0,0,1,1.26-1,18.77,18.77,0,0,1,5.31-2.29,35.33,35.33,0,0,1,5.42-1,44.52,44.52,0,0,1,5.41-.17,38.65,38.65,0,0,1,10.64,1.8,19.12,19.12,0,0,1,5,2.44,8.66,8.66,0,0,1,1.13.91,7.86,7.86,0,0,1,1.05,1.1A5.4,5.4,0,0,1,73.11,250.78Zm-2.44,0a3.05,3.05,0,0,0-.58-1.71,6,6,0,0,0-1.64-1.48A16.1,16.1,0,0,0,64,245.73a30.63,30.63,0,0,0-4.88-.9,39.56,39.56,0,0,0-5-.15,35.2,35.2,0,0,0-9.67,1.68,16,16,0,0,0-4.11,2,5.93,5.93,0,0,0-1.37,1.3,2.24,2.24,0,0,0-.43,1.11,2.21,2.21,0,0,0,.47,1.08,5.77,5.77,0,0,0,1.4,1.24,15.46,15.46,0,0,0,4.1,1.89,36.86,36.86,0,0,0,9.61,1.57,48.05,48.05,0,0,0,5-.14,32.42,32.42,0,0,0,4.84-.84,16.17,16.17,0,0,0,4.39-1.81A7,7,0,0,0,70,252.39,3.08,3.08,0,0,0,70.67,250.78Z"/><ellipse class="cls-3" cx="54.14" cy="244.14" rx="17.75" ry="7.71"/><path class="cls-2" d="M73.1,244.14a5.52,5.52,0,0,1-1.15,3.1,9.7,9.7,0,0,1-2.2,2,19.73,19.73,0,0,1-5,2.32,37.53,37.53,0,0,1-10.6,1.62,37.08,37.08,0,0,1-10.69-1.31,19.12,19.12,0,0,1-5.16-2.27A10,10,0,0,1,36,247.5a5.31,5.31,0,0,1,0-6.75,9.69,9.69,0,0,1,2.28-2.13,18.42,18.42,0,0,1,5.15-2.38,35.92,35.92,0,0,1,10.75-1.41,37.07,37.07,0,0,1,10.67,1.67,18.89,18.89,0,0,1,5,2.41A9.66,9.66,0,0,1,72,241,5.56,5.56,0,0,1,73.1,244.14Zm-2.42,0A3.11,3.11,0,0,0,70,242.5a6.91,6.91,0,0,0-1.64-1.42A16.12,16.12,0,0,0,64,239.19,34.87,34.87,0,0,0,54.14,238a48.26,48.26,0,0,0-5,.38,31.38,31.38,0,0,0-4.79,1,16.78,16.78,0,0,0-4.27,1.92,6.77,6.77,0,0,0-1.52,1.36,2.61,2.61,0,0,0-.57,1.41,2.71,2.71,0,0,0,.54,1.42,6.62,6.62,0,0,0,1.5,1.42,16.42,16.42,0,0,0,4.26,2,35.78,35.78,0,0,0,19.72.31,15.55,15.55,0,0,0,4.4-2,6.89,6.89,0,0,0,1.62-1.5A3.18,3.18,0,0,0,70.68,244.14Z"/><line class="cls-3" x1="36.39" y1="244.14" x2="36.39" y2="250.78"/><polygon class="cls-2" points="38.19 244.14 38.66 250.78 34.12 250.78 34.6 244.14 38.19 244.14"/><line class="cls-4" x1="71.89" y1="250.78" x2="71.89" y2="244.14"/><ellipse class="cls-1" cx="79.98" cy="313.7" rx="17.75" ry="7.71"/><path class="cls-2" d="M99,313.7a5.63,5.63,0,0,1-1.06,3.18A9.61,9.61,0,0,1,95.72,319a19.49,19.49,0,0,1-5,2.49A36.75,36.75,0,0,1,80,323.35a47.54,47.54,0,0,1-5.46-.2,33.56,33.56,0,0,1-5.44-1.08,19.47,19.47,0,0,1-5.3-2.41,10.31,10.31,0,0,1-1.26-1,8.85,8.85,0,0,1-1.16-1.26,6.43,6.43,0,0,1-1.3-3.71A6.22,6.22,0,0,1,61.4,310a8.23,8.23,0,0,1,1.18-1.24,10.24,10.24,0,0,1,1.26-1,18.62,18.62,0,0,1,5.31-2.28,34.08,34.08,0,0,1,5.41-1,44.68,44.68,0,0,1,5.42-.17,39,39,0,0,1,10.63,1.81,18.62,18.62,0,0,1,5,2.43,10.82,10.82,0,0,1,1.14.91,8.42,8.42,0,0,1,1,1.1A5.48,5.48,0,0,1,99,313.7Zm-2.45,0a3.08,3.08,0,0,0-.58-1.71,6.32,6.32,0,0,0-1.63-1.48,16.23,16.23,0,0,0-4.44-1.86,30.84,30.84,0,0,0-4.88-.9,41.59,41.59,0,0,0-5-.14,35.33,35.33,0,0,0-9.68,1.67,16,16,0,0,0-4.1,2,5.79,5.79,0,0,0-1.38,1.3,2.31,2.31,0,0,0-.42,1.11,2.28,2.28,0,0,0,.46,1.08,6,6,0,0,0,1.4,1.24,15.22,15.22,0,0,0,4.11,1.89A36.73,36.73,0,0,0,80,319.48a48.13,48.13,0,0,0,5-.14,31.4,31.4,0,0,0,4.84-.84,15.65,15.65,0,0,0,4.38-1.8,6.68,6.68,0,0,0,1.65-1.39A3,3,0,0,0,96.5,313.7Z"/><ellipse class="cls-3" cx="79.98" cy="307.06" rx="17.75" ry="7.71"/><path class="cls-2" d="M98.94,307.06a5.46,5.46,0,0,1-1.16,3.1,9.57,9.57,0,0,1-2.2,2,19.88,19.88,0,0,1-5,2.31A37.47,37.47,0,0,1,80,316.08a36.84,36.84,0,0,1-10.7-1.31,18.89,18.89,0,0,1-5.15-2.27,9.54,9.54,0,0,1-2.31-2.08,5.88,5.88,0,0,1-1.23-3.36,6,6,0,0,1,1.2-3.39,9.73,9.73,0,0,1,2.29-2.13,18.29,18.29,0,0,1,5.15-2.38A35.83,35.83,0,0,1,80,297.75a37,37,0,0,1,10.66,1.67,19,19,0,0,1,5,2.42,9.41,9.41,0,0,1,2.17,2.07A5.44,5.44,0,0,1,98.94,307.06Zm-2.43,0a3,3,0,0,0-.68-1.64A6.88,6.88,0,0,0,94.2,304a16,16,0,0,0-4.39-1.88A34.44,34.44,0,0,0,80,300.94c-1.67.05-3.33.17-5,.38a31.93,31.93,0,0,0-4.79,1.06A16.7,16.7,0,0,0,66,304.29a6.62,6.62,0,0,0-1.53,1.36,2.09,2.09,0,0,0,0,2.84,6.87,6.87,0,0,0,1.51,1.41,15.81,15.81,0,0,0,4.26,2A34.5,34.5,0,0,0,80,313.46a33.87,33.87,0,0,0,9.9-1.23,15.48,15.48,0,0,0,4.41-2,6.46,6.46,0,0,0,1.61-1.5A3,3,0,0,0,96.51,307.06Z"/><line class="cls-3" x1="62.23" y1="307.06" x2="62.23" y2="313.7"/><polygon class="cls-2" points="64.02 307.06 64.5 313.7 59.95 313.7 60.43 307.06 64.02 307.06"/><line class="cls-4" x1="97.73" y1="313.7" x2="97.73" y2="307.06"/><ellipse class="cls-1" cx="79.98" cy="303.74" rx="17.75" ry="7.71"/><path class="cls-2" d="M99,303.74a5.6,5.6,0,0,1-1.06,3.17A9.61,9.61,0,0,1,95.72,309a19.17,19.17,0,0,1-5,2.49A36.42,36.42,0,0,1,80,313.38a45.38,45.38,0,0,1-5.46-.2,33.53,33.53,0,0,1-5.44-1.07,19.47,19.47,0,0,1-5.3-2.41,10.41,10.41,0,0,1-1.26-1,8.85,8.85,0,0,1-1.16-1.26,6.42,6.42,0,0,1-1.3-3.7,6.25,6.25,0,0,1,1.34-3.68,8.15,8.15,0,0,1,1.18-1.23,9.33,9.33,0,0,1,1.26-1,18.65,18.65,0,0,1,5.31-2.29,35.24,35.24,0,0,1,5.41-1,44.67,44.67,0,0,1,5.42-.16,38.58,38.58,0,0,1,10.63,1.8,19,19,0,0,1,5,2.44,8.74,8.74,0,0,1,1.14.91,9,9,0,0,1,1,1.09A5.54,5.54,0,0,1,99,303.74Zm-2.45,0a3,3,0,0,0-.58-1.71,6.14,6.14,0,0,0-1.63-1.48,16.56,16.56,0,0,0-4.44-1.87,32,32,0,0,0-4.88-.89,39.62,39.62,0,0,0-5-.15,35.34,35.34,0,0,0-9.68,1.68,16,16,0,0,0-4.1,2,6,6,0,0,0-1.38,1.29,2.37,2.37,0,0,0-.42,1.12,2.28,2.28,0,0,0,.46,1.08,6.2,6.2,0,0,0,1.4,1.24,15.52,15.52,0,0,0,4.11,1.88A36.32,36.32,0,0,0,80,309.52a48.14,48.14,0,0,0,5-.15,31.38,31.38,0,0,0,4.84-.83,16,16,0,0,0,4.38-1.81,6.87,6.87,0,0,0,1.65-1.38A3.06,3.06,0,0,0,96.5,303.74Z"/><ellipse class="cls-3" cx="79.98" cy="297.09" rx="17.75" ry="7.71"/><path class="cls-2" d="M98.94,297.09a5.41,5.41,0,0,1-1.16,3.1,9.35,9.35,0,0,1-2.2,2,19.57,19.57,0,0,1-5,2.32,39.66,39.66,0,0,1-21.29.31,18.92,18.92,0,0,1-5.15-2.28,9.7,9.7,0,0,1-2.31-2.07,5.89,5.89,0,0,1-1.23-3.37,6,6,0,0,1,1.2-3.38,9.73,9.73,0,0,1,2.29-2.13,18.29,18.29,0,0,1,5.15-2.38A35.83,35.83,0,0,1,80,287.79a36.61,36.61,0,0,1,10.66,1.67,19,19,0,0,1,5,2.41,9.62,9.62,0,0,1,2.17,2.07A5.49,5.49,0,0,1,98.94,297.09Zm-2.43,0a3,3,0,0,0-.68-1.63A6.67,6.67,0,0,0,94.2,294a16.32,16.32,0,0,0-4.39-1.89A34.8,34.8,0,0,0,80,291a48.25,48.25,0,0,0-5,.39,30.72,30.72,0,0,0-4.79,1.05A16.71,16.71,0,0,0,66,294.33a6.62,6.62,0,0,0-1.53,1.36,2.78,2.78,0,0,0-.57,1.4,2.71,2.71,0,0,0,.54,1.43,6.43,6.43,0,0,0,1.51,1.41,15.52,15.52,0,0,0,4.26,2,35.63,35.63,0,0,0,19.71.32,15.23,15.23,0,0,0,4.41-2,6.28,6.28,0,0,0,1.61-1.5A3,3,0,0,0,96.51,297.09Z"/><line class="cls-3" x1="62.23" y1="297.09" x2="62.23" y2="303.74"/><polygon class="cls-2" points="64.02 297.09 64.5 303.74 59.95 303.74 60.43 297.09 64.02 297.09"/><line class="cls-4" x1="97.73" y1="303.74" x2="97.73" y2="297.09"/><ellipse class="cls-1" cx="79.98" cy="294.96" rx="17.75" ry="7.71"/><path class="cls-2" d="M99,295a5.6,5.6,0,0,1-1.06,3.17,9.61,9.61,0,0,1-2.17,2.11,19.17,19.17,0,0,1-5,2.49A36.42,36.42,0,0,1,80,304.6a45.38,45.38,0,0,1-5.46-.2,33.53,33.53,0,0,1-5.44-1.07,19.21,19.21,0,0,1-5.3-2.42,9.42,9.42,0,0,1-1.26-1,8.85,8.85,0,0,1-1.16-1.26,6.42,6.42,0,0,1-1.3-3.7,6.25,6.25,0,0,1,1.34-3.68,8.15,8.15,0,0,1,1.18-1.23,8.57,8.57,0,0,1,1.26-1,18.65,18.65,0,0,1,5.31-2.29,34.08,34.08,0,0,1,5.41-1,44.67,44.67,0,0,1,5.42-.16,38.58,38.58,0,0,1,10.63,1.8,18.66,18.66,0,0,1,5,2.44,8.74,8.74,0,0,1,1.14.91,9,9,0,0,1,1,1.09A5.54,5.54,0,0,1,99,295Zm-2.45,0a3,3,0,0,0-.58-1.71,6.17,6.17,0,0,0-1.63-1.49,16.87,16.87,0,0,0-4.44-1.86A33.29,33.29,0,0,0,85,289a41.59,41.59,0,0,0-5-.14,35.71,35.71,0,0,0-9.68,1.67,15.68,15.68,0,0,0-4.1,2,6,6,0,0,0-1.38,1.29,1.59,1.59,0,0,0,0,2.2,6.2,6.2,0,0,0,1.4,1.24,15.52,15.52,0,0,0,4.11,1.88A36.32,36.32,0,0,0,80,300.74c1.65,0,3.3,0,5-.15a31.38,31.38,0,0,0,4.84-.83A16,16,0,0,0,94.15,298a6.87,6.87,0,0,0,1.65-1.38A3.06,3.06,0,0,0,96.5,295Z"/><ellipse class="cls-3" cx="79.98" cy="288.31" rx="17.75" ry="7.71"/><path class="cls-2" d="M98.94,288.31a5.41,5.41,0,0,1-1.16,3.1,9.35,9.35,0,0,1-2.2,2,19.21,19.21,0,0,1-5,2.31,39.53,39.53,0,0,1-21.29.32,18.92,18.92,0,0,1-5.15-2.28,9.7,9.7,0,0,1-2.31-2.07,5.3,5.3,0,0,1,0-6.75,9.73,9.73,0,0,1,2.29-2.13,18.29,18.29,0,0,1,5.15-2.38A35.83,35.83,0,0,1,80,279a36.61,36.61,0,0,1,10.66,1.67,19,19,0,0,1,5,2.41,9.62,9.62,0,0,1,2.17,2.07A5.46,5.46,0,0,1,98.94,288.31Zm-2.43,0a3.1,3.1,0,0,0-.68-1.64,6.85,6.85,0,0,0-1.63-1.41,16.32,16.32,0,0,0-4.39-1.89A34.8,34.8,0,0,0,80,282.19a48.25,48.25,0,0,0-5,.39,30.72,30.72,0,0,0-4.79,1.05A16.71,16.71,0,0,0,66,285.55a6.19,6.19,0,0,0-1.53,1.36,2.78,2.78,0,0,0-.57,1.4,2.74,2.74,0,0,0,.54,1.43,6.43,6.43,0,0,0,1.51,1.41,15.52,15.52,0,0,0,4.26,2,35.63,35.63,0,0,0,19.71.32,15.23,15.23,0,0,0,4.41-2A6.46,6.46,0,0,0,95.9,290,3,3,0,0,0,96.51,288.31Z"/><line class="cls-3" x1="62.23" y1="288.31" x2="62.23" y2="294.96"/><polygon class="cls-2" points="64.02 288.31 64.5 294.96 59.95 294.96 60.43 288.31 64.02 288.31"/><line class="cls-4" x1="97.73" y1="294.96" x2="97.73" y2="288.31"/><ellipse class="cls-1" cx="32.43" cy="324.74" rx="17.75" ry="7.71"/><path class="cls-2" d="M51.4,324.74a5.6,5.6,0,0,1-1.06,3.17A9.61,9.61,0,0,1,48.17,330a19.17,19.17,0,0,1-5,2.49,36.42,36.42,0,0,1-10.71,1.87,45.45,45.45,0,0,1-5.46-.2,33.56,33.56,0,0,1-5.44-1.08,19.14,19.14,0,0,1-5.3-2.41,9.42,9.42,0,0,1-1.26-1,8.85,8.85,0,0,1-1.16-1.26,6.42,6.42,0,0,1-1.3-3.7,6.31,6.31,0,0,1,1.34-3.68A8.67,8.67,0,0,1,15,319.83a8.57,8.57,0,0,1,1.26-1,18.77,18.77,0,0,1,5.31-2.29,34.08,34.08,0,0,1,5.41-1,44.67,44.67,0,0,1,5.42-.16,38.58,38.58,0,0,1,10.63,1.8,18.86,18.86,0,0,1,5,2.44,9.39,9.39,0,0,1,1.13.91,7.71,7.71,0,0,1,1,1.09A5.47,5.47,0,0,1,51.4,324.74Zm-2.44,0a3.19,3.19,0,0,0-.58-1.71,6.22,6.22,0,0,0-1.64-1.49,16.87,16.87,0,0,0-4.44-1.86,33.29,33.29,0,0,0-4.88-.9,41.59,41.59,0,0,0-5-.14,35.33,35.33,0,0,0-9.68,1.67,15.68,15.68,0,0,0-4.1,2,6,6,0,0,0-1.38,1.29,1.59,1.59,0,0,0,0,2.2,6.43,6.43,0,0,0,1.4,1.24,15.66,15.66,0,0,0,4.11,1.88,35.91,35.91,0,0,0,9.61,1.57,48.13,48.13,0,0,0,5-.14,31.18,31.18,0,0,0,4.84-.83,16,16,0,0,0,4.38-1.81,6.87,6.87,0,0,0,1.65-1.38A3.16,3.16,0,0,0,49,324.74Z"/><ellipse class="cls-3" cx="32.43" cy="318.09" rx="17.75" ry="7.71"/><path class="cls-2" d="M51.39,318.09a5.47,5.47,0,0,1-1.15,3.1,9.76,9.76,0,0,1-2.2,2,19.27,19.27,0,0,1-5,2.31,36.76,36.76,0,0,1-10.59,1.62,36.72,36.72,0,0,1-10.69-1.3,18.85,18.85,0,0,1-5.16-2.28,9.7,9.7,0,0,1-2.31-2.07,5.33,5.33,0,0,1,0-6.75,9.73,9.73,0,0,1,2.29-2.13,18.29,18.29,0,0,1,5.15-2.38,35.25,35.25,0,0,1,10.75-1.41,36.73,36.73,0,0,1,10.67,1.67,19,19,0,0,1,5,2.41,9.21,9.21,0,0,1,2.17,2.07A5.46,5.46,0,0,1,51.39,318.09Zm-2.43,0a3.1,3.1,0,0,0-.68-1.64A7.12,7.12,0,0,0,46.65,315a16.62,16.62,0,0,0-4.39-1.88A34.8,34.8,0,0,0,32.43,312a48.05,48.05,0,0,0-5,.39,30.59,30.59,0,0,0-4.8,1.05,16.87,16.87,0,0,0-4.26,1.92,6.38,6.38,0,0,0-1.53,1.36,2.07,2.07,0,0,0,0,2.83,6.37,6.37,0,0,0,1.5,1.41,15.66,15.66,0,0,0,4.26,2,35.66,35.66,0,0,0,19.72.32,15.3,15.3,0,0,0,4.4-2,6.46,6.46,0,0,0,1.61-1.5A3,3,0,0,0,49,318.09Z"/><line class="cls-3" x1="14.68" y1="318.09" x2="14.68" y2="324.74"/><polygon class="cls-2" points="16.47 318.09 16.95 324.74 12.41 324.74 12.88 318.09 16.47 318.09"/><line class="cls-4" x1="50.18" y1="324.74" x2="50.18" y2="318.09"/><ellipse class="cls-1" cx="32.43" cy="316.09" rx="17.75" ry="7.71"/><path class="cls-2" d="M51.4,316.09a5.63,5.63,0,0,1-1.06,3.18,9.61,9.61,0,0,1-2.17,2.11,19.49,19.49,0,0,1-5,2.49,36.75,36.75,0,0,1-10.71,1.87,47.62,47.62,0,0,1-5.46-.2,33.56,33.56,0,0,1-5.44-1.08,19.74,19.74,0,0,1-5.3-2.41,10.31,10.31,0,0,1-1.26-1,8.85,8.85,0,0,1-1.16-1.26,6.43,6.43,0,0,1-1.3-3.71,6.28,6.28,0,0,1,1.34-3.67A8.76,8.76,0,0,1,15,311.18a10.24,10.24,0,0,1,1.26-1,18.74,18.74,0,0,1,5.31-2.28,34.08,34.08,0,0,1,5.41-1,44.68,44.68,0,0,1,5.42-.17,39,39,0,0,1,10.63,1.81A18.83,18.83,0,0,1,48,311a11.85,11.85,0,0,1,1.13.91,7.8,7.8,0,0,1,1,1.1A5.41,5.41,0,0,1,51.4,316.09Zm-2.44,0a3.21,3.21,0,0,0-.58-1.71,6.36,6.36,0,0,0-1.64-1.48A16.23,16.23,0,0,0,42.3,311a30.84,30.84,0,0,0-4.88-.9,41.59,41.59,0,0,0-5-.14,35.33,35.33,0,0,0-9.68,1.67,16,16,0,0,0-4.1,2,5.79,5.79,0,0,0-1.38,1.3,2.31,2.31,0,0,0-.42,1.11,2.28,2.28,0,0,0,.46,1.08,6.18,6.18,0,0,0,1.4,1.24,15.36,15.36,0,0,0,4.11,1.89,36.73,36.73,0,0,0,9.61,1.57,48.13,48.13,0,0,0,5-.14,30,30,0,0,0,4.84-.84,15.65,15.65,0,0,0,4.38-1.8,6.68,6.68,0,0,0,1.65-1.39A3.13,3.13,0,0,0,49,316.09Z"/><ellipse class="cls-3" cx="32.43" cy="309.45" rx="17.75" ry="7.71"/><path class="cls-2" d="M51.39,309.45a5.52,5.52,0,0,1-1.15,3.1,10,10,0,0,1-2.2,2,20,20,0,0,1-5,2.31,37.47,37.47,0,0,1-10.59,1.62,36.73,36.73,0,0,1-10.69-1.31,18.81,18.81,0,0,1-5.16-2.27,9.54,9.54,0,0,1-2.31-2.08,5.81,5.81,0,0,1-1.22-3.36,5.9,5.9,0,0,1,1.19-3.39,9.73,9.73,0,0,1,2.29-2.13,18.29,18.29,0,0,1,5.15-2.38,35.88,35.88,0,0,1,10.75-1.41,37.07,37.07,0,0,1,10.67,1.67,19.07,19.07,0,0,1,5,2.42,9.21,9.21,0,0,1,2.17,2.07A5.44,5.44,0,0,1,51.39,309.45Zm-2.43,0a3,3,0,0,0-.68-1.64,6.88,6.88,0,0,0-1.63-1.42,16,16,0,0,0-4.39-1.88,34.44,34.44,0,0,0-9.83-1.18c-1.67.05-3.32.17-5,.38a31.79,31.79,0,0,0-4.8,1.06,16.85,16.85,0,0,0-4.26,1.91A6.83,6.83,0,0,0,16.88,308a2.08,2.08,0,0,0,0,2.84,6.81,6.81,0,0,0,1.5,1.41,16,16,0,0,0,4.26,2,34.56,34.56,0,0,0,9.81,1.54,34,34,0,0,0,9.91-1.23,15.55,15.55,0,0,0,4.4-2,6.46,6.46,0,0,0,1.61-1.5A3,3,0,0,0,49,309.45Z"/><line class="cls-3" x1="14.68" y1="309.45" x2="14.68" y2="316.09"/><polygon class="cls-2" points="16.47 309.45 16.95 316.09 12.41 316.09 12.88 309.45 16.47 309.45"/><line class="cls-4" x1="50.18" y1="316.09" x2="50.18" y2="309.45"/><ellipse class="cls-1" cx="32.43" cy="305.99" rx="17.75" ry="7.71"/><path class="cls-2" d="M51.4,306a5.63,5.63,0,0,1-1.06,3.18,9.36,9.36,0,0,1-2.17,2.1,19.17,19.17,0,0,1-5,2.49,36.42,36.42,0,0,1-10.71,1.87,43.47,43.47,0,0,1-5.46-.2,32.49,32.49,0,0,1-5.44-1.07,19.74,19.74,0,0,1-5.3-2.41A10.31,10.31,0,0,1,15,311a9.42,9.42,0,0,1-1.16-1.26,6.46,6.46,0,0,1-1.3-3.71,6.34,6.34,0,0,1,1.34-3.68A8.67,8.67,0,0,1,15,301.08a9.33,9.33,0,0,1,1.26-1,18.77,18.77,0,0,1,5.31-2.29,35.21,35.21,0,0,1,5.41-1,44.68,44.68,0,0,1,5.42-.17,38.59,38.59,0,0,1,10.63,1.81,18.83,18.83,0,0,1,5,2.43,10.47,10.47,0,0,1,1.13.91,7.8,7.8,0,0,1,1,1.1A5.41,5.41,0,0,1,51.4,306ZM49,306a3.21,3.21,0,0,0-.58-1.71,6.19,6.19,0,0,0-1.64-1.48,16.23,16.23,0,0,0-4.44-1.86,30.84,30.84,0,0,0-4.88-.9,39.61,39.61,0,0,0-5-.14,35,35,0,0,0-9.68,1.67,16,16,0,0,0-4.1,2,5.79,5.79,0,0,0-1.38,1.3,2.31,2.31,0,0,0-.42,1.11,2.28,2.28,0,0,0,.46,1.08,6.18,6.18,0,0,0,1.4,1.24,15.36,15.36,0,0,0,4.11,1.89,36.73,36.73,0,0,0,9.61,1.57,48.13,48.13,0,0,0,5-.14,32.42,32.42,0,0,0,4.84-.84A15.38,15.38,0,0,0,46.6,309a6.87,6.87,0,0,0,1.65-1.38A3.16,3.16,0,0,0,49,306Z"/><ellipse class="cls-3" cx="32.43" cy="299.35" rx="17.75" ry="7.71"/><path class="cls-2" d="M51.39,299.35a5.52,5.52,0,0,1-1.15,3.1,9.7,9.7,0,0,1-2.2,2,19.64,19.64,0,0,1-5,2.32,37.47,37.47,0,0,1-10.59,1.62,36.73,36.73,0,0,1-10.69-1.31,19.12,19.12,0,0,1-5.16-2.27,10,10,0,0,1-2.31-2.08,5.81,5.81,0,0,1-1.22-3.36A5.9,5.9,0,0,1,14.24,296a9.73,9.73,0,0,1,2.29-2.13,18.29,18.29,0,0,1,5.15-2.38A35.88,35.88,0,0,1,32.43,290a37.07,37.07,0,0,1,10.67,1.67,19,19,0,0,1,5,2.41,9.63,9.63,0,0,1,2.17,2.07A5.5,5.5,0,0,1,51.39,299.35Zm-2.43,0a3,3,0,0,0-.68-1.64,6.88,6.88,0,0,0-1.63-1.42,16.32,16.32,0,0,0-4.39-1.89,34.8,34.8,0,0,0-9.83-1.17c-1.67,0-3.32.17-5,.38a31.77,31.77,0,0,0-4.8,1.05,16.87,16.87,0,0,0-4.26,1.92,6.83,6.83,0,0,0-1.53,1.36,2.77,2.77,0,0,0-.57,1.41,2.74,2.74,0,0,0,.55,1.42,6.62,6.62,0,0,0,1.5,1.42,16,16,0,0,0,4.26,2,35.78,35.78,0,0,0,19.72.31,15.55,15.55,0,0,0,4.4-2,6.65,6.65,0,0,0,1.61-1.5A3,3,0,0,0,49,299.35Z"/><line class="cls-3" x1="14.68" y1="299.35" x2="14.68" y2="305.99"/><polygon class="cls-2" points="16.47 299.35 16.95 305.99 12.41 305.99 12.88 299.35 16.47 299.35"/><line class="cls-4" x1="50.18" y1="305.99" x2="50.18" y2="299.35"/><ellipse class="cls-1" cx="332.15" cy="288.31" rx="17.75" ry="7.71"/><path class="cls-2" d="M351.12,288.31a5.56,5.56,0,0,1-1.06,3.18,9.61,9.61,0,0,1-2.17,2.11,19.33,19.33,0,0,1-5,2.49A36.3,36.3,0,0,1,332.15,298a47.36,47.36,0,0,1-5.45-.2,33.35,33.35,0,0,1-5.44-1.08,19.36,19.36,0,0,1-5.31-2.41,10.23,10.23,0,0,1-1.25-1,8.3,8.3,0,0,1-1.16-1.26,6.44,6.44,0,0,1-1.31-3.71,6.29,6.29,0,0,1,1.35-3.67,8.68,8.68,0,0,1,1.17-1.24,12,12,0,0,1,1.26-1,18.74,18.74,0,0,1,5.31-2.28,34.2,34.2,0,0,1,5.42-1,46.63,46.63,0,0,1,5.41-.17,39,39,0,0,1,10.64,1.81,18.62,18.62,0,0,1,5,2.43,9.78,9.78,0,0,1,1.13.91,7.86,7.86,0,0,1,1.05,1.1A5.46,5.46,0,0,1,351.12,288.31Zm-2.44,0a3,3,0,0,0-.58-1.7,6.07,6.07,0,0,0-1.64-1.49,16.41,16.41,0,0,0-4.44-1.86,31.57,31.57,0,0,0-4.88-.9,41.47,41.47,0,0,0-5-.14,35.26,35.26,0,0,0-9.67,1.67,16,16,0,0,0-4.1,2,6,6,0,0,0-1.38,1.3,2.12,2.12,0,0,0-.42,1.11,2.21,2.21,0,0,0,.46,1.09,6.18,6.18,0,0,0,1.4,1.23,15.15,15.15,0,0,0,4.1,1.89,36.86,36.86,0,0,0,9.61,1.57,48.05,48.05,0,0,0,5-.14,30.36,30.36,0,0,0,4.85-.84,15.9,15.9,0,0,0,4.38-1.8,6.82,6.82,0,0,0,1.64-1.38A3.07,3.07,0,0,0,348.68,288.31Z"/><ellipse class="cls-3" cx="332.15" cy="281.67" rx="17.75" ry="7.71"/><path class="cls-2" d="M351.12,281.67a5.53,5.53,0,0,1-1.16,3.1,10,10,0,0,1-2.2,2,19.54,19.54,0,0,1-5,2.31,39.53,39.53,0,0,1-21.29.32,18.66,18.66,0,0,1-5.15-2.28A9.39,9.39,0,0,1,314,285a5.3,5.3,0,0,1,0-6.74,10,10,0,0,1,2.28-2.14,18.55,18.55,0,0,1,5.15-2.38,35.92,35.92,0,0,1,10.75-1.41A36.69,36.69,0,0,1,342.82,274a18.59,18.59,0,0,1,5,2.41,9.25,9.25,0,0,1,2.18,2.07A5.58,5.58,0,0,1,351.12,281.67Zm-2.43,0A3.11,3.11,0,0,0,348,280a7.18,7.18,0,0,0-1.64-1.42,15.8,15.8,0,0,0-4.38-1.88,34.87,34.87,0,0,0-9.84-1.18c-1.66.05-3.32.17-5,.38A31.66,31.66,0,0,0,322.4,277a16.78,16.78,0,0,0-4.27,1.92,6.51,6.51,0,0,0-1.52,1.35,2.61,2.61,0,0,0-.57,1.41,2.74,2.74,0,0,0,.54,1.43,6.81,6.81,0,0,0,1.5,1.41,16.1,16.1,0,0,0,4.26,2,34.56,34.56,0,0,0,9.81,1.54,34,34,0,0,0,9.91-1.23,15.3,15.3,0,0,0,4.4-2,6.69,6.69,0,0,0,1.62-1.5A3.15,3.15,0,0,0,348.69,281.67Z"/><line class="cls-3" x1="314.4" y1="281.67" x2="314.4" y2="288.31"/><polygon class="cls-2" points="316.2 281.67 316.68 288.31 312.13 288.31 312.61 281.67 316.2 281.67"/><line class="cls-4" x1="349.9" y1="288.31" x2="349.9" y2="281.67"/><ellipse class="cls-1" cx="332.15" cy="279.55" rx="17.75" ry="7.71"/><path class="cls-2" d="M351.12,279.55a5.56,5.56,0,0,1-1.06,3.18,9.36,9.36,0,0,1-2.17,2.1,19.06,19.06,0,0,1-5,2.5,36.29,36.29,0,0,1-10.71,1.86,45.2,45.2,0,0,1-5.45-.19,33.35,33.35,0,0,1-5.44-1.08,19.66,19.66,0,0,1-5.31-2.41,10.23,10.23,0,0,1-1.25-1,8.8,8.8,0,0,1-1.16-1.26,6.44,6.44,0,0,1-1.31-3.71,6.35,6.35,0,0,1,1.35-3.68,8.59,8.59,0,0,1,1.17-1.23,10.78,10.78,0,0,1,1.26-1,18.77,18.77,0,0,1,5.31-2.29,35.33,35.33,0,0,1,5.42-1,44.52,44.52,0,0,1,5.41-.17A39,39,0,0,1,342.79,272a18.62,18.62,0,0,1,5,2.43,9.78,9.78,0,0,1,1.13.91,7.86,7.86,0,0,1,1.05,1.1A5.4,5.4,0,0,1,351.12,279.55Zm-2.44,0a3.05,3.05,0,0,0-.58-1.71,6,6,0,0,0-1.64-1.48A16.1,16.1,0,0,0,342,274.5a30.43,30.43,0,0,0-4.88-.9,39.5,39.5,0,0,0-5-.14,35.26,35.26,0,0,0-9.67,1.67,16,16,0,0,0-4.1,2,5.79,5.79,0,0,0-1.38,1.3,2.12,2.12,0,0,0-.42,1.11,2.18,2.18,0,0,0,.46,1.08,6,6,0,0,0,1.4,1.24,15.15,15.15,0,0,0,4.1,1.89,36.86,36.86,0,0,0,9.61,1.57,48.05,48.05,0,0,0,5-.14,31.52,31.52,0,0,0,4.85-.84,15.9,15.9,0,0,0,4.38-1.8,7.08,7.08,0,0,0,1.64-1.39A3.08,3.08,0,0,0,348.68,279.55Z"/><ellipse class="cls-3" cx="332.15" cy="272.91" rx="17.75" ry="7.71"/><path class="cls-2" d="M351.12,272.91A5.53,5.53,0,0,1,350,276a10,10,0,0,1-2.2,2,19.88,19.88,0,0,1-5,2.31,37.53,37.53,0,0,1-10.6,1.62,36.73,36.73,0,0,1-10.69-1.31,18.63,18.63,0,0,1-5.15-2.27,9.6,9.6,0,0,1-2.32-2.08,5.31,5.31,0,0,1,0-6.75,9.69,9.69,0,0,1,2.28-2.13A18.55,18.55,0,0,1,321.4,265a35.92,35.92,0,0,1,10.75-1.41,37,37,0,0,1,10.67,1.67,18.63,18.63,0,0,1,5,2.42,9.25,9.25,0,0,1,2.18,2.07A5.58,5.58,0,0,1,351.12,272.91Zm-2.43,0a3.11,3.11,0,0,0-.68-1.64,6.94,6.94,0,0,0-1.64-1.42A16.12,16.12,0,0,0,342,268a34.87,34.87,0,0,0-9.84-1.17c-1.66,0-3.32.17-5,.38a30.49,30.49,0,0,0-4.79,1.06,16.77,16.77,0,0,0-4.27,1.91,6.77,6.77,0,0,0-1.52,1.36,2.61,2.61,0,0,0-.57,1.41,2.71,2.71,0,0,0,.54,1.42,6.62,6.62,0,0,0,1.5,1.42,16.1,16.1,0,0,0,4.26,2,35.78,35.78,0,0,0,19.72.31,15.3,15.3,0,0,0,4.4-2,6.69,6.69,0,0,0,1.62-1.5A3.18,3.18,0,0,0,348.69,272.91Z"/><line class="cls-3" x1="314.4" y1="272.91" x2="314.4" y2="279.55"/><polygon class="cls-2" points="316.2 272.91 316.68 279.55 312.13 279.55 312.61 272.91 316.2 272.91"/><line class="cls-4" x1="349.9" y1="279.55" x2="349.9" y2="272.91"/><ellipse class="cls-1" cx="332.15" cy="268.52" rx="17.75" ry="7.71"/><path class="cls-2" d="M351.12,268.52a5.53,5.53,0,0,1-1.06,3.17,9.61,9.61,0,0,1-2.17,2.11,19,19,0,0,1-5,2.49,36.3,36.3,0,0,1-10.71,1.87,45.21,45.21,0,0,1-5.45-.2,33.32,33.32,0,0,1-5.44-1.07,19.4,19.4,0,0,1-5.31-2.42,9.35,9.35,0,0,1-1.25-1,8.3,8.3,0,0,1-1.16-1.26,6.43,6.43,0,0,1-1.31-3.7,6.32,6.32,0,0,1,1.35-3.68,8.09,8.09,0,0,1,1.17-1.23,10.78,10.78,0,0,1,1.26-1,18.77,18.77,0,0,1,5.31-2.29,34.2,34.2,0,0,1,5.42-1,44.5,44.5,0,0,1,5.41-.16,38.65,38.65,0,0,1,10.64,1.8,19,19,0,0,1,5,2.44,8,8,0,0,1,1.13.91,8.36,8.36,0,0,1,1.05,1.09A5.46,5.46,0,0,1,351.12,268.52Zm-2.44,0a3,3,0,0,0-.58-1.71,6,6,0,0,0-1.64-1.48,16.43,16.43,0,0,0-4.44-1.87,31.56,31.56,0,0,0-4.88-.89,39.5,39.5,0,0,0-5-.15,35.26,35.26,0,0,0-9.67,1.68,16,16,0,0,0-4.1,2A6,6,0,0,0,317,267.4a2.14,2.14,0,0,0-.42,1.12,2.18,2.18,0,0,0,.46,1.08,6.2,6.2,0,0,0,1.4,1.24,15.45,15.45,0,0,0,4.1,1.88,36.46,36.46,0,0,0,9.61,1.58c1.65,0,3.31,0,5-.15a31.51,31.51,0,0,0,4.85-.83,16.23,16.23,0,0,0,4.38-1.81,6.82,6.82,0,0,0,1.64-1.38A3.08,3.08,0,0,0,348.68,268.52Z"/><ellipse class="cls-3" cx="332.15" cy="261.87" rx="17.75" ry="7.71"/><path class="cls-2" d="M351.12,261.87A5.48,5.48,0,0,1,350,265a9.76,9.76,0,0,1-2.2,2,19.57,19.57,0,0,1-5,2.32,37.17,37.17,0,0,1-10.6,1.61,36.72,36.72,0,0,1-10.69-1.3,18.66,18.66,0,0,1-5.15-2.28,9.55,9.55,0,0,1-2.32-2.07,5.31,5.31,0,0,1,0-6.75,9.69,9.69,0,0,1,2.28-2.13A18.55,18.55,0,0,1,321.4,254a35.92,35.92,0,0,1,10.75-1.41,36.68,36.68,0,0,1,10.67,1.67,18.89,18.89,0,0,1,5,2.41,9.46,9.46,0,0,1,2.18,2.07A5.64,5.64,0,0,1,351.12,261.87Zm-2.43,0a3.11,3.11,0,0,0-.68-1.63,6.72,6.72,0,0,0-1.64-1.42,16.12,16.12,0,0,0-4.38-1.89,34.87,34.87,0,0,0-9.84-1.18,48.27,48.27,0,0,0-5,.39,30.47,30.47,0,0,0-4.79,1.05,16.78,16.78,0,0,0-4.27,1.92,6.77,6.77,0,0,0-1.52,1.36,2.61,2.61,0,0,0-.57,1.4,2.71,2.71,0,0,0,.54,1.43,6.37,6.37,0,0,0,1.5,1.41,15.8,15.8,0,0,0,4.26,2,35.66,35.66,0,0,0,19.72.32,15.06,15.06,0,0,0,4.4-2,6.5,6.5,0,0,0,1.62-1.5A3.15,3.15,0,0,0,348.69,261.87Z"/><line class="cls-3" x1="314.4" y1="261.87" x2="314.4" y2="268.52"/><polygon class="cls-2" points="316.2 261.87 316.68 268.52 312.13 268.52 312.61 261.87 316.2 261.87"/><line class="cls-4" x1="349.9" y1="268.52" x2="349.9" y2="261.87"/><ellipse class="cls-1" cx="327.46" cy="257.42" rx="17.75" ry="7.71"/><path class="cls-2" d="M346.43,257.42a5.57,5.57,0,0,1-1.07,3.18,9.58,9.58,0,0,1-2.16,2.11,19.49,19.49,0,0,1-5,2.49,36.42,36.42,0,0,1-10.71,1.87,47.45,47.45,0,0,1-5.46-.2,33.56,33.56,0,0,1-5.44-1.08,19.66,19.66,0,0,1-5.31-2.41,10.23,10.23,0,0,1-1.25-1,8.85,8.85,0,0,1-1.16-1.26,6.51,6.51,0,0,1-1.31-3.71,6.29,6.29,0,0,1,1.35-3.67,9.28,9.28,0,0,1,1.17-1.24,12,12,0,0,1,1.26-1,18.67,18.67,0,0,1,5.32-2.28,33.87,33.87,0,0,1,5.41-1,44.68,44.68,0,0,1,5.42-.17,39,39,0,0,1,10.63,1.81,18.62,18.62,0,0,1,5,2.43,10.82,10.82,0,0,1,1.14.91,8.42,8.42,0,0,1,1,1.1A5.48,5.48,0,0,1,346.43,257.42Zm-2.45,0a3.08,3.08,0,0,0-.58-1.71,6.32,6.32,0,0,0-1.63-1.48,16.54,16.54,0,0,0-4.44-1.86,32,32,0,0,0-4.88-.9,41.59,41.59,0,0,0-5-.14,35.26,35.26,0,0,0-9.68,1.67,16,16,0,0,0-4.1,2,6,6,0,0,0-1.38,1.3,2.31,2.31,0,0,0-.42,1.11,2.21,2.21,0,0,0,.46,1.09,6.18,6.18,0,0,0,1.4,1.23,15.22,15.22,0,0,0,4.11,1.89,36.73,36.73,0,0,0,9.61,1.57,47.86,47.86,0,0,0,4.94-.14,30.36,30.36,0,0,0,4.85-.84,15.77,15.77,0,0,0,4.38-1.8,6.87,6.87,0,0,0,1.65-1.38A3.06,3.06,0,0,0,344,257.42Z"/><ellipse class="cls-3" cx="327.46" cy="250.78" rx="17.75" ry="7.71"/><path class="cls-2" d="M346.42,250.78a5.46,5.46,0,0,1-1.16,3.1,9.57,9.57,0,0,1-2.2,2,19.88,19.88,0,0,1-5,2.31,37.52,37.52,0,0,1-10.59,1.62,36.84,36.84,0,0,1-10.7-1.31,18.89,18.89,0,0,1-5.15-2.27,9.54,9.54,0,0,1-2.31-2.08,5.29,5.29,0,0,1,0-6.75,9.73,9.73,0,0,1,2.29-2.13,18.29,18.29,0,0,1,5.15-2.38,35.83,35.83,0,0,1,10.75-1.41,37,37,0,0,1,10.66,1.67,18.78,18.78,0,0,1,5,2.42,9.25,9.25,0,0,1,2.18,2.07A5.51,5.51,0,0,1,346.42,250.78Zm-2.43,0a3.11,3.11,0,0,0-.68-1.64,6.94,6.94,0,0,0-1.64-1.42,15.8,15.8,0,0,0-4.38-1.88,34.8,34.8,0,0,0-9.83-1.18c-1.67.05-3.33.17-5,.38a31.66,31.66,0,0,0-4.79,1.06,16.7,16.7,0,0,0-4.26,1.91,6.62,6.62,0,0,0-1.53,1.36,2.09,2.09,0,0,0,0,2.84,6.66,6.66,0,0,0,1.51,1.41,15.89,15.89,0,0,0,4.25,2,34.63,34.63,0,0,0,9.82,1.54,34,34,0,0,0,9.9-1.23,15.48,15.48,0,0,0,4.41-2,6.64,6.64,0,0,0,1.61-1.5A3.18,3.18,0,0,0,344,250.78Z"/><line class="cls-3" x1="309.71" y1="250.78" x2="309.71" y2="257.42"/><polygon class="cls-2" points="311.5 250.78 311.98 257.42 307.43 257.42 307.91 250.78 311.5 250.78"/><line class="cls-4" x1="345.2" y1="257.42" x2="345.2" y2="250.78"/><ellipse class="cls-1" cx="332.15" cy="247.46" rx="17.75" ry="7.71"/><path class="cls-2" d="M351.12,247.46a5.53,5.53,0,0,1-1.06,3.17,9.41,9.41,0,0,1-2.17,2.11,19,19,0,0,1-5,2.49,36.3,36.3,0,0,1-10.71,1.87,43.25,43.25,0,0,1-5.45-.2,32.3,32.3,0,0,1-5.44-1.07,19.66,19.66,0,0,1-5.31-2.41,10.33,10.33,0,0,1-1.25-1,8.3,8.3,0,0,1-1.16-1.26,6.43,6.43,0,0,1-1.31-3.7,6.32,6.32,0,0,1,1.35-3.68,8.09,8.09,0,0,1,1.17-1.23,10.78,10.78,0,0,1,1.26-1,18.77,18.77,0,0,1,5.31-2.29,35.37,35.37,0,0,1,5.42-1,44.5,44.5,0,0,1,5.41-.16,38.65,38.65,0,0,1,10.64,1.8,19,19,0,0,1,5,2.44,8,8,0,0,1,1.13.91,8.36,8.36,0,0,1,1.05,1.09A5.46,5.46,0,0,1,351.12,247.46Zm-2.44,0a3,3,0,0,0-.58-1.71,6,6,0,0,0-1.64-1.48A16.43,16.43,0,0,0,342,242.4a31.56,31.56,0,0,0-4.88-.89,39.5,39.5,0,0,0-5-.15,35.26,35.26,0,0,0-9.67,1.68,16,16,0,0,0-4.1,2,6,6,0,0,0-1.38,1.29,1.59,1.59,0,0,0,0,2.2,6.2,6.2,0,0,0,1.4,1.24,15.14,15.14,0,0,0,4.1,1.88,36.46,36.46,0,0,0,9.61,1.58,45.39,45.39,0,0,0,5-.15,31.51,31.51,0,0,0,4.85-.83,16.23,16.23,0,0,0,4.38-1.81,6.82,6.82,0,0,0,1.64-1.38A3.08,3.08,0,0,0,348.68,247.46Z"/><ellipse class="cls-3" cx="332.15" cy="240.81" rx="17.75" ry="7.71"/><path class="cls-2" d="M351.12,240.81a5.48,5.48,0,0,1-1.16,3.1,9.76,9.76,0,0,1-2.2,2,19.57,19.57,0,0,1-5,2.32,37.17,37.17,0,0,1-10.6,1.61,36.72,36.72,0,0,1-10.69-1.3,18.66,18.66,0,0,1-5.15-2.28,9.55,9.55,0,0,1-2.32-2.07,5.31,5.31,0,0,1,0-6.75,9.69,9.69,0,0,1,2.28-2.13,18.55,18.55,0,0,1,5.15-2.38,35.92,35.92,0,0,1,10.75-1.41,37,37,0,0,1,10.67,1.67,18.89,18.89,0,0,1,5,2.41,9.46,9.46,0,0,1,2.18,2.07A5.64,5.64,0,0,1,351.12,240.81Zm-2.43,0a3.11,3.11,0,0,0-.68-1.63,6.72,6.72,0,0,0-1.64-1.42,16.12,16.12,0,0,0-4.38-1.89,34.87,34.87,0,0,0-9.84-1.17,45.61,45.61,0,0,0-5,.38,31.64,31.64,0,0,0-4.79,1,16.78,16.78,0,0,0-4.27,1.92,6.77,6.77,0,0,0-1.52,1.36,2.61,2.61,0,0,0-.57,1.4,2.71,2.71,0,0,0,.54,1.43,6.37,6.37,0,0,0,1.5,1.41,16.12,16.12,0,0,0,4.26,2,35.78,35.78,0,0,0,19.72.31,15.3,15.3,0,0,0,4.4-2,6.72,6.72,0,0,0,1.62-1.51A3.15,3.15,0,0,0,348.69,240.81Z"/><line class="cls-3" x1="314.4" y1="240.81" x2="314.4" y2="247.46"/><polygon class="cls-2" points="316.2 240.81 316.68 247.46 312.13 247.46 312.61 240.81 316.2 240.81"/><line class="cls-4" x1="349.9" y1="247.46" x2="349.9" y2="240.81"/><ellipse class="cls-1" cx="334.82" cy="236.42" rx="17.75" ry="7.71"/><path class="cls-2" d="M353.79,236.42a5.56,5.56,0,0,1-1.06,3.18,9.61,9.61,0,0,1-2.17,2.11,19,19,0,0,1-5,2.49,36.3,36.3,0,0,1-10.71,1.87,47.36,47.36,0,0,1-5.45-.2,33.35,33.35,0,0,1-5.44-1.08,19.36,19.36,0,0,1-5.31-2.41,10.23,10.23,0,0,1-1.25-1,7.82,7.82,0,0,1-1.16-1.26,6.44,6.44,0,0,1-1.31-3.71,6.29,6.29,0,0,1,1.35-3.67,8.09,8.09,0,0,1,1.17-1.23,10.9,10.9,0,0,1,1.26-1,18.74,18.74,0,0,1,5.31-2.28,34.2,34.2,0,0,1,5.42-1,46.63,46.63,0,0,1,5.41-.17,39,39,0,0,1,10.64,1.81,18.36,18.36,0,0,1,5,2.44,8.75,8.75,0,0,1,1.13.9,7.86,7.86,0,0,1,1.05,1.1A5.46,5.46,0,0,1,353.79,236.42Zm-2.44,0a3,3,0,0,0-.58-1.7,6.07,6.07,0,0,0-1.64-1.49,16.41,16.41,0,0,0-4.44-1.86,31.57,31.57,0,0,0-4.88-.9,41.47,41.47,0,0,0-5-.14,35.26,35.26,0,0,0-9.67,1.67,16,16,0,0,0-4.1,2,6.22,6.22,0,0,0-1.38,1.3,2.12,2.12,0,0,0-.42,1.11,2.21,2.21,0,0,0,.46,1.09,6.18,6.18,0,0,0,1.4,1.23,15.15,15.15,0,0,0,4.1,1.89,36.45,36.45,0,0,0,9.61,1.57,48.05,48.05,0,0,0,4.95-.14,31.51,31.51,0,0,0,4.85-.83,16.23,16.23,0,0,0,4.38-1.81,6.82,6.82,0,0,0,1.64-1.38A3.07,3.07,0,0,0,351.35,236.42Z"/><ellipse class="cls-3" cx="334.82" cy="229.78" rx="17.75" ry="7.71"/><path class="cls-2" d="M353.79,229.78a5.48,5.48,0,0,1-1.16,3.1,10,10,0,0,1-2.2,2,19.7,19.7,0,0,1-5,2.31,39.53,39.53,0,0,1-21.29.32,18.79,18.79,0,0,1-5.15-2.28,9.39,9.39,0,0,1-2.32-2.08,5.3,5.3,0,0,1,0-6.74,9.69,9.69,0,0,1,2.28-2.13,18.26,18.26,0,0,1,5.15-2.38,35.29,35.29,0,0,1,10.75-1.41,36.68,36.68,0,0,1,10.67,1.67,18.59,18.59,0,0,1,5,2.41,9.25,9.25,0,0,1,2.18,2.07A5.61,5.61,0,0,1,353.79,229.78Zm-2.43,0a3.11,3.11,0,0,0-.68-1.64,7.18,7.18,0,0,0-1.64-1.42,16.42,16.42,0,0,0-4.38-1.88,34.87,34.87,0,0,0-9.84-1.18c-1.66.05-3.32.17-5,.38a31.66,31.66,0,0,0-4.79,1.06A16.78,16.78,0,0,0,320.8,227a6.51,6.51,0,0,0-1.52,1.35,2.67,2.67,0,0,0-.57,1.41,2.74,2.74,0,0,0,.54,1.43,6.59,6.59,0,0,0,1.5,1.41,15.8,15.8,0,0,0,4.26,2,34.56,34.56,0,0,0,9.81,1.54,34,34,0,0,0,9.91-1.23,15,15,0,0,0,4.4-2,6.69,6.69,0,0,0,1.62-1.5A3.15,3.15,0,0,0,351.36,229.78Z"/><line class="cls-3" x1="317.07" y1="229.78" x2="317.07" y2="236.42"/><polygon class="cls-2" points="318.87 229.78 319.35 236.42 314.8 236.42 315.28 229.78 318.87 229.78"/><line class="cls-4" x1="352.57" y1="236.42" x2="352.57" y2="229.78"/><ellipse class="cls-1" cx="357.92" cy="299.35" rx="17.75" ry="7.71"/><path class="cls-2" d="M376.89,299.35a5.6,5.6,0,0,1-1.06,3.17,9.83,9.83,0,0,1-2.17,2.11,19.17,19.17,0,0,1-5,2.49A36.42,36.42,0,0,1,357.92,309a45.3,45.3,0,0,1-5.46-.2,33.53,33.53,0,0,1-5.44-1.07,19.21,19.21,0,0,1-5.3-2.42,9.42,9.42,0,0,1-1.26-1,8.85,8.85,0,0,1-1.16-1.26,6.42,6.42,0,0,1-1.3-3.7,6.25,6.25,0,0,1,1.34-3.68,8.15,8.15,0,0,1,1.18-1.23,9.33,9.33,0,0,1,1.26-1,18.65,18.65,0,0,1,5.31-2.29,33.87,33.87,0,0,1,5.41-1,44.67,44.67,0,0,1,5.42-.16,38.58,38.58,0,0,1,10.63,1.8,19,19,0,0,1,5,2.44,8.74,8.74,0,0,1,1.14.91,9,9,0,0,1,1,1.09A5.54,5.54,0,0,1,376.89,299.35Zm-2.45,0a3,3,0,0,0-.58-1.71,6.14,6.14,0,0,0-1.63-1.48,16.56,16.56,0,0,0-4.44-1.87,32,32,0,0,0-4.88-.89,39.62,39.62,0,0,0-5-.15,35.34,35.34,0,0,0-9.68,1.68,15.66,15.66,0,0,0-4.1,2,6,6,0,0,0-1.38,1.29,2.33,2.33,0,0,0-.42,1.12,2.18,2.18,0,0,0,.46,1.08,6.2,6.2,0,0,0,1.4,1.24,15.52,15.52,0,0,0,4.11,1.88,36.32,36.32,0,0,0,9.61,1.58c1.65,0,3.3,0,4.95-.15a31.38,31.38,0,0,0,4.84-.83,16,16,0,0,0,4.38-1.81,6.87,6.87,0,0,0,1.65-1.38A3.06,3.06,0,0,0,374.44,299.35Z"/><ellipse class="cls-3" cx="357.92" cy="292.7" rx="17.75" ry="7.71"/><path class="cls-2" d="M376.88,292.7a5.41,5.41,0,0,1-1.16,3.1,9.35,9.35,0,0,1-2.2,2,19.57,19.57,0,0,1-5,2.32,39.66,39.66,0,0,1-21.29.31,18.92,18.92,0,0,1-5.15-2.28,9.7,9.7,0,0,1-2.31-2.07,5.89,5.89,0,0,1-1.23-3.37,6,6,0,0,1,1.2-3.38,9.73,9.73,0,0,1,2.29-2.13,18.29,18.29,0,0,1,5.15-2.38,35.83,35.83,0,0,1,10.75-1.41,36.61,36.61,0,0,1,10.66,1.67,18.75,18.75,0,0,1,5,2.41,9.46,9.46,0,0,1,2.18,2.07A5.56,5.56,0,0,1,376.88,292.7Zm-2.43,0a3,3,0,0,0-.68-1.63,6.67,6.67,0,0,0-1.63-1.42,16.32,16.32,0,0,0-4.39-1.89,34.8,34.8,0,0,0-9.83-1.18,48.25,48.25,0,0,0-5,.39,30.72,30.72,0,0,0-4.79,1,16.71,16.71,0,0,0-4.26,1.92,6.62,6.62,0,0,0-1.53,1.36,2.78,2.78,0,0,0-.57,1.4,2.71,2.71,0,0,0,.54,1.43,6.24,6.24,0,0,0,1.51,1.41,15.52,15.52,0,0,0,4.26,2,35.63,35.63,0,0,0,19.71.32,15.23,15.23,0,0,0,4.41-2,6.46,6.46,0,0,0,1.61-1.5A3,3,0,0,0,374.45,292.7Z"/><line class="cls-3" x1="340.17" y1="292.7" x2="340.17" y2="299.35"/><polygon class="cls-2" points="341.96 292.7 342.44 299.35 337.89 299.35 338.37 292.7 341.96 292.7"/><line class="cls-4" x1="375.67" y1="299.35" x2="375.67" y2="292.7"/><ellipse class="cls-1" cx="290.26" cy="314.77" rx="17.75" ry="7.71"/><path class="cls-2" d="M309.23,314.77a5.56,5.56,0,0,1-1.06,3.18,9.61,9.61,0,0,1-2.17,2.11,19.33,19.33,0,0,1-5,2.49,36.75,36.75,0,0,1-10.71,1.87,47.36,47.36,0,0,1-5.45-.2,33.35,33.35,0,0,1-5.44-1.08,19.66,19.66,0,0,1-5.31-2.41,9.52,9.52,0,0,1-1.25-1,8.86,8.86,0,0,1-1.17-1.26,6.5,6.5,0,0,1-1.3-3.71,6.41,6.41,0,0,1,1.34-3.68,9.24,9.24,0,0,1,1.18-1.23,10,10,0,0,1,1.26-1,18.77,18.77,0,0,1,5.31-2.29,35.43,35.43,0,0,1,5.41-1,44.68,44.68,0,0,1,5.42-.17,39,39,0,0,1,10.63,1.81,18.68,18.68,0,0,1,5,2.43,10.72,10.72,0,0,1,1.13.91,7.8,7.8,0,0,1,1,1.1A5.34,5.34,0,0,1,309.23,314.77Zm-2.44,0a3.13,3.13,0,0,0-.58-1.71,6.19,6.19,0,0,0-1.64-1.48,16.1,16.1,0,0,0-4.44-1.86,30.84,30.84,0,0,0-4.88-.9,41.59,41.59,0,0,0-5-.14,35.19,35.19,0,0,0-9.67,1.67,16,16,0,0,0-4.11,2,5.73,5.73,0,0,0-1.37,1.3,2.24,2.24,0,0,0-.43,1.11,2.21,2.21,0,0,0,.47,1.08,5.91,5.91,0,0,0,1.39,1.24,15.36,15.36,0,0,0,4.11,1.89,36.79,36.79,0,0,0,9.61,1.57,48.13,48.13,0,0,0,4.95-.14,31.19,31.19,0,0,0,4.84-.84,15.84,15.84,0,0,0,4.39-1.8,7.3,7.3,0,0,0,1.64-1.39A3.08,3.08,0,0,0,306.79,314.77Z"/><ellipse class="cls-3" cx="290.26" cy="308.13" rx="17.75" ry="7.71"/><path class="cls-2" d="M309.22,308.13a5.52,5.52,0,0,1-1.15,3.1,10,10,0,0,1-2.2,2,20,20,0,0,1-5,2.31,37.59,37.59,0,0,1-10.6,1.62,36.73,36.73,0,0,1-10.69-1.31,18.81,18.81,0,0,1-5.16-2.27,9.75,9.75,0,0,1-2.31-2.08,5.81,5.81,0,0,1-1.22-3.36,6,6,0,0,1,1.19-3.39,9.73,9.73,0,0,1,2.29-2.13,18.29,18.29,0,0,1,5.15-2.38,35.88,35.88,0,0,1,10.75-1.41,37.07,37.07,0,0,1,10.67,1.67,18.93,18.93,0,0,1,5,2.42,9.44,9.44,0,0,1,2.18,2.07A5.5,5.5,0,0,1,309.22,308.13Zm-2.42,0a3.19,3.19,0,0,0-.68-1.64,7.15,7.15,0,0,0-1.64-1.42,16.39,16.39,0,0,0-4.38-1.89,34.87,34.87,0,0,0-9.84-1.17c-1.66.05-3.32.17-5,.38a30.61,30.61,0,0,0-4.8,1.06,16.85,16.85,0,0,0-4.26,1.91,6.77,6.77,0,0,0-1.52,1.36,2.08,2.08,0,0,0,0,2.83,6.62,6.62,0,0,0,1.5,1.42,16,16,0,0,0,4.26,2,34.56,34.56,0,0,0,9.81,1.54,34,34,0,0,0,9.91-1.23,15.55,15.55,0,0,0,4.4-2,6.46,6.46,0,0,0,1.61-1.5A3.11,3.11,0,0,0,306.8,308.13Z"/><line class="cls-3" x1="272.51" y1="308.13" x2="272.51" y2="314.77"/><polygon class="cls-2" points="274.31 308.13 274.78 314.77 270.24 314.77 270.72 308.13 274.31 308.13"/><line class="cls-4" x1="308.01" y1="314.77" x2="308.01" y2="308.13"/><path class="cls-9" d="M16.05,99s-.78,22.7-16,22.7c0,0,16.83,7.24,16.05,20.84,0,0,3.13-19.18,13.31-21.77C29.36,120.73,16.83,115.79,16.05,99Z"/><path class="cls-9" d="M33.8,129s-.78,22.7-16,22.7c0,0,16.83,7.24,16,20.84,0,0,3.13-19.18,13.31-21.77C47.11,150.81,34.58,145.87,33.8,129Z"/><path class="cls-9" d="M326.92,0s-.78,22.7-16.05,22.7c0,0,16.83,7.24,16.05,20.84,0,0,3.13-19.18,13.31-21.77C340.23,21.77,327.7,16.83,326.92,0Z"/><path class="cls-9" d="M351.27,29.54s-.78,22.7-16,22.7c0,0,16.83,7.23,16,20.84,0,0,3.13-19.18,13.31-21.77C364.58,51.31,352.05,46.37,351.27,29.54Z"/><path class="cls-9" d="M111.74,313.57s-.78,22.7-16,22.7c0,0,16.84,7.23,16,20.84,0,0,3.14-19.18,13.31-21.77C125.05,335.34,112.53,330.4,111.74,313.57Z"/></g></g></svg>