<svg xmlns="http://www.w3.org/2000/svg" viewBox="0 0 118 186.69"><defs><style>.cls-1{fill:#f05f61;}.cls-2{fill:#472e24;}.cls-3{fill:#231f20;}.cls-4{fill:#b5babe;}.cls-5{fill:#8a8e90;}.cls-6{fill:#e6e9ec;}.cls-7{fill:#3b2314;}.cls-8{fill:#6b4c4b;}.cls-9{fill:#563a39;}</style></defs><g id="Layer_2" data-name="Layer 2"><g id="Layer_1-2" data-name="Layer 1"><polygon class="cls-1" points="9.29 57.19 33.93 91.41 0 62.95 9.29 57.19"/><polygon class="cls-1" points="28.3 95.45 2.19 80.24 0.39 92.57 28.3 95.45"/><polygon class="cls-1" points="100.22 175.31 85.31 135.86 110.68 172.16 100.22 175.31"/><polygon class="cls-1" points="91.8 133.43 113.06 154.9 118 143.46 91.8 133.43"/><polygon class="cls-2" points="110.95 13.29 99.74 50.18 79.32 43.58 97.86 6.12 112.42 10.8 110.95 13.29"/><path class="cls-3" d="M113.43,14.38l-2.84,9.12c-1,3-1.94,6.06-3,9.07s-2.08,6-3.15,9-2.21,6-3.42,9l-.5,1.21-1.22-.31L78.48,46.18l-3.22-.81,1.61-3L96.65,5.52l.55-1,1.08.35,14.55,4.68.75,2a3.74,3.74,0,0,1,.24.91,4.79,4.79,0,0,1,0,.75A2.85,2.85,0,0,1,113.43,14.38Zm-5-2.18a4.35,4.35,0,0,1,1.06-1.26,5.11,5.11,0,0,1,.75-.49,3.69,3.69,0,0,1,1-.34l.75,2L97.45,7.41l1.63-.69L81.77,44.79,80.16,41l20,7.91-1.72.9c.66-3.18,1.42-6.33,2.19-9.48s1.59-6.29,2.45-9.41,1.75-6.25,2.62-9.38Z"/><path class="cls-4" d="M74.31,51.17,60.19,79.7l4.23,5.53-8.9,3.41,3.28,6.6L47.51,96.3l4.74,8.3-15-1.91S8.37,158.86,60.93,178l18-54.55-1.41-11.57,19-53.43-8.22-7.24Z"/><path class="cls-3" d="M75,52.32,62.6,80.89l-.27-2.83h0l3,6.42.79,1.66-1.32.21h0L56,89.9,56.73,88h0L60,94.63l.87,1.77-2,.18L47.64,97.65l1-2h0L53,104.18l.77,1.55-1.61-.3h0L37.07,104l1.37-.73h0A78.87,78.87,0,0,0,35,113.87a79.74,79.74,0,0,0-2,10.87,52.9,52.9,0,0,0,1.59,21.15A34.28,34.28,0,0,0,45.43,162.4a49.74,49.74,0,0,0,17.87,9h0l-8.94,4.34L78,123.09h0l0,.45L75,112.15h0l-.06-.66.2-.52L95.3,58h0l.38,1.47-8.21-7.24.89.34C83.92,52.53,79.51,52.45,75,52.32ZM73.6,50c4.88-.13,9.84-.2,14.76-.2h.51l.39.34,8.21,7.23.69.61-.31.87h0L80,112.7l.13-1.17h0L80,123.29v.36l0,.09h0l-12.44,56.4-1.45,6.55-7.49-2.22h0a62,62,0,0,1-20.84-14.13,45.19,45.19,0,0,1-7.27-10.57,43.22,43.22,0,0,1-3.88-12,60,60,0,0,1,1.06-24,84.76,84.76,0,0,1,3.48-11.18A81.37,81.37,0,0,1,36,102.07h0l.48-.87.9.14,14.94,2.43h0L51.52,105l-5.18-8h0l-1-1.82,2.09-.2,11.28-1.06-1.09,2-3.27-6.6h0l-.65-1.36L55,87.37,64,84.1h0L63.45,86l-5.4-4.64h0l-1-1.46.74-1.37C63.1,68.76,68.46,59.27,73.6,50Z"/><polygon class="cls-5" points="80.82 63.4 54.27 129.13 56.4 172.43 78.97 123.41 78.26 111.24 93.88 63.4 80.82 63.4"/><polygon class="cls-6" points="32.39 115.45 72.3 99.18 65.06 114.57 30.42 129.7 32.39 115.45"/><polygon class="cls-6" points="75.42 89.38 79.97 76.04 62.22 78.88 62.95 85.79 59.51 87.11 75.42 89.38"/><path class="cls-3" d="M75,52.32,62.6,80.89l-.27-2.83h0l3,6.42.79,1.66-1.32.21h0L56,89.9,56.73,88h0L60,94.63l.87,1.77-2,.18L47.64,97.65l1-2h0L53,104.18l.77,1.55-1.61-.3h0L37.07,104l1.37-.73h0A78.87,78.87,0,0,0,35,113.87a79.74,79.74,0,0,0-2,10.87,52.9,52.9,0,0,0,1.59,21.15A34.28,34.28,0,0,0,45.43,162.4a49.74,49.74,0,0,0,17.87,9h0l-8.94,4.34L78,123.09h0l0,.45L75,112.15h0l-.06-.66.2-.52L95.3,58h0l.38,1.47-8.21-7.24.89.34C83.92,52.53,79.51,52.45,75,52.32ZM73.6,50c4.88-.13,9.84-.2,14.76-.2h.51l.39.34,8.21,7.23.69.61-.31.87h0L80,112.7l.13-1.17h0L80,123.29v.36l0,.09h0l-12.44,56.4-1.45,6.55-7.49-2.22h0a62,62,0,0,1-20.84-14.13,45.19,45.19,0,0,1-7.27-10.57,43.22,43.22,0,0,1-3.88-12,60,60,0,0,1,1.06-24,84.76,84.76,0,0,1,3.48-11.18A81.37,81.37,0,0,1,36,102.07h0l.48-.87.9.14,14.94,2.43h0L51.52,105l-5.18-8h0l-1-1.82,2.09-.2,11.28-1.06-1.09,2-3.27-6.6h0l-.65-1.36L55,87.37,64,84.1h0L63.45,86l-5.4-4.64h0l-1-1.46.74-1.37C63.1,68.76,68.46,59.27,73.6,50Z"/><polygon class="cls-7" points="103.81 11.04 93.88 35.72 83.21 35.72 79.97 42.27 99.13 48.07 111.13 13.5 103.81 11.04"/><path class="cls-3" d="M113.43,14.38l-2.84,9.12c-1,3-1.94,6.06-3,9.07s-2.08,6-3.15,9-2.21,6-3.42,9l-.5,1.21-1.22-.31L78.48,46.18l-3.22-.81,1.61-3L96.65,5.52l.55-1,1.08.35,14.55,4.68.75,2a3.74,3.74,0,0,1,.24.91,4.79,4.79,0,0,1,0,.75A2.85,2.85,0,0,1,113.43,14.38Zm-5-2.18a4.35,4.35,0,0,1,1.06-1.26,5.11,5.11,0,0,1,.75-.49,3.69,3.69,0,0,1,1-.34l.75,2L97.45,7.41l1.63-.69L81.77,44.79,80.16,41l20,7.91-1.72.9c.66-3.18,1.42-6.33,2.19-9.48s1.59-6.29,2.45-9.41,1.75-6.25,2.62-9.38Z"/><polygon class="cls-8" points="55.73 35 55.73 49.26 104.79 66.92 111.13 55.43 108.78 49.9 76.86 37.98 82.26 13.07 96.58 8.6 111.13 13.5 114.89 9.67 113.48 5.41 100.1 1.36 79.67 4.56 55.73 35"/><path class="cls-3" d="M57,35.44l1.45,13.82-1.81-2.57L105,66.48l-.59.21,4-12.79-.14,2.77-.06-6.5.39.37L76,40.41l-2.28-.72.65-2.26L81.45,12.9l.13-.47.43-.15,14.16-5,.31-.11.53.12,15.07,3.36-3.07.73,4.91-2.69-.32,1.37L111.83,6,113,7.08,99.71,2.66l.6,0L80.13,7.46,82,6.37Zm-2.56-.89L77.37,2.74l.71-1,1.14-.09L99.89,0l.35,0,.25.07L114,3.74l1,.26.2.86,1,4.38.13.53-.45.84-2.59,5-.91,1.73-2.17-1-14-6.43H97l-14.48,4,.57-.61L79.39,38.53l-1.62-3L109,49.25h0l.37.37,4.63,4.56,1.21,1.19L113.91,57l-8.7,10.2-.27.31-.31-.09L54.81,51.82l-2-.62L53,49.26C53.46,44.21,54,39.3,54.45,34.55Z"/><polygon class="cls-9" points="110.42 53.74 66.34 43.81 74.07 17.41 87.77 6.12 103.6 6.12 111.13 9.31 109.78 12.08 96.58 8.6 92.1 10.17 82.02 14.28 76.86 37.98 108.78 49.9 110.42 53.74"/><path class="cls-3" d="M57,35.44l1.45,13.82-1.81-2.57L105,66.48l-.59.21,4-12.79-.14,2.77-.06-6.5.39.37L76,40.41l-2.28-.72.65-2.26L81.45,12.9l.13-.47.43-.15,14.16-5,.31-.11.53.12,15.07,3.36-3.07.73,4.91-2.69-.32,1.37L111.83,6,113,7.08,99.71,2.66l.6,0L80.13,7.46,82,6.37Zm-2.56-.89L77.37,2.74l.71-1,1.14-.09L99.89,0l.35,0,.25.07L114,3.74l1,.26.2.86,1,4.38.13.53-.45.84-2.59,5-.91,1.73-2.17-1-14-6.43H97l-14.48,4,.57-.61L79.39,38.53l-1.62-3L109,49.25h0l.37.37,4.63,4.56,1.21,1.19L113.91,57l-8.7,10.2-.27.31-.31-.09L54.81,51.82l-2-.62L53,49.26C53.46,44.21,54,39.3,54.45,34.55Z"/></g></g></svg>