<svg xmlns="http://www.w3.org/2000/svg" width="1329.829" height="813.261" viewBox="0 0 1329.829 813.261"><path d="M160.084,1292.363l150.2,8.3,11.734,49.345,8.888-37.447,8.152,24.645,12.914-36.544,260.83-8.3,18.132,8.3,19.836-8.3,136.616,8.3,102.393,11.9,137.115-11.9,5.347,20.965,7.351-29.264,212.049,8.3,20.858-8.3s103.151-2.891,102.386,0-16.395,121.22-16.395,121.22l-16.327,5.112,16.327,7.86V1540.13l-16.327,5.728h12.545l-34.588,10.66,44.862,5.884s-5,43.085-6.492,45.557,10.083,76.529,10.083,76.529l-13.866,6.661,13.866,7.142-6.57,93.02h-15.372l11.859,6.746-18.927,8.084,22.44,3.625,6.57,125.524-6.57,6.129,13.491,5.325,10.38,74.171-95.168,7.222-11.433-42.094-3.787,29.518s-68.432-6.4-72.438-6.488-93.644,6.488-93.644,6.488L1105.068,1995l-2.779,14.074-10.728-23.03-6.3,34.872-97.329-5.354L982,1995l-5.711,20.563-103.9,5.354S665.126,1997.521,662.872,1995s-5.591-28.581-6.7-26.109-9.8,29.367-9.8,29.367l-128.81,10.816-62.156-10.816-143.6,7.812-6.327-20.312-6.5,20.313-10.732-37.179L284.133,1995l-6.041-9.242-6.613,20.313-50.618-3.261-7.119-17.051-16.153,17.051-4.222,14.3-92.555,2.965-7.463-98.794,20.532-55.2,17.359-4.58-17.359-7.923-9.71-124.425,6.3-44.5,11.295-2.8-17.6-7.093-3.68-118.244,21.275-117.766L104.17,1427,96.7,1284.047l60.1-2.55Z" transform="matrix(0.999, -0.052, 0.052, 0.999, -160.289, -1207.21)" fill="#333"/></svg>