<svg xmlns="http://www.w3.org/2000/svg" viewBox="0 0 181.56 252.12"><defs><style>.cls-1,.cls-14,.cls-5,.cls-6,.cls-7{fill:#fff;}.cls-1,.cls-2{stroke:#231f20;stroke-miterlimit:10;stroke-width:3px;}.cls-15,.cls-2{fill:#231f20;}.cls-3{fill:#90c858;}.cls-4{fill:#7ab643;}.cls-5{font-size:20px;font-family:ComixLoud, Comix Loud;}.cls-6{font-size:25px;font-family:ShowcardGothic-Reg, Showcard Gothic;}.cls-7{opacity:0.67;}.cls-8{fill:#aed47b;}.cls-9{fill:#7bb642;}.cls-10{fill:#6aa042;}.cls-11{fill:#8bc53f;}.cls-12{fill:#78b643;}.cls-13{fill:#c0da76;}.cls-14{opacity:0.32;}</style></defs><g id="Layer_2" data-name="Layer 2"><g id="Layer_1-2" data-name="Layer 1"><rect class="cls-1" x="1.5" y="1.5" width="178.56" height="249.12" rx="9.67"/><rect class="cls-2" x="1.5" y="1.5" width="178.56" height="249.12" rx="9.67"/><rect class="cls-3" x="13.86" y="18.75" width="149.84" height="214.63"/><path class="cls-4" d="M166.53,236.2l-9.45.19-9.5.12-19.05.24-19.14.1-19.18,0c-12.78,0-25.58-.22-38.3-.38l-19.07-.38-9.5-.2-4.74-.1a5,5,0,0,1-4.74-2.17l-.22-.22L12.19,18.75V17.08h1.68l149.84-.61H166l0,2.29q.44,54,.62,108.51T166.53,236.2Zm-5.66-5.65q-.19-52.86-.07-105.69t.62-106.11L163.7,21,13.86,20.42l1.67-1.67L14.08,233.37l-.22-.22A4.85,4.85,0,0,1,18.49,231l4.62-.1,9.23-.21,18.4-.38c12.25-.15,24.42-.35,36.61-.37l18.28,0L124,230l18.41.24,9.22.12Z"/><text class="cls-5" transform="translate(84.73 235.34)">+500</text><text class="cls-6" transform="translate(5.45 29.8)">Emerald</text><path class="cls-7" d="M50.08,81.34s-1.78,7.19-5.56,7.71c0,0,4.45,2.32,5.56,5,0,0,.89-4.6,4.22-5C54.3,89.05,50.08,86.23,50.08,81.34Z"/><path class="cls-7" d="M135.71,86.25s-4.69-5.73-2.84-9.07c0,0-4.52,2.17-7.32,1.47,0,0,3.16,3.47,1.46,6.36C127,85,131.79,83.32,135.71,86.25Z"/><path class="cls-7" d="M42.07,149.45s-5.11-5.29-8.19-4c0,0,2.08-4,1.5-6.79,0,0,3.09,3.5,5.77,2.28A10.29,10.29,0,0,0,42.07,149.45Z"/><ellipse class="cls-8" cx="90.7" cy="164.01" rx="55.68" ry="17.87"/><polygon class="cls-9" points="94.47 72.79 96.26 79.56 100.89 73.95 103.54 49.26 94.47 72.79"/><polygon class="cls-9" points="103.95 74.07 103.54 78.18 107.21 75.97 113.71 62.76 103.95 74.07"/><polygon class="cls-9" points="88.14 70.15 90.41 73.6 91.86 69.57 88.59 55.22 88.14 70.15"/><polygon class="cls-9" points="129.59 108.09 124.55 112.95 131.7 114.26 154.56 104.54 129.59 108.09"/><polygon class="cls-9" points="129.7 120.62 125.61 121.22 128.65 124.25 143.04 127.35 129.7 120.62"/><polygon class="cls-9" points="125.16 101.04 123.66 104.89 127.79 103.75 137.6 92.77 125.16 101.04"/><polygon class="cls-9" points="41.62 115.3 46.63 114.29 42.77 110.68 24.95 107.7 41.62 115.3"/><polygon class="cls-9" points="45.73 107.31 48.7 107.79 47.27 105.02 37.98 99.72 45.73 107.31"/><polygon class="cls-9" points="46.35 124.04 48.24 121.68 45.12 121.58 35.91 127.1 46.35 124.04"/><path class="cls-7" d="M129.22,147.81s-1.78,7.18-5.56,7.7c0,0,4.45,2.32,5.56,5,0,0,.89-4.61,4.22-5C133.44,155.51,129.22,152.7,129.22,147.81Z"/><ellipse class="cls-9" cx="90.78" cy="161.68" rx="43.74" ry="10.05"/><ellipse class="cls-10" cx="90.7" cy="158.2" rx="24.68" ry="4.06"/><polygon class="cls-11" points="75.47 81.92 52.28 115.16 63.92 143.13 94.64 152.09 117.18 121.17 110.08 92.01 75.47 81.92"/><polygon class="cls-12" points="73.82 93.94 74.96 111.45 60.8 113.58 73.82 93.94"/><polygon class="cls-12" points="79.37 118.99 84.12 131.84 71.16 140.56 62.82 120.93 79.37 118.99"/><polygon class="cls-12" points="90.7 134.28 95.92 134.24 95.12 146.5 77.93 141.49 90.7 134.28"/><polygon class="cls-13" points="83.48 92.07 102.92 97.74 97.73 105.6 89.13 103.09 83.48 92.07"/><polygon class="cls-14" points="99.06 92.67 109.19 98.59 75.64 139.21 62.61 132.76 99.06 92.67"/><polygon class="cls-14" points="109.48 110.33 80.57 142.09 89.45 143.01 112.17 118.28 109.48 110.33"/><path class="cls-15" d="M77.42,87.45c-3.56,4.7-7.29,9.35-11.26,14.09S58,111.11,53.65,116.12l.18-1.6,13.92,27-2.67-2.39L96,147.52l-5.18,1.76,23.78-30-.53,2.67-7.1-29.15,2.23,2.34C98,92.79,87.57,90.39,77.42,87.45ZM73.51,76.38C86.44,80.17,99.12,84.51,111,88.91l1.83.68.4,1.66,7.11,29.15.33,1.38-.86,1.29L98.49,154.9l-1.88,2.8-3.31-1-30.55-9.55-2.11-.66-.56-1.73L50.74,115.8l-.26-.81.43-.78c3.38-6.08,6.92-12.33,10.68-18.67S69.34,82.77,73.51,76.38Z"/><path class="cls-7" d="M64,84.76s-1.77,7.18-5.55,7.7c0,0,4.44,2.32,5.55,5,0,0,.89-4.61,4.23-5C68.23,92.46,64,89.65,64,84.76Z"/></g></g></svg>