<svg xmlns="http://www.w3.org/2000/svg" width="956.038" height="664.194" viewBox="0 0 956.038 664.194">
  <g id="Layer_2" data-name="Layer 2" transform="matrix(0.996, -0.087, 0.087, 0.996, -22.87, 61.886)">
    <g id="Layer_1" data-name="Layer 1">
      <path id="Path_834" data-name="Path 834" d="M197.291,585.508,178.22,328.969,238.165,71.424,415.313,13.19,504.5,109.822l60.53,12.379,27.414-40.873,22.3,29.74-12.379,59.45-27.249,28.494-78.056,6.2-54.5-22.3-49.546-45.84L338.5,189.108l16.1,139.981L480.96,579.311Z" transform="translate(89.198 6.602)" fill="#00a69c"/>
      <path id="Path_835" data-name="Path 835" d="M186.1,610.446a154.109,154.109,0,0,0,3.631-22.507,132.143,132.143,0,0,0,.39-18.516l-1.741-34.2c-1.185-22.657-2.566-44.94-4.306-66.982s-3.736-43.979-5.642-66.022l-1.425-16.505c-.5-5.492-.885-11-1.606-16.505s-1.5-10.909-2.761-16.34a117.218,117.218,0,0,0-4.637-16.31l-.705-1.876,1.065-2.866c3.886-10.4,7.277-20.932,10.5-31.51,1.651-5.267,3.121-10.578,4.682-15.875l4.306-15.755c5.657-21.307,11.374-42.6,16.9-63.936l8.283-32.021,8.148-32.036c2.716-10.684,5.342-21.382,7.953-32.081s5.267-21.412,7.773-32.141l.9-3.841,3.631-1.11c14.87-4.5,29.62-9.393,44.355-14.33s29.47-10.068,44.145-15.17,29.29-10.4,43.859-15.83l21.892-8.058a86.016,86.016,0,0,0,10.654-4.877,52.307,52.307,0,0,0,10.008-6.9L423.434,0l7.8,10.188L511.543,115l-1.11-.63,62.03,5.012-9.918,4.066,33.686-36.687,1.741-1.891,1.666,1.816,25.193,27.5,1.5,1.621-.45,3L617.1,179.024l-.465,3.2-1.951,1.41-32.606,23.438-.72.525-.615.12-77.335,15.08-2.821.54L498.369,222l-51.137-30.55-.39-.24-.24-.165L390.889,151.88l15.305-.12-60.785,45.45.645-1.741,25.268,138.916-1.14-3.8a239.427,239.427,0,0,0,13.039,32.666c2.506,5.267,5.177,10.5,7.863,15.65l8.028,15.575L415.2,425.615l16.235,31.045q16.34,31,32.906,61.91c11.059,20.572,22.207,41.114,33.656,61.52L508.9,599.6l-22.192-.63c-24.4-.705-48.661-.705-72.969-.54s-48.616.57-73.059,1.125-48.991,1.2-73.734,1.966l-37.212,1.1a137.786,137.786,0,0,0-19.3,1.275,109.967,109.967,0,0,0-11.209,2.356A117.913,117.913,0,0,0,186.1,610.446Zm33.266-36.672a10.219,10.219,0,0,0,4.607,3.9,24.521,24.521,0,0,0,6.512,1.981c4.757.915,10.624.525,16.175.5l33.716-.45c22.507-.27,45.27-.69,68.092-1.14s45.8-1.11,68.768-1.966,46.005-1.906,68.873-3.631L474.826,591.75c-9.6-21.307-19.506-42.479-29.5-63.606s-20.122-42.179-30.3-63.216l-15.35-31.51-15.5-31.435-7.758-15.7c-2.581-5.252-5.177-10.5-7.938-15.635a239.311,239.311,0,0,0-18.576-29.86l-1.02-1.38-.12-2.431-6.932-141.046V195l.675-.825,48.241-58.519,7.683-9.333,7.608,9.213,43.394,52.517-.63-.405,57.874,14.03-5.042-.78,78.761,2.7-1.35.645,21.922-33.6-2.416,4.622,16-58.714,1.02,4.637L596.246,89.189l3.406-.09L578.5,134.114l-3,6.392-6.932-2.326-59.014-19.641-.66-.21-.465-.42-98.057-88.5,14.84,3.856a53.491,53.491,0,0,0-12.154.375,86.58,86.58,0,0,0-11.479,2.4l-22.387,6.5c-15,4.276-29.815,8.838-44.715,13.279s-29.695,9.153-44.49,13.925-29.56,9.6-44.22,14.78l4.5-4.952c-2.491,10.729-4.847,21.5-7.217,32.261s-4.742,21.517-7.037,32.306l-6.827,32.336-6.707,32.381c-4.5,21.592-8.733,43.214-13.069,64.836L206.3,289.94c-.945,5.432-1.966,10.849-2.821,16.31-1.786,10.894-3.391,21.832-4.5,32.891l.36-4.742a101.688,101.688,0,0,0-2.266,15.755c-.375,5.252-.465,10.5-.375,15.725s.48,10.413.78,15.605l.96,15.59c1.275,20.767,2.4,41.624,3.9,62.3s3.226,41.189,5.207,61.3l3,29.935a59.107,59.107,0,0,0,2.791,13.5C214.866,568.1,216.561,571.688,219.367,573.774Z" transform="translate(83.733)" fill="#231f20"/>
      <path id="Path_836" data-name="Path 836" d="M274.7,556.251l183.375-4.006L331.715,302.022,307.678,161.111l65.917-60.62,46.08,55.353,54.5,22.3,78.056-6.2,22.657-23.693,5.072-47.761-11.494-3.5-27.7,33.956-46.455,4.141L427.327,113.65l-59.87-46.38-100.683,73.4-33.4,114.308L223.95,369.169Z" transform="translate(112.086 33.668)" fill="#00887c"/>
      <path id="Path_837" data-name="Path 837" d="M186.1,610.446a154.109,154.109,0,0,0,3.631-22.507,132.143,132.143,0,0,0,.39-18.516l-1.741-34.2c-1.185-22.657-2.566-44.94-4.306-66.982s-3.736-43.979-5.642-66.022l-1.425-16.505c-.5-5.492-.885-11-1.606-16.505s-1.5-10.909-2.761-16.34a117.218,117.218,0,0,0-4.637-16.31l-.705-1.876,1.065-2.866c3.886-10.4,7.277-20.932,10.5-31.51,1.651-5.267,3.121-10.578,4.682-15.875l4.306-15.755c5.657-21.307,11.374-42.6,16.9-63.936l8.283-32.021,8.148-32.036c2.716-10.684,5.342-21.382,7.953-32.081s5.267-21.412,7.773-32.141l.9-3.841,3.631-1.11c14.87-4.5,29.62-9.393,44.355-14.33s29.47-10.068,44.145-15.17,29.29-10.4,43.859-15.83l21.892-8.058a86.016,86.016,0,0,0,10.654-4.877,52.307,52.307,0,0,0,10.008-6.9L423.434,0l7.8,10.188L511.543,115l-1.11-.63,62.03,5.012-9.918,4.066,33.686-36.687,1.741-1.891,1.666,1.816,25.193,27.5,1.5,1.621-.45,3L617.1,179.024l-.465,3.2-1.951,1.41-32.606,23.438-.72.525-.615.12-77.335,15.08-2.821.54L498.369,222l-51.137-30.55-.39-.24-.24-.165L390.889,151.88l15.305-.12-60.785,45.45.645-1.741,25.268,138.916-1.14-3.8a239.427,239.427,0,0,0,13.039,32.666c2.506,5.267,5.177,10.5,7.863,15.65l8.028,15.575L415.2,425.615l16.235,31.045q16.34,31,32.906,61.91c11.059,20.572,22.207,41.114,33.656,61.52L508.9,599.6l-22.192-.63c-24.4-.705-48.661-.705-72.969-.54s-48.616.57-73.059,1.125-48.991,1.2-73.734,1.966l-37.212,1.1a137.786,137.786,0,0,0-19.3,1.275,109.967,109.967,0,0,0-11.209,2.356A117.913,117.913,0,0,0,186.1,610.446Zm33.266-36.672a10.219,10.219,0,0,0,4.607,3.9,24.521,24.521,0,0,0,6.512,1.981c4.757.915,10.624.525,16.175.5l33.716-.45c22.507-.27,45.27-.69,68.092-1.14s45.8-1.11,68.768-1.966,46.005-1.906,68.873-3.631L474.826,591.75c-9.6-21.307-19.506-42.479-29.5-63.606s-20.122-42.179-30.3-63.216l-15.35-31.51-15.5-31.435-7.758-15.7c-2.581-5.252-5.177-10.5-7.938-15.635a239.311,239.311,0,0,0-18.576-29.86l-1.02-1.38-.12-2.431-6.932-141.046V195l.675-.825,48.241-58.519,7.683-9.333,7.608,9.213,43.394,52.517-.63-.405,57.874,14.03-5.042-.78,78.761,2.7-1.35.645,21.922-33.6-2.416,4.622,16-58.714,1.02,4.637L596.246,89.189l3.406-.09L578.5,134.114l-3,6.392-6.932-2.326-59.014-19.641-.66-.21-.465-.42-98.057-88.5,14.84,3.856a53.491,53.491,0,0,0-12.154.375,86.58,86.58,0,0,0-11.479,2.4l-22.387,6.5c-15,4.276-29.815,8.838-44.715,13.279s-29.695,9.153-44.49,13.925-29.56,9.6-44.22,14.78l4.5-4.952c-2.491,10.729-4.847,21.5-7.217,32.261s-4.742,21.517-7.037,32.306l-6.827,32.336-6.707,32.381c-4.5,21.592-8.733,43.214-13.069,64.836L206.3,289.94c-.945,5.432-1.966,10.849-2.821,16.31-1.786,10.894-3.391,21.832-4.5,32.891l.36-4.742a101.688,101.688,0,0,0-2.266,15.755c-.375,5.252-.465,10.5-.375,15.725s.48,10.413.78,15.605l.96,15.59c1.275,20.767,2.4,41.624,3.9,62.3s3.226,41.189,5.207,61.3l3,29.935a59.107,59.107,0,0,0,2.791,13.5C214.866,568.1,216.561,571.688,219.367,573.774Z" transform="translate(83.733)" fill="#231f20"/>
      <ellipse id="Ellipse_241" data-name="Ellipse 241" cx="32.981" cy="22.072" rx="32.981" ry="22.072" transform="translate(457.711 459.511)" fill="#1fa4ba"/>
      <path id="Path_838" data-name="Path 838" d="M377.817,329.537a22.6,22.6,0,0,1-3.466,13.234,34.632,34.632,0,0,1-9.123,9.768A46.951,46.951,0,0,1,340.86,361.3a45.78,45.78,0,0,1-25.883-6l-3-1.966c-.975-.75-1.936-1.5-2.881-2.281a25.092,25.092,0,0,1-2.671-2.686,33,33,0,0,1-2.431-3,24.314,24.314,0,0,1-2.056-3.5l-.87-1.876c-.255-.66-.465-1.335-.69-2.011a24.833,24.833,0,0,1-1.035-8.478,23.663,23.663,0,0,1,2.116-8.088c.3-.615.6-1.215.915-1.8l1.08-1.635a24.246,24.246,0,0,1,2.356-3,31.51,31.51,0,0,1,11.254-7.593,51.767,51.767,0,0,1,23.8-3.181,62.358,62.358,0,0,1,11.344,2.176,60.435,60.435,0,0,1,10.593,4.4,36.281,36.281,0,0,1,9.543,6.947A19.506,19.506,0,0,1,377.817,329.537Zm-7.878,0a13.715,13.715,0,0,0-1.876-8.418,19.161,19.161,0,0,0-7.082-6.932,28.075,28.075,0,0,0-9.783-3.241,40.937,40.937,0,0,0-10.308-.3,36.462,36.462,0,0,0-18.2,6.887,19.056,19.056,0,0,0-5.387,6.287,8.582,8.582,0,0,0-.84,5.672,7.862,7.862,0,0,0,.975,2.176,6.086,6.086,0,0,1,.315.525c.15.165.285.345.42.525a10.065,10.065,0,0,0,.96,1.035c.285.375.78.69,1.125,1.065a13.65,13.65,0,0,0,1.35.99l1.5.975,1.666.87a34.859,34.859,0,0,0,7.622,2.656,65.7,65.7,0,0,0,8.478,1.5,62.578,62.578,0,0,0,8.883.21,34.829,34.829,0,0,0,8.808-1.5C364.222,338.75,369.159,334.878,369.939,329.537Z" transform="translate(149.802 152.122)" fill="#231f20"/>
      <ellipse id="Ellipse_242" data-name="Ellipse 242" cx="32.981" cy="22.072" rx="32.981" ry="22.072" transform="translate(432.742 396.611)" fill="#2abdc4"/>
      <path id="Path_839" data-name="Path 839" d="M359.442,287.436A20.782,20.782,0,0,1,355.8,299.8a32.439,32.439,0,0,1-9,8.823,47.43,47.43,0,0,1-23.318,7.5,45.555,45.555,0,0,1-24.458-5.477,32.17,32.17,0,0,1-10.323-9,23.063,23.063,0,0,1-4.5-14.255,22.357,22.357,0,0,1,5.567-13.5,30.61,30.61,0,0,1,10.5-7.667,49.832,49.832,0,0,1,23.3-3.946,51.272,51.272,0,0,1,21.862,6.482,34.721,34.721,0,0,1,9.153,7.277A19.507,19.507,0,0,1,359.442,287.436Zm-6,0a14.06,14.06,0,0,0-2.476-8.7,20.181,20.181,0,0,0-7.5-6.6,40.378,40.378,0,0,0-38.773,2.446,20.857,20.857,0,0,0-6.152,6.212,10.849,10.849,0,0,0-1.756,6.647,11.269,11.269,0,0,0,2.746,5.882,21.818,21.818,0,0,0,6.317,4.892,46.516,46.516,0,0,0,17.556,4.621,42.84,42.84,0,0,0,18.7-2.551,21.848,21.848,0,0,0,7.653-5.057,13.339,13.339,0,0,0,3.751-7.788Z" transform="translate(142.233 131.202)" fill="#231f20"/>
      <ellipse id="Ellipse_243" data-name="Ellipse 243" cx="32.981" cy="22.072" rx="32.981" ry="22.072" transform="translate(370.937 491.652)" fill="#1896a3"/>
      <path id="Path_840" data-name="Path 840" d="M320.461,351.93a21.863,21.863,0,0,1-2.926,12.949,35.2,35.2,0,0,1-8.718,10.083,51.017,51.017,0,0,1-24.308,10.428,46.1,46.1,0,0,1-27.579-4.5,36.823,36.823,0,0,1-12.469-10.578A30.931,30.931,0,0,1,242,366.394c-.36-.705-.72-1.41-1.065-2.131a19.909,19.909,0,0,1-.84-2.311,28.028,28.028,0,0,1-1.5-9.948,27.657,27.657,0,0,1,2.3-9.618c.33-.735.66-1.5,1.02-2.161l1.23-1.936a27.611,27.611,0,0,1,2.716-3.481,33.641,33.641,0,0,1,12.754-8.583,44.655,44.655,0,0,1,13.219-2.836,57.751,57.751,0,0,1,12.634.57,55.248,55.248,0,0,1,22.267,8.673,40.348,40.348,0,0,1,8.463,8.148,23.586,23.586,0,0,1,1.771,2.4l.855,1.275.705,1.365a18.83,18.83,0,0,1,1.936,6.107Zm-6,0a12.244,12.244,0,0,0-2.1-9,18.231,18.231,0,0,0-8.178-5.732,35.516,35.516,0,0,0-19.732-1.365,34.691,34.691,0,0,0-16.16,7.848,14.27,14.27,0,0,0-3.886,5.3,3.331,3.331,0,0,0,0,3c.36.48.63.855,1.5,1.846a18.243,18.243,0,0,0,4.171,3.3,49.515,49.515,0,0,0,14.435,5.552,39.433,39.433,0,0,0,17.676.33c5.807-1.441,11.239-5.147,12.334-11.074Z" transform="translate(119.408 161.795)" fill="#231f20"/>
      <ellipse id="Ellipse_244" data-name="Ellipse 244" cx="32.981" cy="22.072" rx="32.981" ry="22.072" transform="translate(345.879 386.257)" fill="#1896a3"/>
      <path id="Path_841" data-name="Path 841" d="M302.649,280.958a21.487,21.487,0,0,1-3.331,12.694,33.657,33.657,0,0,1-8.9,9.453,48.855,48.855,0,0,1-23.843,8.913,45.63,45.63,0,0,1-25.9-5.192,34.51,34.51,0,0,1-11.254-9.8,25.689,25.689,0,0,1-5.072-16.07,24.653,24.653,0,0,1,6.377-15.08,32.441,32.441,0,0,1,11.494-7.968,44.4,44.4,0,0,1,12.289-3.091,54.981,54.981,0,0,1,12,0,52.652,52.652,0,0,1,22.012,7.322,42.014,42.014,0,0,1,9,7.5,19.882,19.882,0,0,1,5.117,11.314Zm-6.2,0a13.5,13.5,0,0,0-2.191-8.823,18.006,18.006,0,0,0-7.682-6.377,37.617,37.617,0,0,0-20-2.776,37.242,37.242,0,0,0-17.661,6.992,17.871,17.871,0,0,0-5.147,5.912,8.028,8.028,0,0,0-.945,5.072,9.588,9.588,0,0,0,2.251,4.066,19.957,19.957,0,0,0,5.387,4.1,49.231,49.231,0,0,0,16.115,4.907,42.015,42.015,0,0,0,18.156-1.2C290.51,290.966,295.687,286.765,296.452,280.958Z" transform="translate(112.282 127.371)" fill="#231f20"/>
      <ellipse id="Ellipse_245" data-name="Ellipse 245" cx="23.408" cy="17.301" rx="23.408" ry="17.301" transform="translate(403.903 287.42)" fill="#2abdc4"/>
      <path id="Path_842" data-name="Path 842" d="M320.675,211.305c-.135.75-.21,1.5-.405,2.236a14.173,14.173,0,0,1-.645,2.131c-.285.63-.465,1.4-.8,2.056l-.465.96-.51.99a22.748,22.748,0,0,1-5.717,6.782,29.065,29.065,0,0,1-7.758,4.607,36.353,36.353,0,0,1-8.9,2.461,32.741,32.741,0,0,1-19.281-3,24.307,24.307,0,0,1-8.658-7.247,21.172,21.172,0,0,1-4.231-12.094A21.847,21.847,0,0,1,267,198.731a25.793,25.793,0,0,1,8.508-7.968,31.885,31.885,0,0,1,19.971-3.826,33.79,33.79,0,0,1,17.511,7.7,23.017,23.017,0,0,1,5.867,7.5,16.88,16.88,0,0,1,1.816,9.168Zm-3.481,0a11.043,11.043,0,0,0-3-6,15.529,15.529,0,0,0-5.612-3.6,24.308,24.308,0,0,0-13.069-.75,26.529,26.529,0,0,0-10.593,4.607,12.873,12.873,0,0,0-3,3.106,6.616,6.616,0,0,0-1.065,2.656,6.212,6.212,0,0,0,.525,3,12.215,12.215,0,0,0,2.836,3.811,23.363,23.363,0,0,0,11.269,5.507,26.483,26.483,0,0,0,6.992.36,22.972,22.972,0,0,0,6.932-1.741A16.19,16.19,0,0,0,315.183,218c.18-.24.39-.465.57-.72a9.3,9.3,0,0,0,1.17-2.431,7.784,7.784,0,0,0,.285-1.771A11.608,11.608,0,0,0,317.193,211.305Z" transform="translate(131.784 93.415)" fill="#231f20"/>
      <ellipse id="Ellipse_246" data-name="Ellipse 246" cx="23.408" cy="17.301" rx="23.408" ry="17.301" transform="translate(372.963 134.159)" fill="#1896a3"/>
      <path id="Path_843" data-name="Path 843" d="M299.344,108.1a15.95,15.95,0,0,1-2.011,8.913,22.507,22.507,0,0,1-6,7.067,32.816,32.816,0,0,1-17.136,6.812,31.255,31.255,0,0,1-18.936-4.021,24.458,24.458,0,0,1-7.863-7.5,20.137,20.137,0,0,1-3.376-11.344,19.626,19.626,0,0,1,3.8-11.074,23.6,23.6,0,0,1,8.028-6.767,32.305,32.305,0,0,1,18.4-3.346,33.386,33.386,0,0,1,16.505,6.332A21.833,21.833,0,0,1,299.344,108.1Zm-3.406,0v-1.771a10.235,10.235,0,0,0-.3-1.756,6.694,6.694,0,0,0-.675-1.666l-.435-.8-.54-.72a16.4,16.4,0,0,0-5.657-4.5,25.508,25.508,0,0,0-26.274,3,13.925,13.925,0,0,0-3.511,4.186,8.133,8.133,0,0,0-.945,4.051,7.878,7.878,0,0,0,1.381,3.766,14,14,0,0,0,3.616,3.616,26.814,26.814,0,0,0,11.644,4.5,25.358,25.358,0,0,0,13.429-1.621,16.505,16.505,0,0,0,5.522-3.991,12,12,0,0,0,2.746-6.3Z" transform="translate(122.13 43.358)" fill="#231f20"/>
      <ellipse id="Ellipse_247" data-name="Ellipse 247" cx="23.408" cy="17.301" rx="23.408" ry="17.301" transform="translate(427.836 151.46)" fill="#2abdc4"/>
      <path id="Path_844" data-name="Path 844" d="M335.463,119.426a15.98,15.98,0,0,1-2.146,8.808,22.4,22.4,0,0,1-6,6.812,32.216,32.216,0,0,1-16.911,6.272,31,31,0,0,1-18.276-4.141,23.317,23.317,0,0,1-7.5-7.1,19.1,19.1,0,0,1-3.2-10.654,18.8,18.8,0,0,1,3.541-10.5,23.573,23.573,0,0,1,7.5-6.632A31.81,31.81,0,0,1,310.315,98.7a32.741,32.741,0,0,1,16.37,5.867,20.722,20.722,0,0,1,8.778,14.855Zm-3.346,0a9.873,9.873,0,0,0-1.966-6.707,17.09,17.09,0,0,0-5.567-4.667,26.139,26.139,0,0,0-26.934,2.3,13.954,13.954,0,0,0-3.916,4.411,8.208,8.208,0,0,0,.345,9.138,14.765,14.765,0,0,0,4.006,3.946,27.01,27.01,0,0,0,12.3,4.321,25.988,25.988,0,0,0,13.654-2.176,16.505,16.505,0,0,0,5.477-4.246,12,12,0,0,0,2.6-6.317Z" transform="translate(140.854 49.334)" fill="#231f20"/>
      <ellipse id="Ellipse_248" data-name="Ellipse 248" cx="23.408" cy="17.301" rx="23.408" ry="17.301" transform="translate(555.663 147.318)" fill="#1896a3"/>
      <path id="Path_845" data-name="Path 845" d="M422.746,117.506a17.286,17.286,0,0,1-3.751,9.648,21.651,21.651,0,0,1-7.367,5.852,36.807,36.807,0,0,1-16.836,3.346,34.406,34.406,0,0,1-16.3-4.171,22.508,22.508,0,0,1-6.767-5.792,16.986,16.986,0,0,1-3.5-8.883,17.526,17.526,0,0,1,2.206-9.738,22.987,22.987,0,0,1,6.467-7.382,32.066,32.066,0,0,1,17.871-6.2,29.635,29.635,0,0,1,18.561,5.132,23.783,23.783,0,0,1,6.887,7.728A19.507,19.507,0,0,1,422.746,117.506Zm-9.108,0c-.42-3.511-3.286-6.227-6.827-7.983a32.216,32.216,0,0,0-12-3.316,26.739,26.739,0,0,0-12.694,2.251c-3.841,1.846-6.977,4.952-7.5,9a10.5,10.5,0,0,0,1.245,6.212,15.5,15.5,0,0,0,4.727,5.282,24.263,24.263,0,0,0,14.27,4.261A22.387,22.387,0,0,0,408.6,128.13a16.01,16.01,0,0,0,4.111-5.207,10.068,10.068,0,0,0,.93-5.417Z" transform="translate(184.279 47.113)" fill="#231f20"/>
      <path id="Path_846" data-name="Path 846" d="M187.026,494.142l37.947-162.278-34.106-96.437L120.344,184.05,39.137,198.245,13.194,255.218,1.55,258.234l13.1,29.17,39.673.06,17.6-36.132L115.5,282.858v62L19.961,501.69Z" transform="translate(0.776 92.116)" fill="#00a69c"/>
      <path id="Path_847" data-name="Path 847" d="M172.557,480.4a7.5,7.5,0,0,0,3.6-1.576,13.069,13.069,0,0,0,2.7-2.821,26.168,26.168,0,0,0,3.6-7.923l5.867-17.751c1.951-6,3.961-12,5.867-18.246s3.9-12.364,5.807-18.666l11.629-38.278c2.011-6.437,3.991-12.934,6-19.506l3.136-9.783,1.591-4.922A25.133,25.133,0,0,0,223.6,335.9v1.185l-46.2-92.145,5.282,7.1-69.008-53.193,9.618,2.236L40.273,204.9l1.5-1.2-21.442,59L18.831,267l-3-.42L2.851,264.835l1.38-2.866,17.781,27.009L15.425,284.7,55.1,289.923l-1.876,1.17,13.4-38.173,3-8.553,7.007,6,40.858,35.292.705.6.15,1.1,9.273,62,.42,2.836-2.086,3L22.507,507.359l-1.876-3.181c27.489-4.862,53.778-9.663,78.941-13.774S148.879,482.886,172.557,480.4Zm30.475,36.687c-32.021,0-63.591-.87-94.1-2.476s-59.915-3.886-88.124-6.242l-3.436-.285,1.5-2.9,87.659-161.648-1.666,5.912,9.318-62,.855,1.681L68.738,261.383l10.023-2.506L57.019,292.969l-.645,1.02-1.23.165-39.688,5.072-5.267.675-1.32-4.952L.42,263.679,0,262.089l1.8-1.335,10.413-7.668-4.607,3.871,30.415-54.933.465-.87,1.065-.33,79.391-24.578,4.4-1.365,5.222,3.6L200.436,228l4.4,3,.9,4.066,22,100.713.2.855-.12.33a24.73,24.73,0,0,0-1.125,5.117l-.8,5.222-1.606,10.5c-1.065,7.022-2.251,14.045-3.406,21.127L213.535,421.8c-1.26,7.217-2.461,14.54-3.676,21.907s-2.416,14.81-3.631,22.327l-3.661,22.792a68.81,68.81,0,0,0-1.14,12.364c0,2.3.105,4.712.33,7.322a71.527,71.527,0,0,0,1.29,8.568Z" transform="translate(0 87.526)" fill="#231f20"/>
      <path id="Path_848" data-name="Path 848" d="M137.225,481.513,23.982,486.63,115.5,329.978l3.586-65.076-46.11-32.561L54.322,272.584l-39.673-.06-13.1-29.17L15.91,245.8l24.143-1.08,33.011-30.94,37.5,6.662,45.66,59.96L171.061,386.4l9.783,93.151Z" transform="translate(0.776 106.996)" fill="#00887c"/>
      <path id="Path_849" data-name="Path 849" d="M172.557,480.4a7.5,7.5,0,0,0,3.6-1.576,13.069,13.069,0,0,0,2.7-2.821,26.168,26.168,0,0,0,3.6-7.923l5.867-17.751c1.951-6,3.961-12,5.867-18.246s3.9-12.364,5.807-18.666l11.629-38.278c2.011-6.437,3.991-12.934,6-19.506l3.136-9.783,1.591-4.922A25.133,25.133,0,0,0,223.6,335.9v1.185l-46.2-92.145,5.282,7.1-69.008-53.193,9.618,2.236L40.273,204.9l1.5-1.2-21.442,59L18.831,267l-3-.42L2.851,264.835l1.38-2.866,17.781,27.009L15.425,284.7,55.1,289.923l-1.876,1.17,13.4-38.173,3-8.553,7.007,6,40.858,35.292.705.6.15,1.1,9.273,62,.42,2.836-2.086,3L22.507,507.359l-1.876-3.181c27.489-4.862,53.778-9.663,78.941-13.774S148.879,482.886,172.557,480.4Zm30.475,36.687c-32.021,0-63.591-.87-94.1-2.476s-59.915-3.886-88.124-6.242l-3.436-.285,1.5-2.9,87.659-161.648-1.666,5.912,9.318-62,.855,1.681L68.738,261.383l10.023-2.506L57.019,292.969l-.645,1.02-1.23.165-39.688,5.072-5.267.675-1.32-4.952L.42,263.679,0,262.089l1.8-1.335,10.413-7.668-4.607,3.871,30.415-54.933.465-.87,1.065-.33,79.391-24.578,4.4-1.365,5.222,3.6L200.436,228l4.4,3,.9,4.066,22,100.713.2.855-.12.33a24.73,24.73,0,0,0-1.125,5.117l-.8,5.222-1.606,10.5c-1.065,7.022-2.251,14.045-3.406,21.127L213.535,421.8c-1.26,7.217-2.461,14.54-3.676,21.907s-2.416,14.81-3.631,22.327l-3.661,22.792a68.81,68.81,0,0,0-1.14,12.364c0,2.3.105,4.712.33,7.322a71.527,71.527,0,0,0,1.29,8.568Z" transform="translate(0 87.526)" fill="#231f20"/>
      <ellipse id="Ellipse_249" data-name="Ellipse 249" cx="23.408" cy="17.301" rx="23.408" ry="17.301" transform="translate(92.226 423.658) rotate(-2.58)" fill="#2abdc4"/>
      <path id="Path_850" data-name="Path 850" d="M114.773,298.316a19.582,19.582,0,0,1-2.146,10.894,22.3,22.3,0,0,1-6.857,8,26.845,26.845,0,0,1-9,4.171,33.7,33.7,0,0,1-9.5,1.17,32.321,32.321,0,0,1-17.8-5.567,23.483,23.483,0,0,1-6.6-6.932,17.511,17.511,0,0,1-2.581-9.273A16.836,16.836,0,0,1,63.2,292a22.163,22.163,0,0,1,6.242-6.137,36.013,36.013,0,0,1,15.92-5.327,34.512,34.512,0,0,1,17.286,2.326,21.817,21.817,0,0,1,7.833,5.687,17.856,17.856,0,0,1,4.291,9.768Zm-10.323.465a9.333,9.333,0,0,0-1.125-5.072,15.425,15.425,0,0,0-4.141-4.847,23.393,23.393,0,0,0-27.864-.285,16.235,16.235,0,0,0-4.742,5.447,11.014,11.014,0,0,0-1.155,6.542c.66,4.321,4.171,7.5,8.223,9.2a25.869,25.869,0,0,0,13.114,1.5,27.654,27.654,0,0,0,11.659-4.5,19.3,19.3,0,0,0,4.111-3.571A8.342,8.342,0,0,0,104.45,298.781Z" transform="translate(30.175 140.278)" fill="#231f20"/>
      <ellipse id="Ellipse_250" data-name="Ellipse 250" cx="23.408" cy="17.301" rx="23.408" ry="17.301" transform="translate(145.915 438.557) rotate(-2.58)" fill="#1896a3"/>
      <path id="Path_851" data-name="Path 851" d="M153.485,308.316a23.378,23.378,0,0,1-9.813,21.787,29.71,29.71,0,0,1-10.038,4.336,36.013,36.013,0,0,1-10.308.885,34.136,34.136,0,0,1-18.681-6.917,25.419,25.419,0,0,1-6.6-7.683,18.7,18.7,0,0,1-2.266-9.8,17.585,17.585,0,0,1,3.211-8.838,23.362,23.362,0,0,1,6.377-6,42.014,42.014,0,0,1,15.935-5.7,45.885,45.885,0,0,1,8.808-.525,30.822,30.822,0,0,1,9.288,1.786,22.673,22.673,0,0,1,8.868,5.732,19.852,19.852,0,0,1,5.222,10.939Zm-15.875.72a6.6,6.6,0,0,0-.21-3.871,12.769,12.769,0,0,0-3.106-4.787,20.9,20.9,0,0,0-27.009-1.7,15,15,0,0,0-4.607,5.537,10.113,10.113,0,0,0-.84,6.422,9.423,9.423,0,0,0,3.151,5.087,14.256,14.256,0,0,0,5.372,2.851,24.893,24.893,0,0,0,12.244.135,25.7,25.7,0,0,0,9.813-4.591c2.431-1.846,4.531-3.031,5.192-5.087Z" transform="translate(47.926 145.058)" fill="#231f20"/>
      <ellipse id="Ellipse_251" data-name="Ellipse 251" cx="23.437" cy="17.322" rx="23.437" ry="17.322" transform="translate(109.687 337.595) rotate(-2.862)" fill="#1896a3"/>
      <path id="Path_852" data-name="Path 852" d="M125.573,242.558a18.126,18.126,0,0,1-3.5,10.233,21.8,21.8,0,0,1-7.4,6.317,35.816,35.816,0,0,1-17.016,3.766,36.6,36.6,0,0,1-16.4-3.781,22.508,22.508,0,0,1-6.872-5.477,16.97,16.97,0,0,1-3.826-8.568,17.781,17.781,0,0,1,1.681-9.693,23.633,23.633,0,0,1,6-7.7,32.456,32.456,0,0,1,17.5-7.353,34.735,34.735,0,0,1,9.723.33,26.635,26.635,0,0,1,9.453,3.526,22.718,22.718,0,0,1,7.5,7.578,20.241,20.241,0,0,1,3.151,10.819Zm-10.774.5c-.63-3.136-3.406-5.327-6.752-7.007a29.4,29.4,0,0,0-11.734-3.2,25.884,25.884,0,0,0-12.664,2.461c-3.841,1.906-6.977,5.237-7.367,9.483a10.7,10.7,0,0,0,1.606,6.3,15.86,15.86,0,0,0,5.087,5.042,23.047,23.047,0,0,0,14.54,3.286,22.507,22.507,0,0,0,13.129-6,15.275,15.275,0,0,0,3.586-5.252,9.243,9.243,0,0,0,.555-5.117Z" transform="translate(35.265 110.163)" fill="#231f20"/>
      <ellipse id="Ellipse_252" data-name="Ellipse 252" cx="23.408" cy="17.301" rx="23.408" ry="17.301" transform="translate(39.06 482.066) rotate(-2.58)" fill="#2abdc4"/>
      <path id="Path_853" data-name="Path 853" d="M81.125,337.219a21.892,21.892,0,0,1-2.071,12,23.632,23.632,0,0,1-7.277,8.733,27.011,27.011,0,0,1-9.633,4.5,35.44,35.44,0,0,1-10.053,1.08,33.461,33.461,0,0,1-18.546-6.422,24.532,24.532,0,0,1-6.677-7.5A18.006,18.006,0,0,1,24.5,339.83a17.2,17.2,0,0,1,3.2-8.928,23.138,23.138,0,0,1,6.422-6,39.853,39.853,0,0,1,15.98-5.387,36.972,36.972,0,0,1,17.691,1.7,22.193,22.193,0,0,1,8.493,5.552,18.651,18.651,0,0,1,4.847,10.458Zm-13.5.6a8.028,8.028,0,0,0-.555-4.411,13.865,13.865,0,0,0-3.541-4.877A21.368,21.368,0,0,0,50.3,323.159a21.757,21.757,0,0,0-14.195,4.427,15.5,15.5,0,0,0-4.5,5.522,10.309,10.309,0,0,0-.855,6.377c.93,4.081,4.411,6.812,8.343,8.1a25.507,25.507,0,0,0,12.379.645,29.483,29.483,0,0,0,5.717-1.726,37.769,37.769,0,0,0,4.742-2.581C64.739,342.156,67.1,340.43,67.62,337.819Z" transform="translate(12.251 159.714)" fill="#231f20"/>
      <ellipse id="Ellipse_253" data-name="Ellipse 253" cx="23.408" cy="17.301" rx="23.408" ry="17.301" transform="translate(95.207 489.63) rotate(-2.58)" fill="#1896a3"/>
      <path id="Path_854" data-name="Path 854" d="M119.219,342.238a22.808,22.808,0,0,1-2,12.319,24.818,24.818,0,0,1-7.307,9.213,26.438,26.438,0,0,1-9.828,4.712,36.838,36.838,0,0,1-10.338,1.11,33.881,33.881,0,0,1-19.011-6.737,25.089,25.089,0,0,1-6.8-7.863,18.786,18.786,0,0,1-2.311-10.158,17.766,17.766,0,0,1,3.451-9.093,23.68,23.68,0,0,1,6.587-6,40.3,40.3,0,0,1,16.04-5.192,39.209,39.209,0,0,1,17.766,1.5,22.373,22.373,0,0,1,8.643,5.567,18.936,18.936,0,0,1,5.1,10.623Zm-14.525.66a7.622,7.622,0,0,0-.315-4.246,13.594,13.594,0,0,0-3.331-4.952,20.227,20.227,0,0,0-13.159-5.567,21.367,21.367,0,0,0-14.1,4.606,14.525,14.525,0,0,0-4.381,5.567,9.723,9.723,0,0,0-.63,6.212c1.08,3.856,4.5,6.272,8.3,7.383a20.362,20.362,0,0,0,6,.87,29,29,0,0,0,6-.54,27.191,27.191,0,0,0,5.447-1.7,41.8,41.8,0,0,0,4.5-2.3c2.686-1.531,5.027-2.956,5.642-5.342Z" transform="translate(30.83 162.228)" fill="#231f20"/>
      <path id="Path_855" data-name="Path 855" d="M613.15,508.544,532.618,394.567l23.9-116.438L624.3,264.5l49.546,32.2,14.87,44.595,27.249-34.676-19.821-84.238L603.232,161.69l-95.386,19.822L416.18,335.117V508.544Z" transform="translate(208.296 80.925)" fill="#00a69c"/>
      <path id="Path_856" data-name="Path 856" d="M597.3,498.786c-6-7.217-11.674-14.465-17.076-22s-10.5-15.335-15.4-23.693-9.663-17.286-14.54-26.769-9.843-19.506-15-29.86l-.435-.855.09-.78,13.685-118.539,1.08-9.318,8.718-.435,69.818-3.406h.945l.615.345,51.662,28.96,1.906,1.065.5,2.056,11.164,45.84-3.631-.63,24.788-36.627-.975,4.5-25-83.022,4.5,6.422-88.274-67.792,1.5.3-91.83,36.957,12.829-9.153L422.31,336.9l.285-1.065L432.768,509.26l-12.259-12.274c15.515-.855,30.685-1.635,45.54-2.131s29.41-.705,43.859-.525,28.824.735,43.349,1.5S582.458,497.706,597.3,498.786Zm40.288,20.872c-18.006,1.1-36.1,2.131-54.408,3s-36.747,1.38-55.128,1.5-36.672,0-54.633-.525-35.622-1.275-52.937-2.146l-12.949-.645.69-11.614L418.394,335.8v-.51l.255-.57,76.645-162.564,4.2-8.913,8.643-.225,98.943-2.7h.975l.585.33,97.532,53.613,3.751,2.071.735,4.351L725.3,306.213l.5,2.821-1.5,1.606L694.68,343.29,692.4,345.8l-1.335-3.136L672.5,299.281l2.416,3.121-47.431-35.457,1.5.3-65.707,23.843,9.783-9.753L538.958,395.673l-.345-1.621c8.208,8.628,16.641,17.6,25.193,27.129s17.211,19.581,25.718,30.2,16.851,21.817,24.863,33.3,15.77,23.273,23.228,34.976Z" transform="translate(203.966 80.239)" fill="#231f20"/>
      <path id="Path_857" data-name="Path 857" d="M589.6,488.3,521.152,374.322l19.581-113.152,72.1-16.911,49.546,32.2,18.576,39.868-8.673-78.566L622.12,202.14l-91.05,16.07-39.958,42.959L455.085,387.286l-16,101.013Z" transform="translate(219.762 101.17)" fill="#00887c"/>
      <path id="Path_858" data-name="Path 858" d="M597.3,498.786c-6-7.217-11.674-14.465-17.076-22s-10.5-15.335-15.4-23.693-9.663-17.286-14.54-26.769-9.843-19.506-15-29.86l-.435-.855.09-.78,13.685-118.539,1.08-9.318,8.718-.435,69.818-3.406h.945l.615.345,51.662,28.96,1.906,1.065.5,2.056,11.164,45.84-3.631-.63,24.788-36.627-.975,4.5-25-83.022,4.5,6.422-88.274-67.792,1.5.3-91.83,36.957,12.829-9.153L422.31,336.9l.285-1.065L432.768,509.26l-12.259-12.274c15.515-.855,30.685-1.635,45.54-2.131s29.41-.705,43.859-.525,28.824.735,43.349,1.5S582.458,497.706,597.3,498.786Zm40.288,20.872c-18.006,1.1-36.1,2.131-54.408,3s-36.747,1.38-55.128,1.5-36.672,0-54.633-.525-35.622-1.275-52.937-2.146l-12.949-.645.69-11.614L418.394,335.8v-.51l.255-.57,76.645-162.564,4.2-8.913,8.643-.225,98.943-2.7h.975l.585.33,97.532,53.613,3.751,2.071.735,4.351L725.3,306.213l.5,2.821-1.5,1.606L694.68,343.29,692.4,345.8l-1.335-3.136L672.5,299.281l2.416,3.121-47.431-35.457,1.5.3-65.707,23.843,9.783-9.753L538.958,395.673l-.345-1.621c8.208,8.628,16.641,17.6,25.193,27.129s17.211,19.581,25.718,30.2,16.851,21.817,24.863,33.3,15.77,23.273,23.228,34.976Z" transform="translate(203.966 80.239)" fill="#231f20"/>
      <ellipse id="Ellipse_254" data-name="Ellipse 254" cx="23.408" cy="17.301" rx="23.408" ry="17.301" transform="translate(737.088 488.456)" fill="#1896a3"/>
      <path id="Path_859" data-name="Path 859" d="M499.564,344.2a8.478,8.478,0,0,0,1.2,4.216,15.2,15.2,0,0,0,3.691,4.156,25.973,25.973,0,0,0,12.259,5.057,24.1,24.1,0,0,0,14.12-2.161,15.858,15.858,0,0,0,5.507-4.637,10.819,10.819,0,0,0,0-13.249,15.71,15.71,0,0,0-5.507-4.636,24.008,24.008,0,0,0-14.12-2.161,25.809,25.809,0,0,0-12.259,5.057,15.005,15.005,0,0,0-3.691,4.141A8.568,8.568,0,0,0,499.564,344.2Zm-12.484,0a19.356,19.356,0,0,1,3.526-10.894,23.3,23.3,0,0,1,7.818-6.9,31.316,31.316,0,0,1,18.291-3.391A34.212,34.212,0,0,1,533.22,329.3a23.066,23.066,0,0,1,6,6.422,15.785,15.785,0,0,1,0,16.971,23.063,23.063,0,0,1-6,6.422,34.2,34.2,0,0,1-16.505,6.272,31.18,31.18,0,0,1-18.291-3.376,23.348,23.348,0,0,1-7.818-6.917A19.282,19.282,0,0,1,487.08,344.2Z" transform="translate(243.781 161.557)" fill="#231f20"/>
      <ellipse id="Ellipse_255" data-name="Ellipse 255" cx="23.408" cy="17.301" rx="23.408" ry="17.301" transform="translate(674.847 471.155)" fill="#1896a3"/>
      <path id="Path_860" data-name="Path 860" d="M460.962,332.559c.135.24.18.465.285.675a3.194,3.194,0,0,0,.315.645c.165.21.15.45.27.69a1.26,1.26,0,0,1,.12.405,3.527,3.527,0,0,1,.18.42,10.714,10.714,0,0,0,2.716,3.751,22.7,22.7,0,0,0,11.134,5.327,26.9,26.9,0,0,0,6.872.36,21.831,21.831,0,0,0,6.782-1.741,15,15,0,0,0,5.537-4.171,11,11,0,0,0,2.521-6.362,11.524,11.524,0,0,0-1.966-6.722,15.7,15.7,0,0,0-5.387-4.907,23,23,0,0,0-26.364,3.691,11.239,11.239,0,0,0-2.866,4.427,5.717,5.717,0,0,0-.15,3.511Zm-16.776,0c.15-1.1.255-2.191.51-3.256a21.016,21.016,0,0,1,.975-3.076,17.361,17.361,0,0,1,1.41-2.791l.81-1.305.9-1.17a24.531,24.531,0,0,1,8.613-6.617,33.836,33.836,0,0,1,18.576-2.491,37.663,37.663,0,0,1,16.205,6.182,22.792,22.792,0,0,1,6.092,6.137,16.311,16.311,0,0,1,2.791,8.388,16.986,16.986,0,0,1-2.236,8.763,24.007,24.007,0,0,1-6,6.872,30.881,30.881,0,0,1-7.908,4.621,36.448,36.448,0,0,1-9,2.431,33.37,33.37,0,0,1-19.506-3.106,25.509,25.509,0,0,1-8.763-7.307c-.315-.405-.615-.825-.915-1.26a14.173,14.173,0,0,1-.78-1.41,14.374,14.374,0,0,1-1.2-3,18.37,18.37,0,0,1-.63-3.256,30.924,30.924,0,0,1,.06-3.346Z" transform="translate(222.273 155.897)" fill="#231f20"/>
      <ellipse id="Ellipse_256" data-name="Ellipse 256" cx="23.408" cy="17.301" rx="23.408" ry="17.301" transform="translate(683.73 382.896)" fill="#1896a3"/>
      <path id="Path_861" data-name="Path 861" d="M464.344,273.571c.105.33.135.66.21.975a8.36,8.36,0,0,0,.21.99,6.008,6.008,0,0,0,.255,1.05l.165.54.27.555a13.5,13.5,0,0,0,3.5,4.276,24.338,24.338,0,0,0,12.289,5.057,26,26,0,0,0,7.157-.09,21.142,21.142,0,0,0,6.887-2.206,15.891,15.891,0,0,0,5.462-4.592,11.6,11.6,0,0,0,2.326-6.557,11.823,11.823,0,0,0-2.1-6.707,16.505,16.505,0,0,0-5.417-4.877,23.692,23.692,0,0,0-14.315-2.656,24.007,24.007,0,0,0-12.634,5.312,13.234,13.234,0,0,0-3.556,4.5,7.292,7.292,0,0,0-.705,4.426Zm-13.024,0a20,20,0,0,1,4.036-10.744,23.919,23.919,0,0,1,7.923-6.5,33.012,33.012,0,0,1,18.006-3.136A34.992,34.992,0,0,1,497.49,259a22.282,22.282,0,0,1,6.077,6.182,15.935,15.935,0,0,1,2.641,8.4,16.28,16.28,0,0,1-2.416,8.538,22.506,22.506,0,0,1-6,6.467,33.775,33.775,0,0,1-16.505,6.152,32.576,32.576,0,0,1-18.291-3.376,23.676,23.676,0,0,1-8-6.782l-.825-1.14-.72-1.245a16.02,16.02,0,0,1-1.23-2.671,14.654,14.654,0,0,1-.735-2.926,25.229,25.229,0,0,1-.15-3.031Z" transform="translate(225.883 126.626)" fill="#231f20"/>
      <ellipse id="Ellipse_257" data-name="Ellipse 257" cx="23.408" cy="17.301" rx="23.408" ry="17.301" transform="translate(790.595 310.422)" fill="#2abdc4"/>
      <path id="Path_862" data-name="Path 862" d="M532.776,226.878a10.5,10.5,0,0,0,.78,5.717,15.08,15.08,0,0,0,4.111,5.537,19.671,19.671,0,0,0,14.1,4.411,23.183,23.183,0,0,0,13.655-5.117,14.241,14.241,0,0,0,3.961-5.237,8.659,8.659,0,0,0,.54-5.312c-.84-3.136-3.391-5.372-6.767-6.977a26.8,26.8,0,0,0-11.389-2.206,37.513,37.513,0,0,0-11.659,1.771C536.468,220.756,533.362,223.262,532.776,226.878Zm-8.793,0a19.973,19.973,0,0,1,2.221-10.5,26.187,26.187,0,0,1,6.662-8.208,29.77,29.77,0,0,1,18.906-6.677,33.281,33.281,0,0,1,19.191,6.242,25.044,25.044,0,0,1,7.157,8.133,19.505,19.505,0,0,1,2.3,11.044,18.142,18.142,0,0,1-4.2,9.8,22.991,22.991,0,0,1-7.5,5.837,35.1,35.1,0,0,1-16.941,3.226,46.516,46.516,0,0,1-16.505-4.021,22.372,22.372,0,0,1-7.382-5.522l-.78-.96-.675-1.05a13.092,13.092,0,0,1-1.215-2.266,16.7,16.7,0,0,1-.825-2.491,24.834,24.834,0,0,1-.36-2.581Z" transform="translate(262.23 100.844)" fill="#231f20"/>
      <ellipse id="Ellipse_258" data-name="Ellipse 258" cx="23.408" cy="17.301" rx="23.408" ry="17.301" transform="translate(825.902 345.039)" fill="#1896a3"/>
      <path id="Path_863" data-name="Path 863" d="M554.162,249.149c-.42,4.171,2.026,8.9,6.167,11.764a23,23,0,0,0,14.435,3.646,24.788,24.788,0,0,0,13.625-4.937,15.32,15.32,0,0,0,4.186-5.042,9.558,9.558,0,0,0,1.02-5.432c-.45-3.451-3-6.362-6.542-8.4a28.089,28.089,0,0,0-12.289-3.241A28.8,28.8,0,0,0,561.8,239.7C557.808,241.5,554.567,244.887,554.162,249.149Zm-5.6,0a17.75,17.75,0,0,1,2.281-9.468,23.692,23.692,0,0,1,6.317-7.247,30.6,30.6,0,0,1,17.571-6.257,31.12,31.12,0,0,1,18.291,5.192,23.407,23.407,0,0,1,7.052,7.382,18.606,18.606,0,0,1,2.641,10.4,17.9,17.9,0,0,1-3.736,9.663,22.389,22.389,0,0,1-7.292,6,33.01,33.01,0,0,1-16.955,3.5,36.957,36.957,0,0,1-16.13-4.8,23.438,23.438,0,0,1-6.692-5.657,16.161,16.161,0,0,1-3.346-8.7Z" transform="translate(274.546 113.191)" fill="#231f20"/>
      <circle id="Ellipse_259" data-name="Ellipse 259" cx="17.541" cy="17.541" r="17.541" transform="translate(737.733 395.86)" fill="#2abdc4"/>
      <path id="Path_864" data-name="Path 864" d="M500.189,277.273a15.531,15.531,0,0,0,.51,9,13.175,13.175,0,0,0,5.477,7.307,13.609,13.609,0,0,0,10.038,1.846,13.94,13.94,0,0,0,9.2-6.707,14.525,14.525,0,0,0,1.035-12.109,13.67,13.67,0,0,0-20.032-7.307,14.359,14.359,0,0,0-6.227,7.968Zm-9.753-4.426a20.872,20.872,0,0,1,13.4-10.383,21.367,21.367,0,0,1,15.485,2.206,22,22,0,0,1,9.663,11.014,20.843,20.843,0,0,1,.135,14.735A21.2,21.2,0,0,1,501.9,302.991a22,22,0,0,1-12.874-12.319,19.086,19.086,0,0,1-1.29-9.153,22.986,22.986,0,0,1,2.626-8.673Z" transform="translate(244.056 131.072)" fill="#231f20"/>
      <ellipse id="Ellipse_260" data-name="Ellipse 260" cx="23.408" cy="17.301" rx="23.408" ry="17.301" transform="translate(610.476 181.815)" fill="#2abdc4"/>
      <path id="Path_865" data-name="Path 865" d="M459.694,141.138a24.281,24.281,0,0,1-.45,2.611,16.506,16.506,0,0,1-.825,2.476,14.592,14.592,0,0,1-1.185,2.251l-.675,1.05-.78.945a22.508,22.508,0,0,1-7.322,5.522,45.93,45.93,0,0,1-16.431,4.111,35.006,35.006,0,0,1-16.941-3.3,23.244,23.244,0,0,1-7.5-5.852,18.216,18.216,0,0,1-4.186-9.813,19.356,19.356,0,0,1,2.326-11.044,25.118,25.118,0,0,1,7.157-8.1,33.191,33.191,0,0,1,19.161-6.152,29.74,29.74,0,0,1,18.816,6.692,26.034,26.034,0,0,1,6.632,8.148,19.957,19.957,0,0,1,2.206,10.458Zm-8.523,0c-.585-3.646-3.706-6.242-7.382-7.5a36.838,36.838,0,0,0-11.764-1.756,27.1,27.1,0,0,0-11.4,2.3c-3.376,1.621-5.912,3.886-6.737,7.037a8.688,8.688,0,0,0,.555,5.282A14.031,14.031,0,0,0,418.4,151.7a23.123,23.123,0,0,0,13.624,5.147,19.867,19.867,0,0,0,14.15-4.336,15.14,15.14,0,0,0,4.171-5.537,10.743,10.743,0,0,0,.825-5.837Z" transform="translate(201.859 57.977)" fill="#231f20"/>
      <ellipse id="Ellipse_261" data-name="Ellipse 261" cx="23.408" cy="17.301" rx="23.408" ry="17.301" transform="translate(345.459 271.349)" fill="#1896a3"/>
      <path id="Path_866" data-name="Path 866" d="M281.35,200.258c-.255,1.5-.21,3-.57,4.5a12.412,12.412,0,0,1-.63,2.176l-.42,1.065-.51,1.02a22.942,22.942,0,0,1-5.822,7.052,33.971,33.971,0,0,1-17,7.067,32.321,32.321,0,0,1-19.341-3.451,24.713,24.713,0,0,1-8.418-7.5,20.662,20.662,0,0,1-.15-24.008,25.508,25.508,0,0,1,8.388-7.622,32.216,32.216,0,0,1,19.506-3.691,33.717,33.717,0,0,1,17.241,7.232,22.823,22.823,0,0,1,5.882,7.217,16.386,16.386,0,0,1,1.846,8.943Zm-3.121,0a11.374,11.374,0,0,0-2.911-6.182,16.084,16.084,0,0,0-5.6-3.841A24.473,24.473,0,0,0,256.4,189.02a25.583,25.583,0,0,0-11.074,4.757,12.813,12.813,0,0,0-3.091,3.436,6.993,6.993,0,0,0-.96,3,6.617,6.617,0,0,0,.825,3.136,12.41,12.41,0,0,0,3,3.616,24.443,24.443,0,0,0,11.239,5,23.918,23.918,0,0,0,13.5-1.365,15.815,15.815,0,0,0,5.672-4.006l.585-.675.48-.72a10.283,10.283,0,0,0,.84-1.5,9.229,9.229,0,0,0,.615-1.666,5.836,5.836,0,0,0,.2-1.771Z" transform="translate(112.47 88.392)" fill="#231f20"/>
      <path id="Path_867" data-name="Path 867" d="M168.529,231.576,66.72,92.87,156.84,180Z" transform="translate(33.393 46.481)" fill="#7ec9cd"/>
      <path id="Path_868" data-name="Path 868" d="M134.57,105.71l14.48,57.949,23.678,44.085L160.589,150.5Z" transform="translate(67.351 52.907)" fill="#7ec9cd"/>
      <path id="Path_869" data-name="Path 869" d="M349.68,308.062l16.19-71.889,27.069-54.363L376.734,253.8Z" transform="translate(175.013 90.995)" fill="#7ec9cd"/>
      <path id="Path_870" data-name="Path 870" d="M361.27,316.082l33.761-64.206,47.581-64.716-37.077,78.9Z" transform="translate(180.813 93.672)" fill="#7ec9cd"/>
    </g>
  </g>
</svg>
