<svg xmlns="http://www.w3.org/2000/svg" viewBox="0 0 190.07 257.51"><defs><style>.cls-1,.cls-13,.cls-5,.cls-7{fill:#fff;}.cls-1,.cls-2{stroke:#231f20;stroke-miterlimit:10;stroke-width:3px;}.cls-12,.cls-2{fill:#231f20;}.cls-3{fill:#a39d5b;}.cls-4{fill:#7d773a;}.cls-5{font-size:20px;font-family:ComixLoud, Comix Loud;}.cls-6{fill:#58595b;}.cls-7{font-size:25px;font-family:ShowcardGothic-Reg, Showcard Gothic;}.cls-8{letter-spacing:1.24em;}.cls-9{fill:#e8e97e;}.cls-10{fill:#c5c260;}.cls-11{fill:#e8ea80;}</style></defs><g id="Layer_2" data-name="Layer 2"><g id="Layer_1-2" data-name="Layer 1"><rect class="cls-1" x="1.66" y="1.61" width="178.56" height="249.12" rx="9.67" transform="matrix(1, 0, 0, 1, -0.18, 0.13)"/><rect class="cls-2" x="1.66" y="1.61" width="178.56" height="249.12" rx="9.67" transform="matrix(1, 0, 0, 1, -0.18, 0.13)"/><rect class="cls-3" x="14.02" y="18.86" width="149.84" height="214.63" transform="translate(-0.18 0.12) rotate(-0.08)"/><path class="cls-4" d="M166.84,236.21l-9.44.19-9.51.14-19,.27-19.15.12H90.52c-12.77,0-25.58-.18-38.3-.32l-19.07-.35-9.5-.19-4.74-.1a5,5,0,0,1-4.74-2.16l-.22-.22L12.2,19V17.3h1.68l149.83-.82,2.27,0,0,2.29q.51,54.06.77,108.52T166.84,236.21Zm-5.67-5.65q-.27-52.86-.22-105.69t.48-106.11L163.71,21l-149.84-.4L15.54,19,14.39,233.59l-.22-.22a4.86,4.86,0,0,1,4.63-2.17l4.62-.11,9.23-.21L51,230.47c12.25-.17,24.42-.39,36.62-.43l18.28,0,18.31.07,18.41.22,9.23.11Z"/><text class="cls-5" transform="matrix(1, 0, 0, 1, 86.49, 233.87)">+100</text><ellipse class="cls-6" cx="99.36" cy="170.23" rx="48.4" ry="26.66" transform="translate(-5.2 3.14) rotate(-1.77)"/><path class="cls-6" d="M143.05,184.84a45.81,45.81,0,0,1-13.56,8.33,71.38,71.38,0,0,1-15,4.17,86.69,86.69,0,0,1-15.32,1.25A95.13,95.13,0,0,1,84,197.32c-2.51-.49-5-1-7.48-1.68a54.23,54.23,0,0,1-7.3-2.41A40.92,40.92,0,0,1,56,185.1a24.31,24.31,0,0,1-4.82-6.41,17.22,17.22,0,0,1-1.83-8,16.91,16.91,0,0,1,.62-4.13,19.67,19.67,0,0,1,.64-2c.28-.62.52-1.28.86-1.87a26.43,26.43,0,0,1,4.82-6.47,45.15,45.15,0,0,1,13.06-8.75,73.76,73.76,0,0,1,14.76-4.86,87,87,0,0,1,31-1.2c2.58.45,5.16.88,7.7,1.58a55.59,55.59,0,0,1,7.55,2.4A40.43,40.43,0,0,1,144.06,154a25.17,25.17,0,0,1,5,7,18.66,18.66,0,0,1,1.74,8.8,19.17,19.17,0,0,1-2.53,8.46A27.49,27.49,0,0,1,143.05,184.84Zm-3.89-4c3.22-3.22,5.47-7.2,5.47-11.19s-2.08-7.78-5.27-10.79a38.36,38.36,0,0,0-11.61-7.18,48.06,48.06,0,0,0-6.73-2.3,69,69,0,0,0-7-1.61,82.76,82.76,0,0,0-14.43-1.22,80,80,0,0,0-14.49,1.22,69.28,69.28,0,0,0-14,3.9A41.21,41.21,0,0,0,59,159.05c-3.43,3.16-6.12,7.24-6.32,11.74A14.12,14.12,0,0,0,54,177.34,19.76,19.76,0,0,0,58.05,183a37.69,37.69,0,0,0,12.18,7.67,51.28,51.28,0,0,0,7,2.28,63.39,63.39,0,0,0,7.22,1.51,78,78,0,0,0,14.72.74,76.56,76.56,0,0,0,14.57-2,72.15,72.15,0,0,0,13.78-4.59A40.46,40.46,0,0,0,139.16,180.81Z"/><text class="cls-7" transform="matrix(1, 0, 0, 1, 10.41, 31.06)">Gold <tspan class="cls-8" x="0" y="30">	</tspan><tspan x="36" y="30">Dubloon</tspan></text><ellipse class="cls-9" cx="86.74" cy="133.56" rx="47.75" ry="54.27" transform="translate(-0.19 0.12) rotate(-0.08)"/><path class="cls-10" d="M54.58,93.43l57.05,85.12s-36.87,28-65.56-16.58C46.07,162,27.42,125.39,54.58,93.43Z"/><polygon class="cls-10" points="60.65 88.24 117.63 174.95 129.87 154.9 67.16 84.04 60.65 88.24"/><ellipse class="cls-11" cx="84.96" cy="135.13" rx="33.66" ry="42.56" transform="translate(-0.19 0.12) rotate(-0.08)"/><path class="cls-12" d="M48.63,135.19c.13-10.47,3-21,9.21-29.7A38.17,38.17,0,0,1,69.47,94.68a29.3,29.3,0,0,1,30.74.17,37.76,37.76,0,0,1,11.37,10.85c6,8.65,8.76,19,9,29.38a51.92,51.92,0,0,1-8.6,29.64,38.24,38.24,0,0,1-11.44,11,29.8,29.8,0,0,1-31.22.33,38.76,38.76,0,0,1-11.85-10.9,45.11,45.11,0,0,1-6.86-14.35l-.53-1.92c-.19-.64-.27-1.29-.41-1.94a34.62,34.62,0,0,1-.64-3.91c-.12-1.31-.3-2.62-.32-3.93Zm5.33,0,.23,3.56c.09,1.18.35,2.35.5,3.52s.46,2.32.68,3.47c.14.58.22,1.17.4,1.73l.52,1.69a46.87,46.87,0,0,0,6,12.59,33.1,33.1,0,0,0,9.84,9.5,24.49,24.49,0,0,0,25.84.25,33.33,33.33,0,0,0,10.2-9.43c5.55-7.69,8.29-17.34,8.45-27a45.83,45.83,0,0,0-8.21-27.17,33.92,33.92,0,0,0-10.32-9.55,25,25,0,0,0-26.32.25,33.51,33.51,0,0,0-10,9.65A47.3,47.3,0,0,0,54,135.18Z"/><polygon class="cls-10" points="67.91 109.05 101.68 161.95 95.44 170.4 60.7 118.75 67.91 109.05"/><polygon class="cls-10" points="58.79 130.77 84.84 170.41 81.23 172.56 58.8 139.76 58.79 130.77"/><path class="cls-13" d="M84.91,101.58l5.48-2.93s20,12.94,21,31.39-2.47,15.72-2.47,15.72l-4-8.23S107.87,114.94,84.91,101.58Z"/><path class="cls-12" d="M139.7,133.48c-.14,14.46-5,29-14.45,40.16a53.18,53.18,0,0,1-17.1,13.52,46.71,46.71,0,0,1-42.45-.38,52.39,52.39,0,0,1-16.61-13.65,61,61,0,0,1-10.18-18.66,67.24,67.24,0,0,1-3.73-20.84,63,63,0,0,1,13.24-40,53.2,53.2,0,0,1,16.75-14,47.54,47.54,0,0,1,43.3-.67A54.31,54.31,0,0,1,126,92.66a56.37,56.37,0,0,1,10.69,19.26,61.53,61.53,0,0,1,2.49,10.68A77.81,77.81,0,0,1,139.7,133.48Zm-10.42,0a50.12,50.12,0,0,0-1.14-9.08,59,59,0,0,0-2.41-8.73A56.53,56.53,0,0,0,117,100.1a43,43,0,0,0-13.5-11.26,37.55,37.55,0,0,0-34-.56,43.78,43.78,0,0,0-14.2,11,51,51,0,0,0-9.22,15.93,57.4,57.4,0,0,0-3.31,18.36,55.29,55.29,0,0,0,2.84,18.53,50.45,50.45,0,0,0,9.23,16.19,44.69,44.69,0,0,0,14.41,11.3,38.26,38.26,0,0,0,34.82-.48A44.12,44.12,0,0,0,118,167.63a50.93,50.93,0,0,0,8.61-16A56.21,56.21,0,0,0,129.28,133.5Z"/><path class="cls-13" d="M123.55,84.1s7.9,6.19,0,19.16c0,0,9-7.34,13.24,0,0,0-4-11.55,2.51-19.16C139.33,84.08,131.17,92.82,123.55,84.1Z"/><path class="cls-13" d="M23.29,173.13s9.19-1.88,13.67,11.56c0,0,.22-10.85,8-9.44,0,0-10.62-4.16-12.14-13.37C32.81,161.88,34.12,173,23.29,173.13Z"/></g></g></svg>