<svg xmlns="http://www.w3.org/2000/svg" width="781.806" height="536.977" viewBox="0 0 781.806 536.977"><path d="M131.727,1288.4l86.378,5.268,6.748,31.326,5.111-23.773,4.688,15.646,7.427-23.2,150-5.268,10.428,5.268,11.407-5.268,78.567,5.268,58.886,7.554,78.854-7.554,3.075,13.31,4.228-18.578,121.948,5.268,12-5.268s59.322-1.835,58.881,0-9.428,76.955-9.428,76.955l-9.39,3.245,9.39,4.99v72.1l-9.39,3.636h7.214l-19.891,6.768,25.8,3.735s-2.878,27.352-3.734,28.921,5.8,48.584,5.8,48.584l-7.974,4.229,7.974,4.534-3.779,59.052H814.1l6.82,4.283-10.885,5.132,12.905,2.3,3.779,79.688-3.779,3.891,7.759,3.381,5.969,47.087-54.731,4.585-6.575-26.723-2.178,18.739s-39.355-4.062-41.659-4.119-53.854,4.119-53.854,4.119l-2.492-13.054-1.6,8.935-6.17-14.62-3.625,22.138-55.973-3.4-3.411-13.054-3.284,13.054-59.752,3.4s-119.2-14.851-120.491-16.453-3.215-18.144-3.85-16.575-5.633,18.643-5.633,18.643l-74.078,6.866-35.746-6.866-82.583,4.959-3.639-12.9-3.736,12.9-6.172-23.6-2.373,16.575-3.474-5.867-3.8,12.9-29.11-2.07-4.094-10.825-9.29,10.825-2.428,9.075L97.64,1750.37l-4.292-62.718,11.808-35.044,9.983-2.907-9.983-5.03-5.584-78.99,3.623-28.247,6.5-1.781-10.119-4.5-2.116-75.066,12.235-74.762-10.119-7.454-4.3-90.751,34.562-1.619Z" transform="matrix(0.996, -0.087, 0.087, 0.996, -204.683, -1203.7)" fill="#bbb392" opacity="0.234"/></svg>