<svg xmlns="http://www.w3.org/2000/svg" viewBox="0 0 674.84 705.09"><defs><style>.cls-1,.cls-6{fill:#f1f1f2;}.cls-1{stroke:#231f20;stroke-miterlimit:10;stroke-width:31.83px;}.cls-2{fill:#fff;}.cls-3{fill:#231f20;}.cls-4{fill:#404041;}.cls-5{fill:#6d6e70;}</style></defs><g id="Layer_2" data-name="Layer 2"><g id="Layer_1-2" data-name="Layer 1"><path class="cls-1" d="M197.89,518.22a43.45,43.45,0,0,0-6.2-.29c-2.79.21-7.11,2.4-6.79,6.56.42,5.26,10.3,9.79,10.81,19,.63,11.47-11.32,18-21.48,18.8-9.32.72-13,.13-13,.13S160,558.3,159,555.8c-1-2.66-2.71-6.54-2.71-6.54a64.29,64.29,0,0,0,8,.48c4.29-.39,7.95-1.63,7.59-5.79-.48-5.62-4.67-6.86-15.11-13.15-6.75-4-11.39-9-12.08-17-1.44-16.7,17.26-23.23,31-24.27a109.6,109.6,0,0,1,18.49.53Q196,504.14,197.89,518.22Z" transform="translate(0 0)"/><path class="cls-1" d="M268.27,486q-.28,14.23-.55,28.47s-4.3-.36-6.85-.38c-3.1,0-9.4.12-9.4.12s-.42,5.32-.54,12.91c-.15,9.69-.41,19.43-.65,29.14-10.34.48-15.51.75-25.84,1.37-1-9.53-2.09-19.09-3.37-28.57-1-7.25-1.91-13.15-1.91-13.15l-8.59.82-7.77,1.17q-1.65-14.13-3.32-28.27Q233.86,487.3,268.27,486Z" transform="translate(0 0)"/><path class="cls-1" d="M345.78,517.94c-.2,20.13-15.06,38.41-36,38.76-21.15.37-36.58-17.25-37.42-37.6-.9-21.49,15.3-36.53,36.25-36.85S346,496.61,345.78,517.94ZM319.64,526c-.08-6.86-3-12.58-10.43-12.46-7.6.12-9.83,5.83-9.69,12.86.13,6,3.94,14.28,10,14.18S319.7,531.93,319.64,526Z" transform="translate(0 0)"/><path class="cls-1" d="M405.73,541.51s-1.27,3.6-2.2,6.79-1.54,6.81-1.54,6.81q-24.19-.78-48.42-.92c-.23-11.68-.53-23.39-1.11-35-.57-11.46-1.47-23-2.4-34.47q19.23.09,38.46.54c-1,11.68-2.12,23.39-2.95,35-.69,9.77-1.5,22.48-1.5,22.48s4.4.16,15.68-.52C402.07,542.13,405.73,541.51,405.73,541.51Z" transform="translate(0 0)"/><path class="cls-1" d="M468.33,488.7q-2.08,14.21-4.15,28.42s-4-.8-8.66-1.44-10-1-10-1c-.5,3.42-.74,5.14-1.23,8.56,6.45.52,19.49.93,19.49.93s-1.33,3.26-2.27,6.08-1.72,6.29-1.72,6.29a61.4,61.4,0,0,0-7.8-1.29c-3.06-.32-8.63-.56-8.63-.56-.43,4-.65,6-1.08,10.06,0,0,8.1.38,14.9.27,2.2,0,6.79-.7,6.79-.7s-1,2.77-2.4,6.62c-1,2.89-2.29,6.82-2.29,6.82q-23.89-1.47-47.84-2.32c-.1-11.83-.24-23.7-.28-35.5,0-11.32-.42-22.71-.95-34Q439.28,487,468.33,488.7Z" transform="translate(0 0)"/><path class="cls-1" d="M535.72,526.1c-1.9,12.69-3.54,25.46-5.07,38.22-6.75-5.31-13.17-10.64-20.09-15.8-5.72-4.27-11.84-8.34-17.75-12.51-1,9.55-1.44,14.32-2.39,23.87-6.86-.52-10.3-.77-17.17-1.24.22-11.56.34-23.17.35-34.69s-.1-23.3-.51-34.94c11.1.73,16.65,1.13,27.74,2,7.74,7,11.57,10.53,19.17,17.6,0,0,.49-5.27.55-8.6.05-3,0-7.34,0-7.34,8.19.73,12.28,1.11,20.47,1.92C539.1,505.08,537.3,515.59,535.72,526.1Z" transform="translate(0 0)"/><path class="cls-1" d="M122.89,608.24q.87,14.21,1.76,28.42s-4.09-.06-6.49.1c-2.93.2-8.86.8-8.86.8s0,5.33.53,12.9c.63,9.67,1.17,19.4,1.73,29.1-9.7,1.21-14.55,1.85-24.24,3.19-1.74-9.43-3.53-18.87-5.5-28.23-1.51-7.16-2.87-13-2.87-13-3.22.56-4.83.85-8,1.43l-7.25,1.71q-2.71-14-5.44-27.94Q90.5,612.06,122.89,608.24Z" transform="translate(0 0)"/><path class="cls-1" d="M198.06,627.24c.65,10.46-5.78,19.81-15.17,24.07a102.74,102.74,0,0,0,8,7.89c3.37,3,9.42,7.16,9.42,7.16s-4.65,1.92-10.12,4.7c-5.88,3-10.22,5.42-10.22,5.42a77.85,77.85,0,0,1-7.25-7.82c-2.81-3.44-7.9-10.89-7.9-10.89h-.11c.39,6.33.59,9.49,1,15.82q-14.16,1.33-28.31,2.91c-1.8-10.69-3.54-21.41-5.14-32.13-1.83-12.2-4-24.36-6.24-36.49,0,0,13.38-2.75,26-4.06C169.6,602,196.63,604.29,198.06,627.24Zm-22.57,11.6c-.56-6.36-7.72-6.84-12.34-6.22l1.15,15.43C168.47,647.66,176.06,645.3,175.49,638.84Z" transform="translate(0 0)"/><path class="cls-1" d="M254,597.78q-.48,14.36-.92,28.69s-3.83-.37-8.28-.52-9.52,0-9.52,0c-.11,3.46-.16,5.19-.26,8.65,6.11-.16,18.39-1.13,18.39-1.13s-.91,3.38-1.49,6.28-1,6.44-1,6.44a54.31,54.31,0,0,0-7.45-.46c-2.91,0-8.16.35-8.16.35l0,10.11s7.64-.47,14-1.3c2.06-.27,6.29-1.41,6.29-1.41s-.67,2.86-1.55,6.84c-.66,3-1.43,7-1.43,7q-22.57,1.15-45.11,2.71c-1.35-11.76-2.73-23.54-4-35.28-1.24-11.25-2.82-22.53-4.51-33.75Q226.54,599.11,254,597.78Z" transform="translate(0 0)"/><path class="cls-1" d="M323.18,665.37c-11,.11-16.55.2-27.59.47-.8-2.39-1.2-3.58-2-6a39.17,39.17,0,0,0-5.73,2.93,58.71,58.71,0,0,0-6.47,4.74s-1.77-3.1-3.08-5.37c-1-1.72-2.64-4.45-2.64-4.45-1,3.52-1.44,5.28-2.38,8.8-5.87.21-8.8.33-14.67.59,3-12.38,6-24.81,8.58-37.25C269.42,619,271.4,608,273.1,597q15.69-.56,31.41-.85,3.94,16.55,8.53,32.93Q318.08,647.21,323.18,665.37ZM291,651.13s-1.81-4.77-3.24-7.69c-1.56-3.19-4.33-8.12-4.33-8.12s-2.17,5.36-3.4,8.72c-1.35,3.73-2.92,9.46-2.92,9.46s3-.18,6.85-.78A63.44,63.44,0,0,0,291,651.13Z" transform="translate(0 0)"/><path class="cls-1" d="M370.65,624.5a39.51,39.51,0,0,0-5.8-.83c-2.64,0-6.89,1.78-6.93,6-.05,5.28,8.83,10.59,8.58,19.82-.3,11.12-11.67,17-21.72,16.87-8.82-.08-12.2-1-12.2-1s-.87-4.18-1.58-6.76c-.76-2.74-2-6.75-2-6.75a56.82,56.82,0,0,0,7.49,1.18c4.06,0,7.6-.93,7.61-5.1,0-5.65-3.83-7.25-13.12-14.43-6-4.6-10-9.91-10-18,0-16.26,17.47-21.64,31.12-21.47a98.82,98.82,0,0,1,17.36,2.13Q370.08,610.32,370.65,624.5Z" transform="translate(0 0)"/><path class="cls-1" d="M446,598.72c-.89,9.73-1.86,19.49-2.77,29.16-1.19,12.52-1.88,25.19-2.58,37.8a117,117,0,0,1-26.53,2.93c-28.58-.38-36.08-20.1-38-45-1.15-15-1.42-27.44-1.42-27.44q16.89.35,33.77.9s-.91,12-1.32,19.41c-.44,8-.64,21.29-.64,21.29-.38,13.62,1.23,18.1,9.75,18.45a11.48,11.48,0,0,0,4-.76c.41-9.87.71-19.77.63-29.64-.07-9.42-.36-18.87-.72-28.31C430.53,597.9,435.69,598.15,446,598.72Z" transform="translate(0 0)"/><path class="cls-1" d="M518.05,630.19c-1.12,10.43-9,18.56-19,21.17a102.05,102.05,0,0,0,6.54,9.13c2.82,3.5,8.08,8.64,8.08,8.64s-4.91,1.12-10.77,2.93c-6.3,1.94-11,3.62-11,3.62a78.51,78.51,0,0,1-5.82-8.93c-2.19-3.87-5.95-12.07-5.95-12.07H480l-1.7,15.76q-14.18-1.08-28.37-1.9c0-10.85.11-21.71.35-32.55.26-12.32.17-24.68,0-37,0,0,13.63-.45,26.32.39C494.26,600.53,520.52,607.34,518.05,630.19Zm-24.21,7.64c.52-6.37-6.45-8.05-11.1-8.22-.59,6.16-.89,9.24-1.48,15.4C485.44,645.33,493.31,644.29,493.84,637.83Z" transform="translate(0 0)"/><path class="cls-1" d="M578.25,610.61q-2.89,14.07-5.76,28.13s-3.72-1-8.08-1.92-9.41-1.56-9.41-1.56c-.69,3.39-1,5.08-1.71,8.47,6.05.88,18.34,2,18.34,2s-1.47,3.19-2.54,5.94-2,6.19-2,6.19a54.13,54.13,0,0,0-7.28-1.71c-2.87-.49-8.11-1-8.11-1l-1.65,10s7.61.83,14,1.09c2.08.08,6.45-.33,6.45-.33s-1.15,2.7-2.69,6.48c-1.15,2.82-2.6,6.68-2.6,6.68q-22.46-2.68-45-5c.65-11.82,1.28-23.67,2-35.45.68-11.3,1-22.69,1.25-34Q550.9,607.29,578.25,610.61Z" transform="translate(0 0)"/><path class="cls-1" d="M619.89,616.28c-3.93,9-6,14.13-9.45,23.34-3.25,8.59-8.06,19.15-7.78,22.37-2.85,0-3.39-.13-5.47-.21-2.5-.09-4-.08-6.34,0-.31-9.48-.45-15-1.07-24.53-.65-9.85-1.58-15.62-2.26-25.43Q603.72,614,619.89,616.28Zm-14.67,61c-.69,4.77-6.52,7.48-12.27,6.69-6.15-.85-11-5-10.38-9.9s6.16-7.61,12.68-6.71C601,668.2,605.94,672.28,605.22,677.32Z" transform="translate(0 0)"/><path class="cls-2" d="M139,429.54l420.7-302.25s-45.37-36.51-13.5-64.67,66.49,9.62,54.38,32.62c0,0,64.92-14.86,56,45s1,58.46-27.61,52.94-37-18.59-37-18.59S202.8,424.28,160.44,456.17,86.85,484.69,139,429.54Z" transform="translate(0 0)"/><path class="cls-3" d="M133.17,422.85,239.7,348.6l53.1-37.28,26.54-18.65,26.47-18.73,52.9-37.48,52.78-37.64c35.09-25.2,70.2-50.38,105-75.94l-.23,8.65h0c-1-.48-1.8-.85-2.65-1.31s-1.66-.91-2.48-1.39c-1.62-.95-3.21-2-4.75-3.06a72.51,72.51,0,0,1-8.85-7.32,57.3,57.3,0,0,1-14-20.63,42.23,42.23,0,0,1-2.73-14.34,39.56,39.56,0,0,1,2.93-15.4,46,46,0,0,1,7.9-12.75,59.41,59.41,0,0,1,10.17-9.24,60.86,60.86,0,0,1,6-3.74,53.85,53.85,0,0,1,6.8-3,44.16,44.16,0,0,1,15.2-2.49A42.87,42.87,0,0,1,585,40a44,44,0,0,1,12.58,7.72,43.37,43.37,0,0,1,14.11,23.81,34.4,34.4,0,0,1,0,14,24.74,24.74,0,0,1-6.38,12.26l-6-7.84h0c.64-.46,1.11-.82,1.66-1.19s1.07-.73,1.61-1A34.2,34.2,0,0,1,606,85.91a46.8,46.8,0,0,1,6.94-2.7,49.41,49.41,0,0,1,15.09-2,45.67,45.67,0,0,1,16.28,3.38,44.9,44.9,0,0,1,15.42,10.51,42.6,42.6,0,0,1,5.83,7.78,45.41,45.41,0,0,1,3.84,8.59,51.6,51.6,0,0,1,2,8.61,61.52,61.52,0,0,1,.72,8.3,79.09,79.09,0,0,1-.26,7.91c-.13,1.26-.22,2.56-.4,3.8l-.48,3.51c-.59,4.14-1.2,8.27-1.74,12.41s-1,8.3-1.54,12.47-.91,8.38-1.48,12.8c-.28,2.23-.57,4.49-1,7.07-.22,1.3-.48,2.67-.89,4.28a27.94,27.94,0,0,1-2.15,5.93,20.59,20.59,0,0,1-2.73,4.14,18.54,18.54,0,0,1-4.83,4,19,19,0,0,1-5.38,2.09,21.31,21.31,0,0,1-4.15.49,30.82,30.82,0,0,1-5.45-.38c-1.46-.21-2.72-.48-3.9-.73-2.35-.52-4.45-1-6.51-1.55l-3.11-.76c-1.16-.3-2.32-.57-3.49-.91-2.32-.62-4.65-1.36-7-2.16s-4.6-1.72-6.87-2.73a73.43,73.43,0,0,1-13.22-7.53,55,55,0,0,1-6.12-5.14c-1-1-1.94-2-2.89-3.08-.48-.55-.94-1.15-1.41-1.77l-.73-1-.39-.57-.58-.9,14,3h0c-42.83,29.31-86,58.13-129.15,87l-64.82,43.1-64.9,42.94C295.34,384.67,252,413.21,209,441.93c-10.73,7.19-21.47,14.45-31.86,21.69-2.68,1.85-5,3.55-7.52,5.4q-4.22,3.15-8.63,6.11A144.77,144.77,0,0,1,142,486a70.61,70.61,0,0,1-11.32,4.25,45.91,45.91,0,0,1-7,1.33,31.14,31.14,0,0,1-9.58-.36,22.75,22.75,0,0,1-6.87-2.59,19.35,19.35,0,0,1-9.69-14.95,21.9,21.9,0,0,1,.23-6.11,29,29,0,0,1,2.7-7.89,46.32,46.32,0,0,1,3.34-5.57,81.45,81.45,0,0,1,7.13-8.79c2.44-2.66,4.88-5.15,7.32-7.58Zm11.68,13.38a5.6,5.6,0,0,1-.36.49l-.21.25-.39.45-1.53,1.8c-1,1.21-2,2.43-3,3.67-1.91,2.5-3.71,5.05-5.36,7.65a87.08,87.08,0,0,0-4.46,7.91,57.29,57.29,0,0,0-3.18,7.7,17.63,17.63,0,0,0-.76,3.24c-.11.9-.06,1.63.18,1.49s.25-.42.23-1.26a8.1,8.1,0,0,0-1.14-3.69,10.28,10.28,0,0,0-3.38-3.46,10.81,10.81,0,0,0-2.27-1.06c-.81-.24-.47-.24.11-.43s1.5-.43,2.49-.77a69.57,69.57,0,0,0,6.82-2.75A113.39,113.39,0,0,0,143.43,449c2.44-1.63,4.86-3.36,7.24-5.15,2.69-2,5.62-4.13,8.28-6,10.87-7.63,21.67-14.83,32.52-22.07,21.67-14.45,43.42-28.64,65.21-42.79s43.63-28.18,65.49-42.18L355,309.85,387.89,289l65.95-41.42C497.91,220.14,542,192.77,586.53,166h0l14,3.05c-.21-.34-.1-.19-.11-.24l.1.06.29.24.77.6c.54.43,1.16.87,1.81,1.31a45.5,45.5,0,0,0,4.27,2.45,60.86,60.86,0,0,0,9.84,3.87,89,89,0,0,0,10.83,2.5c.92.17,1.87.29,2.81.43l3.21.49c2.15.33,4.26.67,6.13.92.93.12,1.8.21,2.47.25s1.14,0,1,0a3.4,3.4,0,0,0-1,.1,8.16,8.16,0,0,0-2.4.92,9.41,9.41,0,0,0-2.39,1.95,8.85,8.85,0,0,0-1,1.43c-.29.56-.19.29-.11-.16s.19-1.23.29-2.05c.2-1.67.36-3.68.51-5.72.29-4.12.64-8.49,1-12.84s.8-8.76,1.31-13.14,1.05-8.76,1.7-13.11l.4-2.88c.14-.88.18-1.73.28-2.59.12-1.7.22-3.38.18-5a32.4,32.4,0,0,0-.3-4.53,22.87,22.87,0,0,0-.82-3.93,16.51,16.51,0,0,0-3.07-5.79c-2.56-3.2-7.62-5.25-14.1-7.37-3.23-1-6.8-2-10.61-3.08-1.9-.53-3.87-1-5.89-1.64-1-.28-2-.59-3.07-.91-.52-.15-1-.32-1.57-.51a10.16,10.16,0,0,1-1.5-.56h0L596,117.23l-.19-24.52a19.81,19.81,0,0,0-1.44-7.5,25.61,25.61,0,0,0-3.49-6.08,30.53,30.53,0,0,0-10.3-8.55,22.88,22.88,0,0,0-5.47-1.93,18.6,18.6,0,0,0-5-.35,19.88,19.88,0,0,0-4.95,1A24.74,24.74,0,0,0,559.71,72a30.59,30.59,0,0,0-2.81,2,28.16,28.16,0,0,0-2.53,2.16,23.21,23.21,0,0,0-2,2.13,16.24,16.24,0,0,0-1.53,2.08A13.33,13.33,0,0,0,549,84.81a18.17,18.17,0,0,0-.27,6c.46,4.59,2.33,10.09,5,15.58,1.33,2.75,2.81,5.55,4.43,8.35q1.21,2.1,2.51,4.2l1.29,2.11c.42.68.91,1.43,1.25,2h0l5.32,4.74-5.56,3.91c-35.28,24.81-70.28,50-105.3,75.18l-52.4,37.92-52.27,38.08-26.12,19.05-26.05,19.14-52.07,38.28Z" transform="translate(0 0)"/><path class="cls-2" d="M145.44,80.35S196.66,50.12,159.94,29,96.63,39.26,96.63,39.26s-16.92,36.26,0,41.09S60.69,41.68,37.57,63.43s-40,72.52-11,82.19,70.1-2.42,77.35-12.08S548.63,434.38,548.63,434.38s-19.44,33.84,0,48.35,72.75,12.08,60.6-9.67c0,0,57.75,33.84,57.85-24.18s-55.5-79.77-82.09-43.51Z" transform="translate(0 0)"/><path class="cls-3" d="M140,80.07l7.11-11.91c.74-1.21,1.45-2.41,2.12-3.61s1.35-2.34,1.95-3.51a60.45,60.45,0,0,0,3.12-6.62,19.17,19.17,0,0,0,1.46-5.49c.13-1.47-.28-2.4-.81-2.25s-.88,1.34-.93,2-.36.67-1.25.27c-.39-.18-1-.43-1.6-.74l-2.23-1A46.67,46.67,0,0,0,139,44c-3.07-.51-5.81-.95-9.12-1.38a91.12,91.12,0,0,0-12-.61c-1.19,0-2.45,0-3.75.1s-2.66.14-4.11.19l-4.45.29c-.77.06-1.56.11-2.38.15-.39,0-.82,0-1.23.07a4.71,4.71,0,0,1-1.2,0h0l.78-1.21-.9,2.88c-.31,1-.6,2-.87,3-.55,2-1.05,4-1.49,6a60.7,60.7,0,0,0-1.56,11.52,20.18,20.18,0,0,0,.4,4.77A4,4,0,0,0,98.21,72c.3.13.17,0,.84.09.23,0,.44,0,.14,0a4.3,4.3,0,0,0-1.41,0,5.92,5.92,0,0,0-.88.19,6.48,6.48,0,0,0-1.34.52,8.09,8.09,0,0,0-4.3,5.71,8.07,8.07,0,0,0-.15,1.78,7.24,7.24,0,0,0,.32,2,6.93,6.93,0,0,0,.45,1.12c.12.24,0,.1-.15,0-.36-.34-1-.87-1.6-1.38S88.75,80.86,88,80.33c-1.51-1.06-3.13-2.09-4.78-3.08a83.68,83.68,0,0,0-10.38-5.18,60.15,60.15,0,0,0-10.58-3.36,30,30,0,0,0-9.6-.65,12.48,12.48,0,0,0-6.58,2.46c-.21.17-.42.34-.61.52s-.35.33-.72.7c-.63.62-1.26,1.27-1.88,1.94C41.63,75,40.44,76.46,39.29,78A89.55,89.55,0,0,0,27.78,97.86c-3,7.06-5.06,14.56-5.38,21.36a25.85,25.85,0,0,0,1,8.94,10,10,0,0,0,3.41,5.17,10.4,10.4,0,0,0,2.82,1.53L30,135l.6.19c.42.14.84.27,1.27.39.85.25,1.72.47,2.6.69a66.58,66.58,0,0,0,11,1.58,98.69,98.69,0,0,0,23.3-1.45,103,103,0,0,0,11.44-2.71,67.67,67.67,0,0,0,10.39-4,25.24,25.24,0,0,0,3.82-2.28,8,8,0,0,0,.67-.56.1.1,0,0,0,0,0c-.24.39-.08-.13,1.7-1.8a11.33,11.33,0,0,1,3.69-2.12,11.67,11.67,0,0,1,2.48-.58,12.51,12.51,0,0,1,1.6-.1,13.34,13.34,0,0,1,2,.16,17.06,17.06,0,0,1,2.18.48c.55.16,1,.31,1.44.46,1.65.6,2.84,1.15,4,1.7s2.24,1.1,3.3,1.65c2.1,1.11,4.1,2.21,6.06,3.34,7.83,4.52,15.25,9.18,22.67,13.89s14.73,9.49,22,14.29q21.88,14.42,43.47,29.13c28.86,19.54,57.39,39.49,85.92,59.44q21.38,15,42.69,30.06l42.53,30.27q85,60.69,168.91,122.75h0l1.31.3.26,6.85c0,.55-.07,1.27-.11,1.9l-.18,2-.37,3.84c-.23,2.53-.43,5-.55,7.34a50.62,50.62,0,0,0,.56,12.4,14.91,14.91,0,0,0,1.34,4,8.71,8.71,0,0,0,1.64,2.22,10.5,10.5,0,0,0,1.07.92,19,19,0,0,0,1.76,1.18,35.55,35.55,0,0,0,5,2.36,73.13,73.13,0,0,0,12.57,3.49,91.28,91.28,0,0,0,13.48,1.55,53.84,53.84,0,0,0,6.39-.09,34.56,34.56,0,0,0,5.19-.73,11.89,11.89,0,0,1,1.52-.3c.34,0,.61.11.89.09s.66-.25.84-.9a6.52,6.52,0,0,0,.09-2.56h0l-8.84-16L612,468.36c.74.4,1.73.89,2.62,1.31s1.86.85,2.8,1.25q2.82,1.2,5.7,2.21a64.76,64.76,0,0,0,11.55,2.92,32.26,32.26,0,0,0,10.84,0,14.85,14.85,0,0,0,8-4.07,19.13,19.13,0,0,0,4.43-8.27,34.65,34.65,0,0,0,1.06-5.31,50.09,50.09,0,0,0,.42-5.7,76.28,76.28,0,0,0-.65-11.79,65.59,65.59,0,0,0-2.49-11.34,52,52,0,0,0-10.85-19.32,38.58,38.58,0,0,0-17.42-11.17,29.53,29.53,0,0,0-19.08.66A32.4,32.4,0,0,0,594.06,412h0l-7.1,8.92-8.64-6.53q-110.92-83.79-220.64-168Q248.12,162.5,140,80.07Zm10.86.57q111.4,80.22,221.88,158.66,110.26,78.6,218.92,157l-15.74,2.39h0a58.52,58.52,0,0,1,11.42-11.3A50.36,50.36,0,0,1,602,379.86a48.82,48.82,0,0,1,16.28-2.36,51.28,51.28,0,0,1,15.86,3,57.41,57.41,0,0,1,25,18A69.3,69.3,0,0,1,672.26,425a81.22,81.22,0,0,1,2.31,14.25,90.39,90.39,0,0,1,0,14.25,63.34,63.34,0,0,1-.95,7.26,48.59,48.59,0,0,1-1.93,7.37,37.76,37.76,0,0,1-3.4,7.29,29.72,29.72,0,0,1-5.41,6.57,27.05,27.05,0,0,1-7.28,4.69,30.25,30.25,0,0,1-8,2.21,44.41,44.41,0,0,1-15.1-.73A75.21,75.21,0,0,1,619,484q-3.21-1.32-6.31-2.85c-1-.51-2-1-3.07-1.59s-2-1.09-3.12-1.78l7.5-7.35v0a16.75,16.75,0,0,1,3.09,4.86,14.66,14.66,0,0,1,1,7.06,16.08,16.08,0,0,1-2.64,7.22,21.68,21.68,0,0,1-4.53,5,36.05,36.05,0,0,1-9.56,5.47,57.27,57.27,0,0,1-9.41,2.78,75,75,0,0,1-18.61,1.37,72.64,72.64,0,0,1-18.78-3.32,52.89,52.89,0,0,1-9.66-4.17A43,43,0,0,1,540,493.4a32.61,32.61,0,0,1-4.81-4.54,32.1,32.1,0,0,1-6.38-11.6,35.63,35.63,0,0,1-1.45-11.81,46,46,0,0,1,5.35-19.23,52.46,52.46,0,0,1,4.93-7.77c.92-1.21,1.88-2.37,2.92-3.49.51-.56,1.06-1.11,1.6-1.65s1.1-1,1.78-1.64l1.57,7.15h0Q459,380.35,372.9,321.47l-86.29-58.6q-43.16-29.25-86.55-58.1-21.69-14.42-43.5-28.55-10.91-7-21.88-13.9c-7.3-4.54-14.66-9-22-13.16-1.81-1-3.62-2-5.37-2.92-.88-.46-1.74-.89-2.54-1.26s-1.58-.71-2-.84l-.11,0a4.32,4.32,0,0,0,.59.12,7.79,7.79,0,0,0,1.16.09,10.07,10.07,0,0,0,1.2-.08,9.18,9.18,0,0,0,2.08-.49,10.37,10.37,0,0,0,3.33-1.92c1.68-1.59,1.76-2,1.44-1.5L112,141a26.87,26.87,0,0,1-4.1,3.87,47.8,47.8,0,0,1-7.31,4.51,89.41,89.41,0,0,1-13.88,5.46,124.24,124.24,0,0,1-13.92,3.38,120.23,120.23,0,0,1-28.64,1.88A88.22,88.22,0,0,1,29.37,158c-1.23-.29-2.47-.61-3.7-1-.62-.18-1.24-.36-1.86-.56l-.94-.31-1.11-.4a32.74,32.74,0,0,1-8.58-4.7,31.23,31.23,0,0,1-6.93-7.36A35.12,35.12,0,0,1,2.08,135a47.85,47.85,0,0,1-2-16.83,74.45,74.45,0,0,1,2.35-15.15,99.2,99.2,0,0,1,4.71-13.9,112.69,112.69,0,0,1,6.52-12.94,96.73,96.73,0,0,1,8.3-12c1.55-1.92,3.18-3.79,4.93-5.61.87-.91,1.78-1.81,2.71-2.69.41-.39,1.07-1,1.69-1.5s1.28-1,1.94-1.5a32.63,32.63,0,0,1,8.69-4.4,37.13,37.13,0,0,1,9-1.74,50.77,50.77,0,0,1,16.27,1.81,77.06,77.06,0,0,1,14,5.35A94.49,94.49,0,0,1,93.6,61.33c2,1.39,3.92,2.86,5.83,4.49.95.82,1.9,1.67,2.87,2.6a39.56,39.56,0,0,1,3,3.24,20.14,20.14,0,0,1,1.79,2.57,12.25,12.25,0,0,1,1.14,2.58,10.33,10.33,0,0,1,.48,2.76,9.7,9.7,0,0,1-.17,2.18,9.37,9.37,0,0,1-5,6.64,9.39,9.39,0,0,1-1.72.67,10.84,10.84,0,0,1-1.28.28,11.37,11.37,0,0,1-3,0,17.78,17.78,0,0,1-3-.68,18.75,18.75,0,0,1-5.36-2.63,17.37,17.37,0,0,1-4.36-4.49,21,21,0,0,1-3.24-9.86,34.46,34.46,0,0,1,.36-8.24,66.54,66.54,0,0,1,3.92-13.95Q87,46.27,88.5,43.16c1-2.1,2-4.06,3.2-6.2l.57-1,.21-.22h0a5.58,5.58,0,0,0,.15-.86c0-.27.06-.53.1-.78.09-.5.16-1,.28-1.49a28.79,28.79,0,0,1,.73-2.84,34.22,34.22,0,0,1,2.1-5.32A40,40,0,0,1,102.23,15,45.27,45.27,0,0,1,122.37,2.24,49.77,49.77,0,0,1,147.58,1.1a66.08,66.08,0,0,1,11.81,3.61,71.15,71.15,0,0,1,10.42,5.42,57.36,57.36,0,0,1,10.32,8.12c.85.83,1.73,1.8,2.57,2.75s1.66,2.05,2.47,3.22a37.55,37.55,0,0,1,4.25,7.83,33.31,33.31,0,0,1,2.27,9.41,32.33,32.33,0,0,1-.49,9.39,35.13,35.13,0,0,1-6.32,14,43.77,43.77,0,0,1-8.5,8.58,55.54,55.54,0,0,1-9,5.65c-1.54.76-3.08,1.45-4.62,2.1s-3.13,1.17-4.7,1.68-3.17.94-4.81,1.29c-.8.19-1.62.36-2.45.49-.42.08-.83.15-1.26.21l-.64.08-.33,0-.17,0-.08,0c.26-.22-.72.53.81-.63A5.45,5.45,0,0,0,150.87,80.64Z" transform="translate(0 0)"/><path class="cls-2" d="M306.25,344.38,292,404.82H480.46L448,308.12l62.85,9.67,29-33.84H467.34s130.19-108.78,13.12-178.88S228,88.15,228,88.15,117.43,242.86,194.49,284s84.7,29,84.7,29l-72.46,9.67s-19.79,7.25,11.63,19.34S306.25,344.38,306.25,344.38Z" transform="translate(0 0)"/><path class="cls-3" d="M307.58,343.14c.09.8.24,1.73.3,2.78a18.83,18.83,0,0,1-.12,3.26L307,349l-2.94,58.68L292,392.35h0l188.49,4.29-7.75,10.78h0l-34.34-96.05-5.54-15.51,16.72,2.24h0L511.13,316l-1.65.61h0a28.62,28.62,0,0,1,1.75-5.84,42.69,42.69,0,0,1,2.53-5.17,53.69,53.69,0,0,1,6.58-9,65.22,65.22,0,0,1,8.12-7.71,42.32,42.32,0,0,1,10-6.09l1.38,3h0l-72.51,3.72-14.47.74,10.93-10.51h0c1.58-1.63,3.3-3.47,4.92-5.25s3.24-3.64,4.82-5.49c3.17-3.69,6.24-7.48,9.17-11.34a219.83,219.83,0,0,0,16.07-23.89,145.11,145.11,0,0,0,11.77-25.26,84.4,84.4,0,0,0,5-25.56,55.85,55.85,0,0,0-4.15-23.4A63,63,0,0,0,498,140a102.41,102.41,0,0,0-20.28-15.59c-1.89-1.14-3.82-2.25-5.79-3.31l-6.09-3.22c-4.14-2.06-8.29-4.07-12.53-5.88a222.54,222.54,0,0,0-25.93-9.43l-3.31-1-3.34-.9c-2.21-.62-4.45-1.14-6.68-1.71-4.48-1-9-2-13.51-2.83a260.08,260.08,0,0,0-27.44-3.47c-9.21-.7-18.47-1-27.74-.8-4.64.09-9.28.27-13.91.58s-9.28.64-13.9,1.13c-9.26,1-18.49,2.33-27.65,4s-18.26,3.76-27.23,6.11c-4.47,1.19-8.91,2.47-13.27,3.83-2.18.67-4.34,1.37-6.45,2.09l-3.11,1.09-1.48.54-1.14.43,11.3-8.81h0l-.12.12-.16.19-.34.4-.69.84-1.42,1.75L243,109.72q-2.84,3.63-5.63,7.36-5.58,7.45-10.89,15.14c-7.07,10.25-13.76,20.75-19.88,31.48a283.65,283.65,0,0,0-16.2,32.88c-4.52,11.16-8.1,22.58-9.58,33.78s-.74,22.07,3.89,31a37.64,37.64,0,0,0,9.8,11.94c1.06.84,2.14,1.68,3.3,2.44l.88.59,1,.65,2,1.28c2.72,1.72,5.46,3.4,8.21,5.08,11,6.69,22.14,13.07,33.62,18.68a163.22,163.22,0,0,0,17.53,7.43,64,64,0,0,0,9,2.45,26.3,26.3,0,0,0,4.42.45,10.64,10.64,0,0,0,2-.17,4.15,4.15,0,0,0,.83-.22,1.55,1.55,0,0,0,.31-.12l.08,0s.08-.07-.08.17l1.77,2.77h0c-5.93,1.66-11.88,3.07-17.85,4.4s-11.95,2.55-17.95,3.69-12,2.2-18,3.21l-9,1.46-9,1.35,1.34-.33c.1,0-.06,0-.11.06l-.25.12L208,329a7.62,7.62,0,0,0-.86.55c-.5.35-.63.69-.42.3a2.08,2.08,0,0,0,.18-.92,1.65,1.65,0,0,0-.11-.63,3.72,3.72,0,0,0,.81.94,24.49,24.49,0,0,0,4.92,3.27c2,1.05,4.08,2,6.27,2.95l1.65.68,1.6.6c1.05.41,2.16.74,3.26,1.1,2.2.71,4.49,1.28,6.79,1.81a132,132,0,0,0,14.26,2.3,280.5,280.5,0,0,0,29.56,1.47c5,0,10-.07,15-.21,2.51-.05,5-.13,7.52-.25l3.76-.16,1.88-.09.94-.05.47,0h.29l.2,0h.34A2.16,2.16,0,0,1,307.58,343.14Zm-2.65,2.49a1.57,1.57,0,0,0,1,.59,1.34,1.34,0,0,0,.28,0h.14l-.06,0-.23.06-.47.13-.93.25-1.86.46-3.73.87c-2.49.54-5,1-7.51,1.51q-7.53,1.38-15.17,2.27A193.78,193.78,0,0,1,245.51,353a124.13,124.13,0,0,1-15.71-1.67c-2.63-.49-5.27-1.05-7.9-1.77-1.32-.37-2.64-.73-4-1.21l-1.95-.68-1.87-.71a78.79,78.79,0,0,1-7.48-3.34,36.26,36.26,0,0,1-7.62-5.11,15.88,15.88,0,0,1-3.8-5,11,11,0,0,1-1-4.27,10.58,10.58,0,0,1,.93-4.6,13.54,13.54,0,0,1,4.51-5.33,20.7,20.7,0,0,1,2.33-1.46c.39-.21.78-.41,1.18-.59l.62-.27.76-.31.69-.25.65-.08,9.07-1.06,9.09-1c6.07-.6,12.14-1.17,18.22-1.62s12.18-.86,18.29-1.14,12.23-.48,18.38-.44h0l4.27-.9-2.5,3.67a3.77,3.77,0,0,1-.5.61c-.14.14-.26.23-.39.34a6,6,0,0,1-.74.5,9,9,0,0,1-1.44.65,14.62,14.62,0,0,1-2.76.68,29.81,29.81,0,0,1-5.3.27,67.69,67.69,0,0,1-10.13-1.17,167.37,167.37,0,0,1-19.36-4.95c-12.65-4-25-8.75-37.11-13.83-3-1.28-6.07-2.56-9.08-3.89l-2.26-1-1.13-.5-1.26-.58c-1.69-.79-3.35-1.69-5-2.63a57.5,57.5,0,0,1-17.38-15.59,64.34,64.34,0,0,1-10.06-21.3,94,94,0,0,1-3.05-22.39c-.28-14.77,2-28.88,5.23-42.47a317.16,317.16,0,0,1,12.49-39.45c4.92-12.77,10.43-25.21,16.38-37.42q4.47-9.17,9.29-18.16,2.42-4.5,4.94-9l2.57-4.49L206,75.91l.69-1.15.36-.6.43-.68h0L212,67.18l6.79-2.52,2.37-.87,2.05-.72,4-1.32c2.63-.85,5.23-1.64,7.83-2.39,5.21-1.51,10.41-2.83,15.62-4.08,10.41-2.47,20.9-4.38,31.44-5.93s21.16-2.55,31.8-3.17,21.35-.72,32-.3,21.39,1.32,32,2.76a305.63,305.63,0,0,1,31.66,6.18,265.46,265.46,0,0,1,60.25,23.05c4.77,2.49,9.42,5.2,14,8,2.29,1.44,4.54,2.82,6.83,4.33s4.58,3.11,6.84,4.76a135.4,135.4,0,0,1,25.07,23.3,90.7,90.7,0,0,1,17.11,31.53,83.32,83.32,0,0,1,2.59,35.66,110.14,110.14,0,0,1-10.14,32.16,162.7,162.7,0,0,1-17,27.18,222.25,222.25,0,0,1-20.75,23.3q-5.55,5.4-11.38,10.44c-1.95,1.68-3.94,3.31-5.94,4.93s-4,3.15-6.23,4.76h0l-3.55-9.77,72.51,3.72h0l2.41-1.29-1,4.28A42.74,42.74,0,0,1,536.76,296a65.78,65.78,0,0,1-6.38,9.2,54.2,54.2,0,0,1-7.92,7.89,45,45,0,0,1-4.72,3.29,28.34,28.34,0,0,1-5.51,2.62h0l-.42.64-1.23,0-64.12-1.43h0l11.17-13.27,30.58,97.32h0l3.8,10.51-11.55.26L292,417.28h0l-17.46-3.22L279.84,402l23.66-53.78-.74-.18a4.66,4.66,0,0,1,.88-.94A8.82,8.82,0,0,0,304.93,345.63Z" transform="translate(0 0)"/><ellipse class="cls-4" cx="316.26" cy="285.16" rx="25.38" ry="19.94"/><path class="cls-3" d="M344.06,285.16a23.55,23.55,0,0,1-3.46,9.31,28.64,28.64,0,0,1-6.14,7.53,36.4,36.4,0,0,1-18.2,8.09,35.16,35.16,0,0,1-21.43-3.48,27.46,27.46,0,0,1-9.43-8.24,24.58,24.58,0,0,1-4.58-13.21,25.63,25.63,0,0,1,3.52-13.85,29.12,29.12,0,0,1,9.1-9.59,33.72,33.72,0,0,1,22.82-5.19,35.58,35.58,0,0,1,19.88,9.39,27.79,27.79,0,0,1,6.24,8.87A20.8,20.8,0,0,1,344.06,285.16Zm-4.83,0c-.16-.63-.26-1.25-.44-1.85a16.19,16.19,0,0,0-.68-1.72,12,12,0,0,0-.93-1.59,10.28,10.28,0,0,0-1.14-1.42,15.57,15.57,0,0,0-6-4,24.35,24.35,0,0,0-13.8-.71,28.13,28.13,0,0,0-10.86,4.92,14.83,14.83,0,0,0-3.12,3.23,8.35,8.35,0,0,0-1.34,3.11,7.87,7.87,0,0,0,.28,3.74,13.06,13.06,0,0,0,2.78,4.6,22.76,22.76,0,0,0,12.26,6.62,23.75,23.75,0,0,0,15.48-2,15.78,15.78,0,0,0,6.08-5.29A11.53,11.53,0,0,0,339.23,285.16Z" transform="translate(0 0)"/><circle class="cls-5" cx="398.98" cy="244.59" r="49.18"/><path class="cls-3" d="M467,244.59a57.37,57.37,0,0,1-26,42.11c-1.73,1-3.42,2-5.12,2.95s-3.53,1.65-5.28,2.38-3.57,1.3-5.35,1.85-3.59,1-5.38,1.35a72.4,72.4,0,0,1-40.48-3.55,59.8,59.8,0,0,1-17.22-10.36,61.33,61.33,0,0,1-13.22-16,62,62,0,0,1-6.72-44.17,63.1,63.1,0,0,1,10.28-22.92c1.33-1.69,2.69-3.41,4.12-5.1s3.05-3.2,4.68-4.72,3.44-2.89,5.25-4.25,3.75-2.59,5.73-3.74A65.69,65.69,0,0,1,399,172a67.64,67.64,0,0,1,28.6,3.56,57.77,57.77,0,0,1,24.33,16.1,60.87,60.87,0,0,1,13.31,25.49A75.89,75.89,0,0,1,467,244.59Zm-37.77,0a22.94,22.94,0,0,0-5.68-10.18,50,50,0,0,0-8-6.43c-2.61-1.76-5-3.48-7.58-5.22a32,32,0,0,0-9-3.92,33,33,0,0,0-11-.9c-1,.12-1.94.28-3,.39s-2,.49-3,.71-2,.69-3.06,1l-3,1.38a33.81,33.81,0,0,0-11,9,35.45,35.45,0,0,0-6.85,14.16,36.94,36.94,0,0,0,.14,17,38.81,38.81,0,0,0,8.09,15.87,41.11,41.11,0,0,0,14.68,11A36.16,36.16,0,0,0,399,291.23a34.21,34.21,0,0,0,16.66-6.41c1.17-.89,2.28-1.84,3.35-2.77s2-2.09,2.92-3.12,1.67-2.28,2.47-3.37l2-3.52a38.07,38.07,0,0,0,4-14.44A41.68,41.68,0,0,0,429.27,244.59Z" transform="translate(0 0)"/><line class="cls-5" x1="341.64" y1="352.24" x2="328.05" y2="404.82"/><polygon class="cls-3" points="343.4 352.69 334.42 406.47 321.67 403.17 339.89 351.79 343.4 352.69"/><line class="cls-5" x1="367.93" y1="364.93" x2="367.93" y2="404.82"/><polygon class="cls-3" points="369.74 364.93 377 404.82 358.87 404.82 366.12 364.93 369.74 364.93"/><line class="cls-5" x1="423.23" y1="364.93" x2="436.82" y2="404.82"/><polygon class="cls-3" points="424.94 364.35 444.67 402.14 428.98 407.49 421.51 365.52 424.94 364.35"/><path class="cls-1" d="M197.89,522.71a43.45,43.45,0,0,0-6.2-.29c-2.79.21-7.11,2.4-6.79,6.56.42,5.26,10.3,9.79,10.81,19,.63,11.47-11.32,18-21.48,18.8-9.32.72-13,.13-13,.13s-1.28-4.08-2.26-6.58c-1-2.66-2.71-6.54-2.71-6.54a64.29,64.29,0,0,0,8,.48c4.29-.39,7.95-1.63,7.59-5.79-.48-5.62-4.67-6.87-15.11-13.15-6.75-4-11.39-9-12.08-17-1.44-16.7,17.26-23.24,31-24.27a109.6,109.6,0,0,1,18.49.53Q196,508.63,197.89,522.71Z" transform="translate(0 0)"/><path class="cls-1" d="M268.27,490.46q-.28,14.24-.55,28.47s-4.3-.36-6.85-.38c-3.1,0-9.4.12-9.4.12s-.42,5.32-.54,12.91c-.15,9.69-.41,19.43-.65,29.14-10.34.48-15.51.75-25.84,1.37-1-9.53-2.09-19.09-3.37-28.57-1-7.25-1.91-13.15-1.91-13.15l-8.59.82-7.77,1.17q-1.65-14.13-3.32-28.27Q233.86,491.8,268.27,490.46Z" transform="translate(0 0)"/><path class="cls-1" d="M345.78,522.43c-.2,20.13-15.06,38.41-36,38.76-21.15.37-36.58-17.26-37.42-37.6-.9-21.49,15.3-36.53,36.25-36.85S346,501.1,345.78,522.43Zm-26.14,8.07c-.08-6.86-3-12.58-10.43-12.46-7.6.12-9.83,5.83-9.69,12.86.13,6,3.94,14.28,10,14.18S319.7,536.42,319.64,530.5Z" transform="translate(0 0)"/><path class="cls-1" d="M405.73,546s-1.27,3.6-2.2,6.79S402,559.6,402,559.6q-24.19-.78-48.42-.92c-.23-11.68-.53-23.39-1.11-35-.57-11.47-1.47-23-2.4-34.47q19.23.09,38.46.54c-1,11.68-2.12,23.39-2.95,35-.69,9.77-1.5,22.48-1.5,22.48s4.4.16,15.68-.52C402.07,546.62,405.73,546,405.73,546Z" transform="translate(0 0)"/><path class="cls-1" d="M468.33,493.19q-2.08,14.21-4.15,28.42s-4-.8-8.66-1.44-10-1-10-1c-.5,3.42-.74,5.14-1.23,8.56,6.45.52,19.49.93,19.49.93s-1.33,3.26-2.27,6.07-1.72,6.3-1.72,6.3a61.4,61.4,0,0,0-7.8-1.29c-3.06-.32-8.63-.56-8.63-.56-.43,4-.65,6-1.08,10.06,0,0,8.1.38,14.9.27,2.2,0,6.79-.7,6.79-.7s-1,2.76-2.4,6.62c-1,2.89-2.29,6.82-2.29,6.82q-23.89-1.47-47.84-2.32c-.1-11.83-.24-23.7-.28-35.5,0-11.32-.42-22.71-.95-34Q439.28,491.45,468.33,493.19Z" transform="translate(0 0)"/><path class="cls-1" d="M535.72,530.59c-1.9,12.69-3.54,25.46-5.07,38.22-6.75-5.31-13.17-10.64-20.09-15.8-5.72-4.27-11.84-8.34-17.75-12.51-1,9.55-1.44,14.32-2.39,23.87-6.86-.52-10.3-.77-17.17-1.24.22-11.56.34-23.17.35-34.69s-.1-23.3-.51-34.94c11.1.73,16.65,1.13,27.74,2,7.74,7,11.57,10.52,19.17,17.6,0,0,.49-5.27.55-8.6.05-3,0-7.35,0-7.35,8.19.73,12.28,1.12,20.47,1.93C539.1,509.57,537.3,520.07,535.72,530.59Z" transform="translate(0 0)"/><path class="cls-1" d="M122.89,612.73q.87,14.21,1.76,28.42s-4.09-.06-6.49.1c-2.93.2-8.86.8-8.86.8s0,5.33.53,12.9c.63,9.67,1.17,19.4,1.73,29.09-9.7,1.22-14.55,1.86-24.24,3.2-1.74-9.43-3.53-18.87-5.5-28.23C80.31,651.85,79,646,79,646c-3.22.56-4.83.85-8,1.43l-7.25,1.71q-2.71-14-5.44-27.94Q90.5,616.53,122.89,612.73Z" transform="translate(0 0)"/><path class="cls-1" d="M198.06,631.73c.65,10.46-5.78,19.81-15.17,24.07a102.74,102.74,0,0,0,8,7.89c3.37,3,9.42,7.16,9.42,7.16s-4.65,1.92-10.12,4.7C184.29,678.53,180,681,180,681a77.85,77.85,0,0,1-7.25-7.82c-2.81-3.44-7.9-10.89-7.9-10.89h-.11c.39,6.33.59,9.49,1,15.82q-14.16,1.33-28.31,2.91c-1.8-10.7-3.54-21.41-5.14-32.14-1.83-12.19-4-24.35-6.24-36.48,0,0,13.38-2.75,26-4.06C169.6,606.5,196.63,608.78,198.06,631.73Zm-22.57,11.6c-.56-6.36-7.72-6.84-12.34-6.22l1.15,15.43C168.47,652.14,176.06,649.79,175.49,643.33Z" transform="translate(0 0)"/><path class="cls-1" d="M254,602.27q-.48,14.34-.92,28.69s-3.83-.37-8.28-.52-9.52,0-9.52,0c-.11,3.46-.16,5.19-.26,8.65,6.11-.16,18.39-1.13,18.39-1.13s-.91,3.38-1.49,6.28-1,6.44-1,6.44a54.31,54.31,0,0,0-7.45-.46c-2.91,0-8.16.35-8.16.35l0,10.11s7.64-.47,14-1.3c2.06-.27,6.29-1.41,6.29-1.41s-.67,2.86-1.55,6.84c-.66,3-1.43,7-1.43,7q-22.57,1.15-45.11,2.71c-1.35-11.76-2.73-23.54-4-35.28-1.24-11.25-2.82-22.53-4.51-33.75Q226.54,603.6,254,602.27Z" transform="translate(0 0)"/><path class="cls-1" d="M323.18,669.86c-11,.11-16.55.2-27.59.47-.8-2.39-1.2-3.59-2-6a38.59,38.59,0,0,0-5.73,2.93,58.71,58.71,0,0,0-6.47,4.74s-1.77-3.1-3.08-5.37c-1-1.72-2.64-4.45-2.64-4.45-1,3.52-1.44,5.28-2.38,8.8-5.87.21-8.8.33-14.67.59,3-12.38,6-24.81,8.58-37.25,2.23-10.87,4.21-21.85,5.91-32.85q15.69-.57,31.41-.85,3.94,16.54,8.53,32.93Q318.08,651.7,323.18,669.86ZM291,655.62s-1.81-4.77-3.24-7.69c-1.56-3.19-4.33-8.12-4.33-8.12s-2.17,5.36-3.4,8.72c-1.35,3.73-2.92,9.46-2.92,9.46s3-.18,6.85-.78A63.44,63.44,0,0,0,291,655.62Z" transform="translate(0 0)"/><path class="cls-1" d="M370.65,629a39.51,39.51,0,0,0-5.8-.83c-2.64,0-6.89,1.78-6.93,6-.05,5.27,8.83,10.59,8.58,19.82-.3,11.12-11.67,17-21.72,16.87-8.82-.08-12.2-1-12.2-1s-.87-4.18-1.58-6.76c-.76-2.74-2-6.75-2-6.75a55.57,55.57,0,0,0,7.49,1.17c4.06,0,7.6-.92,7.61-5.09,0-5.65-3.83-7.25-13.12-14.43-6-4.6-10-9.91-10-18,0-16.26,17.47-21.64,31.12-21.47a98.82,98.82,0,0,1,17.36,2.13Q370.08,614.81,370.65,629Z" transform="translate(0 0)"/><path class="cls-1" d="M446,603.21c-.89,9.73-1.86,19.49-2.77,29.16-1.19,12.51-1.88,25.19-2.58,37.8a117,117,0,0,1-26.53,2.93c-28.58-.38-36.08-20.1-38-45-1.15-15-1.42-27.44-1.42-27.44q16.89.35,33.77.89s-.91,12-1.32,19.42c-.44,8-.64,21.29-.64,21.29-.38,13.61,1.23,18.1,9.75,18.45a11.48,11.48,0,0,0,4-.76c.41-9.87.71-19.77.63-29.64-.07-9.42-.36-18.87-.72-28.31C430.53,602.39,435.69,602.64,446,603.21Z" transform="translate(0 0)"/><path class="cls-1" d="M518.05,634.68c-1.12,10.43-9,18.56-19,21.17a102.05,102.05,0,0,0,6.54,9.13c2.82,3.5,8.08,8.64,8.08,8.64s-4.91,1.12-10.77,2.93c-6.3,1.94-11,3.62-11,3.62a78.51,78.51,0,0,1-5.82-8.93c-2.19-3.87-5.95-12.07-5.95-12.07H480l-1.7,15.76q-14.18-1.08-28.37-1.9c0-10.85.11-21.71.35-32.55.26-12.32.17-24.68,0-37,0,0,13.63-.45,26.32.39C494.26,605,520.52,611.83,518.05,634.68Zm-24.21,7.64c.52-6.37-6.45-8.05-11.1-8.22-.59,6.16-.89,9.24-1.48,15.4C485.44,649.82,493.31,648.78,493.84,642.32Z" transform="translate(0 0)"/><path class="cls-1" d="M578.25,615.1q-2.89,14.05-5.76,28.13s-3.72-1-8.08-1.92-9.41-1.56-9.41-1.56c-.69,3.39-1,5.08-1.71,8.47,6.05.88,18.34,2,18.34,2s-1.47,3.19-2.54,5.94-2,6.19-2,6.19a54.13,54.13,0,0,0-7.28-1.71c-2.87-.49-8.11-1-8.11-1l-1.65,10s7.61.82,14,1.08c2.08.09,6.45-.32,6.45-.32s-1.15,2.7-2.69,6.48c-1.15,2.82-2.6,6.68-2.6,6.68q-22.46-2.68-45-5c.65-11.81,1.28-23.66,2-35.44.68-11.3,1-22.69,1.25-34Q550.9,611.78,578.25,615.1Z" transform="translate(0 0)"/><path class="cls-1" d="M619.89,620.77c-3.93,9-6,14.13-9.45,23.33-3.25,8.6-8.06,19.16-7.78,22.38-2.85,0-3.39-.13-5.47-.21-2.5-.1-4-.08-6.34,0-.31-9.48-.45-15-1.07-24.53-.65-9.85-1.58-15.62-2.26-25.43Q603.72,618.44,619.89,620.77Zm-14.67,61c-.69,4.77-6.52,7.48-12.27,6.69-6.15-.85-11-5-10.38-9.9s6.16-7.61,12.68-6.71C601,672.69,605.94,676.77,605.22,681.81Z" transform="translate(0 0)"/><path class="cls-6" d="M202.16,516.87a39.51,39.51,0,0,0-6-.32c-2.71.21-6.89,2.53-6.52,6.94.46,5.59,10,10.35,10.7,20.17.78,11.55-10,19-20.58,19.89-9,.76-12.56.09-12.56.09s-1.31-4.34-2.29-7c-1-2.83-2.72-6.95-2.72-6.95a56.65,56.65,0,0,0,7.78.53c4.15-.4,7.69-1.7,7.29-6.11-.55-6-4.63-7.31-14.85-14-6.62-4.29-11.17-9.51-12-18.07-1.63-16.9,15.42-24.51,29.82-25.66a98.09,98.09,0,0,1,18,.61Q200.22,501.92,202.16,516.87Z" transform="translate(0 0)"/><path class="cls-6" d="M270.35,482.78q-.21,15.12-.4,30.24s-4.18-.4-6.65-.42c-3,0-9.13.11-9.13.11s-.37,5.65-.44,13.71c-.08,10.29-.27,20.63-.44,31-10,.48-15,.76-25,1.38-1.09-10.12-2.2-20.26-3.52-30.33-1-7.71-2-14-2-14l-8.33.84-7.54,1.23q-1.76-15-3.52-30Q236.86,484.14,270.35,482.78Z" transform="translate(0 0)"/><path class="cls-6" d="M345.73,516.83c-.21,19.79-13.19,40.77-34.87,41.14-21.91.39-35.53-20-36.38-40-.92-21.29,13.27-38.75,35.12-39.09S346,495.71,345.73,516.83Zm-25.36,8.55c-.08-7.28-3-13.36-10.13-13.25-7.39.12-9.54,6.18-9.38,13.66.14,6.39,3.85,15.16,9.73,15.07S320.43,531.68,320.37,525.38Z" transform="translate(0 0)"/><path class="cls-6" d="M403.77,541.9s-1.25,3.82-2.17,7.2-1.53,7.24-1.53,7.24q-23.42-.83-46.85-1c-.2-12.4-.46-24.84-1-37.19-.53-12.18-1.39-24.42-2.28-36.62q18.72.12,37.43.6c-1.08,12.4-2.17,24.84-3,37.22-.72,10.39-1.55,23.88-1.55,23.88s4.26.17,15.18-.55A57.9,57.9,0,0,0,403.77,541.9Z" transform="translate(0 0)"/><path class="cls-6" d="M465,485.8q-2.19,15.07-4.34,30.17s-3.87-.85-8.4-1.53-9.74-1.07-9.74-1.07c-.51,3.64-.76,5.45-1.27,9.09,6.25.55,18.91,1,18.91,1s-1.33,3.47-2.27,6.46-1.74,6.69-1.74,6.69a54.47,54.47,0,0,0-7.55-1.37c-3-.34-8.36-.59-8.36-.59-.46,4.27-.69,6.41-1.14,10.68,0,0,7.85.4,14.43.28,2.13,0,6.59-.75,6.59-.75s-1,2.93-2.4,7c-1,3.07-2.29,7.25-2.29,7.25q-23.15-1.44-46.28-2.44c0-12.57-.07-25.17,0-37.71,0-12-.26-24.12-.7-36.16Q436.77,484,465,485.8Z" transform="translate(0 0)"/><path class="cls-6" d="M530.06,525.42c-2,13.45-3.87,27-5.57,40.57-6.45-5.63-12.58-11.27-19.21-16.74-5.48-4.52-11.36-8.83-17-13.25-1.06,10.14-1.58,15.21-2.64,25.35-6.64-.55-10-.81-16.6-1.3q.53-18.42.75-36.84c.15-12.35.2-24.73-.09-37.09,10.8.76,16.2,1.18,27,2.11,7.44,7.43,11.12,11.16,18.41,18.67,0,0,.55-5.6.66-9.13.09-3.15.09-7.8.09-7.8,8,.76,11.94,1.17,19.9,2C533.69,503.11,531.74,514.29,530.06,525.42Z" transform="translate(0 0)"/><path class="cls-6" d="M130.83,612.15q1.09,15.08,2.22,30.15s-3.94-.08-6.24.08c-2.82.2-8.53.8-8.53.8s.14,5.66.78,13.69c.81,10.26,1.52,20.58,2.26,30.86C112,689,107.4,689.61,98.14,691c-1.9-10-3.83-20-5.94-30-1.62-7.6-3.07-13.76-3.07-13.76-3.09.57-4.63.87-7.71,1.46-2.78.7-4.17,1.06-6.94,1.78q-3-14.84-5.94-29.65Q99.64,616,130.83,612.15Z" transform="translate(0 0)"/><path class="cls-6" d="M203.56,632.61a26.63,26.63,0,0,1-14.27,25.5,107.61,107.61,0,0,0,7.77,8.41c3.27,3.17,9.12,7.63,9.12,7.63s-4.43,2-9.64,5c-5.59,3.14-9.72,5.71-9.72,5.71a83.09,83.09,0,0,1-7-8.32c-2.76-3.68-7.76-11.6-7.76-11.6h-.1c.48,6.72.72,10.08,1.19,16.79-10.84,1.09-16.26,1.68-27.09,3q-2.89-17-5.53-34.12c-2-12.94-4.29-25.86-6.67-38.74,0,0,12.89-2.84,25.06-4.2C177.28,605.54,202,609.63,203.56,632.61ZM182,644.85c-.63-6.76-7.52-7.3-11.95-6.66.53,6.56.8,9.83,1.33,16.38C175.39,654.17,182.64,651.7,182,644.85Z" transform="translate(0 0)"/><path class="cls-6" d="M257.19,601.5q-.37,15.24-.69,30.47s-3.69-.41-8-.58-9.16,0-9.16,0c-.07,3.67-.1,5.51-.17,9.18,5.87-.15,17.66-1.15,17.66-1.15s-.85,3.59-1.39,6.67-.86,6.84-.86,6.84a47.25,47.25,0,0,0-7.17-.51c-2.78,0-7.82.34-7.82.34.06,4.3.08,6.44.14,10.74,0,0,7.33-.48,13.41-1.34a61.34,61.34,0,0,0,6-1.48s-.63,3-1.45,7.26c-.61,3.16-1.32,7.45-1.32,7.45q-21.6,1.15-43.17,2.73c-1.44-12.49-2.9-25-4.28-37.47-1.32-11.95-3-23.93-4.74-35.84Q230.7,602.85,257.19,601.5Z" transform="translate(0 0)"/><path class="cls-6" d="M323.89,673.42c-10.57.09-15.85.19-26.42.45-.77-2.54-1.16-3.81-1.94-6.35a36.21,36.21,0,0,0-5.48,3.11,56.53,56.53,0,0,0-6.18,5s-1.71-3.3-3-5.71c-1-1.83-2.56-4.73-2.56-4.73-.9,3.73-1.34,5.6-2.23,9.34-5.62.21-8.43.33-14,.59,2.79-13.15,5.65-26.38,8-39.54,2.06-11.52,3.94-23.21,5.51-34.87q15.14-.57,30.28-.85c2.55,11.71,5.37,23.37,8.27,35C317.32,647.71,320.64,660.57,323.89,673.42ZM293,658.24s-1.75-5.07-3.14-8.18c-1.51-3.38-4.19-8.63-4.19-8.63s-2.06,5.69-3.22,9.26c-1.28,4-2.75,10-2.75,10s2.91-.18,6.56-.81A55.75,55.75,0,0,0,293,658.24Z" transform="translate(0 0)"/><path class="cls-6" d="M369.49,630a34.74,34.74,0,0,0-5.57-.87c-2.54,0-6.63,1.88-6.67,6.31-.06,5.61,8.37,11.18,8.17,21.06-.23,11.11-10.43,18-20.85,17.91-8.47-.07-11.68-1.08-11.68-1.08s-.83-4.44-1.51-7.18c-.73-2.92-1.93-7.17-1.93-7.17a48.44,48.44,0,0,0,7.18,1.25c3.89,0,7.29-1,7.3-5.4,0-6-3.66-7.71-12.58-15.34-5.78-4.89-9.61-10.57-9.58-19.11.05-15.69,15.92-23.26,30-22.77a106.25,106.25,0,0,1,16.73,2.27Q369,615,369.49,630Z" transform="translate(0 0)"/><path class="cls-6" d="M442.23,602.63c-1,10.33-2,20.69-3,31-1.27,13.3-2.07,26.75-2.87,40.14A98,98,0,0,1,411,676.88c-29.29-.57-34.67-23.39-36.17-47.83-.59-9.68-1.08-19.42-1.25-29.15q16.29.38,32.55,1s-1,12.7-1.41,20.62c-.48,8.5-.77,22.61-.77,22.61-.45,14.46,1.06,19.22,9.22,19.59a10.23,10.23,0,0,0,3.83-.81c.48-10.49.85-21,.86-31.48,0-10-.2-20-.47-30.06C427.31,601.78,432.28,602,442.23,602.63Z" transform="translate(0 0)"/><path class="cls-6" d="M511.2,635.93a26.66,26.66,0,0,1-18.63,22.51,106.9,106.9,0,0,0,6.13,9.67c2.64,3.71,7.6,9.15,7.6,9.15s-4.73,1.2-10.38,3.13c-6.06,2.08-10.59,3.87-10.59,3.87a84.17,84.17,0,0,1-5.44-9.46c-2-4.11-5.53-12.8-5.53-12.8h-.1c-.75,6.69-1.12,10-1.86,16.73-10.85-.88-16.29-1.27-27.15-2,.14-11.52.36-23.06.69-34.56.39-13.08.44-26.2.42-39.3,0,0,13.18-.48,25.38.38C490.22,604.56,513.82,613,511.2,635.93Zm-23.41,8.15c.59-6.76-6.09-8.53-10.56-8.7-.66,6.54-1,9.81-1.64,16.35C479.6,652.06,487.18,650.94,487.79,644.08Z" transform="translate(0 0)"/><path class="cls-6" d="M569.62,615q-3.11,14.92-6.17,29.85s-3.56-1.07-7.75-2-9-1.64-9-1.64l-1.82,9c5.81.91,17.61,2,17.61,2s-1.48,3.39-2.57,6.31-2.08,6.57-2.08,6.57a48,48,0,0,0-7-1.79c-2.74-.51-7.77-1.07-7.77-1.07l-1.8,10.59s7.31.85,13.46,1.1a61.14,61.14,0,0,0,6.2-.37s-1.16,2.86-2.73,6.88c-1.17,3-2.64,7.09-2.64,7.09q-21.49-2.76-43-5.1c.84-12.54,1.65-25.11,2.54-37.62.85-12,1.39-24.07,1.79-36.11Q543.3,611.54,569.62,615Z" transform="translate(0 0)"/><path class="cls-6" d="M609.71,620.85c-4,9.53-6.12,15-9.71,24.77-3.36,9.13-8.25,20.34-8.06,23.75-2.74,0-3.26-.12-5.26-.2-2.4-.09-3.85-.07-6.1,0-.06-10-.07-15.94-.44-26-.39-10.45-1.16-16.56-1.59-26.95Q594.15,618.37,609.71,620.85ZM594,685.61c-.78,5.06-6.45,8-11.94,7.15-5.88-.88-10.46-5.3-9.73-10.46s6.1-8.09,12.34-7.16C590.23,676,594.83,680.27,594,685.61Z" transform="translate(0 0)"/></g></g></svg>