<svg xmlns="http://www.w3.org/2000/svg" width="431.475" height="271.653" viewBox="0 0 431.475 271.653"><path d="M114.177,1284.57l46.878,2.347,3.662,13.954,2.774-10.59,2.544,6.969,4.031-10.334,81.408-2.347,5.659,2.347,6.191-2.347,42.639,2.347,31.958,3.365,42.8-3.365,1.669,5.929,2.294-8.276,66.183,2.347,6.51-2.347s32.195-.818,31.956,0-5.117,34.28-5.117,34.28l-5.1,1.445,5.1,2.223v32.118l-5.1,1.62h3.915l-10.8,3.015,14,1.664s-1.562,12.184-2.026,12.883,3.147,21.642,3.147,21.642l-4.328,1.884,4.328,2.02-2.051,26.306h-4.8l3.7,1.908-5.907,2.286,7,1.025,2.051,35.5-2.051,1.733,4.211,1.506,3.24,20.975-29.7,2.042-3.568-11.9-1.182,8.348s-21.358-1.809-22.609-1.835-29.227,1.835-29.227,1.835l-1.353-5.815-.867,3.98-3.348-6.513-1.967,9.862-30.377-1.514-1.851-5.815-1.782,5.815L336.5,1490.6s-64.689-6.616-65.392-7.329-1.745-8.082-2.09-7.383-3.057,8.3-3.057,8.3l-40.2,3.059-19.4-3.059-44.819,2.209-1.975-5.744-2.028,5.744-3.35-10.514-1.288,7.383-1.886-2.614-2.064,5.744-15.8-.922-2.222-4.822-5.042,4.822-1.318,4.042-28.887.839-2.329-27.938,6.408-15.611,5.418-1.3-5.418-2.24-3.031-35.187,1.966-12.583,3.525-.793-5.492-2.006-1.149-33.439,6.64-33.3-5.492-3.32-2.332-40.426,18.757-.721Z" transform="translate(-292.669 -1188.01) rotate(-9)" fill="#bbb392" opacity="0.76"/></svg>