<svg xmlns="http://www.w3.org/2000/svg" viewBox="0 0 652.45 619.34"><defs><style>.cls-1{fill:#fff;}.cls-2{fill:#231f20;}.cls-3{fill:#404041;}.cls-4{fill:#6d6e70;}</style></defs><g id="Layer_2" data-name="Layer 2"><g id="Layer_1-2" data-name="Layer 1"><path class="cls-1" d="M134.38,415.3,541.13,123.07s-43.86-35.3-13-62.53,64.28,9.31,52.57,31.55c0,0,62.77-14.37,54.16,43.47s.94,56.52-26.69,51.18-35.76-18-35.76-18S196.05,410.22,155.1,441.05,84,468.62,134.38,415.3Z"/><path class="cls-2" d="M128.73,408.84l103-71.8,51.34-36,25.66-18,25.59-18.11,51.15-36.24,51-36.39c33.93-24.37,67.88-48.71,101.56-73.43l-.23,8.37h0c-1-.46-1.74-.82-2.56-1.27s-1.61-.88-2.4-1.34q-2.36-1.38-4.59-3a69.44,69.44,0,0,1-8.56-7.08,55.36,55.36,0,0,1-13.51-20,41.21,41.21,0,0,1-2.64-13.86,38.13,38.13,0,0,1,2.84-14.89A44.26,44.26,0,0,1,514,53.49a57.54,57.54,0,0,1,9.84-8.94,58.66,58.66,0,0,1,5.85-3.61,50.32,50.32,0,0,1,6.57-2.86,42.77,42.77,0,0,1,14.7-2.4,41.16,41.16,0,0,1,14.62,3,42.45,42.45,0,0,1,12.17,7.46,42,42,0,0,1,13.64,23,33.22,33.22,0,0,1,.05,13.58,23.94,23.94,0,0,1-6.17,11.85L579.49,87h0c.61-.45,1.07-.79,1.6-1.15s1-.71,1.56-1a35.37,35.37,0,0,1,3.19-1.74,44.11,44.11,0,0,1,6.71-2.6,47.54,47.54,0,0,1,14.6-2A43.61,43.61,0,0,1,637.8,91.91a41.38,41.38,0,0,1,5.64,7.52,44.54,44.54,0,0,1,3.71,8.3,50.21,50.21,0,0,1,2,8.33,59,59,0,0,1,.7,8,73.79,73.79,0,0,1-.25,7.64c-.13,1.23-.21,2.48-.39,3.68l-.46,3.39c-.57,4-1.16,8-1.68,12s-1,8-1.49,12.06-.88,8.1-1.43,12.37c-.27,2.15-.55,4.35-1,6.84-.22,1.26-.47,2.58-.86,4.14a27.36,27.36,0,0,1-2.08,5.73,20.12,20.12,0,0,1-2.64,4,18,18,0,0,1-4.67,3.9,18.49,18.49,0,0,1-5.2,2,21.44,21.44,0,0,1-4,.48,30.91,30.91,0,0,1-5.27-.37c-1.41-.21-2.62-.47-3.76-.71-2.28-.51-4.3-1-6.3-1.5l-3-.73c-1.13-.29-2.25-.56-3.38-.88-2.25-.61-4.49-1.32-6.72-2.09s-4.45-1.67-6.64-2.64a71.32,71.32,0,0,1-12.78-7.28,51.56,51.56,0,0,1-5.92-5c-.95-.92-1.88-1.9-2.8-3-.46-.53-.91-1.11-1.36-1.71l-.7-1-.38-.56-.56-.87L577.67,177h0c-41.42,28.34-83.15,56.21-124.88,84.07l-62.67,41.66-62.75,41.52c-41.84,27.64-83.76,55.23-125.36,83-10.37,6.94-20.75,14-30.8,21-2.59,1.78-4.8,3.42-7.27,5.22-2.72,2-5.49,4-8.35,5.9a139.4,139.4,0,0,1-18.36,10.49A67.55,67.55,0,0,1,126.29,474a43.59,43.59,0,0,1-6.77,1.29,30,30,0,0,1-9.26-.35,22.14,22.14,0,0,1-6.64-2.51A18.69,18.69,0,0,1,94.25,458a21.29,21.29,0,0,1,.22-5.91,27.75,27.75,0,0,1,2.61-7.62A46,46,0,0,1,100.3,439a77.16,77.16,0,0,1,6.91-8.5c2.35-2.57,4.71-5,7.07-7.33ZM140,421.77c-.11.16-.23.32-.35.47l-.2.25-.38.43-1.48,1.74q-1.47,1.75-2.86,3.55c-1.83,2.41-3.58,4.88-5.18,7.4a82.41,82.41,0,0,0-4.31,7.65,55.83,55.83,0,0,0-3.08,7.44,17.88,17.88,0,0,0-.73,3.13c-.1.87,0,1.57.18,1.44s.24-.4.22-1.22a7.87,7.87,0,0,0-1.1-3.57,9.87,9.87,0,0,0-3.27-3.34,11.13,11.13,0,0,0-2.2-1c-.78-.22-.45-.22.11-.41s1.45-.42,2.41-.75a65.49,65.49,0,0,0,6.59-2.66,109.33,109.33,0,0,0,14.26-8.22c2.36-1.58,4.69-3.25,7-5,2.59-1.9,5.42-4,8-5.77,10.51-7.38,21-14.34,31.44-21.34,21-14,42-27.69,63.05-41.37s42.18-27.25,63.32-40.78L375,279.44c21.21-13.43,42.5-26.71,63.76-40.05,42.6-26.55,85.25-53,128.28-78.89h0l13.56,2.95c-.2-.33-.09-.19-.11-.24l.1.07.29.22.74.58c.52.42,1.12.85,1.75,1.27a43.8,43.8,0,0,0,4.13,2.37,58.62,58.62,0,0,0,9.51,3.74,85.38,85.38,0,0,0,10.47,2.42c.89.16,1.81.28,2.72.42l3.1.47c2.08.32,4.12.65,5.93.89.9.12,1.73.2,2.39.24s1.1,0,.93,0a3.17,3.17,0,0,0-.93.08,7.74,7.74,0,0,0-2.31.9,9,9,0,0,0-2.32,1.88,9.5,9.5,0,0,0-1,1.38c-.28.55-.18.29-.11-.15s.19-1.19.28-2c.19-1.61.35-3.55.5-5.52.27-4,.61-8.21,1-12.42s.78-8.47,1.27-12.7,1-8.47,1.65-12.68l.38-2.78c.13-.85.17-1.67.27-2.51.12-1.64.21-3.27.17-4.79a33.49,33.49,0,0,0-.28-4.38,22.29,22.29,0,0,0-.8-3.8,15.87,15.87,0,0,0-3-5.6c-2.48-3.09-7.36-5.07-13.62-7.13-3.14-1-6.58-2-10.26-3-1.85-.52-3.74-1-5.7-1.59-1-.27-2-.57-3-.87-.5-.15-1-.32-1.52-.5a10.68,10.68,0,0,1-1.45-.54h0l-5.65,16.14L576,89.64a19.15,19.15,0,0,0-1.39-7.25,24.84,24.84,0,0,0-3.38-5.88,29.5,29.5,0,0,0-10-8.27A21.79,21.79,0,0,0,556,66.38a17.81,17.81,0,0,0-4.87-.35,19.42,19.42,0,0,0-4.79,1,24.27,24.27,0,0,0-5.2,2.57,30,30,0,0,0-2.71,2A26.18,26.18,0,0,0,536,73.63a20.61,20.61,0,0,0-2,2.06,16.9,16.9,0,0,0-1.48,2,13.09,13.09,0,0,0-1.81,4.3,17.84,17.84,0,0,0-.26,5.78c.43,4.44,2.26,9.74,4.8,15.06,1.28,2.66,2.72,5.36,4.28,8.07.78,1.35,1.6,2.7,2.42,4.06l1.26,2c.4.65.87,1.38,1.2,2h0l5.14,4.58-5.37,3.78c-34.11,24-68,48.36-101.81,72.69L391.72,236.7l-50.53,36.81-25.26,18.43-25.18,18.5-50.35,37Z"/><path class="cls-1" d="M140.6,77.69s49.52-29.23,14-49.67S93.41,38,93.41,38,77.05,73,93.41,77.69,58.66,40.3,36.3,61.33s-38.72,70.12-10.67,79.46,67.78-2.33,74.79-11.68S530.42,420,530.42,420s-18.79,32.72,0,46.75,70.35,11.68,58.59-9.35c0,0,55.84,32.72,55.93-23.37s-53.65-77.13-79.36-42.07Z"/><path class="cls-2" d="M135.34,77.42l6.88-11.52c.72-1.17,1.4-2.33,2.05-3.49s1.3-2.27,1.88-3.4a58.62,58.62,0,0,0,3-6.4,19.27,19.27,0,0,0,1.41-5.3c.12-1.42-.27-2.32-.79-2.18s-.85,1.3-.9,1.92-.34.64-1.21.26c-.38-.17-1-.42-1.54-.72l-2.16-1a45,45,0,0,0-9.58-3.09c-3-.49-5.62-.92-8.82-1.33A87.23,87.23,0,0,0,114,40.63c-1.15,0-2.37,0-3.63.1s-2.57.13-4,.18l-4.31.28-2.3.15c-.38,0-.8,0-1.19.06a4.87,4.87,0,0,1-1.16,0h0l.75-1.18c-.56,1.76-1.19,3.76-1.71,5.67s-1,3.86-1.44,5.77a59,59,0,0,0-1.51,11.14,20.59,20.59,0,0,0,.38,4.61,3.87,3.87,0,0,0,1,2.24c.29.12.15,0,.8.08.23,0,.43,0,.14,0a4.36,4.36,0,0,0-1.36,0,7.45,7.45,0,0,0-.86.18,7,7,0,0,0-1.29.51,7.91,7.91,0,0,0-3.32,3.2,7.9,7.9,0,0,0-1,4,7,7,0,0,0,.31,1.9,6.54,6.54,0,0,0,.43,1.07c.12.24,0,.11-.14,0-.35-.33-.93-.84-1.55-1.34s-1.33-1-2.06-1.53c-1.45-1-3-2-4.62-3a81.56,81.56,0,0,0-10-5,57.89,57.89,0,0,0-10.24-3.24,29.06,29.06,0,0,0-9.27-.64,12.16,12.16,0,0,0-6.37,2.38c-.2.16-.4.33-.59.51s-.34.32-.69.67c-.62.6-1.23,1.23-1.82,1.88-1.2,1.3-2.36,2.68-3.47,4.12A87.5,87.5,0,0,0,26.83,94.61a62.66,62.66,0,0,0-5.21,20.65,25.08,25.08,0,0,0,.9,8.66,9.8,9.8,0,0,0,3.3,5,10,10,0,0,0,2.74,1.49l.42.15.58.2,1.23.37c.82.25,1.66.46,2.51.67A64.62,64.62,0,0,0,44,133.36a95.47,95.47,0,0,0,22.54-1.42,98.25,98.25,0,0,0,11-2.64,65.2,65.2,0,0,0,10.06-3.87,25.54,25.54,0,0,0,3.69-2.21c.41-.31.7-.61.65-.55a.12.12,0,0,0,0,0A15.61,15.61,0,0,1,93.54,121a11,11,0,0,1,3.6-2.08,12.39,12.39,0,0,1,2.39-.56,12.42,12.42,0,0,1,3.42.06c.23,0,.52.07.69.11l.54.12c.39.08.6.15.91.23.54.15,1,.3,1.39.45a39.4,39.4,0,0,1,3.9,1.64c1.12.53,2.17,1.06,3.19,1.59,2,1.07,4,2.14,5.87,3.23,7.56,4.36,14.74,8.87,21.92,13.43s14.24,9.17,21.29,13.82q21.15,13.94,42,28.16c27.9,18.89,55.49,38.18,83.07,57.47,13.78,9.67,27.56,19.31,41.28,29.06L370.15,297q82.14,58.68,163.31,118.68h0l1.27.29.25,6.62c0,.53-.07,1.23-.11,1.84l-.18,1.89-.35,3.72c-.23,2.44-.42,4.81-.54,7.09a48.84,48.84,0,0,0,.55,12,14.19,14.19,0,0,0,1.29,3.83,8.76,8.76,0,0,0,1.59,2.15,9.57,9.57,0,0,0,1,.88,15.79,15.79,0,0,0,1.71,1.14,32.61,32.61,0,0,0,4.83,2.29A69.05,69.05,0,0,0,557,462.79a89.4,89.4,0,0,0,13,1.51c1.07,0,2.12,0,3.16,0s2-.07,3-.13a33.75,33.75,0,0,0,5-.71,12.63,12.63,0,0,1,1.47-.29,6.9,6.9,0,0,1,.86.09c.29,0,.64-.25.82-.87a6.71,6.71,0,0,0,.09-2.48h0l-8.55-15.44,15.8,8.34c.72.38,1.68.85,2.54,1.26s1.79.82,2.7,1.21q2.73,1.17,5.52,2.13a61.11,61.11,0,0,0,11.16,2.83,31.18,31.18,0,0,0,10.48,0,14.38,14.38,0,0,0,7.69-3.93,18.6,18.6,0,0,0,4.28-8,32.34,32.34,0,0,0,1-5.13,49.25,49.25,0,0,0,.4-5.51,73.79,73.79,0,0,0-.62-11.41,64.21,64.21,0,0,0-2.41-11A50.19,50.19,0,0,0,624,396.63a37.29,37.29,0,0,0-16.84-10.8,28.49,28.49,0,0,0-18.45.64,31.37,31.37,0,0,0-14.32,11.89h0L567.48,407l-8.36-6.32q-107.25-81-213.32-162.41Q239.89,157.11,135.34,77.42Zm10.51.54q107.7,77.58,214.53,153.41Q467,307.36,572,383.2l-15.23,2.31h0a56.57,56.57,0,0,1,11-10.92A48.86,48.86,0,0,1,582,367.27,47.47,47.47,0,0,1,597.72,365a49.17,49.17,0,0,1,15.34,2.87,55.55,55.55,0,0,1,24.22,17.39A67,67,0,0,1,650,410.93a78.84,78.84,0,0,1,2.24,13.78,88,88,0,0,1,0,13.78,62,62,0,0,1-.92,7,47.64,47.64,0,0,1-1.86,7.12,36.48,36.48,0,0,1-3.29,7.05,29.38,29.38,0,0,1-5.23,6.36,26.16,26.16,0,0,1-7,4.52,29.05,29.05,0,0,1-7.72,2.15,43.34,43.34,0,0,1-14.61-.71,73.13,73.13,0,0,1-13-4.07q-3.11-1.28-6.1-2.76c-1-.49-2-1-3-1.54s-1.91-1.05-3-1.72l7.24-7.1h0a16.18,16.18,0,0,1,3,4.71,14.09,14.09,0,0,1,1,6.83,15.56,15.56,0,0,1-2.56,7,21,21,0,0,1-4.37,4.79,34.93,34.93,0,0,1-9.25,5.29,54.12,54.12,0,0,1-9.1,2.67,71.87,71.87,0,0,1-18,1.34,69.42,69.42,0,0,1-18.16-3.21,51.46,51.46,0,0,1-9.34-4,42.87,42.87,0,0,1-4.77-3.14,32,32,0,0,1-4.65-4.39,31.16,31.16,0,0,1-6.17-11.22,34.57,34.57,0,0,1-1.4-11.42A44.48,44.48,0,0,1,515,431.43a51,51,0,0,1,4.75-7.51c.9-1.17,1.83-2.3,2.83-3.38.49-.54,1-1.07,1.55-1.59s1.06-1,1.72-1.59l1.52,6.91h0q-83.56-56.53-166.85-113.45l-83.43-56.66Q235.36,225.87,193.41,198q-21-13.93-42.06-27.6c-7-4.53-14.08-9-21.15-13.44S116,148.19,109,144.21c-1.76-1-3.51-2-5.2-2.82-.84-.44-1.67-.86-2.45-1.22s-1.53-.69-1.91-.82l-.11,0,.15,0,.16,0,.29.05a7.76,7.76,0,0,0,1.09.07,7.4,7.4,0,0,0,1.15-.07,9.19,9.19,0,0,0,2-.47,9.87,9.87,0,0,0,3.26-1.89c1.63-1.56,1.63-1.86,1.35-1.42l-.54.67a25.63,25.63,0,0,1-4,3.74,45.57,45.57,0,0,1-7.06,4.35,86.81,86.81,0,0,1-13.42,5.27,120.85,120.85,0,0,1-13.46,3.25,115.91,115.91,0,0,1-27.68,1.8,85.18,85.18,0,0,1-14.26-2c-1.19-.28-2.39-.58-3.58-.93-.6-.17-1.2-.35-1.79-.54l-.92-.3L21,150.56A31.69,31.69,0,0,1,12.75,146a30,30,0,0,1-6.7-7.11,33.8,33.8,0,0,1-4-8.36,46.42,46.42,0,0,1-2-16.26A71.64,71.64,0,0,1,2.32,99.65,96.61,96.61,0,0,1,6.86,86.2a107.7,107.7,0,0,1,6.31-12.51,93.92,93.92,0,0,1,8-11.62c1.5-1.85,3.08-3.67,4.77-5.42.84-.89,1.71-1.75,2.62-2.6.39-.38,1-1,1.63-1.46s1.24-1,1.88-1.45a31.46,31.46,0,0,1,8.4-4.24,35.55,35.55,0,0,1,8.71-1.69A49.21,49.21,0,0,1,64.93,47a74.34,74.34,0,0,1,13.5,5.18,90.26,90.26,0,0,1,12,7.15c1.92,1.35,3.79,2.77,5.64,4.35.92.79,1.84,1.61,2.77,2.51a36.69,36.69,0,0,1,2.9,3.13,20,20,0,0,1,1.74,2.49,12,12,0,0,1,1.1,2.5,9.75,9.75,0,0,1,.46,2.66,9.64,9.64,0,0,1-.16,2.11,9.06,9.06,0,0,1-4.86,6.42,8.94,8.94,0,0,1-1.66.65,10.31,10.31,0,0,1-4.17.3,18,18,0,0,1-3-.66,18.33,18.33,0,0,1-5.19-2.54,16.72,16.72,0,0,1-4.21-4.35,20.23,20.23,0,0,1-3.13-9.53,33.86,33.86,0,0,1,.34-8,65,65,0,0,1,3.79-13.48q1.23-3.15,2.67-6.15c1-2,1.92-3.93,3.09-6l.55-1,.2-.22h0c.15-.63.14-1.09.24-1.59s.15-1,.26-1.44a26.15,26.15,0,0,1,.71-2.74,33,33,0,0,1,2-5.15,38.75,38.75,0,0,1,6.18-9.13A43.75,43.75,0,0,1,118.29,2.16a48.18,48.18,0,0,1,24.37-1.1,63.36,63.36,0,0,1,11.42,3.49,69,69,0,0,1,10.08,5.24,55.81,55.81,0,0,1,10,7.85c.82.8,1.67,1.74,2.48,2.67s1.61,2,2.39,3.11A35.79,35.79,0,0,1,183.12,31a32.51,32.51,0,0,1,2.2,9.09,31.62,31.62,0,0,1-.48,9.08,33.84,33.84,0,0,1-6.11,13.54,42.57,42.57,0,0,1-8.22,8.3,53.9,53.9,0,0,1-8.71,5.46q-2.24,1.1-4.47,2c-1.51.6-3,1.14-4.54,1.64s-3.07.91-4.65,1.24c-.78.19-1.57.34-2.37.48-.4.07-.8.14-1.21.19l-.63.09-.31,0-.17,0-.08,0c.25-.21-.69.51.79-.61A5.26,5.26,0,0,0,145.85,78Z"/><path class="cls-1" d="M296.08,333,282.27,391.4H464.51l-31.38-93.49,60.77,9.35,28-32.72H451.83s125.87-105.17,12.68-173S220.45,85.23,220.45,85.23,113.52,234.81,188,274.54s81.89,28,81.89,28l-70.05,9.34s-19.14,7,11.24,18.7S296.08,333,296.08,333Z"/><path class="cls-2" d="M297.36,331.77c.09.77.23,1.67.29,2.68a18.51,18.51,0,0,1-.11,3.15l-.71-.17L294,394.17l-11.72-14.82h0l182.24,4.15L457,393.91h0L423.82,301l-5.36-15,16.17,2.17h0l59.54,17.32-1.6.59h0a27.39,27.39,0,0,1,1.69-5.65,40.67,40.67,0,0,1,2.45-5,51.49,51.49,0,0,1,6.36-8.73,63.81,63.81,0,0,1,7.85-7.46,41.45,41.45,0,0,1,9.69-5.88l1.33,2.9h0l-70.11,3.59-14,.72,10.56-10.16h0c1.53-1.57,3.19-3.34,4.75-5.07s3.13-3.52,4.66-5.31q4.6-5.35,8.87-11A213.05,213.05,0,0,0,482.23,226a139.44,139.44,0,0,0,11.37-24.42,81.87,81.87,0,0,0,4.87-24.71,54,54,0,0,0-4-22.63,60.81,60.81,0,0,0-12.95-18.92,99.62,99.62,0,0,0-19.6-15.08q-2.75-1.65-5.6-3.19l-5.9-3.12c-4-2-8-3.93-12.11-5.68a214,214,0,0,0-25.07-9.12l-3.2-.94-3.23-.86c-2.13-.61-4.3-1.11-6.46-1.66-4.33-1-8.67-2-13.06-2.74a253,253,0,0,0-26.53-3.36c-8.9-.67-17.86-.94-26.82-.76-4.49.09-9,.25-13.45.56s-9,.61-13.44,1.09c-9,.91-17.87,2.25-26.74,3.86S262.65,98,254,100.22c-4.33,1.15-8.63,2.39-12.84,3.7-2.11.65-4.2,1.33-6.24,2l-3,1-1.43.52-1.1.43,10.93-8.52h0c-.12.12-.39.45-.6.69l-.67.81-1.37,1.69-2.75,3.47q-2.74,3.51-5.44,7.12-5.4,7.2-10.53,14.64c-6.83,9.91-13.31,20.06-19.22,30.44a272.88,272.88,0,0,0-15.66,31.79c-4.37,10.78-7.83,21.82-9.27,32.65s-.71,21.34,3.77,30A36.38,36.38,0,0,0,188,264.26c1,.81,2.07,1.62,3.19,2.36l.85.57,1,.62,2,1.25Q199,271.55,203,274c10.62,6.46,21.41,12.64,32.51,18.06a156.3,156.3,0,0,0,16.94,7.18,61.63,61.63,0,0,0,8.69,2.37,24.43,24.43,0,0,0,4.27.43,9.43,9.43,0,0,0,2-.16,4,4,0,0,0,.8-.21,1.79,1.79,0,0,0,.29-.11l.09,0s.07-.08-.09.16l1.71,2.67h0c-2.86.81-5.73,1.54-8.61,2.24s-5.76,1.38-8.64,2q-8.65,1.92-17.35,3.57c-5.8,1.12-11.6,2.13-17.41,3.11l-8.73,1.4L200.66,318l1.29-.32c.1,0,0,0-.1.06l-.24.11-.49.25a7.25,7.25,0,0,0-.84.54c-.48.33-.61.66-.4.29a2.15,2.15,0,0,0,.17-.9,1.36,1.36,0,0,0-.11-.6,3.77,3.77,0,0,0,.78.91,23.9,23.9,0,0,0,4.76,3.16c1.9,1,4,2,6.06,2.85l1.6.66,1.55.57c1,.4,2.09.73,3.15,1.08,2.13.68,4.34,1.23,6.57,1.74a131.07,131.07,0,0,0,13.78,2.23A267.48,267.48,0,0,0,266.77,332c4.82,0,9.65-.06,14.49-.19q3.63-.09,7.27-.25l3.63-.15,1.82-.09.91,0,.45,0h.28l.19,0h.34A2.09,2.09,0,0,1,297.36,331.77Zm-2.56,2.4a1.51,1.51,0,0,0,1,.57,1.37,1.37,0,0,0,.28,0h.08l-.23.06-.45.12-.9.24-1.8.45-3.61.84c-2.41.52-4.83,1-7.25,1.46q-7.29,1.35-14.67,2.2a188,188,0,0,1-29.88,1.21,119.76,119.76,0,0,1-15.2-1.62c-2.55-.47-5.09-1-7.64-1.71-1.27-.35-2.55-.71-3.81-1.17l-1.9-.65-1.8-.69a76.08,76.08,0,0,1-7.23-3.23,35,35,0,0,1-7.37-4.94,15.21,15.21,0,0,1-3.67-4.85,10.55,10.55,0,0,1-1-4.13,10.17,10.17,0,0,1,.9-4.44,13.19,13.19,0,0,1,4.36-5.16,20.75,20.75,0,0,1,2.25-1.41l1.14-.57.6-.26.74-.29.66-.25.63-.07,8.78-1,8.78-.93c5.87-.58,11.74-1.13,17.62-1.57s11.77-.83,17.68-1.1c3-.14,5.91-.26,8.87-.32s5.92-.13,8.9-.1h0l4.13-.87-2.42,3.54a3.1,3.1,0,0,1-.48.59c-.14.14-.25.22-.38.33a4.68,4.68,0,0,1-.71.48,8.94,8.94,0,0,1-1.39.64,14.3,14.3,0,0,1-2.68.65,29.66,29.66,0,0,1-5.12.27,67.12,67.12,0,0,1-9.79-1.13,162.42,162.42,0,0,1-18.72-4.79c-12.24-3.84-24.14-8.46-35.88-13.38-2.94-1.23-5.87-2.47-8.78-3.75l-2.19-1-1.09-.47-1.21-.57c-1.64-.76-3.24-1.63-4.83-2.54a55.6,55.6,0,0,1-16.8-15.07,62.2,62.2,0,0,1-9.73-20.6,90.3,90.3,0,0,1-3-21.65c-.27-14.28,1.94-27.92,5.05-41.06a306.14,306.14,0,0,1,12.09-38.14c4.75-12.35,10.08-24.38,15.83-36.18q4.32-8.86,9-17.56,2.32-4.35,4.77-8.69l2.49-4.35,1.29-2.19.67-1.12L200.6,71h0L205,65l6.57-2.46,1.26-.47,1-.37,2-.69,3.85-1.28q3.81-1.23,7.57-2.32c5-1.46,10.06-2.74,15.1-3.94,10.06-2.39,20.2-4.24,30.4-5.74s20.45-2.46,30.75-3.06,20.63-.7,31-.29,20.68,1.27,31,2.67A293.79,293.79,0,0,1,396,53a256.33,256.33,0,0,1,58.25,22.29c4.61,2.41,9.11,5,13.56,7.7,2.21,1.4,4.39,2.73,6.61,4.19s4.42,3,6.6,4.6a131.12,131.12,0,0,1,24.24,22.53,87.71,87.71,0,0,1,16.55,30.49,80.52,80.52,0,0,1,2.5,34.48,106.52,106.52,0,0,1-9.8,31.09,157.66,157.66,0,0,1-16.44,26.28A215,215,0,0,1,478,259.18q-5.37,5.22-11,10.09c-1.88,1.62-3.8,3.2-5.74,4.76s-3.87,3.05-6,4.61h0l-3.43-9.44,70.11,3.59h0l2.33-1.24-1,4.14a41,41,0,0,1-4.34,10.48,62.11,62.11,0,0,1-6.17,8.9,51.51,51.51,0,0,1-7.65,7.62,40.76,40.76,0,0,1-4.57,3.18,27.27,27.27,0,0,1-5.32,2.54h0l-.4.62-1.2,0-62-1.37h0l10.8-12.83L472,388.88h0l3.67,10.17-11.17.25-182.24,4.15h0l-16.88-3.11,5.15-11.71,22.88-52-.72-.17a4.38,4.38,0,0,1,.85-.91A7.91,7.91,0,0,0,294.8,334.17Z"/><ellipse class="cls-3" cx="305.76" cy="275.71" rx="24.54" ry="19.28"/><path class="cls-2" d="M332.63,275.71a22.51,22.51,0,0,1-3.34,9,27.84,27.84,0,0,1-5.93,7.28,35.18,35.18,0,0,1-17.6,7.82A34,34,0,0,1,285,296.44a26.36,26.36,0,0,1-9.12-8,23.84,23.84,0,0,1-4.43-12.77,24.79,24.79,0,0,1,3.4-13.39,28.33,28.33,0,0,1,8.8-9.28,32.63,32.63,0,0,1,22.07-5A34.42,34.42,0,0,1,325,257.11a26.78,26.78,0,0,1,6,8.57A20.13,20.13,0,0,1,332.63,275.71Zm-4.67,0c-.15-.61-.25-1.21-.42-1.79a14.13,14.13,0,0,0-.66-1.67,12.27,12.27,0,0,0-.9-1.53,8.47,8.47,0,0,0-1.1-1.37,15,15,0,0,0-5.78-3.84,23.55,23.55,0,0,0-13.34-.68,26.89,26.89,0,0,0-10.51,4.75,14.09,14.09,0,0,0-3,3.13,8.28,8.28,0,0,0-1.3,3,7.61,7.61,0,0,0,.27,3.62,12.87,12.87,0,0,0,2.69,4.44,22,22,0,0,0,11.86,6.4,22.9,22.9,0,0,0,15-1.95,15.08,15.08,0,0,0,5.88-5.12A11.13,11.13,0,0,0,328,275.71Z"/><circle class="cls-4" cx="385.73" cy="236.49" r="47.55"/><path class="cls-2" d="M451.54,236.49a56.52,56.52,0,0,1-8.33,23.81,55.83,55.83,0,0,1-16.77,16.89c-1.67,1-3.31,2-4.95,2.86s-3.41,1.59-5.11,2.3-3.45,1.26-5.17,1.79-3.47.94-5.2,1.3A69.84,69.84,0,0,1,366.88,282a57.73,57.73,0,0,1-16.66-10,59.34,59.34,0,0,1-12.78-15.51,60,60,0,0,1,3.44-64.85c1.29-1.64,2.6-3.31,4-4.94s2.95-3.09,4.53-4.57,3.32-2.79,5.07-4.1,3.63-2.51,5.55-3.62a63.42,63.42,0,0,1,25.72-8.11,65.46,65.46,0,0,1,27.66,3.44,55.83,55.83,0,0,1,23.52,15.57A58.89,58.89,0,0,1,449.78,210,73.59,73.59,0,0,1,451.54,236.49Zm-36.52,0a22.2,22.2,0,0,0-5.49-9.85,48.3,48.3,0,0,0-7.74-6.21c-2.52-1.71-4.81-3.37-7.33-5.05a30.67,30.67,0,0,0-8.73-3.79,32.11,32.11,0,0,0-10.67-.88c-.93.12-1.88.27-2.89.38s-1.91.47-2.93.69-1.93.66-3,1l-2.94,1.33a32.65,32.65,0,0,0-10.67,8.7,33.7,33.7,0,0,0-6.61,13.69,35.44,35.44,0,0,0,.12,16.38A37.63,37.63,0,0,0,354,268.22a39.68,39.68,0,0,0,14.2,10.6,34.9,34.9,0,0,0,17.53,2.76,33.12,33.12,0,0,0,16.11-6.2c1.13-.86,2.2-1.78,3.24-2.68s1.92-2,2.83-3,1.61-2.21,2.38-3.26l2-3.41a36.59,36.59,0,0,0,3.83-14A40.1,40.1,0,0,0,415,236.49Z"/><line class="cls-4" x1="330.3" y1="340.56" x2="317.15" y2="391.4"/><polygon class="cls-2" points="331.99 341 323.32 392.99 310.98 389.8 328.6 340.13 331.99 341"/><line class="cls-4" x1="355.71" y1="352.84" x2="355.71" y2="391.4"/><polygon class="cls-2" points="357.47 352.83 364.48 391.4 346.95 391.4 353.96 352.83 357.47 352.83"/><line class="cls-4" x1="409.18" y1="352.84" x2="422.32" y2="391.4"/><polygon class="cls-2" points="410.83 352.27 429.91 388.81 414.74 393.98 407.52 353.4 410.83 352.27"/><path class="cls-2" d="M611.87,554c3.93-10.2,7.67-19.37,11.1-27.24q10.71-16.76,21.78-33.62-44.78-1.38-89.06-.62l0,1.15a49.16,49.16,0,0,0-20.22-6.53,53.71,53.71,0,0,0-19.17,1.43l0-.23q-39.86-3.74-79.79-5.35l-1.22-2.76c-.08.9-.17,1.8-.26,2.7q-18-.7-36-1c.11,5.23.2,10.47.3,15.71-.74-1-1.47-2-2.29-2.94-9.15-10.46-22.2-15.88-37.41-15.7a57.74,57.74,0,0,0-18.82,3.34l0-.22q-39.9.9-79.7,3.89l-1.51-2.36,0,2.47q-17.93,1.37-35.83,3.16l2,14.11c-.84-.82-1.67-1.63-2.59-2.39-10.24-8.38-23.78-11.76-38.87-9.82a59.33,59.33,0,0,0-28,10.87,69.14,69.14,0,0,0-8.4-1.23,74.93,74.93,0,0,0-18.36.88q-6.95,1.17-13.88,2.4l-.06.29-2.21.05q-19.07.45-38.19,1.54-25.54,1.45-51.14,4Q42,524.44,59.15,540q6.35,5.75,12.59,11.64c2.09,2,4,4.18,6,6.28l3.61,4q1.71,5.46,3.41,10.93,1.83,7.44,3.65,14.9,2.69,11,5.33,22,10.09-3.32,20.25-6.55,11.81-3.75,23.69-7.39,8.06-2.46,16.16-4.86c-.22-3.72-.44-7.43-.65-11.15,0-.52-.07-1-.1-1.57.34.33.64.68,1,1,10.71,10.09,24.26,15,39.5,14,14.92-.95,27.26-7.53,36-19.6a54.12,54.12,0,0,0,3.79-6.13q1.09,10.68,2.16,21.38,49.14-1.76,98.23-.11c.06-1.13.12-2.27.19-3.41a48.18,48.18,0,0,0,22.55,6.8c14.89.78,27.91-5,38.07-17.13a60.08,60.08,0,0,0,4.5-6.26q-.21,11.84-.44,23.68,48.93,3.92,97.52,11.23c.21-1.24.41-2.47.61-3.7a45.17,45.17,0,0,0,21.59,9.93c11.65,2,22.61-.71,32.46-7.89a30.82,30.82,0,0,0,3.75,6.26,29,29,0,0,0,16.93,10.55,26.26,26.26,0,0,0,19.12-3.3,29.43,29.43,0,0,0,13.75-20.06,30.71,30.71,0,0,0-.76-15.27c0-1.7.07-3.39.09-5.09.32-1,1-3,2.42-6.58Q609,561.22,611.87,554ZM190,552.07a10.76,10.76,0,0,1-7.66-2.63,13.61,13.61,0,0,1,7.09-2.74,13.37,13.37,0,0,1,7.69,1.54A10.92,10.92,0,0,1,190,552.07Zm167.91-5.53a10.31,10.31,0,0,1-7.28-3.85,12.65,12.65,0,0,1,7.36-2.11,12.4,12.4,0,0,1,7.44,2.64A10.46,10.46,0,0,1,357.87,546.54Zm167.46,13.89c-2.93-.42-5.46-2.75-6.77-5a11.88,11.88,0,0,1,14.66,2.26A10.13,10.13,0,0,1,525.33,560.43Z"/><path class="cls-1" d="M149.25,518.68q-3.65,7.92-7.18,15.75c-1.9,4.29-4.41,10.25-7.47,17.82.22,3.81.57,9.2,1.08,16.17q.6,5.54,1.6,15.81-12.09,1.71-24.15,3.68-1.09-4.81-3.75-15.38-1.14-4-4.64-14.95c-2.2-2.46-5.86-6.43-11-11.8-3.31-3.23-8.07-7.59-14.37-13q18.15-4.2,36.38-7.86c.9,1.6,2.4,4.1,4.51,7.53q3.28,4.9,6.51,9.88,1.24-4,3.26-11.8c.42-2,.91-4.93,1.51-8.68Q140.38,520.22,149.25,518.68Z"/><path class="cls-1" d="M221.41,540.36c.86,10.19-1.36,19.06-6.51,26.52a28.88,28.88,0,0,1-22.13,12.91,31.07,31.07,0,0,1-24.91-8.15c-6.57-6-10.6-13.65-12-23.28-1.45-10.29.57-18.86,6.22-25.81,5.32-6.53,13-10.63,22.86-12.08,9.72-1.42,18,.39,24.59,5.46C216.59,521.33,220.5,529.55,221.41,540.36Zm-22.65,9.93c-.82-7.87-4.29-11.45-10.42-10.69-6,.76-8.46,5.06-7.51,12.86a17.56,17.56,0,0,0,3.35,8.47c2.09,2.84,4.38,4.14,6.91,3.87s4.44-2,6-5.37A17,17,0,0,0,198.76,550.29Z"/><path class="cls-1" d="M318.81,500.73q-.8,11.46-2,37.26-.32,12.25-1.12,34.1-12.1-.08-24.22.1-.46-7.65-.94-15.29c-.57.2-1.73.67-3.47,1.41a36.33,36.33,0,0,0-4.35,2.17c-.9-1.83-1.79-3.66-2.7-5.48q-.83-1.79-2.74-5l.39,22.48q-13.36.35-26.73,1-1.68-16.2-3.41-32.37c-.83-8.43-2.3-20.16-4.48-35.14q17.58-1.72,35.18-3-.4,21.46-.72,42.86a52.48,52.48,0,0,0,6.79-.1q2.09-.12,5.62-.56-1.84-21.4-3.77-42.74Q302.46,501.37,318.81,500.73Z"/><path class="cls-1" d="M388.58,535.64c-.58,11.44-4,21-10.15,28.54-6.44,7.91-14.27,11.57-23.67,11.19-9.68-.38-17.45-4.65-23.47-12.75-5.66-7.62-8.58-16.83-8.6-27.79,0-11.71,3.16-21,9.7-27.86,6.17-6.46,14.31-9.85,24.3-10,9.81-.12,17.72,3.13,23.58,9.75C386.47,513.79,389.19,523.49,388.58,535.64Zm-23.8,7.74c.29-8.88-2.64-13.38-8.81-13.43-6-.05-9.07,4.37-9.22,13.2a21.86,21.86,0,0,0,2.14,9.94c1.67,3.48,3.76,5.26,6.29,5.33s4.68-1.63,6.68-5.11A20.86,20.86,0,0,0,364.78,543.38Z"/><path class="cls-1" d="M490.75,505.49q-2.43,12.54-7.32,40.85-2.07,13.49-6,37.49-12-1.68-24-3.13l1.23-17c-.59.14-1.81.5-3.64,1.09a36.43,36.43,0,0,0-4.62,1.8c-.62-2.14-1.25-4.29-1.89-6.43-.38-1.39-1-3.37-2-5.92q-1.41,12.46-2.8,24.94-13.27-1.44-26.59-2.59.61-18.21,1.18-36.39.56-14.19.51-39.61,17.65.63,35.31,1.74-3.45,23.69-6.8,47.33a48.66,48.66,0,0,0,6.76.83c1.39.1,3.27.14,5.64.14q1.21-23.93,2.33-47.78Q474.42,503.94,490.75,505.49Z"/><path class="cls-1" d="M555.1,553.26c-2.22,12.49-7,22.52-14.21,30-7.54,7.87-15.84,10.88-25.12,9.26-9.56-1.68-16.65-7.39-21.47-17.12-4.52-9.16-6.11-19.7-4.56-31.8,1.65-12.92,6.13-22.71,13.61-29.41,7.06-6.29,15.64-8.92,25.59-7.7,9.78,1.2,17.18,5.83,22.06,13.88C556.16,529,557.47,540,555.1,553.26Zm-24.78,5.41q2.35-14.61-6.82-15.95c-6-.85-9.64,3.61-11.06,13.32a26.55,26.55,0,0,0,.7,11.22q1.74,6.09,5.48,6.7c2.44.4,4.88-1.18,7.38-4.75A25.15,25.15,0,0,0,530.32,558.67Z"/><path class="cls-1" d="M601.5,520.84q-5.43,12.28-11.64,28.1-2.91,7.15-5.8,14.34a76,76,0,0,0-3.8,11,8.11,8.11,0,0,0-.19,1.41c-.17,0-1.9-.14-5.21-.4-1.86-.13-3.85-.19-6-.21.35-6,.84-15.75,1.37-29.3,0-6.22.09-16.33.19-30.28Q586,518,601.5,520.84Zm-20.64,73.42a9.27,9.27,0,0,1-4.52,6.38,10.33,10.33,0,0,1-7.75,1.27,11.43,11.43,0,0,1-7-4.49,9.58,9.58,0,0,1-1.82-7.78,9,9,0,0,1,4.41-6.44,11.22,11.22,0,0,1,8.25-1.17,10.82,10.82,0,0,1,6.72,4.28A9.76,9.76,0,0,1,580.86,594.26Z"/></g></g></svg>