<svg xmlns="http://www.w3.org/2000/svg" width="119.068" height="119.72" viewBox="0 0 119.068 119.72">
  <g id="Layer_2" data-name="Layer 2" transform="translate(0.018)">
    <g id="Layer_1" data-name="Layer 1" transform="translate(-0.018 0)">
      <ellipse id="Ellipse_112" data-name="Ellipse 112" cx="40.554" cy="14.088" rx="40.554" ry="14.088" transform="translate(26.969 91.543)" fill="#4d4d4d"/>
      <ellipse id="Ellipse_113" data-name="Ellipse 113" cx="27.536" cy="7.116" rx="27.536" ry="7.116" transform="translate(42.025 98.515)" fill="#333"/>
      <path id="Path_627" data-name="Path 627" d="M33.743,80.11l74.2-53.326s-8-6.441-2.379-11.41,11.73,1.7,9.6,5.759c0,0,11.45-2.624,9.883,7.934s.17,10.312-4.873,9.338-6.523-3.278-6.523-3.278S44.975,79.183,37.5,84.806,24.521,89.836,33.743,80.11Z" transform="translate(-9.194 -4.332)" fill="#fff"/>
      <path id="Path_628" data-name="Path 628" d="M31.523,77.62l18.771-13.1C56.53,60.124,62.8,55.769,69,51.339L87.651,38.1c6.2-4.471,12.4-8.888,18.532-13.4v1.5h0a12.623,12.623,0,0,1-3.3-2.311,9.835,9.835,0,0,1-2.46-3.64,7.5,7.5,0,0,1-.491-2.529,7.034,7.034,0,0,1,.518-2.726,8.458,8.458,0,0,1,1.363-2.249,11.24,11.24,0,0,1,1.8-1.629,8.383,8.383,0,0,1,4.948-1.622,7.756,7.756,0,0,1,7.368,6.134,6.053,6.053,0,0,1,0,2.474,4.43,4.43,0,0,1-1.125,2.161L113.742,18.9h0a7.5,7.5,0,0,1,2.379-1.186,8.861,8.861,0,0,1,2.665-.354,8.049,8.049,0,0,1,2.869.6,7.831,7.831,0,0,1,2.726,1.861,7.729,7.729,0,0,1,1.7,2.876,10.073,10.073,0,0,1,.5,2.978,12.5,12.5,0,0,1-.048,1.363l-.082.682-.075.62c-.109.729-.211,1.459-.307,2.195l-.532,4.457c-.055.4-.1.784-.177,1.247a6.046,6.046,0,0,1-.538,1.8,3.326,3.326,0,0,1-2.965,1.895,7.164,7.164,0,0,1-1.649-.191l-1.152-.273-.545-.13-.62-.17a17.633,17.633,0,0,1-2.44-.859,13.113,13.113,0,0,1-2.331-1.363,8.86,8.86,0,0,1-1.077-.906c-.17-.17-.341-.348-.5-.545a3.776,3.776,0,0,1-.252-.307c-.1-.129-.15-.2-.3-.436l2.474.538h0q-5.678,3.878-11.382,7.688L90.657,50.664,67.77,65.836,44.9,80.98l-2.835,1.9c-.92.641-1.908,1.281-2.774,1.915l-1.363.954c-.5.375-1,.736-1.52,1.084a25.218,25.218,0,0,1-3.347,1.915,13.392,13.392,0,0,1-2,.757,9.392,9.392,0,0,1-1.24.232,5.868,5.868,0,0,1-1.69-.061,4.2,4.2,0,0,1-1.206-.457,3.49,3.49,0,0,1-1.165-1.186,3.408,3.408,0,0,1-.484-1.452,3.851,3.851,0,0,1,.007-1.091,5.923,5.923,0,0,1,1.056-2.379,22,22,0,0,1,2.549-2.89Zm2.045,2.358c-.218.279-.627.736-.954,1.172a13.169,13.169,0,0,0-.947,1.363A12.95,12.95,0,0,0,30.3,85.24c-.129.4-.184.859-.1.832s.143-.3-.164-.872a1.69,1.69,0,0,0-.593-.607,2.045,2.045,0,0,0-.4-.191c-.143,0-.089,0,0-.075a3.708,3.708,0,0,0,.443-.136,11.052,11.052,0,0,0,1.2-.484,19.548,19.548,0,0,0,2.6-1.493c.436-.286.859-.593,1.281-.906l1.452-1.036c.981-.682,1.915-1.322,2.876-1.983l2.869-1.929c7.634-5.1,15.349-10.033,23.051-14.995s15.458-9.828,23.228-14.681l11.682-7.225q5.848-3.619,11.73-7.17h0l2.474.538c-.048-.082,0,0,.048,0l.136.109c.1.075.2.15.32.225q.364.237.75.436a10.347,10.347,0,0,0,1.738.682,12.541,12.541,0,0,0,1.908.443l2.14.334a2.263,2.263,0,0,0,.607.041h-.17a1.486,1.486,0,0,0-.423.164,1.649,1.649,0,0,0-.593.586c-.082.17,0-.116.034-.388s.061-.682.1-1c.116-1.465.2-3.047.4-4.587q.143-1.152.307-2.311a3.188,3.188,0,0,1,.061-.5l.048-.463a6.211,6.211,0,0,0,0-.872,3.728,3.728,0,0,0-.729-2.515,5.541,5.541,0,0,0-2.495-1.3c-1.138-.375-2.522-.682-3.994-1.179h0l-1.043,1.036v-2.42a3.885,3.885,0,0,0-.872-2.392A5.309,5.309,0,0,0,110.4,15.44a3.537,3.537,0,0,0-1.854-.409,3.19,3.19,0,0,0-.872.191,3.224,3.224,0,0,0-.947.47,5.658,5.658,0,0,0-.941.729,3.367,3.367,0,0,0-.627.743,2.651,2.651,0,0,0-.382,1.84,9.065,9.065,0,0,0,.872,2.726,30.788,30.788,0,0,0,1.677,2.944h0l.968.818-1.009.682c-6.23,4.369-12.384,8.86-18.58,13.263L70.3,52.934c-6.134,4.458-12.268,8.99-18.4,13.482Z" transform="translate(-8.024 -3.022)" fill="#231f20"/>
      <path id="Path_629" data-name="Path 629" d="M26.572,15.952s9.038-5.309,2.556-9.058S17.957,8.706,17.957,8.706s-2.985,6.393,0,7.245S11.618,9.136,7.536,12.966.475,25.759,5.593,27.47s12.364-.429,13.631-2.133S97.7,78.411,97.7,78.411s-3.408,5.971,0,8.526,12.834,2.133,10.687-1.7c0,0,10.19,5.971,10.224-4.267s-9.794-14.068-14.483-7.675Z" transform="translate(-0.905 -1.781)" fill="#fff"/>
      <path id="Path_630" data-name="Path 630" d="M24.688,14.122l1.254-2.1a11.007,11.007,0,0,0,.682-1.261,6.073,6.073,0,0,0,.811-2.133c0-.259-.048-.423-.143-.4s-.157.239-.164.348c0,.239-.286,0-.893-.259a7.211,7.211,0,0,0-.913-.341,5.119,5.119,0,0,0-.791-.225c-.538-.082-1.022-.164-1.609-.239a14.593,14.593,0,0,0-2.12-.109,11.918,11.918,0,0,0-1.363.055,15.173,15.173,0,0,1-1.636.082h0l.136-.218a15.4,15.4,0,0,0-.852,4.089c-.034.627.136,1.213.259,1.247s.034,0,.15,0h-.259a1.363,1.363,0,0,0-.981.716,1.275,1.275,0,0,0-.143.429,1.07,1.07,0,0,0,0,.293v.2l.041.15a1,1,0,0,0,.048.129.136.136,0,0,0,0,.055h0a6.986,6.986,0,0,0-.682-.525c-.266-.184-.552-.368-.845-.538a13.884,13.884,0,0,0-1.827-.92,7.9,7.9,0,0,0-3.565-.682,2.215,2.215,0,0,0-1.159.443,2.045,2.045,0,0,0-.239.218c-.109.116-.225.218-.334.341-.218.239-.429.484-.634.75a15.233,15.233,0,0,0-2.045,3.517,11.362,11.362,0,0,0-.947,3.762,4.682,4.682,0,0,0,.157,1.6,1.833,1.833,0,0,0,.6.913,2.045,2.045,0,0,0,.5.273,6.358,6.358,0,0,0,.866.252A11.88,11.88,0,0,0,8,24.332a17.469,17.469,0,0,0,4.089-.266,15.056,15.056,0,0,0,3.851-1.186,4.178,4.178,0,0,0,.682-.4l.116-.1h0a2.42,2.42,0,0,1,.368-.375,1.977,1.977,0,0,1,.634-.334,2.092,2.092,0,0,1,1.022-.075,3.013,3.013,0,0,1,.634.17,10.456,10.456,0,0,1,1.295.586c.368.2.722.388,1.07.593,2.767,1.588,5.323,3.285,7.906,5s5.125,3.408,7.675,5.139C47.507,40,57.512,47.117,67.525,54.212c5.016,3.531,9.978,7.129,14.94,10.748S92.4,72.179,97.323,75.866h0l.375.082-.1,1.179a19.382,19.382,0,0,0-.116,4.839,1.983,1.983,0,0,0,.525,1.091,1.583,1.583,0,0,0,.191.164c.075.061.191.136.307.211a7.273,7.273,0,0,0,.886.416,15.192,15.192,0,0,0,4.594.893,8.915,8.915,0,0,0,2.045-.143.729.729,0,0,1,.429-.041c.116,0,.218-.245.164-.613h0L105.1,81.216l2.856,1.465a13.563,13.563,0,0,0,3.994,1.363,3.889,3.889,0,0,0,3.312-.682,5.28,5.28,0,0,0,1.05-3.408,12.9,12.9,0,0,0-.559-4.089,7.815,7.815,0,0,0-4.982-5.378,5.166,5.166,0,0,0-3.367.109,5.787,5.787,0,0,0-2.61,2.167h0l-1.288,1.54-1.486-1.118Q82.465,58.322,63.088,43.471Zm1.915.1q19.65,14.149,39.143,27.992t38.625,27.7l-2.781.423h0a9.617,9.617,0,0,1,4.594-3.319,8.8,8.8,0,0,1,5.664.116,9.931,9.931,0,0,1,4.417,3.169,12.064,12.064,0,0,1,2.324,4.669A15.533,15.533,0,0,1,119,80a10.04,10.04,0,0,1-.511,2.576,5.719,5.719,0,0,1-1.554,2.447,5.05,5.05,0,0,1-2.692,1.22,8.015,8.015,0,0,1-2.665-.13,15.751,15.751,0,0,1-4.587-1.84l1.322-1.3h0a2.726,2.726,0,0,1,.716,2.106,2.869,2.869,0,0,1-.463,1.275,4.3,4.3,0,0,1-.8.866,7.715,7.715,0,0,1-3.34,1.459,13.345,13.345,0,0,1-6.6-.348,9.331,9.331,0,0,1-1.7-.736,6.767,6.767,0,0,1-.866-.573,6.68,6.68,0,0,1-.852-.8,5.759,5.759,0,0,1-1.125-2.045,6.284,6.284,0,0,1-.252-2.086,8.124,8.124,0,0,1,.941-3.408,8.908,8.908,0,0,1,1.983-2.563l.273,1.261h0L65.78,56.7Q50.6,46.347,35.286,36.123q-3.824-2.542-7.675-5.037c-2.563-1.643-5.153-3.306-7.729-4.771-.32-.184-.641-.361-.954-.518a6.816,6.816,0,0,0-.8-.375h.082a1.452,1.452,0,0,0,.743-.068,1.833,1.833,0,0,0,.566-.3c.273-.225.409-.443.32-.327l-.1.116a4.137,4.137,0,0,1-.722.682,7.634,7.634,0,0,1-1.309.818A18.9,18.9,0,0,1,12.808,27.9a21.129,21.129,0,0,1-5.05.327,15.751,15.751,0,0,1-2.6-.368,13.577,13.577,0,0,1-1.363-.4,6.052,6.052,0,0,1-1.506-.825A5.793,5.793,0,0,1,.362,23.855a8.642,8.642,0,0,1-.368-3,15.213,15.213,0,0,1,1.24-5.125,19.391,19.391,0,0,1,2.624-4.4,13.011,13.011,0,0,1,.906-.988c.143-.164.314-.32.477-.477a6.025,6.025,0,0,1,.641-.532A6.134,6.134,0,0,1,9,8.254a10.673,10.673,0,0,1,5.309,1.288,16.46,16.46,0,0,1,2.195,1.3,12.514,12.514,0,0,1,1.022.743,8.711,8.711,0,0,1,1.036,1.036,3.5,3.5,0,0,1,.314.45l.1.177c.034.089.075.177.1.266a1.776,1.776,0,0,1,.055.225,1.5,1.5,0,0,1,.034.266,2.311,2.311,0,0,1,0,.375,1.833,1.833,0,0,1-.17.491,1.663,1.663,0,0,1-1.275.872,1.609,1.609,0,0,1-.32,0H17.17a2.829,2.829,0,0,1-.545-.116,3.183,3.183,0,0,1-1.718-1.254,3.79,3.79,0,0,1-.566-1.738,5.971,5.971,0,0,1,.061-1.459A14.613,14.613,0,0,1,16.141,6.5l.082-.164.055-.048h0A6.23,6.23,0,0,1,16.87,4.3,7.177,7.177,0,0,1,18,2.638,8.1,8.1,0,0,1,21.58.388a8.929,8.929,0,0,1,4.444-.2A12.711,12.711,0,0,1,28.1.831a13.359,13.359,0,0,1,1.84.954,10.224,10.224,0,0,1,1.82,1.431A7.191,7.191,0,0,1,33.391,5.65,5.937,5.937,0,0,1,33.7,8.969a6.318,6.318,0,0,1-1.118,2.467A8.785,8.785,0,0,1,29.5,13.952a11.648,11.648,0,0,1-1.643.682,7.109,7.109,0,0,1-.852.225l-.429.068-.2.068h-.218l.143-.109a.961.961,0,0,0,.279-.661Z" transform="translate(0.018 0)" fill="#231f20"/>
      <path id="Path_631" data-name="Path 631" d="M67.8,66.425,65.277,77.092H98.531L92.806,60.052l11.089,1.7,5.119-5.971H96.248S119.21,36.6,98.558,24.229,53.99,21.223,53.99,21.223s-19.5,27.3-5.909,34.542,14.947,5.119,14.947,5.119l-12.786,1.7S46.752,63.869,52.286,66,67.8,66.425,67.8,66.425Z" transform="translate(-13.765 -5.676)" fill="#fff"/>
      <path id="Path_632" data-name="Path 632" d="M66.945,64.318a3.851,3.851,0,0,1,.034,1.07h-.13l-.518,10.353-2.14-2.726h0l33.254.757-1.363,1.9h0L90.024,58.729,89.042,56l2.951.4h0l10.857,3.163-.293.109h0a6.134,6.134,0,0,1,.784-1.977A9.209,9.209,0,0,1,104.5,56.1a11.307,11.307,0,0,1,1.431-1.363,7.824,7.824,0,0,1,1.765-1.077l.245.538h0l-12.786.682-2.556.129,1.881-1.881h0a43.13,43.13,0,0,0,6.134-8.111,19.257,19.257,0,0,0,2.958-8.963,10.006,10.006,0,0,0-.736-4.13,10.905,10.905,0,0,0-2.379-3.442A17.232,17.232,0,0,0,98.8,27.015l-.941-.682-.47-.327-.5-.3-1.016-.586c-.341-.2-.722-.375-1.077-.559a24.356,24.356,0,0,0-2.208-1.043,42.292,42.292,0,0,0-9.3-2.794,44.5,44.5,0,0,0-4.839-.613,48.769,48.769,0,0,0-4.894-.15,58.492,58.492,0,0,0-9.74,1.029q-2.426.443-4.771,1.077c-.791.211-1.574.436-2.338.682l-1.138.368c-.354.116-.791.273-1.016.361l2-1.554h0c-.293.348-.682.8-.981,1.22l-.988,1.295q-.988,1.322-1.936,2.672c-1.24,1.813-2.433,3.66-3.5,5.555a50.216,50.216,0,0,0-2.856,5.8,24.318,24.318,0,0,0-1.69,5.95,9.242,9.242,0,0,0,.682,5.453A7.109,7.109,0,0,0,46,51c.143.177.32.327.477.5a2.869,2.869,0,0,0,.518.477l.579.436c.177.15.463.3.682.45l1.452.9c1.936,1.165,3.905,2.3,5.93,3.292a28.306,28.306,0,0,0,3.088,1.309,12.214,12.214,0,0,0,1.588.436,4.349,4.349,0,0,0,.777.075,1.5,1.5,0,0,0,.354,0h.15s.089-.061.055,0l.314.491h0c-1.043.286-2.092.538-3.149.77s-2.106.45-3.163.682-2.113.4-3.176.559-2.12.354-3.19.5l.239-.061a2.276,2.276,0,0,0-.368.232s.048-.1,0-.157,0-.116,0-.1a1.845,1.845,0,0,0,.129.164,7.552,7.552,0,0,0,1.983,1.091,16.787,16.787,0,0,0,4.86,1.145,47.109,47.109,0,0,0,5.214.259h2.638l1.329-.048h1.35A.566.566,0,0,1,66.945,64.318Zm-.463.443a.164.164,0,0,0,.123.116h0l-.164.041L66.114,65l-.682.157c-.443.1-.879.184-1.322.266-.886.157-1.779.3-2.679.4a34.528,34.528,0,0,1-5.453.218,17.094,17.094,0,0,1-5.534-1.07l-.682-.273-.682-.32a6.556,6.556,0,0,1-1.363-.893,2.835,2.835,0,0,1-.682-.893,2.126,2.126,0,0,1-.177-.736,2.045,2.045,0,0,1,.164-.8,2.324,2.324,0,0,1,.8-.947,3.831,3.831,0,0,1,.954-.429l.1-.041h.136c1.063-.136,2.133-.252,3.2-.361s2.14-.2,3.21-.286,2.147-.15,3.224-.2,2.161-.082,3.244-.075h0l.811-.17-.5.682a.8.8,0,0,1-.286.252,1.043,1.043,0,0,1-.252.116,2.583,2.583,0,0,1-.491.123,6.216,6.216,0,0,1-.934.048,12.9,12.9,0,0,1-1.786-.2,30.209,30.209,0,0,1-3.408-.879c-2.236-.682-4.4-1.547-6.543-2.433l-1.6-.682c-.273-.13-.518-.2-.818-.368l-.879-.477a5.138,5.138,0,0,1-.845-.552c-.273-.211-.559-.4-.818-.634a10.394,10.394,0,0,1-1.363-1.554A11.1,11.1,0,0,1,40.4,48.226l-.232-1c-.082-.327-.1-.682-.157-.988a16.066,16.066,0,0,1-.15-1.97,29.444,29.444,0,0,1,.92-7.5,56.572,56.572,0,0,1,2.195-6.959c.866-2.256,1.847-4.444,2.89-6.6q.791-1.615,1.643-3.2l.832-1.643c.307-.538.586-1.029.947-1.622h0l.791-1.1,1.206-.457c.593-.225,1-.354,1.479-.511s.92-.286,1.363-.423c.913-.266,1.833-.491,2.726-.682q2.726-.634,5.541-1.05a64.115,64.115,0,0,1,11.266-.6,50.1,50.1,0,0,1,21.858,5.637c.832.443,1.67.9,2.467,1.411.4.252.811.477,1.213.757l1.2.845.6.429.573.477,1.145.968a23.372,23.372,0,0,1,2.1,2.236,15.765,15.765,0,0,1,3.033,5.548,14.756,14.756,0,0,1,.45,6.291,19.255,19.255,0,0,1-1.793,5.664A29.035,29.035,0,0,1,103.519,47a37.657,37.657,0,0,1-3.667,4.089,37.1,37.1,0,0,1-4.144,3.558h0L95.163,52.9l12.786.682h0l.436-.232-.191.763a7.743,7.743,0,0,1-.791,1.908,11.873,11.873,0,0,1-1.152,1.609,9.542,9.542,0,0,1-1.363,1.363,6.243,6.243,0,0,1-1.806,1.043h0l-.075.109h-.218l-11.307-.252h0l1.97-2.345,5.4,17.169h0l.682,1.854-2.045.048L64.192,77.4h0l-3.074-.566.934-2.161,4.178-9.494H66.1C66.162,65.067,66.325,64.979,66.482,64.761Z" transform="translate(-12.68 -3.787)" fill="#231f20"/>
      <ellipse id="Ellipse_114" data-name="Ellipse 114" cx="4.478" cy="3.517" rx="4.478" ry="3.517" transform="translate(51.321 46.79)" fill="#404041"/>
      <path id="Path_633" data-name="Path 633" d="M83.836,71.442a4.09,4.09,0,0,1-.613,1.636,4.839,4.839,0,0,1-1.084,1.363,6.373,6.373,0,0,1-3.21,1.431,6.134,6.134,0,0,1-3.776-.62,4.771,4.771,0,0,1-1.67-1.452,4.348,4.348,0,0,1-.8-2.324,4.519,4.519,0,0,1,.62-2.447,5.159,5.159,0,0,1,1.6-1.69,5.95,5.95,0,0,1,4.028-.913,6.264,6.264,0,0,1,3.51,1.622A4.171,4.171,0,0,1,83.836,71.442Zm-.852,0a2.433,2.433,0,0,0-1.622-1.861,4.253,4.253,0,0,0-2.433-.13,4.928,4.928,0,0,0-1.942.866,1.942,1.942,0,0,0-.791,1.125,1.765,1.765,0,0,0,.545,1.472A4.089,4.089,0,0,0,78.9,74.08a4.294,4.294,0,0,0,2.726-.354,2.794,2.794,0,0,0,1.07-.941A2.045,2.045,0,0,0,82.984,71.442Z" transform="translate(-23.129 -21.135)" fill="#231f20"/>
      <circle id="Ellipse_115" data-name="Ellipse 115" cx="8.676" cy="8.676" r="8.676" transform="translate(61.715 34.474)" fill="#6d6e70"/>
      <path id="Path_634" data-name="Path 634" d="M110.473,57.3a10.4,10.4,0,0,1-1.52,4.342,10.149,10.149,0,0,1-3.06,3.081,12.152,12.152,0,0,1-13.911-.941,10.905,10.905,0,0,1-1.7-14.667,11.266,11.266,0,0,1,3.5-3.142,11.587,11.587,0,0,1,4.689-1.479,11.2,11.2,0,0,1,9.365,3.462,10.83,10.83,0,0,1,2.351,4.5,13.325,13.325,0,0,1,.293,4.846Zm-6.666,0a4.015,4.015,0,0,0-1-1.8,8.984,8.984,0,0,0-1.411-1.138l-1.363-.92-.361-.211-.382-.184-.409-.164-.443-.129a5.78,5.78,0,0,0-4.089.457A6.134,6.134,0,0,0,91.191,57.3a6.713,6.713,0,0,0,1.452,5.78,7.156,7.156,0,0,0,2.59,1.942,6.448,6.448,0,0,0,3.2.5,6.134,6.134,0,0,0,2.938-1.131,6.318,6.318,0,0,0,1.908-2.256,6.747,6.747,0,0,0,.682-2.549A6.945,6.945,0,0,0,103.807,57.3Z" transform="translate(-28.072 -14.146)" fill="#231f20"/>
      <line id="Line_35" data-name="Line 35" x1="2.399" y2="9.276" transform="translate(57.878 62.139)" fill="#6d6e70"/>
      <path id="Path_635" data-name="Path 635" d="M87.087,91.214,85.5,100.694l-2.249-.579,3.217-9.065Z" transform="translate(-26.497 -28.992)" fill="#231f20"/>
      <line id="Line_36" data-name="Line 36" y2="7.041" transform="translate(64.919 64.375)" fill="#6d6e70"/>
      <path id="Path_636" data-name="Path 636" d="M94.8,94.45l1.281,7.041h-3.2l1.281-7.041Z" transform="translate(-29.563 -30.075)" fill="#231f20"/>
      <line id="Line_37" data-name="Line 37" x2="2.399" y2="7.041" transform="translate(74.672 64.375)" fill="#6d6e70"/>
      <path id="Path_637" data-name="Path 637" d="M109.7,94.3l3.483,6.666-2.767.947-1.322-7.4Z" transform="translate(-34.725 -30.027)" fill="#231f20"/>
    </g>
  </g>
</svg>
