<svg xmlns="http://www.w3.org/2000/svg" viewBox="0 0 173.74 187.51"><defs><style>.cls-1{fill:#fff5bc;}.cls-14,.cls-2,.cls-9{fill:#231f20;}.cls-3{fill:#d0d2d3;}.cls-4{fill:#c3996b;}.cls-5{fill:#bbbdbf;}.cls-6{fill:#ddcf8c;}.cls-7{fill:#483715;}.cls-8{fill:#c0bba3;}.cls-14,.cls-9{stroke:#231f20;stroke-miterlimit:10;}.cls-9{stroke-width:0.51px;}.cls-10{fill:#8d7455;}.cls-11{fill:#c0bfb7;}.cls-12{fill:#72573d;}.cls-13{fill:#8d8c89;}.cls-14{stroke-width:0.57px;}.cls-15{fill:#e6e7e8;}</style></defs><g id="Layer_2" data-name="Layer 2"><g id="Layer_1-2" data-name="Layer 1"><path class="cls-1" d="M35.88,164H111.4L87.9,152.62s-4.57-18.09-14.26-19-4.26-22.85-20.08-18.09-17.68,20-17.68,20-8.08-7.34-11.69,4-10.94,4.62-13.61,16S3.15,164,3.15,164Z" transform="translate(0 -2.89)"/><path class="cls-2" d="M35.88,163.48c6.3.11,12.59.29,18.88.28q4.73,0,9.44,0l9.44-.1c6.3-.11,12.59-.18,18.88-.4s12.59-.54,18.88-1.09l-.82,3.58h0q-3.14-1-6.23-2.14c-2.06-.74-4.12-1.49-6.15-2.29s-4.08-1.55-6.1-2.37-4-1.64-6.06-2.48l-1.54-.65-.73-2.15c-.22-.62-.52-1.44-.81-2.16s-.6-1.49-.92-2.22a45.62,45.62,0,0,0-2.13-4.19c-1.51-2.62-3.44-5-5.11-5.87a3.91,3.91,0,0,0-1.12-.44,2.94,2.94,0,0,0-.49-.08l-.09,0-.29,0-.61-.09a11.32,11.32,0,0,1-1.22-.29,10.54,10.54,0,0,1-4.34-2.58,13.93,13.93,0,0,1-2.47-3.31,36,36,0,0,1-2.33-5.68c-.57-1.68-1.08-3.17-1.61-4.34a5.22,5.22,0,0,0-1.39-2,1.54,1.54,0,0,0-.53-.26,3.63,3.63,0,0,0-1.12-.11,11.9,11.9,0,0,0-1.7.2c-.61.12-1.37.35-2,.53a26,26,0,0,0-4,1.53,25.08,25.08,0,0,0-7.19,5.24,36.29,36.29,0,0,0-5.81,8.11l-.59,1.1-.33-.76h0a13.46,13.46,0,0,0-2.83-.86,5.18,5.18,0,0,0-2.42.09,2.88,2.88,0,0,0-1.43,1.07,7,7,0,0,0-1,1.89,25,25,0,0,0-.7,2.53,17.23,17.23,0,0,1-1.27,3.55,13,13,0,0,1-2.42,3.45A13.56,13.56,0,0,1,20,150.05c-1.13.59-2.09.95-2.76,1.32a5.09,5.09,0,0,0-1.46,1,10.36,10.36,0,0,0-2.1,4.08,21.13,21.13,0,0,1-3.22,6.44,8.71,8.71,0,0,1-3.32,2.67,5.34,5.34,0,0,1-2.38.4,4.61,4.61,0,0,1-1.18-.27,4.3,4.3,0,0,1-1.1-.62h0L0,164l3.15-1.24a19.17,19.17,0,0,1,8.19-1.07c2.72.08,5.45.26,8.18.51s5.45.55,8.18.78S33.16,163.39,35.88,163.48Zm0,1.13c-2.72.09-5.45.22-8.18.46s-5.45.54-8.18.79-5.46.43-8.18.5a19.17,19.17,0,0,1-8.19-1.06L3.8,163h0c0-.08.26-.06.38-.11a1.1,1.1,0,0,0,.4-.17,2,2,0,0,0,.59-.53,6.84,6.84,0,0,0,1-1.88A28.52,28.52,0,0,0,7.33,155a14.58,14.58,0,0,1,3-7.32,11.77,11.77,0,0,1,3.49-2.79c1.19-.61,2.19-1,3-1.37a8.18,8.18,0,0,0,1.77-1.07,7.32,7.32,0,0,0,1.36-1.56,16.68,16.68,0,0,0,1.21-2.24,18.79,18.79,0,0,1,1.7-3.29,10.33,10.33,0,0,1,2.94-3,6.85,6.85,0,0,1,4.35-1.15,7.54,7.54,0,0,1,3.69,1.4,9.47,9.47,0,0,1,2.47,2.5h0l-.92.35a21.19,21.19,0,0,1,1.79-11.28,24.14,24.14,0,0,1,7.54-9.45A26.33,26.33,0,0,1,50,111.57c.47-.23,1-.4,1.43-.58s1-.36,1.51-.52a17.53,17.53,0,0,1,3.45-.71,14.09,14.09,0,0,1,4.1.19,11.29,11.29,0,0,1,4.25,1.8,12.94,12.94,0,0,1,3.1,3,19,19,0,0,1,1.85,3.12,44.41,44.41,0,0,1,2.07,5.47,28.17,28.17,0,0,0,1.57,4,4.27,4.27,0,0,0,.59.92c.12.13.07.1.1.12l0,0h.07l.24,0a13.14,13.14,0,0,1,2.07.44,13.73,13.73,0,0,1,3.65,1.68c4.29,2.86,6.42,6.54,8.19,10A42.81,42.81,0,0,1,90.48,146c.31.9.59,1.8.85,2.71s.48,1.79.71,2.85l-2.27-2.79c1.91,1.06,3.8,2.14,5.69,3.23s3.76,2.23,5.64,3.34,3.74,2.26,5.6,3.42,3.7,2.35,5.52,3.58h0l7.08,4.26-7.91-.68c-6.29-.55-12.58-.88-18.88-1.09s-12.58-.3-18.88-.4l-9.44-.1q-4.71-.06-9.44,0C48.47,164.32,42.18,164.5,35.88,164.61Z" transform="translate(0 -2.89)"/><rect class="cls-3" x="34.73" y="136.25" width="3.69" height="3.38"/><path class="cls-2" d="M35.09,142.15a6.58,6.58,0,0,1,1.81-.41,4.2,4.2,0,0,1,1.52.13l-.65.65a14.72,14.72,0,0,0,.08-3.38l.57.56q-1.85.08-3.69.3l.86-.86C35.48,140.05,35.26,141,35.09,142.15Zm-.73.73c-.16-1.12-.38-2.41-.49-3.74l-.08-1,.94.11c1.23.14,2.46.24,3.69.29l.58,0,0,.54a15.94,15.94,0,0,0,.08,3.38l.09.48-.73.16a8.26,8.26,0,0,1-2.17.13A4.23,4.23,0,0,1,34.36,142.88Z" transform="translate(0 -2.89)"/><ellipse class="cls-4" cx="32.57" cy="141.1" rx="2.15" ry="2.66"/><path class="cls-2" d="M31.16,144a2.53,2.53,0,0,0,.28,1.45,1.27,1.27,0,0,0,1.13.69,1.36,1.36,0,0,0,1.09-.73,2.3,2.3,0,0,0,.26-1.41c-.1-1-.85-1.69-1.35-1.63a1.26,1.26,0,0,0-.85.4A2,2,0,0,0,31.16,144Zm-1.48,0a4,4,0,0,1,.55-2.32,2.78,2.78,0,0,1,2.34-1.36A2.91,2.91,0,0,1,35,141.65a3.87,3.87,0,0,1-.27,4.49,2.7,2.7,0,0,1-2.11,1,2.88,2.88,0,0,1-2.05-1.07A3.74,3.74,0,0,1,29.68,144Z" transform="translate(0 -2.89)"/><ellipse class="cls-5" cx="26.46" cy="157.44" rx="2.94" ry="2.59"/><path class="cls-2" d="M24.51,160.33a2,2,0,0,0,1.95,2,2.06,2.06,0,0,0,2.32-2,1.73,1.73,0,0,0-.82-1.27,2.41,2.41,0,0,0-1.5-.33,2.38,2.38,0,0,0-1.31.57A1.7,1.7,0,0,0,24.51,160.33Zm-2,0a3.32,3.32,0,0,1,1.21-2.73,4,4,0,0,1,5.24.23,3.23,3.23,0,0,1,1,2.5,3.18,3.18,0,0,1-1.21,2.29,4.19,4.19,0,0,1-2.34.88,3.93,3.93,0,0,1-2.51-.68A3.24,3.24,0,0,1,22.53,160.33Z" transform="translate(0 -2.89)"/><path class="cls-6" d="M73.74,133.36a5.58,5.58,0,0,1,1.13,2.9,9.63,9.63,0,0,1,.38,4.36,7.34,7.34,0,0,1-2.13,3.6A10.92,10.92,0,0,1,69.67,146c-.27.1-.51.28-.78.4s-.49.1-.58.29c-.16.35.26.9.37,1.18.93,2.27-.56,4.78-1.67,6.45a11.16,11.16,0,0,1-2.7,2.7,13,13,0,0,1-3.91,2.16c-.48.16-1.09.23-1.29.83-.09.25-.17.52-.27.77a8,8,0,0,1-.61,1.25,3.83,3.83,0,0,1-1.18,1.19c-.52.4-1.19-.81-1.73-.46s-4,1.1-4.72,1.42a43.22,43.22,0,0,0,5.09,0c1.74-.12,3.8.12,5.54,0,2.69-.18,4.58-.08,7.27-.25,1.91-.12,3.83-.14,5.73-.37,1.33-.16,2.64-.37,4-.48,2.32-.18,4.62-.21,7-.2,2.93,0,5.86-.17,8.79-.17a30.62,30.62,0,0,1,4.39,0c1.66.24,3.29.76,4.93,1.14.95.21,1.86.6,2.8.82a4.91,4.91,0,0,1,1.15.25c-.37.16-.8-.13-1.15-.28a23,23,0,0,1-3.18-1.82,117.28,117.28,0,0,1-10-7.89,29.26,29.26,0,0,1-4.68-4.32,20.57,20.57,0,0,1-1.9-3c-1.21-2.26-2-4.74-3.4-6.86a23.49,23.49,0,0,0-3.26-3.92,19.61,19.61,0,0,1-2.34-2.47c-.4-.56-.72-1.14-1.32-1.33a3.42,3.42,0,0,0-1.15-.12" transform="translate(0 -2.89)"/><path class="cls-2" d="M35.88,163.48c6.3.11,12.59.29,18.88.28q4.73,0,9.44,0l9.44-.1c6.3-.11,12.59-.18,18.88-.4s12.59-.54,18.88-1.09l-.82,3.58h0q-3.14-1-6.23-2.14c-2.06-.74-4.12-1.49-6.15-2.29s-4.08-1.55-6.1-2.37-4-1.64-6.06-2.48l-1.54-.65-.73-2.15c-.22-.62-.52-1.44-.81-2.16s-.6-1.49-.92-2.22a45.62,45.62,0,0,0-2.13-4.19c-1.51-2.62-3.44-5-5.11-5.87a3.91,3.91,0,0,0-1.12-.44,2.94,2.94,0,0,0-.49-.08l-.09,0-.29,0-.61-.09a11.32,11.32,0,0,1-1.22-.29,10.54,10.54,0,0,1-4.34-2.58,13.93,13.93,0,0,1-2.47-3.31,36,36,0,0,1-2.33-5.68c-.57-1.68-1.08-3.17-1.61-4.34a5.22,5.22,0,0,0-1.39-2,1.54,1.54,0,0,0-.53-.26,3.63,3.63,0,0,0-1.12-.11,11.9,11.9,0,0,0-1.7.2c-.61.12-1.37.35-2,.53a26,26,0,0,0-4,1.53,25.08,25.08,0,0,0-7.19,5.24,36.29,36.29,0,0,0-5.81,8.11l-.59,1.1-.33-.76h0a13.46,13.46,0,0,0-2.83-.86,5.18,5.18,0,0,0-2.42.09,2.88,2.88,0,0,0-1.43,1.07,7,7,0,0,0-1,1.89,25,25,0,0,0-.7,2.53,17.23,17.23,0,0,1-1.27,3.55,13,13,0,0,1-2.42,3.45A13.56,13.56,0,0,1,20,150.05c-1.13.59-2.09.95-2.76,1.32a5.09,5.09,0,0,0-1.46,1,10.36,10.36,0,0,0-2.1,4.08,21.13,21.13,0,0,1-3.22,6.44,8.71,8.71,0,0,1-3.32,2.67,5.34,5.34,0,0,1-2.38.4,4.61,4.61,0,0,1-1.18-.27,4.3,4.3,0,0,1-1.1-.62h0L0,164l3.15-1.24a19.17,19.17,0,0,1,8.19-1.07c2.72.08,5.45.26,8.18.51s5.45.55,8.18.78S33.16,163.39,35.88,163.48Zm0,1.13c-2.72.09-5.45.22-8.18.46s-5.45.54-8.18.79-5.46.43-8.18.5a19.17,19.17,0,0,1-8.19-1.06L3.8,163h0c0-.08.26-.06.38-.11a1.1,1.1,0,0,0,.4-.17,2,2,0,0,0,.59-.53,6.84,6.84,0,0,0,1-1.88A28.52,28.52,0,0,0,7.33,155a14.58,14.58,0,0,1,3-7.32,11.77,11.77,0,0,1,3.49-2.79c1.19-.61,2.19-1,3-1.37a8.18,8.18,0,0,0,1.77-1.07,7.32,7.32,0,0,0,1.36-1.56,16.68,16.68,0,0,0,1.21-2.24,18.79,18.79,0,0,1,1.7-3.29,10.33,10.33,0,0,1,2.94-3,6.85,6.85,0,0,1,4.35-1.15,7.54,7.54,0,0,1,3.69,1.4,9.47,9.47,0,0,1,2.47,2.5h0l-.92.35a21.19,21.19,0,0,1,1.79-11.28,24.14,24.14,0,0,1,7.54-9.45A26.33,26.33,0,0,1,50,111.57c.47-.23,1-.4,1.43-.58s1-.36,1.51-.52a17.53,17.53,0,0,1,3.45-.71,14.09,14.09,0,0,1,4.1.19,11.29,11.29,0,0,1,4.25,1.8,12.94,12.94,0,0,1,3.1,3,19,19,0,0,1,1.85,3.12,44.41,44.41,0,0,1,2.07,5.47,28.17,28.17,0,0,0,1.57,4,4.27,4.27,0,0,0,.59.92c.12.13.07.1.1.12l0,0h.07l.24,0a13.14,13.14,0,0,1,2.07.44,13.73,13.73,0,0,1,3.65,1.68c4.29,2.86,6.42,6.54,8.19,10A42.81,42.81,0,0,1,90.48,146c.31.9.59,1.8.85,2.71s.48,1.79.71,2.85l-2.27-2.79c1.91,1.06,3.8,2.14,5.69,3.23s3.76,2.23,5.64,3.34,3.74,2.26,5.6,3.42,3.7,2.35,5.52,3.58h0l7.08,4.26-7.91-.68c-6.29-.55-12.58-.88-18.88-1.09s-12.58-.3-18.88-.4l-9.44-.1q-4.71-.06-9.44,0C48.47,164.32,42.18,164.5,35.88,164.61Z" transform="translate(0 -2.89)"/><rect class="cls-7" x="76.48" y="153.47" width="3.21" height="3.97"/><path class="cls-2" d="M76.84,160a21.38,21.38,0,0,0,2.85-.12l-.48.48a2,2,0,0,0-.24-1,2.06,2.06,0,0,1-.34-1,3.63,3.63,0,0,1,.55-2l.51.51a6.18,6.18,0,0,1-1.6.61,8.88,8.88,0,0,1-1.61.21l1.34-1.33C77.89,157.38,77.47,158.21,76.84,160Zm-.72.73a8,8,0,0,1-1-4.33l.06-1.39,1.27.05a8.88,8.88,0,0,1,1.61.21,6.18,6.18,0,0,1,1.6.61L80,156l.23.35a3.63,3.63,0,0,1,.55,2,2.06,2.06,0,0,1-.34,1,2.14,2.14,0,0,0-.25,1l0,.52-.45,0A32.21,32.21,0,0,0,76.12,160.7Z" transform="translate(0 -2.89)"/><ellipse class="cls-8" cx="82.63" cy="152.8" rx="2.39" ry="2.2"/><path class="cls-2" d="M81,155.69a1.67,1.67,0,0,0,1.63,1.56,1.87,1.87,0,0,0,1.29-.39,1.46,1.46,0,0,0,0-2.34,1.87,1.87,0,0,0-1.29-.39A1.67,1.67,0,0,0,81,155.69Zm-1.52,0a2.81,2.81,0,0,1,1-2.13,3.18,3.18,0,0,1,2.13-.7,2.83,2.83,0,1,1,0,5.66,3.18,3.18,0,0,1-2.13-.7A2.81,2.81,0,0,1,79.48,155.69Z" transform="translate(0 -2.89)"/><ellipse class="cls-9" cx="68.14" cy="158.12" rx="0.84" ry="1.03"/><ellipse class="cls-9" cx="42.59" cy="130.13" rx="0.84" ry="1.03"/><ellipse class="cls-9" cx="44.45" cy="126.15" rx="0.84" ry="1.03"/><ellipse class="cls-9" cx="45.4" cy="129.75" rx="0.84" ry="1.03"/><ellipse class="cls-9" cx="17.93" cy="152.06" rx="0.84" ry="1.03"/><ellipse class="cls-9" cx="15.59" cy="155" rx="0.84" ry="1.03"/><ellipse class="cls-9" cx="18.72" cy="156.03" rx="0.84" ry="1.03"/><ellipse class="cls-9" cx="70.23" cy="155" rx="0.84" ry="1.03"/><ellipse class="cls-9" cx="72.89" cy="158.12" rx="0.84" ry="1.03"/><polygon class="cls-10" points="55.87 43.64 70.61 114.46 85.34 110.31 66.26 40.32 55.87 43.64"/><path class="cls-2" d="M56.41,46.84l16.28,70.08L70,115.31l15.14-2.71-.43.77L63.88,43.85,67,45.55C63.91,45.91,60.36,46.15,56.41,46.84Zm-1.08-.63c3-1.52,6.35-3.49,10.18-5.35l2.42-1.17.7,2.87L86,113l.13.55-.57.22L71.18,119.4l-2.2.86-.46-2.47Z" transform="translate(0 -2.89)"/><path class="cls-11" d="M43.54,111.78H68a24.51,24.51,0,0,1,15.19-3.55L101.3,94.55s26.86,68.91-13.68,74C87.62,168.53,57.73,178.16,43.54,111.78Z" transform="translate(0 -2.89)"/><path class="cls-2" d="M39,108.07a123.77,123.77,0,0,1,15.44.77c4.94.57,9.5,1.44,13.65,2.32l-.34.11h0a24,24,0,0,1,3.44-2.34A26.6,26.6,0,0,1,75,107.15,23,23,0,0,1,79.12,106a23.93,23.93,0,0,1,4.43-.42h0l-1.94.52,19.32-12,.74-.46.21.73h0a157.43,157.43,0,0,1,6.77,20.7A106.29,106.29,0,0,1,112,136.74a56.58,56.58,0,0,1-.64,11.22,34,34,0,0,1-3.67,11,23.69,23.69,0,0,1-8.33,8.81A31.5,31.5,0,0,1,88,171.89l.62-.14c-.44.14-.63.19-.91.26s-.51.11-.77.16c-.5.09-1,.18-1.48.23a23.88,23.88,0,0,1-2.92.14,25.24,25.24,0,0,1-5.69-.77,31.49,31.49,0,0,1-10.16-4.72,44.2,44.2,0,0,1-8-7.33,70.21,70.21,0,0,1-6.22-8.57,108,108,0,0,1-8.82-18.67l-.89-2.4-.8-2.42c-.54-1.62-1.08-3.23-1.53-4.86l-.72-2.44-.36-1.22c-.18-.69-.34-1.41-.47-2.16a24.54,24.54,0,0,1-.35-4.62A34.06,34.06,0,0,1,39,108.07Zm9.18,7.42a5.12,5.12,0,0,0,1.49.52c.4.06.65.07.75.17a.35.35,0,0,1,.09.24l.26,1.17.53,2.33c.33,1.56.74,3.09,1.14,4.62l.61,2.31.67,2.27a98.91,98.91,0,0,0,6.89,17.41c2.89,5.4,6.42,10.46,11,14.06a23.49,23.49,0,0,0,7.37,4,17.43,17.43,0,0,0,4,.82,19.32,19.32,0,0,0,2,0c.33,0,.65-.05,1-.08l.72-.11.62-.14a25.06,25.06,0,0,0,9.09-2.59,17.94,17.94,0,0,0,6.8-6.33,29.3,29.3,0,0,0,3.69-9.19,53,53,0,0,0,1.24-10.3,103.86,103.86,0,0,0-1.92-21.17,154.27,154.27,0,0,0-5.37-20.81h0l.94.26L84.85,110.38l-.53.48-1.41,0h0a20,20,0,0,0-3.5-.59,19.61,19.61,0,0,0-3.67,0A23.9,23.9,0,0,0,72,111a22.49,22.49,0,0,0-3.62,1.27h0l0,0-.31.07c-4,.88-7.62,1.75-10.85,2.32A45.89,45.89,0,0,1,48.13,115.49Z" transform="translate(0 -2.89)"/><path class="cls-11" d="M77.25,25.05l-35-17.49L34.48,18.7,35.27,41,50.7,49.79l5.43,2.52S63.34,45.18,68.42,50l4.94-3.36,3.69-6.45ZM69,39.19l-2.54,1c-4.1-2.31-12.72,2.89-12.72,2.89l-7.47-7.25-.52-17.16,25.39,9.41.66,6.07Z" transform="translate(0 -2.89)"/><path class="cls-2" d="M75.93,25.85l-35.26-15,4.58-1.16h0L39.32,22.09l1.07-3.6h0a26,26,0,0,0-1.08,2.83c-.33.94-.58,1.88-.83,2.82a56.72,56.72,0,0,0-1.14,5.63c-.31,1.87-.48,3.74-.63,5.61s-.19,3.73-.19,5.59l-.63-1c1.27.76,2.52,1.55,3.81,2.27s2.58,1.46,3.88,2.17,2.61,1.38,3.94,2,2.66,1.31,4,2l-.12-.07L57,50.34l-2.44.42a20.32,20.32,0,0,1,2.94-2.66,14.16,14.16,0,0,1,3.64-2A9.86,9.86,0,0,1,66,45.47a9.5,9.5,0,0,1,4.69,2.23l-4-.33c.8-.6,1.59-1.2,2.4-1.78s1.61-1.17,2.44-1.73l-1,1.12c.61-1.07,1.17-2.19,1.88-3.21A18.68,18.68,0,0,1,74.84,39l-.34,1.23a27.37,27.37,0,0,0,1.08-3.57A30.67,30.67,0,0,0,76,32.94c.08-1.23.13-2.45.12-3.65A25.25,25.25,0,0,0,75.93,25.85Zm2.64-1.61c-.19,1.45-.28,2.81-.33,4.15s0,2.63,0,3.94a34.24,34.24,0,0,0,.35,3.9c.22,1.31.61,2.63,1,4l-.34,1.23a17.86,17.86,0,0,1-1.14,3.63c-.51,1.13-1.19,2.17-1.81,3.25l-.39.68-.64.44c-.83.56-1.67,1.09-2.51,1.63s-1.69,1.06-2.54,1.58L68,54.05,66.2,52.36a4.12,4.12,0,0,0-1.35-1,4.64,4.64,0,0,0-2.06,0,9.8,9.8,0,0,0-2.6.92,16.61,16.61,0,0,0-2.53,1.56l-1.38,1-1.06-.6L50,51.3l-.12-.06c-1.24-.83-2.47-1.65-3.72-2.44s-2.51-1.58-3.77-2.35-2.55-1.51-3.84-2.23-2.6-1.41-3.9-2.12l-.59-.31L34,41.06q-.18-2.79-.58-5.57c-.28-1.85-.58-3.7-1-5.55s-.92-3.69-1.54-5.53c-.32-.92-.64-1.84-1-2.76a27.94,27.94,0,0,0-1.27-2.74h0L29,16l.68-.69,9.67-9.82h0l2-2.6L43.9,4.33C55.84,11.06,67.38,17.83,78.57,24.24Z" transform="translate(0 -2.89)"/><path class="cls-2" d="M70,40.36c-1,.45-2,.9-3,1.33l-.62.27-.77-.37a4.34,4.34,0,0,0-2.35-.16,12.49,12.49,0,0,0-2.81.85,27,27,0,0,0-2.78,1.42,27.92,27.92,0,0,0-2.56,1.74l-1.44,1.12-1.91-1.51C50.45,44,49,43,47.63,41.9a17.41,17.41,0,0,0-2.17-1.5,17.44,17.44,0,0,0-2.62-1L41.35,36a7.27,7.27,0,0,1-1.1-4.26,38,38,0,0,1,.65-4.31,29.79,29.79,0,0,1,1.32-4.33A21.31,21.31,0,0,1,44.5,18.7h0L44.3,17l1.9.53,26.14,7.37h0l2.41,2-.2.87L73.11,34h0l.06.36-.21.42C72,36.63,71,38.5,70,40.36ZM68,38c.85-1.51,1.74-3,2.66-4.53l-.15.78h0l-2.76-5.84L70,31.28h0L45.32,19.85,47,18.63h0a20.87,20.87,0,0,1,2.54,4.21,30.38,30.38,0,0,1,1.58,4.24,35.7,35.7,0,0,1,.91,4.27,7.28,7.28,0,0,1-.83,4.32l-1.49-3.39a17.25,17.25,0,0,0,1.11,2.59A19.63,19.63,0,0,0,52.4,37c1.09,1.37,2.15,2.76,3.27,4.1l-3.35-.38a36.4,36.4,0,0,1,3.43-1.36,31,31,0,0,1,3.52-1,17.68,17.68,0,0,1,3.79-.51,7.84,7.84,0,0,1,4.21,1l-1.39-.1C66.57,38.44,67.27,38.23,68,38Z" transform="translate(0 -2.89)"/><polygon class="cls-12" points="59.25 51.11 61.15 48.95 74.44 99.04 70.86 104.84 59.25 51.11"/><polygon class="cls-13" points="42.73 110.22 67.07 109.5 77 105.99 83.76 105.99 85.79 110.22 92.88 162.39 82.62 164.79 73.47 162.51 57.66 148.2 44.79 118.81 42.73 110.22"/><polygon class="cls-2" points="72.66 113.54 85.9 146.89 84.78 147.4 68.55 115.39 72.66 113.54"/><polygon class="cls-2" points="87.03 111.28 89.5 135.84 88.28 136.02 83.66 111.77 87.03 111.28"/><path class="cls-2" d="M39,108.07a123.77,123.77,0,0,1,15.44.77c4.94.57,9.5,1.44,13.65,2.32l-.34.11h0a24,24,0,0,1,3.44-2.34A26.6,26.6,0,0,1,75,107.15,23,23,0,0,1,79.12,106a23.93,23.93,0,0,1,4.43-.42h0l-1.94.52,19.32-12,.74-.46.21.73h0a157.43,157.43,0,0,1,6.77,20.7A106.29,106.29,0,0,1,112,136.74a56.58,56.58,0,0,1-.64,11.22,34,34,0,0,1-3.67,11,23.69,23.69,0,0,1-8.33,8.81A31.5,31.5,0,0,1,88,171.89l.62-.14c-.44.14-.63.19-.91.26s-.51.11-.77.16c-.5.09-1,.18-1.48.23a23.88,23.88,0,0,1-2.92.14,25.24,25.24,0,0,1-5.69-.77,31.49,31.49,0,0,1-10.16-4.72,44.2,44.2,0,0,1-8-7.33,70.21,70.21,0,0,1-6.22-8.57,108,108,0,0,1-8.82-18.67l-.89-2.4-.8-2.42c-.54-1.62-1.08-3.23-1.53-4.86l-.72-2.44-.36-1.22c-.18-.69-.34-1.41-.47-2.16a24.54,24.54,0,0,1-.35-4.62A34.06,34.06,0,0,1,39,108.07Zm9.18,7.42a5.12,5.12,0,0,0,1.49.52c.4.06.65.07.75.17a.35.35,0,0,1,.09.24l.26,1.17.53,2.33c.33,1.56.74,3.09,1.14,4.62l.61,2.31.67,2.27a98.91,98.91,0,0,0,6.89,17.41c2.89,5.4,6.42,10.46,11,14.06a23.49,23.49,0,0,0,7.37,4,17.43,17.43,0,0,0,4,.82,19.32,19.32,0,0,0,2,0c.33,0,.65-.05,1-.08l.72-.11.62-.14a25.06,25.06,0,0,0,9.09-2.59,17.94,17.94,0,0,0,6.8-6.33,29.3,29.3,0,0,0,3.69-9.19,53,53,0,0,0,1.24-10.3,103.86,103.86,0,0,0-1.92-21.17,154.27,154.27,0,0,0-5.37-20.81h0l.94.26L84.85,110.38l-.53.48-1.41,0h0a20,20,0,0,0-3.5-.59,19.61,19.61,0,0,0-3.67,0A23.9,23.9,0,0,0,72,111a22.49,22.49,0,0,0-3.62,1.27h0l0,0-.31.07c-4,.88-7.62,1.75-10.85,2.32A45.89,45.89,0,0,1,48.13,115.49Z" transform="translate(0 -2.89)"/><polygon class="cls-13" points="42.73 8.54 44.7 14.62 41.99 27.04 42.73 34.89 53.65 42.66 59.25 38.94 60.07 45.02 55 47.13 36.08 37.08 37.27 11.84 42.73 8.54"/><path class="cls-2" d="M75.93,25.85l-35.26-15,4.58-1.16h0L39.32,22.09l1.07-3.6h0a26,26,0,0,0-1.08,2.83c-.33.94-.58,1.88-.83,2.82a56.72,56.72,0,0,0-1.14,5.63c-.31,1.87-.48,3.74-.63,5.61s-.19,3.73-.19,5.59l-.63-1c1.27.76,2.52,1.55,3.81,2.27s2.58,1.46,3.88,2.17,2.61,1.38,3.94,2,2.66,1.31,4,2l-.12-.07L57,50.34l-2.44.42a20.32,20.32,0,0,1,2.94-2.66,14.16,14.16,0,0,1,3.64-2A9.86,9.86,0,0,1,66,45.47a9.5,9.5,0,0,1,4.69,2.23l-4-.33c.8-.6,1.59-1.2,2.4-1.78s1.61-1.17,2.44-1.73l-1,1.12c.61-1.07,1.17-2.19,1.88-3.21A18.68,18.68,0,0,1,74.84,39l-.34,1.23a27.37,27.37,0,0,0,1.08-3.57A30.67,30.67,0,0,0,76,32.94c.08-1.23.13-2.45.12-3.65A25.25,25.25,0,0,0,75.93,25.85Zm2.64-1.61c-.19,1.45-.28,2.81-.33,4.15s0,2.63,0,3.94a34.24,34.24,0,0,0,.35,3.9c.22,1.31.61,2.63,1,4l-.34,1.23a17.86,17.86,0,0,1-1.14,3.63c-.51,1.13-1.19,2.17-1.81,3.25l-.39.68-.64.44c-.83.56-1.67,1.09-2.51,1.63s-1.69,1.06-2.54,1.58L68,54.05,66.2,52.36a4.12,4.12,0,0,0-1.35-1,4.64,4.64,0,0,0-2.06,0,9.8,9.8,0,0,0-2.6.92,16.61,16.61,0,0,0-2.53,1.56l-1.38,1-1.06-.6L50,51.3l-.12-.06c-1.24-.83-2.47-1.65-3.72-2.44s-2.51-1.58-3.77-2.35-2.55-1.51-3.84-2.23-2.6-1.41-3.9-2.12l-.59-.31L34,41.06q-.18-2.79-.58-5.57c-.28-1.85-.58-3.7-1-5.55s-.92-3.69-1.54-5.53c-.32-.92-.64-1.84-1-2.76a27.94,27.94,0,0,0-1.27-2.74h0L29,16l.68-.69,9.67-9.82h0l2-2.6L43.9,4.33C55.84,11.06,67.38,17.83,78.57,24.24Z" transform="translate(0 -2.89)"/><path class="cls-2" d="M70,40.36c-1,.45-2,.9-3,1.33l-.62.27-.77-.37a4.34,4.34,0,0,0-2.35-.16,12.49,12.49,0,0,0-2.81.85,27,27,0,0,0-2.78,1.42,27.92,27.92,0,0,0-2.56,1.74l-1.44,1.12-1.91-1.51C50.45,44,49,43,47.63,41.9a17.41,17.41,0,0,0-2.17-1.5,17.44,17.44,0,0,0-2.62-1L41.35,36a7.27,7.27,0,0,1-1.1-4.26,38,38,0,0,1,.65-4.31,29.79,29.79,0,0,1,1.32-4.33A21.31,21.31,0,0,1,44.5,18.7h0L44.3,17l1.9.53,26.14,7.37h0l2.41,2-.2.87L73.11,34h0l.06.36-.21.42C72,36.63,71,38.5,70,40.36ZM68,38c.85-1.51,1.74-3,2.66-4.53l-.15.78h0l-2.76-5.84L70,31.28h0L45.32,19.85,47,18.63h0a20.87,20.87,0,0,1,2.54,4.21,30.38,30.38,0,0,1,1.58,4.24,35.7,35.7,0,0,1,.91,4.27,7.28,7.28,0,0,1-.83,4.32l-1.49-3.39a17.25,17.25,0,0,0,1.11,2.59A19.63,19.63,0,0,0,52.4,37c1.09,1.37,2.15,2.76,3.27,4.1l-3.35-.38a36.4,36.4,0,0,1,3.43-1.36,31,31,0,0,1,3.52-1,17.68,17.68,0,0,1,3.79-.51,7.84,7.84,0,0,1,4.21,1l-1.39-.1C66.57,38.44,67.27,38.23,68,38Z" transform="translate(0 -2.89)"/><path class="cls-1" d="M128.71,187.47H35.38l29-11.43S70.07,158,82.05,157s5.27-22.85,24.82-18.09,21.84,20,21.84,20,10-7.34,14.45,3.94,13.53,4.62,16.82,16.05,9.17,8.57,9.17,8.57Z" transform="translate(0 -2.89)"/><path class="cls-2" d="M128.71,188.09c-7.78-.12-15.55-.32-23.33-.31l-5.83,0-5.84,0-11.66.12c-7.78.11-15.56.19-23.34.44s-15.55.6-23.33,1.21l-10.73.84,10-4.88h0c2.3-1.27,4.6-2.51,6.94-3.69s4.65-2.38,7-3.52c4.69-2.29,9.39-4.53,14.14-6.68l-2.8,3c.19-.67.33-1.12.5-1.66s.34-1,.53-1.53c.37-1,.77-2,1.2-3a42.51,42.51,0,0,1,3.08-5.79,32.47,32.47,0,0,1,4.34-5.44,22.09,22.09,0,0,1,6.33-4.39,18.39,18.39,0,0,1,4-1.27c.34-.07.7-.11,1-.16s.8-.1.77-.11a1.17,1.17,0,0,1,.26,0c.08,0,.12-.06.18-.07a1.07,1.07,0,0,0,.5-.3,4.51,4.51,0,0,0,.7-.89,27.74,27.74,0,0,0,2-4.28,33.1,33.1,0,0,1,3.11-6.19,15.37,15.37,0,0,1,6.95-5.85,17.25,17.25,0,0,1,8.42-1,29.41,29.41,0,0,1,6.74,1.7l1.55.57,1.52.7a25.34,25.34,0,0,1,3,1.57,27.88,27.88,0,0,1,9.55,9.27,23,23,0,0,1,2.61,6,17.76,17.76,0,0,1,.6,6.36h0l-1-.4a11.77,11.77,0,0,1,3-2.53,10.76,10.76,0,0,1,3.9-1.5,7,7,0,0,1,1.13-.11,4.68,4.68,0,0,1,1.18,0c.4,0,.8.09,1.2.16l1.18.39c.19.07.39.13.58.21l.54.3c.35.2.71.42,1.06.64a19.08,19.08,0,0,1,1.79,1.58c.47.58,1,1.18,1.4,1.79s.71,1.24,1.06,1.88c.2.37.29.48.42.71s.24.39.35.6a6.75,6.75,0,0,0,.75,1.07,7.88,7.88,0,0,0,1.63,1.58c.29.21.64.37,1,.58s.72.36,1.21.52l3.23,1.21a15.82,15.82,0,0,1,4.06,2.34,16.27,16.27,0,0,1,1.78,1.84,13.6,13.6,0,0,1,1.32,2.07,16.9,16.9,0,0,1,.89,2.1c.21.69.4,1.41.58,2.06a22,22,0,0,0,1.69,5.56,5.94,5.94,0,0,0,1.35,1.88,3.07,3.07,0,0,0,.92.56,2.81,2.81,0,0,0,.56.18,2.5,2.5,0,0,1,.53.1h0l.6,2.65A26.2,26.2,0,0,1,159,190.05c-3.37-.09-6.74-.29-10.11-.57s-6.74-.62-10.11-.87S132.08,188.16,128.71,188.09Zm0-1.25c3.37-.07,6.74-.26,10.11-.52s6.74-.6,10.11-.87,6.74-.48,10.11-.57a26.2,26.2,0,0,1,10.11,1.19l4.59,1.65-4,1h0a4.94,4.94,0,0,1-1.17.59,5.34,5.34,0,0,1-1.19.31,6.82,6.82,0,0,1-2.5-.13,9,9,0,0,1-4.12-2.44,19.56,19.56,0,0,1-4.29-7.08,8.18,8.18,0,0,0-2.61-3.78,9.17,9.17,0,0,0-2.07-1.05c-.94-.4-2-.72-3.35-1.31-.61-.24-1.31-.65-2-1a15.31,15.31,0,0,1-2-1.38,13.23,13.23,0,0,1-1.71-1.72,10.48,10.48,0,0,1-1.34-1.91,13.14,13.14,0,0,1-1-2l-.39-1-.32-.89c-.16-.43-.31-.86-.44-1.31l-.54-1.15-.62-1c-.12-.12-.24-.24-.36-.38l-.18-.22-.21-.16c-.14-.1-.28-.22-.43-.34l-.51-.26a1.64,1.64,0,0,0-.56-.22,5,5,0,0,0-.62-.18,13.36,13.36,0,0,0-6.24.63l-1.08.34.11-.74h0a30.05,30.05,0,0,0-7.15-8.17,30.71,30.71,0,0,0-8.76-4.77,20.24,20.24,0,0,0-2.36-.74l-1.19-.37-1.23-.25a25,25,0,0,0-4.6-.73,6.8,6.8,0,0,0-3,.39,2.54,2.54,0,0,0-.82.54,4.81,4.81,0,0,0-.88,1.08,16.11,16.11,0,0,0-1,1.82c-.34.69-.68,1.52-1,2.39a38.2,38.2,0,0,1-3,6.17,15.37,15.37,0,0,1-3.11,3.45,12.48,12.48,0,0,1-4.6,2.38c-.41.1-.83.22-1.23.29l-1.18.16-1,.11a8.67,8.67,0,0,0-1.57.41c-2.12.8-4.44,2.85-6.39,5.48a36.39,36.39,0,0,0-2.74,4.25c-.42.76-.82,1.53-1.19,2.31l-.55,1.18L69,177.46l-1,2.41-1.74.59q-7.41,2.47-14.9,4.74c-2.49.76-5,1.47-7.52,2.18s-5,1.39-7.58,2h0l-.77-4c7.78.61,15.56,1,23.33,1.21s15.56.33,23.34.44l11.66.12,5.84,0,5.83,0C113.16,187.16,120.93,187,128.71,186.84Z" transform="translate(0 -2.89)"/><rect class="cls-3" x="125.58" y="159.67" width="4.56" height="3.38"/><path class="cls-2" d="M130.54,166.34a5.56,5.56,0,0,1-2.32.46,11,11,0,0,1-2.64-.14l-.83-.16.11-.56a13.67,13.67,0,0,0,.09-3.38l0-.6.66,0c1.52-.05,3-.16,4.56-.32l1.05-.12-.1,1.07C131,163.92,130.73,165.22,130.54,166.34Zm-.81-.8c-.18-1.14-.43-2.09-.55-3l1,1q-2.28-.26-4.56-.33l.63-.63a14.17,14.17,0,0,0,.08,3.38l-.71-.72a6.31,6.31,0,0,1,1.92-.15A8.56,8.56,0,0,1,129.73,165.54Z" transform="translate(0 -2.89)"/><circle class="cls-4" cx="132.8" cy="164.53" r="2.66"/><path class="cls-2" d="M136.28,167.42a3.31,3.31,0,0,1-1.16,2.32,3.74,3.74,0,0,1-2.32.92,3.49,3.49,0,0,1-3.55-3.24,3.53,3.53,0,0,1,.91-2.64,3.68,3.68,0,0,1,2.64-1.17,3.44,3.44,0,0,1,2.6,1.2A3.7,3.7,0,0,1,136.28,167.42Zm-1.64,0a1.66,1.66,0,0,0-.68-1.16,2,2,0,0,0-1.16-.36,1.76,1.76,0,0,0-1.77,1.52,1.83,1.83,0,0,0,1.77,2.07,1.67,1.67,0,0,0,1.43-.64A2,2,0,0,0,134.64,167.42Z" transform="translate(0 -2.89)"/><ellipse class="cls-5" cx="140.36" cy="180.87" rx="3.63" ry="2.59"/><path class="cls-2" d="M145.09,183.76a3.1,3.1,0,0,1-.67,1.71,3.63,3.63,0,0,1-1.26,1,5.81,5.81,0,0,1-2.8.5,6.07,6.07,0,0,1-2.65-.75,3.13,3.13,0,0,1-1.67-2.47,3.24,3.24,0,0,1,1.51-2.73,5.49,5.49,0,0,1,2.81-1,5.38,5.38,0,0,1,3,.67,3.73,3.73,0,0,1,1.24,1.2A3.27,3.27,0,0,1,145.09,183.76Zm-2.2,0c-.11-.6-1.24-1.38-2.53-1.49a3.89,3.89,0,0,0-1.89.27,1.67,1.67,0,0,0-1.06,1.22,1.64,1.64,0,0,0,.9,1.48,3.52,3.52,0,0,0,3.95-.25A1.39,1.39,0,0,0,142.89,183.76Z" transform="translate(0 -2.89)"/><path class="cls-6" d="M81.93,156.78a5.12,5.12,0,0,0-1.4,2.91c-.38,1.39-.91,2.9-.46,4.35a7.08,7.08,0,0,0,2.62,3.6A14.52,14.52,0,0,0,87,169.46c.33.1.63.28,1,.4s.61.11.72.3c.2.35-.32.9-.46,1.18-1.15,2.26.7,4.77,2.07,6.45a12.5,12.5,0,0,0,3.32,2.69,17.86,17.86,0,0,0,4.84,2.17c.6.15,1.35.22,1.6.82.11.25.21.52.32.77a9,9,0,0,0,.76,1.26,4.53,4.53,0,0,0,1.46,1.18c.64.4,1.48-.81,2.14-.46.82.42,5,1.1,5.83,1.43-.55.16-5.77,0-6.29,0-2.15-.13-4.69.12-6.84,0-3.33-.19-5.66-.08-9-.25-2.36-.12-4.73-.14-7.08-.37-1.64-.16-3.27-.38-4.91-.48-2.86-.19-5.71-.21-8.58-.21-3.63,0-7.24-.17-10.87-.17a46.66,46.66,0,0,0-5.42,0c-2,.24-4.06.77-6.09,1.14-1.17.22-2.3.6-3.47.83a6.8,6.8,0,0,0-1.42.24c.46.17,1-.12,1.42-.28a28.5,28.5,0,0,0,3.93-1.81,145.21,145.21,0,0,0,12.36-7.89,34.94,34.94,0,0,0,5.79-4.33,20.46,20.46,0,0,0,2.35-3c1.49-2.25,2.47-4.74,4.19-6.85a25.32,25.32,0,0,1,4-3.92,22.91,22.91,0,0,0,2.9-2.47,3.41,3.41,0,0,1,1.62-1.33,5.26,5.26,0,0,1,1.43-.12" transform="translate(0 -2.89)"/><path class="cls-2" d="M128.71,188.09c-7.78-.12-15.55-.32-23.33-.31l-5.83,0-5.84,0-11.66.12c-7.78.11-15.56.19-23.34.44s-15.55.6-23.33,1.21l-10.73.84,10-4.88h0c2.3-1.27,4.6-2.51,6.94-3.69s4.65-2.38,7-3.52c4.69-2.29,9.39-4.53,14.14-6.68l-2.8,3c.19-.67.33-1.12.5-1.66s.34-1,.53-1.53c.37-1,.77-2,1.2-3a42.51,42.51,0,0,1,3.08-5.79,32.47,32.47,0,0,1,4.34-5.44,22.09,22.09,0,0,1,6.33-4.39,18.39,18.39,0,0,1,4-1.27c.34-.07.7-.11,1-.16s.8-.1.77-.11a1.17,1.17,0,0,1,.26,0c.08,0,.12-.06.18-.07a1.07,1.07,0,0,0,.5-.3,4.51,4.51,0,0,0,.7-.89,27.74,27.74,0,0,0,2-4.28,33.1,33.1,0,0,1,3.11-6.19,15.37,15.37,0,0,1,6.95-5.85,17.25,17.25,0,0,1,8.42-1,29.41,29.41,0,0,1,6.74,1.7l1.55.57,1.52.7a25.34,25.34,0,0,1,3,1.57,27.88,27.88,0,0,1,9.55,9.27,23,23,0,0,1,2.61,6,17.76,17.76,0,0,1,.6,6.36h0l-1-.4a11.77,11.77,0,0,1,3-2.53,10.76,10.76,0,0,1,3.9-1.5,7,7,0,0,1,1.13-.11,4.68,4.68,0,0,1,1.18,0c.4,0,.8.09,1.2.16l1.18.39c.19.07.39.13.58.21l.54.3c.35.2.71.42,1.06.64a19.08,19.08,0,0,1,1.79,1.58c.47.58,1,1.18,1.4,1.79s.71,1.24,1.06,1.88c.2.37.29.48.42.71s.24.39.35.6a6.75,6.75,0,0,0,.75,1.07,7.88,7.88,0,0,0,1.63,1.58c.29.21.64.37,1,.58s.72.36,1.21.52l3.23,1.21a15.82,15.82,0,0,1,4.06,2.34,16.27,16.27,0,0,1,1.78,1.84,13.6,13.6,0,0,1,1.32,2.07,16.9,16.9,0,0,1,.89,2.1c.21.69.4,1.41.58,2.06a22,22,0,0,0,1.69,5.56,5.94,5.94,0,0,0,1.35,1.88,3.07,3.07,0,0,0,.92.56,2.81,2.81,0,0,0,.56.18,2.5,2.5,0,0,1,.53.1h0l.6,2.65A26.2,26.2,0,0,1,159,190.05c-3.37-.09-6.74-.29-10.11-.57s-6.74-.62-10.11-.87S132.08,188.16,128.71,188.09Zm0-1.25c3.37-.07,6.74-.26,10.11-.52s6.74-.6,10.11-.87,6.74-.48,10.11-.57a26.2,26.2,0,0,1,10.11,1.19l4.59,1.65-4,1h0a4.94,4.94,0,0,1-1.17.59,5.34,5.34,0,0,1-1.19.31,6.82,6.82,0,0,1-2.5-.13,9,9,0,0,1-4.12-2.44,19.56,19.56,0,0,1-4.29-7.08,8.18,8.18,0,0,0-2.61-3.78,9.17,9.17,0,0,0-2.07-1.05c-.94-.4-2-.72-3.35-1.31-.61-.24-1.31-.65-2-1a15.31,15.31,0,0,1-2-1.38,13.23,13.23,0,0,1-1.71-1.72,10.48,10.48,0,0,1-1.34-1.91,13.14,13.14,0,0,1-1-2l-.39-1-.32-.89c-.16-.43-.31-.86-.44-1.31l-.54-1.15-.62-1c-.12-.12-.24-.24-.36-.38l-.18-.22-.21-.16c-.14-.1-.28-.22-.43-.34l-.51-.26a1.64,1.64,0,0,0-.56-.22,5,5,0,0,0-.62-.18,13.36,13.36,0,0,0-6.24.63l-1.08.34.11-.74h0a30.05,30.05,0,0,0-7.15-8.17,30.71,30.71,0,0,0-8.76-4.77,20.24,20.24,0,0,0-2.36-.74l-1.19-.37-1.23-.25a25,25,0,0,0-4.6-.73,6.8,6.8,0,0,0-3,.39,2.54,2.54,0,0,0-.82.54,4.81,4.81,0,0,0-.88,1.08,16.11,16.11,0,0,0-1,1.82c-.34.69-.68,1.52-1,2.39a38.2,38.2,0,0,1-3,6.17,15.37,15.37,0,0,1-3.11,3.45,12.48,12.48,0,0,1-4.6,2.38c-.41.1-.83.22-1.23.29l-1.18.16-1,.11a8.67,8.67,0,0,0-1.57.41c-2.12.8-4.44,2.85-6.39,5.48a36.39,36.39,0,0,0-2.74,4.25c-.42.76-.82,1.53-1.19,2.31l-.55,1.18L69,177.46l-1,2.41-1.74.59q-7.41,2.47-14.9,4.74c-2.49.76-5,1.47-7.52,2.18s-5,1.39-7.58,2h0l-.77-4c7.78.61,15.56,1,23.33,1.21s15.56.33,23.34.44l11.66.12,5.84,0,5.83,0C113.16,187.16,120.93,187,128.71,186.84Z" transform="translate(0 -2.89)"/><rect class="cls-7" x="74.57" y="176.9" width="3.97" height="3.97"/><path class="cls-2" d="M78.94,184.16c-1.41.1-2.91.17-4.37.17H74.5l-.5-.57a2.5,2.5,0,0,1-.52-1,3.42,3.42,0,0,1-.09-1,3.9,3.9,0,0,1,.61-2l.33-.52.24-.05,4-.92,1.83-.43L80,179.79C79.73,181.48,79.25,183,78.94,184.16Zm-.8-.81c-.32-1.46-.8-2.61-1.09-3.56l1.49,1.49-4-.92.57-.57a4,4,0,0,1,.61,2,3.44,3.44,0,0,1-.1,1,2.47,2.47,0,0,1-.51,1l-.57-.57C75.76,183.18,76.9,183.26,78.14,183.35Z" transform="translate(0 -2.89)"/><ellipse class="cls-8" cx="70.94" cy="176.22" rx="2.96" ry="2.2"/><path class="cls-2" d="M74.74,179.11a2.86,2.86,0,0,1-1.43,2.34,4.42,4.42,0,0,1-2.37.57,4.34,4.34,0,0,1-2.27-.74,2.63,2.63,0,0,1-1.26-2.17,2.66,2.66,0,0,1,1.26-2.17,4.42,4.42,0,0,1,2.27-.73,4.25,4.25,0,0,1,2.37.57A2.86,2.86,0,0,1,74.74,179.11Zm-1.69,0c.07-.66-1-1.45-2.11-1.49a3,3,0,0,0-1.61.35,1.44,1.44,0,0,0-.78,1.14,1.47,1.47,0,0,0,.78,1.15,3,3,0,0,0,1.61.34C72.05,180.56,73.12,179.78,73.05,179.11Z" transform="translate(0 -2.89)"/><circle class="cls-14" cx="88.84" cy="181.54" r="1.03"/><circle class="cls-14" cx="120.43" cy="153.56" r="1.03"/><circle class="cls-14" cx="118.13" cy="149.57" r="1.03"/><circle class="cls-14" cx="116.94" cy="153.18" r="1.03"/><circle class="cls-14" cx="150.89" cy="175.49" r="1.03"/><circle class="cls-14" cx="153.78" cy="178.42" r="1.03"/><circle class="cls-14" cx="149.92" cy="179.45" r="1.03"/><circle class="cls-14" cx="86.27" cy="178.42" r="1.03"/><circle class="cls-14" cx="82.97" cy="181.54" r="1.03"/><polygon class="cls-15" points="124 84.2 118.12 124.52 135.13 85.01 124 84.2"/><polygon class="cls-15" points="125.14 125.48 141.43 100.8 148.95 110.57 125.14 125.48"/></g></g></svg>