<svg xmlns="http://www.w3.org/2000/svg" width="1319.509" height="3874.464" viewBox="0 0 1319.509 3874.464">
  <g id="Group_181" data-name="Group 181" transform="translate(-438.63 -548.479)">
    <path id="Path_1096" data-name="Path 1096" d="M-2385.992,108.347l82.633-6.031v38.2l-82.633-9.046Z" transform="translate(275.12 -1144.196) rotate(-104)" fill="#c6c6c6"/>
    <path id="Path_1156" data-name="Path 1156" d="M-2385.992,108.347l82.633-6.031v38.2l-82.633-9.046Z" transform="translate(961.619 -1355.357) rotate(-87)" fill="#c6c6c6"/>
    <path id="Path_1160" data-name="Path 1160" d="M-2385.992,108.347l82.633-6.031v38.2l-82.633-9.046Z" transform="translate(1595.725 -1693.854) rotate(-74)" fill="#c6c6c6"/>
    <path id="Path_1159" data-name="Path 1159" d="M-2385.992,108.347l82.633-6.031v38.2l-82.633-9.046Z" transform="translate(1565.725 -1598.854) rotate(-74)" fill="#c6c6c6"/>
    <path id="Path_1157" data-name="Path 1157" d="M-2385.992,108.347l82.633-6.031v38.2l-82.633-9.046Z" transform="translate(974.619 -1462.357) rotate(-87)" fill="#c6c6c6"/>
    <path id="Path_1158" data-name="Path 1158" d="M-2385.992,108.347l82.633-6.031v38.2l-82.633-9.046Z" transform="translate(349.604 3040.922) rotate(109)" fill="#c6c6c6"/>
    <path id="Path_372" data-name="Path 372" d="M-2385.992,108.347l82.633-6.031v38.2l-82.633-9.046Z" transform="matrix(-0.602, 0.799, -0.799, -0.602, -769.94, 4680.07)" fill="#c6c6c6"/>
    <path id="Path_1062" data-name="Path 1062" d="M-2385.992,108.347l82.633-6.031v38.2l-82.633-9.046Z" transform="translate(32.734 5137.861) rotate(104)" fill="#c6c6c6"/>
    <path id="Path_1063" data-name="Path 1063" d="M-2385.992,108.347l82.633-6.031v38.2l-82.633-9.046Z" transform="translate(-217.88 711.804) rotate(-104)" fill="#c6c6c6"/>
    <path id="Path_1138" data-name="Path 1138" d="M-2385.992,108.347l82.633-6.031v38.2l-82.633-9.046Z" transform="matrix(-0.574, -0.819, 0.819, -0.574, -933.152, 1214.454)" fill="#c6c6c6"/>
    <path id="Path_1139" data-name="Path 1139" d="M-2385.992,108.347l82.633-6.031v38.2l-82.633-9.046Z" transform="translate(-1171.633 1579.377) rotate(-135)" fill="#c6c6c6"/>
    <path id="Path_1140" data-name="Path 1140" d="M-2385.992,108.347l82.633-6.031v38.2l-82.633-9.046Z" transform="matrix(-0.809, -0.588, 0.588, -0.809, -1320.092, 1942.52)" fill="#c6c6c6"/>
    <path id="Path_1141" data-name="Path 1141" d="M-2385.992,108.347l82.633-6.031v38.2l-82.633-9.046Z" transform="translate(-1351.1 2217.27) rotate(-150)" fill="#c6c6c6"/>
    <path id="Path_1142" data-name="Path 1142" d="M-2385.992,108.347l82.633-6.031v38.2l-82.633-9.046Z" transform="translate(3017.466 4218.324) rotate(25)" fill="#c6c6c6"/>
    <path id="Path_1097" data-name="Path 1097" d="M-2385.992,108.347l82.633-6.031v38.2l-82.633-9.046Z" transform="translate(-288.33 -747.382) rotate(-120)" fill="#c6c6c6"/>
    <path id="Path_1098" data-name="Path 1098" d="M-2385.992,108.347l82.633-6.031v38.2l-82.633-9.046Z" transform="translate(-221.33 -635.382) rotate(-120)" fill="#c6c6c6"/>
    <path id="Path_1126" data-name="Path 1126" d="M-2385.992,108.347l82.633-6.031v38.2l-82.633-9.046Z" transform="matrix(-0.643, -0.766, 0.766, -0.643, -471.981, -286.622)" fill="#c6c6c6"/>
    <path id="Path_1127" data-name="Path 1127" d="M-2385.992,108.347l82.633-6.031v38.2l-82.633-9.046Z" transform="translate(-575.436 7.192) rotate(-137)" fill="#c6c6c6"/>
    <path id="Path_1128" data-name="Path 1128" d="M-2385.992,108.347l82.633-6.031v38.2l-82.633-9.046Z" transform="matrix(-0.766, -0.643, 0.643, -0.766, -559.014, 176.34)" fill="#c6c6c6"/>
    <path id="Path_1129" data-name="Path 1129" d="M-2385.992,108.347l82.633-6.031v38.2l-82.633-9.046Z" transform="matrix(-0.848, -0.53, 0.53, -0.848, -640.582, 510.936)" fill="#c6c6c6"/>
    <path id="Path_1130" data-name="Path 1130" d="M-2385.992,108.347l82.633-6.031v38.2l-82.633-9.046Z" transform="matrix(-0.777, -0.629, 0.629, -0.777, -389.408, 329.264)" fill="#c6c6c6"/>
    <path id="Path_1099" data-name="Path 1099" d="M-2385.992,108.347l82.633-6.031v38.2l-82.633-9.046Z" transform="translate(304.67 -181.382) rotate(-120)" fill="#c6c6c6"/>
    <path id="Path_1100" data-name="Path 1100" d="M-2385.992,108.347l82.633-6.031v38.2l-82.633-9.046Z" transform="translate(365.67 -80.382) rotate(-120)" fill="#c6c6c6"/>
    <path id="Path_1101" data-name="Path 1101" d="M-2385.992,108.347l82.633-6.031v38.2l-82.633-9.046Z" transform="matrix(-0.259, -0.966, 0.966, -0.259, 964.032, -238.899)" fill="#c6c6c6"/>
    <path id="Path_1102" data-name="Path 1102" d="M-2385.992,108.347l82.633-6.031v38.2l-82.633-9.046Z" transform="matrix(-0.017, -1, 1, -0.017, 1546.84, -231.74)" fill="#c6c6c6"/>
    <path id="Path_1103" data-name="Path 1103" d="M-2385.992,108.347l82.633-6.031v38.2l-82.633-9.046Z" transform="translate(2030.357 -99.304) rotate(-79)" fill="#c6c6c6"/>
    <path id="Path_1104" data-name="Path 1104" d="M-2385.992,108.347l82.633-6.031v38.2l-82.633-9.046Z" transform="matrix(0.438, -0.899, 0.899, 0.438, 2580.867, 169.855)" fill="#c6c6c6"/>
    <path id="Path_1105" data-name="Path 1105" d="M-2385.992,108.347l82.633-6.031v38.2l-82.633-9.046Z" transform="matrix(0.602, -0.799, 0.799, 0.602, 2914.251, 484.85)" fill="#c6c6c6"/>
    <path id="Path_1106" data-name="Path 1106" d="M-2385.992,108.347l82.633-6.031v38.2l-82.633-9.046Z" transform="translate(3274.902 946.551) rotate(-39)" fill="#c6c6c6"/>
    <path id="Path_1131" data-name="Path 1131" d="M-2385.992,108.347l82.633-6.031v38.2l-82.633-9.046Z" transform="matrix(0.995, -0.105, 0.105, 0.995, 3614.295, 2199.626)" fill="#c6c6c6"/>
    <path id="Path_1133" data-name="Path 1133" d="M-2385.992,108.347l82.633-6.031v38.2l-82.633-9.046Z" transform="matrix(1, 0.017, -0.017, 1, 3510.593, 2484.985)" fill="#c6c6c6"/>
    <path id="Path_1134" data-name="Path 1134" d="M-2385.992,108.347l82.633-6.031v38.2l-82.633-9.046Z" transform="matrix(1, 0.017, -0.017, 1, 3382.593, 2484.985)" fill="#c6c6c6"/>
    <path id="Path_1135" data-name="Path 1135" d="M-2385.992,108.347l82.633-6.031v38.2l-82.633-9.046Z" transform="translate(3250.166 2365.292) rotate(-2)" fill="#c6c6c6"/>
    <path id="Path_1136" data-name="Path 1136" d="M-2385.992,108.347l82.633-6.031v38.2l-82.633-9.046Z" transform="matrix(0.966, -0.259, 0.259, 0.966, 3012.514, 1862.336)" fill="#c6c6c6"/>
    <path id="Path_1137" data-name="Path 1137" d="M-2385.992,108.347l82.633-6.031v38.2l-82.633-9.046Z" transform="translate(2571.213 1290.006) rotate(-32)" fill="#c6c6c6"/>
    <path id="Path_1132" data-name="Path 1132" d="M-2385.992,108.347l82.633-6.031v38.2l-82.633-9.046Z" transform="matrix(0.966, -0.259, 0.259, 0.966, 3646.514, 1833.336)" fill="#c6c6c6"/>
    <path id="Path_1064" data-name="Path 1064" d="M-2385.992,108.347l82.633-6.031v38.2l-82.633-9.046Z" transform="translate(-1259.272 2615.702) rotate(-158)" fill="#c6c6c6"/>
    <path id="Path_1065" data-name="Path 1065" d="M-2385.992,108.347l82.633-6.031v38.2l-82.633-9.046Z" transform="translate(-1161.272 2662.702) rotate(-158)" fill="#c6c6c6"/>
    <path id="Path_1066" data-name="Path 1066" d="M-2385.992,108.347l82.633-6.031v38.2l-82.633-9.046Z" transform="translate(3223.468 4579.985) rotate(31)" fill="#c6c6c6"/>
    <path id="Path_1068" data-name="Path 1068" d="M-2385.992,108.347l82.633-6.031v38.2l-82.633-9.046Z" transform="translate(3577.468 4902.985) rotate(31)" fill="#c6c6c6"/>
    <path id="Path_1069" data-name="Path 1069" d="M-2385.992,108.347l82.633-6.031v38.2l-82.633-9.046Z" transform="translate(3669.468 4962.985) rotate(31)" fill="#c6c6c6"/>
    <path id="Path_1070" data-name="Path 1070" d="M-2385.992,108.347l82.633-6.031v38.2l-82.633-9.046Z" transform="matrix(0.588, 0.809, -0.809, 0.588, 3160.548, 5769.977)" fill="#c6c6c6"/>
    <path id="Path_1071" data-name="Path 1071" d="M-2385.992,108.347l82.633-6.031v38.2l-82.633-9.046Z" transform="translate(2375.896 6302.729) rotate(77)" fill="#c6c6c6"/>
    <path id="Path_1072" data-name="Path 1072" d="M-2385.992,108.347l82.633-6.031v38.2l-82.633-9.046Z" transform="matrix(-0.174, 0.985, -0.985, -0.174, 1444.577, 6492.598)" fill="#c6c6c6"/>
    <path id="Path_1073" data-name="Path 1073" d="M-2385.992,108.347l82.633-6.031v38.2l-82.633-9.046Z" transform="translate(472.687 6291.178) rotate(124)" fill="#c6c6c6"/>
    <path id="Path_1074" data-name="Path 1074" d="M-2385.992,108.347l82.633-6.031v38.2l-82.633-9.046Z" transform="translate(136.49 6203.135) rotate(132)" fill="#c6c6c6"/>
    <path id="Path_1067" data-name="Path 1067" d="M-2385.992,108.347l82.633-6.031v38.2l-82.633-9.046Z" transform="matrix(0.695, 0.719, -0.719, 0.695, 2956.242, 5139.737)" fill="#c6c6c6"/>
    <path id="Path_1143" data-name="Path 1143" d="M-2385.992,108.347l82.633-6.031v38.2l-82.633-9.046Z" transform="matrix(0.695, 0.719, -0.719, 0.695, 3040.242, 5222.737)" fill="#c6c6c6"/>
    <path id="Path_1144" data-name="Path 1144" d="M-2385.992,108.347l82.633-6.031v38.2l-82.633-9.046Z" transform="matrix(0.695, 0.719, -0.719, 0.695, 3121.242, 5312.737)" fill="#c6c6c6"/>
  </g>
</svg>
