<svg xmlns="http://www.w3.org/2000/svg" width="1026.096" height="1978.511" viewBox="0 0 1026.096 1978.511">
  <g id="Group_183" data-name="Group 183" transform="translate(-914.71 -5975.209)">
    <path id="Path_1107" data-name="Path 1107" d="M-2385.992,108.347l82.633-6.031v38.2l-82.633-9.046Z" transform="translate(799.631 8092.772) rotate(121)" fill="#606060"/>
    <path id="Path_1108" data-name="Path 1108" d="M-2385.992,108.347l82.633-6.031v38.2l-82.633-9.046Z" transform="translate(736.631 8186.772) rotate(121)" fill="#606060"/>
    <path id="Path_1109" data-name="Path 1109" d="M-2385.992,108.347l82.633-6.031v38.2l-82.633-9.046Z" transform="translate(677.631 8287.772) rotate(121)" fill="#606060"/>
    <path id="Path_1110" data-name="Path 1110" d="M-2385.992,108.347l82.633-6.031v38.2l-82.633-9.046Z" transform="translate(621.631 8378.772) rotate(121)" fill="#606060"/>
    <path id="Path_1111" data-name="Path 1111" d="M-2385.992,108.347l82.633-6.031v38.2l-82.633-9.046Z" transform="matrix(-0.391, 0.921, -0.921, -0.391, 863.781, 8622.186)" fill="#606060"/>
    <path id="Path_1112" data-name="Path 1112" d="M-2385.992,108.347l82.633-6.031v38.2l-82.633-9.046Z" transform="translate(1057.748 8797.183) rotate(107)" fill="#606060"/>
    <path id="Path_1113" data-name="Path 1113" d="M-2385.992,108.347l82.633-6.031v38.2l-82.633-9.046Z" transform="matrix(-0.07, 0.998, -0.998, -0.07, 1554.718, 8986.894)" fill="#606060"/>
    <path id="Path_1114" data-name="Path 1114" d="M-2385.992,108.347l82.633-6.031v38.2l-82.633-9.046Z" transform="translate(2040.704 9075.42) rotate(82)" fill="#606060"/>
    <path id="Path_1115" data-name="Path 1115" d="M-2385.992,108.347l82.633-6.031v38.2l-82.633-9.046Z" transform="translate(2056.704 9207.42) rotate(82)" fill="#606060"/>
    <path id="Path_1116" data-name="Path 1116" d="M-2385.992,108.347l82.633-6.031v38.2l-82.633-9.046Z" transform="matrix(0.326, 0.946, -0.946, 0.326, 2514.307, 9200.866)" fill="#606060"/>
    <path id="Path_1117" data-name="Path 1117" d="M-2385.992,108.347l82.633-6.031v38.2l-82.633-9.046Z" transform="translate(2927.069 9132.297) rotate(61)" fill="#606060"/>
    <path id="Path_1118" data-name="Path 1118" d="M-2385.992,108.347l82.633-6.031v38.2l-82.633-9.046Z" transform="translate(2387.896 9516.729) rotate(77)" fill="#606060"/>
    <path id="Path_1119" data-name="Path 1119" d="M-2385.992,108.347l82.633-6.031v38.2l-82.633-9.046Z" transform="translate(1050.322 9634.261) rotate(110)" fill="#606060"/>
    <path id="Path_1120" data-name="Path 1120" d="M-2385.992,108.347l82.633-6.031v38.2l-82.633-9.046Z" transform="translate(112.073 9224.249) rotate(135)" fill="#606060"/>
    <path id="Path_1121" data-name="Path 1121" d="M-2385.992,108.347l82.633-6.031v38.2l-82.633-9.046Z" transform="translate(-169.723 9096.662) rotate(142)" fill="#606060"/>
    <path id="Path_1122" data-name="Path 1122" d="M-2385.992,108.347l82.633-6.031v38.2l-82.633-9.046Z" transform="translate(-347.723 9222.662) rotate(142)" fill="#606060"/>
    <path id="Path_1153" data-name="Path 1153" d="M-2385.992,108.347l82.633-6.031v38.2l-82.633-9.046Z" transform="translate(-824 8900.425) rotate(154)" fill="#606060"/>
    <path id="Path_1155" data-name="Path 1155" d="M-2385.992,108.347l82.633-6.031v38.2l-82.633-9.046Z" transform="matrix(0.921, -0.391, 0.391, 0.921, 3439.001, 6695.56)" fill="#606060"/>
    <path id="Path_1154" data-name="Path 1154" d="M-2385.992,108.347l82.633-6.031v38.2l-82.633-9.046Z" transform="translate(-258.723 9159.662) rotate(142)" fill="#606060"/>
    <path id="Path_1123" data-name="Path 1123" d="M-2385.992,108.347l82.633-6.031v38.2l-82.633-9.046Z" transform="translate(-630.724 9357.662) rotate(142)" fill="#606060"/>
    <path id="Path_1124" data-name="Path 1124" d="M-2385.992,108.347l82.633-6.031v38.2l-82.633-9.046Z" transform="translate(-957.069 9079.421) rotate(152)" fill="#606060"/>
    <path id="Path_1125" data-name="Path 1125" d="M-2385.992,108.347l82.633-6.031v38.2l-82.633-9.046Z" transform="translate(-1053.069 9125.421) rotate(152)" fill="#606060"/>
  </g>
</svg>
