<svg xmlns="http://www.w3.org/2000/svg" width="1232.171" height="1180.652" viewBox="0 0 1232.171 1180.652">
  <g id="Group_182" data-name="Group 182" transform="translate(38.781 -4362.527)">
    <path id="Path_1075" data-name="Path 1075" d="M-2385.992,108.347l82.633-6.031v38.2l-82.633-9.046Z" transform="translate(1411.939 6283.39) rotate(56)" fill="#c6c6c6"/>
    <path id="Path_1076" data-name="Path 1076" d="M-2385.992,108.347l82.633-6.031v38.2l-82.633-9.046Z" transform="translate(1473.939 6379.39) rotate(56)" fill="#c6c6c6"/>
    <path id="Path_1077" data-name="Path 1077" d="M-2385.992,108.347l82.633-6.031v38.2l-82.633-9.046Z" transform="translate(1535.939 6469.39) rotate(56)" fill="#c6c6c6"/>
    <path id="Path_1078" data-name="Path 1078" d="M-2385.992,108.347l82.633-6.031v38.2l-82.633-9.046Z" transform="translate(1878.018 6313.443) rotate(47)" fill="#c6c6c6"/>
    <path id="Path_1079" data-name="Path 1079" d="M-2385.992,108.347l82.633-6.031v38.2l-82.633-9.046Z" transform="matrix(0.799, 0.602, -0.602, 0.799, 2219.766, 6081.555)" fill="#c6c6c6"/>
    <path id="Path_1080" data-name="Path 1080" d="M-2385.992,108.347l82.633-6.031v38.2l-82.633-9.046Z" transform="translate(2395.693 6004.635) rotate(33)" fill="#c6c6c6"/>
    <path id="Path_1081" data-name="Path 1081" d="M-2385.992,108.347l82.633-6.031v38.2l-82.633-9.046Z" transform="translate(2493.693 6064.635) rotate(33)" fill="#c6c6c6"/>
    <path id="Path_1145" data-name="Path 1145" d="M-2385.992,108.347l82.633-6.031v38.2l-82.633-9.046Z" transform="translate(2583.693 6125.635) rotate(33)" fill="#c6c6c6"/>
    <path id="Path_1146" data-name="Path 1146" d="M-2385.992,108.347l82.633-6.031v38.2l-82.633-9.046Z" transform="translate(-1451.195 4214.712) rotate(-156)" fill="#c6c6c6"/>
    <path id="Path_1148" data-name="Path 1148" d="M-2385.992,108.347l82.633-6.031v38.2l-82.633-9.046Z" transform="translate(-1487.982 4801.881) rotate(-170)" fill="#c6c6c6"/>
    <path id="Path_1147" data-name="Path 1147" d="M-2385.992,108.347l82.633-6.031v38.2l-82.633-9.046Z" transform="translate(-1462.406 3976.93) rotate(-151)" fill="#c6c6c6"/>
    <path id="Path_1082" data-name="Path 1082" d="M-2385.992,108.347l82.633-6.031v38.2l-82.633-9.046Z" transform="matrix(0.998, 0.07, -0.07, 0.998, 3288.59, 5140.898)" fill="#c6c6c6"/>
    <path id="Path_1083" data-name="Path 1083" d="M-2385.992,108.347l82.633-6.031v38.2l-82.633-9.046Z" transform="translate(2981.402 3748.791) rotate(-31)" fill="#c6c6c6"/>
    <path id="Path_1090" data-name="Path 1090" d="M-2385.992,108.347l82.633-6.031v38.2l-82.633-9.046Z" transform="matrix(-0.438, -0.899, 0.899, -0.438, -309.808, 3153.304)" fill="#c6c6c6"/>
    <path id="Path_1152" data-name="Path 1152" d="M-2385.992,107.532l71.457-5.215v33.029l-71.457-7.823Z" transform="matrix(0.545, 0.839, -0.839, 0.545, 2159.09, 7034.947)" fill="#c6c6c6"/>
    <path id="Path_1091" data-name="Path 1091" d="M-2385.992,108.347l82.633-6.031v38.2l-82.633-9.046Z" transform="translate(463.903 2989.058) rotate(-97)" fill="#c6c6c6"/>
    <path id="Path_1092" data-name="Path 1092" d="M-2385.992,108.347l82.633-6.031v38.2l-82.633-9.046Z" transform="matrix(0.454, -0.891, 0.891, 0.454, 1814.435, 3265.218)" fill="#c6c6c6"/>
    <path id="Path_1093" data-name="Path 1093" d="M-2385.992,108.347l82.633-6.031v38.2l-82.633-9.046Z" transform="translate(2372.239 3756.671) rotate(-45)" fill="#c6c6c6"/>
    <path id="Path_1085" data-name="Path 1085" d="M-2385.992,108.347l82.633-6.031v38.2l-82.633-9.046Z" transform="translate(1173.619 2560.644) rotate(-87)" fill="#c6c6c6"/>
    <path id="Path_1086" data-name="Path 1086" d="M-2385.992,108.347l82.633-6.031v38.2l-82.633-9.046Z" transform="translate(2556.939 6685.39) rotate(56)" fill="#c6c6c6"/>
    <path id="Path_1087" data-name="Path 1087" d="M-2385.992,108.347l82.633-6.031v38.2l-82.633-9.046Z" transform="matrix(0.914, 0.407, -0.407, 0.914, 3253.508, 5576.208)" fill="#c6c6c6"/>
    <path id="Path_1088" data-name="Path 1088" d="M-2385.992,108.347l82.633-6.031v38.2l-82.633-9.046Z" transform="matrix(0.978, -0.208, 0.208, 0.978, 3228.352, 4118.213)" fill="#c6c6c6"/>
    <path id="Path_1089" data-name="Path 1089" d="M-2385.992,108.347l82.633-6.031v38.2l-82.633-9.046Z" transform="matrix(0.719, -0.695, 0.695, 0.719, 2472.433, 3044.373)" fill="#c6c6c6"/>
    <path id="Path_1149" data-name="Path 1149" d="M-2385.992,108.347l82.633-6.031v38.2l-82.633-9.046Z" transform="matrix(0.342, -0.94, 0.94, 0.342, 1492.991, 2599.659)" fill="#c6c6c6"/>
    <path id="Path_1150" data-name="Path 1150" d="M-2385.992,108.347l82.633-6.031v38.2l-82.633-9.046Z" transform="matrix(0.208, -0.978, 0.978, 0.208, 1141.881, 2625.778)" fill="#c6c6c6"/>
    <path id="Path_1151" data-name="Path 1151" d="M-2385.992,108.347l82.633-6.031v38.2l-82.633-9.046Z" transform="translate(712.644 2699.975) rotate(-88)" fill="#c6c6c6"/>
    <path id="Path_1084" data-name="Path 1084" d="M-2385.992,108.347l82.633-6.031v38.2l-82.633-9.046Z" transform="translate(2693.239 3252.671) rotate(-45)" fill="#c6c6c6"/>
  </g>
</svg>
