<svg xmlns="http://www.w3.org/2000/svg" width="101.593" height="129.118" viewBox="0 0 101.593 129.118">
  <g id="Layer_2" data-name="Layer 2" transform="translate(0 6.524)">
    <g id="Layer_1" data-name="Layer 1" transform="translate(0 -6.524)">
      <ellipse id="Ellipse_108" data-name="Ellipse 108" cx="40.661" cy="14.302" rx="40.661" ry="14.302" transform="translate(10.236 100.514)" fill="#4d4d4d"/>
      <ellipse id="Ellipse_109" data-name="Ellipse 109" cx="27.605" cy="7.229" rx="27.605" ry="7.229" transform="translate(27.575 107.587)" fill="#333"/>
      <ellipse id="Ellipse_110" data-name="Ellipse 110" cx="40.489" cy="35.625" rx="40.489" ry="35.625" transform="translate(8.26 77.838) rotate(-73.99)" fill="#e8e97e"/>
      <path id="Path_618" data-name="Path 618" d="M45.059,11.34,68.367,84.149S36.136,96.631,24.811,58.708C24.811,58.708,18.984,28.634,45.059,11.34Z" transform="translate(-6.159 1.988)" fill="#c5c260"/>
      <path id="Path_619" data-name="Path 619" d="M59.42,7.464,82.339,81.407l12.915-11.84L64.948,5.8Z" transform="translate(-15.088 3.395)" fill="#c5c260"/>
      <ellipse id="Ellipse_111" data-name="Ellipse 111" cx="31.753" cy="25.113" rx="31.753" ry="25.113" transform="translate(19.168 73.099) rotate(-73.99)" fill="#e8ea80"/>
      <path id="Path_620" data-name="Path 620" d="M34.232,41.127a39.069,39.069,0,0,1,12.743-19.4A28.522,28.522,0,0,1,57.547,16.38a21.867,21.867,0,0,1,21.994,6.483,28.127,28.127,0,0,1,5.916,10.124,40.253,40.253,0,0,1,.373,22.927,38.691,38.691,0,0,1-12.3,19.48A28.448,28.448,0,0,1,63.09,80.937a22.233,22.233,0,0,1-22.457-6.222,28.873,28.873,0,0,1-6.3-10.258,33.655,33.655,0,0,1-1.947-11.706V51.258c0-.492.075-.985.1-1.492a27.6,27.6,0,0,1,.351-2.932c.187-.97.328-1.94.582-2.887Zm3.835,1.1-.567,2.6c-.187.873-.239,1.761-.373,2.626s-.149,1.761-.224,2.634c0,.44-.082.88-.075,1.321v1.321a35.379,35.379,0,0,0,1.723,10.273,24.665,24.665,0,0,0,5.1,8.863,18.309,18.309,0,0,0,18.473,5.521,24.941,24.941,0,0,0,9.259-4.655A35.5,35.5,0,0,0,83.018,55.138a34.163,34.163,0,0,0-.269-21.174,25.15,25.15,0,0,0-5.424-8.953A18.652,18.652,0,0,0,58.4,19.789a25,25,0,0,0-9.147,4.767A34.99,34.99,0,0,0,38.067,42.223Z" transform="translate(-8.224 0.903)" fill="#231f20"/>
      <path id="Path_621" data-name="Path 621" d="M58.18,30.04,71.46,74.946l-6.23,4.76L51.01,35.5Z" transform="translate(-12.953 -2.76)" fill="#c5c260"/>
      <path id="Path_622" data-name="Path 622" d="M45.21,48.38l10.482,33.8-3.029.791-9.3-28.149Z" transform="translate(-11.01 -7.417)" fill="#c5c260"/>
      <path id="Path_623" data-name="Path 623" d="M79,27.242l4.536-.962s11.639,13.429,8.557,26.859S87.073,63.89,87.073,63.89L85.9,57.175S92.72,41.567,79,27.242Z" transform="translate(-20.06 -1.806)" fill="#fff"/>
      <path id="Path_624" data-name="Path 624" d="M96.737,54.764a47.331,47.331,0,0,1-18.652,25.8,39.669,39.669,0,0,1-15.048,6.155A34.864,34.864,0,0,1,32.7,77.676a39.042,39.042,0,0,1-9.11-13.228,45.555,45.555,0,0,1-3.447-15.474,50.032,50.032,0,0,1,1.641-15.712A46.935,46.935,0,0,1,39.55,7.328,39.542,39.542,0,0,1,54.449.741,35.453,35.453,0,0,1,85.628,9.216a40.46,40.46,0,0,1,9.7,13.429,42.056,42.056,0,0,1,3.686,16.011,45.36,45.36,0,0,1-.425,8.207,57.776,57.776,0,0,1-1.85,7.9Zm-7.461-2.141a37.215,37.215,0,0,0,1.067-6.715,44.476,44.476,0,0,0,.075-6.759,41.989,41.989,0,0,0-2.984-12.974,31.984,31.984,0,0,0-7.356-10.863A27.978,27.978,0,0,0,55.829,7.858a32.827,32.827,0,0,0-12.467,4.976,38.109,38.109,0,0,0-9.915,9.542,42.817,42.817,0,0,0-6.192,12.452A41.206,41.206,0,0,0,25.464,48.7a37.677,37.677,0,0,0,3.26,13.511,33.35,33.35,0,0,0,8,11.087A28.522,28.522,0,0,0,61.8,80.145a32.827,32.827,0,0,0,12.31-5.4,37.9,37.9,0,0,0,9.483-9.7,41.668,41.668,0,0,0,5.67-12.422Z" transform="translate(-5.096 4.873)" fill="#231f20"/>
      <path id="Path_625" data-name="Path 625" d="M119.659,21.49s4.379,6.066-3.939,13.735c0,0,7.968-3.395,9.5,2.723,0,0-.455-9.095,5.76-13.213C130.977,24.735,123.315,29.331,119.659,21.49Z" transform="translate(-29.384 -0.589)" fill="#fff"/>
      <path id="Path_626" data-name="Path 626" d="M0,77.173s6.976.545,7.409,11.116c0,0,2.395-7.737,7.685-5.126,0,0-6.759-5.17-5.969-12.094C9.154,71.07,7.789,79.3,0,77.173Z" transform="translate(0 -13.179)" fill="#fff"/>
    </g>
  </g>
</svg>
